<?xml version="1.0" encoding="utf-8" standalone="no"?>
<!DOCTYPE svg PUBLIC "-//W3C//DTD SVG 1.1//EN"
  "http://www.w3.org/Graphics/SVG/1.1/DTD/svg11.dtd">
<svg xmlns:xlink="http://www.w3.org/1999/xlink" width="460.8pt" height="345.6pt" viewBox="0 0 460.8 345.6" xmlns="http://www.w3.org/2000/svg" version="1.1">
 <metadata>
  <rdf:RDF xmlns:dc="http://purl.org/dc/elements/1.1/" xmlns:cc="http://creativecommons.org/ns#" xmlns:rdf="http://www.w3.org/1999/02/22-rdf-syntax-ns#">
   <cc:Work>
    <dc:type rdf:resource="http://purl.org/dc/dcmitype/StillImage"/>
    <dc:date>2024-02-27T23:13:03.396248</dc:date>
    <dc:format>image/svg+xml</dc:format>
    <dc:creator>
     <cc:Agent>
      <dc:title>Matplotlib v3.5.1, https://matplotlib.org/</dc:title>
     </cc:Agent>
    </dc:creator>
   </cc:Work>
  </rdf:RDF>
 </metadata>
 <defs>
  <style type="text/css">*{stroke-linejoin: round; stroke-linecap: butt}</style>
 </defs>
 <g id="figure_1">
  <g id="patch_1">
   <path d="M 0 345.6 
L 460.8 345.6 
L 460.8 0 
L 0 0 
z
" style="fill: #ffffff"/>
  </g>
  <g id="axes_1">
   <g id="patch_2">
    <path d="M 57.6 307.584 
L 414.72 307.584 
L 414.72 41.472 
L 57.6 41.472 
z
" style="fill: #ffffff"/>
   </g>
   <g id="PolyCollection_1">
    <defs>
     <path id="m5bd5e4407d" d="M 252.290814 -13.706309 
L 220.029186 -13.706309 
L 209.415458 -16.87878 
L 194.700149 -20.051251 
L 176.054767 -23.223722 
L 154.652271 -26.396192 
L 132.730381 -29.568663 
L 113.280002 -32.741134 
L 99.371084 -35.913605 
L 93.312 -39.086076 
L 95.958909 -42.258546 
L 106.462437 -45.431017 
L 122.557804 -48.603488 
L 141.265091 -51.775959 
L 159.701643 -54.94843 
L 175.702799 -58.120901 
L 188.084221 -61.293371 
L 196.563791 -64.465842 
L 201.489299 -67.638313 
L 203.54069 -70.810784 
L 203.513365 -73.983255 
L 202.201808 -77.155726 
L 200.344609 -80.328196 
L 198.582401 -83.500667 
L 197.405748 -86.673138 
L 197.101971 -89.845609 
L 197.72596 -93.01808 
L 199.114498 -96.19055 
L 200.94523 -99.363021 
L 202.823491 -102.535492 
L 204.371709 -105.707963 
L 205.298522 -108.880434 
L 205.434962 -112.052905 
L 204.738138 -115.225375 
L 203.27412 -118.397846 
L 201.19616 -121.570317 
L 198.729324 -124.742788 
L 196.16012 -127.915259 
L 193.818198 -131.08773 
L 192.03611 -134.2602 
L 191.085852 -137.432671 
L 191.110183 -140.605142 
L 192.078686 -143.777613 
L 193.793086 -146.950084 
L 195.945154 -150.122554 
L 198.206243 -153.295025 
L 200.314645 -156.467496 
L 202.131377 -159.639967 
L 203.651672 -162.812438 
L 204.977132 -165.984909 
L 206.264293 -169.157379 
L 207.6676 -172.32985 
L 209.291828 -175.502321 
L 211.164045 -178.674792 
L 213.22913 -181.847263 
L 215.366132 -185.019734 
L 217.416827 -188.192204 
L 219.215584 -191.364675 
L 220.612469 -194.537146 
L 221.48761 -197.709617 
L 221.760137 -200.882088 
L 221.396305 -204.054558 
L 220.418671 -207.227029 
L 218.914183 -210.3995 
L 217.036656 -213.571971 
L 214.999388 -216.744442 
L 213.05553 -219.916913 
L 211.466234 -223.089383 
L 210.459612 -226.261854 
L 210.187656 -229.434325 
L 210.692552 -232.606796 
L 211.895133 -235.779267 
L 213.613356 -238.951738 
L 215.607896 -242.124208 
L 217.640041 -245.296679 
L 219.521214 -248.46915 
L 221.137578 -251.641621 
L 222.445501 -254.814092 
L 223.447002 -257.986562 
L 224.16148 -261.159033 
L 224.607971 -264.331504 
L 224.80345 -267.503975 
L 224.773181 -270.676446 
L 224.5638 -273.848917 
L 224.250384 -277.021387 
L 223.933285 -280.193858 
L 223.725594 -283.366329 
L 223.735136 -286.5388 
L 224.045562 -289.711271 
L 224.700451 -292.883742 
L 225.693609 -296.056212 
L 226.968142 -299.228683 
L 228.425631 -302.401154 
L 229.944369 -305.573625 
L 231.40258 -308.746096 
L 232.700434 -311.918566 
L 233.774865 -315.091037 
L 234.603856 -318.263508 
L 235.200712 -321.435979 
L 235.602008 -324.60845 
L 235.854095 -327.780921 
L 236.465905 -327.780921 
L 236.465905 -327.780921 
L 236.717992 -324.60845 
L 237.119288 -321.435979 
L 237.716144 -318.263508 
L 238.545135 -315.091037 
L 239.619566 -311.918566 
L 240.91742 -308.746096 
L 242.375631 -305.573625 
L 243.894369 -302.401154 
L 245.351858 -299.228683 
L 246.626391 -296.056212 
L 247.619549 -292.883742 
L 248.274438 -289.711271 
L 248.584864 -286.5388 
L 248.594406 -283.366329 
L 248.386715 -280.193858 
L 248.069616 -277.021387 
L 247.7562 -273.848917 
L 247.546819 -270.676446 
L 247.51655 -267.503975 
L 247.712029 -264.331504 
L 248.15852 -261.159033 
L 248.872998 -257.986562 
L 249.874499 -254.814092 
L 251.182422 -251.641621 
L 252.798786 -248.46915 
L 254.679959 -245.296679 
L 256.712104 -242.124208 
L 258.706644 -238.951738 
L 260.424867 -235.779267 
L 261.627448 -232.606796 
L 262.132344 -229.434325 
L 261.860388 -226.261854 
L 260.853766 -223.089383 
L 259.26447 -219.916913 
L 257.320612 -216.744442 
L 255.283344 -213.571971 
L 253.405817 -210.3995 
L 251.901329 -207.227029 
L 250.923695 -204.054558 
L 250.559863 -200.882088 
L 250.83239 -197.709617 
L 251.707531 -194.537146 
L 253.104416 -191.364675 
L 254.903173 -188.192204 
L 256.953868 -185.019734 
L 259.09087 -181.847263 
L 261.155955 -178.674792 
L 263.028172 -175.502321 
L 264.6524 -172.32985 
L 266.055707 -169.157379 
L 267.342868 -165.984909 
L 268.668328 -162.812438 
L 270.188623 -159.639967 
L 272.005355 -156.467496 
L 274.113757 -153.295025 
L 276.374846 -150.122554 
L 278.526914 -146.950084 
L 280.241314 -143.777613 
L 281.209817 -140.605142 
L 281.234148 -137.432671 
L 280.28389 -134.2602 
L 278.501802 -131.08773 
L 276.15988 -127.915259 
L 273.590676 -124.742788 
L 271.12384 -121.570317 
L 269.04588 -118.397846 
L 267.581862 -115.225375 
L 266.885038 -112.052905 
L 267.021478 -108.880434 
L 267.948291 -105.707963 
L 269.496509 -102.535492 
L 271.37477 -99.363021 
L 273.205502 -96.19055 
L 274.59404 -93.01808 
L 275.218029 -89.845609 
L 274.914252 -86.673138 
L 273.737599 -83.500667 
L 271.975391 -80.328196 
L 270.118192 -77.155726 
L 268.806635 -73.983255 
L 268.77931 -70.810784 
L 270.830701 -67.638313 
L 275.756209 -64.465842 
L 284.235779 -61.293371 
L 296.617201 -58.120901 
L 312.618357 -54.94843 
L 331.054909 -51.775959 
L 349.762196 -48.603488 
L 365.857563 -45.431017 
L 376.361091 -42.258546 
L 379.008 -39.086076 
L 372.948916 -35.913605 
L 359.039998 -32.741134 
L 339.589619 -29.568663 
L 317.667729 -26.396192 
L 296.265233 -23.223722 
L 277.619851 -20.051251 
L 262.904542 -16.87878 
L 252.290814 -13.706309 
z
" style="stroke: #3f3f3f; stroke-width: 1.5"/>
    </defs>
    <g clip-path="url(#p31273c044c)">
     <use xlink:href="#m5bd5e4407d" x="0" y="345.6" style="fill: #3274a1; stroke: #3f3f3f; stroke-width: 1.5"/>
    </g>
   </g>
   <g id="matplotlib.axis_1">
    <g id="xtick_1">
     <g id="line2d_1">
      <defs>
       <path id="ma88a92a6ad" d="M 0 0 
L 0 6 
" style="stroke: #000000"/>
      </defs>
      <g>
       <use xlink:href="#ma88a92a6ad" x="236.16" y="307.584" style="stroke: #000000"/>
      </g>
     </g>
    </g>
   </g>
   <g id="matplotlib.axis_2">
    <g id="ytick_1">
     <g id="line2d_2">
      <defs>
       <path id="m7ac4035721" d="M 0 0 
L -6 0 
" style="stroke: #000000"/>
      </defs>
      <g>
       <use xlink:href="#m7ac4035721" x="57.6" y="307.584" style="stroke: #000000"/>
      </g>
     </g>
     <g id="text_1">
      <!-- 0.0 -->
      <g transform="translate(29.696875 311.383219)scale(0.1 -0.1)">
       <defs>
        <path id="DejaVuSans-30" d="M 2034 4250 
Q 1547 4250 1301 3770 
Q 1056 3291 1056 2328 
Q 1056 1369 1301 889 
Q 1547 409 2034 409 
Q 2525 409 2770 889 
Q 3016 1369 3016 2328 
Q 3016 3291 2770 3770 
Q 2525 4250 2034 4250 
z
M 2034 4750 
Q 2819 4750 3233 4129 
Q 3647 3509 3647 2328 
Q 3647 1150 3233 529 
Q 2819 -91 2034 -91 
Q 1250 -91 836 529 
Q 422 1150 422 2328 
Q 422 3509 836 4129 
Q 1250 4750 2034 4750 
z
" transform="scale(0.015625)"/>
        <path id="DejaVuSans-2e" d="M 684 794 
L 1344 794 
L 1344 0 
L 684 0 
L 684 794 
z
" transform="scale(0.015625)"/>
       </defs>
       <use xlink:href="#DejaVuSans-30"/>
       <use xlink:href="#DejaVuSans-2e" x="63.623047"/>
       <use xlink:href="#DejaVuSans-30" x="95.410156"/>
      </g>
     </g>
    </g>
    <g id="ytick_2">
     <g id="line2d_3">
      <g>
       <use xlink:href="#m7ac4035721" x="57.6" y="264.536852" style="stroke: #000000"/>
      </g>
     </g>
     <g id="text_2">
      <!-- 0.5 -->
      <g transform="translate(29.696875 268.336071)scale(0.1 -0.1)">
       <defs>
        <path id="DejaVuSans-35" d="M 691 4666 
L 3169 4666 
L 3169 4134 
L 1269 4134 
L 1269 2991 
Q 1406 3038 1543 3061 
Q 1681 3084 1819 3084 
Q 2600 3084 3056 2656 
Q 3513 2228 3513 1497 
Q 3513 744 3044 326 
Q 2575 -91 1722 -91 
Q 1428 -91 1123 -41 
Q 819 9 494 109 
L 494 744 
Q 775 591 1075 516 
Q 1375 441 1709 441 
Q 2250 441 2565 725 
Q 2881 1009 2881 1497 
Q 2881 1984 2565 2268 
Q 2250 2553 1709 2553 
Q 1456 2553 1204 2497 
Q 953 2441 691 2322 
L 691 4666 
z
" transform="scale(0.015625)"/>
       </defs>
       <use xlink:href="#DejaVuSans-30"/>
       <use xlink:href="#DejaVuSans-2e" x="63.623047"/>
       <use xlink:href="#DejaVuSans-35" x="95.410156"/>
      </g>
     </g>
    </g>
    <g id="ytick_3">
     <g id="line2d_4">
      <g>
       <use xlink:href="#m7ac4035721" x="57.6" y="221.489705" style="stroke: #000000"/>
      </g>
     </g>
     <g id="text_3">
      <!-- 1.0 -->
      <g transform="translate(29.696875 225.288923)scale(0.1 -0.1)">
       <defs>
        <path id="DejaVuSans-31" d="M 794 531 
L 1825 531 
L 1825 4091 
L 703 3866 
L 703 4441 
L 1819 4666 
L 2450 4666 
L 2450 531 
L 3481 531 
L 3481 0 
L 794 0 
L 794 531 
z
" transform="scale(0.015625)"/>
       </defs>
       <use xlink:href="#DejaVuSans-31"/>
       <use xlink:href="#DejaVuSans-2e" x="63.623047"/>
       <use xlink:href="#DejaVuSans-30" x="95.410156"/>
      </g>
     </g>
    </g>
    <g id="ytick_4">
     <g id="line2d_5">
      <g>
       <use xlink:href="#m7ac4035721" x="57.6" y="178.442557" style="stroke: #000000"/>
      </g>
     </g>
     <g id="text_4">
      <!-- 1.5 -->
      <g transform="translate(29.696875 182.241776)scale(0.1 -0.1)">
       <use xlink:href="#DejaVuSans-31"/>
       <use xlink:href="#DejaVuSans-2e" x="63.623047"/>
       <use xlink:href="#DejaVuSans-35" x="95.410156"/>
      </g>
     </g>
    </g>
    <g id="ytick_5">
     <g id="line2d_6">
      <g>
       <use xlink:href="#m7ac4035721" x="57.6" y="135.395409" style="stroke: #000000"/>
      </g>
     </g>
     <g id="text_5">
      <!-- 2.0 -->
      <g transform="translate(29.696875 139.194628)scale(0.1 -0.1)">
       <defs>
        <path id="DejaVuSans-32" d="M 1228 531 
L 3431 531 
L 3431 0 
L 469 0 
L 469 531 
Q 828 903 1448 1529 
Q 2069 2156 2228 2338 
Q 2531 2678 2651 2914 
Q 2772 3150 2772 3378 
Q 2772 3750 2511 3984 
Q 2250 4219 1831 4219 
Q 1534 4219 1204 4116 
Q 875 4013 500 3803 
L 500 4441 
Q 881 4594 1212 4672 
Q 1544 4750 1819 4750 
Q 2544 4750 2975 4387 
Q 3406 4025 3406 3419 
Q 3406 3131 3298 2873 
Q 3191 2616 2906 2266 
Q 2828 2175 2409 1742 
Q 1991 1309 1228 531 
z
" transform="scale(0.015625)"/>
       </defs>
       <use xlink:href="#DejaVuSans-32"/>
       <use xlink:href="#DejaVuSans-2e" x="63.623047"/>
       <use xlink:href="#DejaVuSans-30" x="95.410156"/>
      </g>
     </g>
    </g>
    <g id="ytick_6">
     <g id="line2d_7">
      <g>
       <use xlink:href="#m7ac4035721" x="57.6" y="92.348262" style="stroke: #000000"/>
      </g>
     </g>
     <g id="text_6">
      <!-- 2.5 -->
      <g transform="translate(29.696875 96.14748)scale(0.1 -0.1)">
       <use xlink:href="#DejaVuSans-32"/>
       <use xlink:href="#DejaVuSans-2e" x="63.623047"/>
       <use xlink:href="#DejaVuSans-35" x="95.410156"/>
      </g>
     </g>
    </g>
    <g id="ytick_7">
     <g id="line2d_8">
      <g>
       <use xlink:href="#m7ac4035721" x="57.6" y="49.301114" style="stroke: #000000"/>
      </g>
     </g>
     <g id="text_7">
      <!-- 3.0 -->
      <g transform="translate(29.696875 53.100333)scale(0.1 -0.1)">
       <defs>
        <path id="DejaVuSans-33" d="M 2597 2516 
Q 3050 2419 3304 2112 
Q 3559 1806 3559 1356 
Q 3559 666 3084 287 
Q 2609 -91 1734 -91 
Q 1441 -91 1130 -33 
Q 819 25 488 141 
L 488 750 
Q 750 597 1062 519 
Q 1375 441 1716 441 
Q 2309 441 2620 675 
Q 2931 909 2931 1356 
Q 2931 1769 2642 2001 
Q 2353 2234 1838 2234 
L 1294 2234 
L 1294 2753 
L 1863 2753 
Q 2328 2753 2575 2939 
Q 2822 3125 2822 3475 
Q 2822 3834 2567 4026 
Q 2313 4219 1838 4219 
Q 1578 4219 1281 4162 
Q 984 4106 628 3988 
L 628 4550 
Q 988 4650 1302 4700 
Q 1616 4750 1894 4750 
Q 2613 4750 3031 4423 
Q 3450 4097 3450 3541 
Q 3450 3153 3228 2886 
Q 3006 2619 2597 2516 
z
" transform="scale(0.015625)"/>
       </defs>
       <use xlink:href="#DejaVuSans-33"/>
       <use xlink:href="#DejaVuSans-2e" x="63.623047"/>
       <use xlink:href="#DejaVuSans-30" x="95.410156"/>
      </g>
     </g>
    </g>
    <g id="text_8">
     <!-- Distance (millions of base pairs) -->
     <g transform="translate(23.617187 254.93425)rotate(-90)scale(0.1 -0.1)">
      <defs>
       <path id="DejaVuSans-44" d="M 1259 4147 
L 1259 519 
L 2022 519 
Q 2988 519 3436 956 
Q 3884 1394 3884 2338 
Q 3884 3275 3436 3711 
Q 2988 4147 2022 4147 
L 1259 4147 
z
M 628 4666 
L 1925 4666 
Q 3281 4666 3915 4102 
Q 4550 3538 4550 2338 
Q 4550 1131 3912 565 
Q 3275 0 1925 0 
L 628 0 
L 628 4666 
z
" transform="scale(0.015625)"/>
       <path id="DejaVuSans-69" d="M 603 3500 
L 1178 3500 
L 1178 0 
L 603 0 
L 603 3500 
z
M 603 4863 
L 1178 4863 
L 1178 4134 
L 603 4134 
L 603 4863 
z
" transform="scale(0.015625)"/>
       <path id="DejaVuSans-73" d="M 2834 3397 
L 2834 2853 
Q 2591 2978 2328 3040 
Q 2066 3103 1784 3103 
Q 1356 3103 1142 2972 
Q 928 2841 928 2578 
Q 928 2378 1081 2264 
Q 1234 2150 1697 2047 
L 1894 2003 
Q 2506 1872 2764 1633 
Q 3022 1394 3022 966 
Q 3022 478 2636 193 
Q 2250 -91 1575 -91 
Q 1294 -91 989 -36 
Q 684 19 347 128 
L 347 722 
Q 666 556 975 473 
Q 1284 391 1588 391 
Q 1994 391 2212 530 
Q 2431 669 2431 922 
Q 2431 1156 2273 1281 
Q 2116 1406 1581 1522 
L 1381 1569 
Q 847 1681 609 1914 
Q 372 2147 372 2553 
Q 372 3047 722 3315 
Q 1072 3584 1716 3584 
Q 2034 3584 2315 3537 
Q 2597 3491 2834 3397 
z
" transform="scale(0.015625)"/>
       <path id="DejaVuSans-74" d="M 1172 4494 
L 1172 3500 
L 2356 3500 
L 2356 3053 
L 1172 3053 
L 1172 1153 
Q 1172 725 1289 603 
Q 1406 481 1766 481 
L 2356 481 
L 2356 0 
L 1766 0 
Q 1100 0 847 248 
Q 594 497 594 1153 
L 594 3053 
L 172 3053 
L 172 3500 
L 594 3500 
L 594 4494 
L 1172 4494 
z
" transform="scale(0.015625)"/>
       <path id="DejaVuSans-61" d="M 2194 1759 
Q 1497 1759 1228 1600 
Q 959 1441 959 1056 
Q 959 750 1161 570 
Q 1363 391 1709 391 
Q 2188 391 2477 730 
Q 2766 1069 2766 1631 
L 2766 1759 
L 2194 1759 
z
M 3341 1997 
L 3341 0 
L 2766 0 
L 2766 531 
Q 2569 213 2275 61 
Q 1981 -91 1556 -91 
Q 1019 -91 701 211 
Q 384 513 384 1019 
Q 384 1609 779 1909 
Q 1175 2209 1959 2209 
L 2766 2209 
L 2766 2266 
Q 2766 2663 2505 2880 
Q 2244 3097 1772 3097 
Q 1472 3097 1187 3025 
Q 903 2953 641 2809 
L 641 3341 
Q 956 3463 1253 3523 
Q 1550 3584 1831 3584 
Q 2591 3584 2966 3190 
Q 3341 2797 3341 1997 
z
" transform="scale(0.015625)"/>
       <path id="DejaVuSans-6e" d="M 3513 2113 
L 3513 0 
L 2938 0 
L 2938 2094 
Q 2938 2591 2744 2837 
Q 2550 3084 2163 3084 
Q 1697 3084 1428 2787 
Q 1159 2491 1159 1978 
L 1159 0 
L 581 0 
L 581 3500 
L 1159 3500 
L 1159 2956 
Q 1366 3272 1645 3428 
Q 1925 3584 2291 3584 
Q 2894 3584 3203 3211 
Q 3513 2838 3513 2113 
z
" transform="scale(0.015625)"/>
       <path id="DejaVuSans-63" d="M 3122 3366 
L 3122 2828 
Q 2878 2963 2633 3030 
Q 2388 3097 2138 3097 
Q 1578 3097 1268 2742 
Q 959 2388 959 1747 
Q 959 1106 1268 751 
Q 1578 397 2138 397 
Q 2388 397 2633 464 
Q 2878 531 3122 666 
L 3122 134 
Q 2881 22 2623 -34 
Q 2366 -91 2075 -91 
Q 1284 -91 818 406 
Q 353 903 353 1747 
Q 353 2603 823 3093 
Q 1294 3584 2113 3584 
Q 2378 3584 2631 3529 
Q 2884 3475 3122 3366 
z
" transform="scale(0.015625)"/>
       <path id="DejaVuSans-65" d="M 3597 1894 
L 3597 1613 
L 953 1613 
Q 991 1019 1311 708 
Q 1631 397 2203 397 
Q 2534 397 2845 478 
Q 3156 559 3463 722 
L 3463 178 
Q 3153 47 2828 -22 
Q 2503 -91 2169 -91 
Q 1331 -91 842 396 
Q 353 884 353 1716 
Q 353 2575 817 3079 
Q 1281 3584 2069 3584 
Q 2775 3584 3186 3129 
Q 3597 2675 3597 1894 
z
M 3022 2063 
Q 3016 2534 2758 2815 
Q 2500 3097 2075 3097 
Q 1594 3097 1305 2825 
Q 1016 2553 972 2059 
L 3022 2063 
z
" transform="scale(0.015625)"/>
       <path id="DejaVuSans-20" transform="scale(0.015625)"/>
       <path id="DejaVuSans-28" d="M 1984 4856 
Q 1566 4138 1362 3434 
Q 1159 2731 1159 2009 
Q 1159 1288 1364 580 
Q 1569 -128 1984 -844 
L 1484 -844 
Q 1016 -109 783 600 
Q 550 1309 550 2009 
Q 550 2706 781 3412 
Q 1013 4119 1484 4856 
L 1984 4856 
z
" transform="scale(0.015625)"/>
       <path id="DejaVuSans-6d" d="M 3328 2828 
Q 3544 3216 3844 3400 
Q 4144 3584 4550 3584 
Q 5097 3584 5394 3201 
Q 5691 2819 5691 2113 
L 5691 0 
L 5113 0 
L 5113 2094 
Q 5113 2597 4934 2840 
Q 4756 3084 4391 3084 
Q 3944 3084 3684 2787 
Q 3425 2491 3425 1978 
L 3425 0 
L 2847 0 
L 2847 2094 
Q 2847 2600 2669 2842 
Q 2491 3084 2119 3084 
Q 1678 3084 1418 2786 
Q 1159 2488 1159 1978 
L 1159 0 
L 581 0 
L 581 3500 
L 1159 3500 
L 1159 2956 
Q 1356 3278 1631 3431 
Q 1906 3584 2284 3584 
Q 2666 3584 2933 3390 
Q 3200 3197 3328 2828 
z
" transform="scale(0.015625)"/>
       <path id="DejaVuSans-6c" d="M 603 4863 
L 1178 4863 
L 1178 0 
L 603 0 
L 603 4863 
z
" transform="scale(0.015625)"/>
       <path id="DejaVuSans-6f" d="M 1959 3097 
Q 1497 3097 1228 2736 
Q 959 2375 959 1747 
Q 959 1119 1226 758 
Q 1494 397 1959 397 
Q 2419 397 2687 759 
Q 2956 1122 2956 1747 
Q 2956 2369 2687 2733 
Q 2419 3097 1959 3097 
z
M 1959 3584 
Q 2709 3584 3137 3096 
Q 3566 2609 3566 1747 
Q 3566 888 3137 398 
Q 2709 -91 1959 -91 
Q 1206 -91 779 398 
Q 353 888 353 1747 
Q 353 2609 779 3096 
Q 1206 3584 1959 3584 
z
" transform="scale(0.015625)"/>
       <path id="DejaVuSans-66" d="M 2375 4863 
L 2375 4384 
L 1825 4384 
Q 1516 4384 1395 4259 
Q 1275 4134 1275 3809 
L 1275 3500 
L 2222 3500 
L 2222 3053 
L 1275 3053 
L 1275 0 
L 697 0 
L 697 3053 
L 147 3053 
L 147 3500 
L 697 3500 
L 697 3744 
Q 697 4328 969 4595 
Q 1241 4863 1831 4863 
L 2375 4863 
z
" transform="scale(0.015625)"/>
       <path id="DejaVuSans-62" d="M 3116 1747 
Q 3116 2381 2855 2742 
Q 2594 3103 2138 3103 
Q 1681 3103 1420 2742 
Q 1159 2381 1159 1747 
Q 1159 1113 1420 752 
Q 1681 391 2138 391 
Q 2594 391 2855 752 
Q 3116 1113 3116 1747 
z
M 1159 2969 
Q 1341 3281 1617 3432 
Q 1894 3584 2278 3584 
Q 2916 3584 3314 3078 
Q 3713 2572 3713 1747 
Q 3713 922 3314 415 
Q 2916 -91 2278 -91 
Q 1894 -91 1617 61 
Q 1341 213 1159 525 
L 1159 0 
L 581 0 
L 581 4863 
L 1159 4863 
L 1159 2969 
z
" transform="scale(0.015625)"/>
       <path id="DejaVuSans-70" d="M 1159 525 
L 1159 -1331 
L 581 -1331 
L 581 3500 
L 1159 3500 
L 1159 2969 
Q 1341 3281 1617 3432 
Q 1894 3584 2278 3584 
Q 2916 3584 3314 3078 
Q 3713 2572 3713 1747 
Q 3713 922 3314 415 
Q 2916 -91 2278 -91 
Q 1894 -91 1617 61 
Q 1341 213 1159 525 
z
M 3116 1747 
Q 3116 2381 2855 2742 
Q 2594 3103 2138 3103 
Q 1681 3103 1420 2742 
Q 1159 2381 1159 1747 
Q 1159 1113 1420 752 
Q 1681 391 2138 391 
Q 2594 391 2855 752 
Q 3116 1113 3116 1747 
z
" transform="scale(0.015625)"/>
       <path id="DejaVuSans-72" d="M 2631 2963 
Q 2534 3019 2420 3045 
Q 2306 3072 2169 3072 
Q 1681 3072 1420 2755 
Q 1159 2438 1159 1844 
L 1159 0 
L 581 0 
L 581 3500 
L 1159 3500 
L 1159 2956 
Q 1341 3275 1631 3429 
Q 1922 3584 2338 3584 
Q 2397 3584 2469 3576 
Q 2541 3569 2628 3553 
L 2631 2963 
z
" transform="scale(0.015625)"/>
       <path id="DejaVuSans-29" d="M 513 4856 
L 1013 4856 
Q 1481 4119 1714 3412 
Q 1947 2706 1947 2009 
Q 1947 1309 1714 600 
Q 1481 -109 1013 -844 
L 513 -844 
Q 928 -128 1133 580 
Q 1338 1288 1338 2009 
Q 1338 2731 1133 3434 
Q 928 4138 513 4856 
z
" transform="scale(0.015625)"/>
      </defs>
      <use xlink:href="#DejaVuSans-44"/>
      <use xlink:href="#DejaVuSans-69" x="77.001953"/>
      <use xlink:href="#DejaVuSans-73" x="104.785156"/>
      <use xlink:href="#DejaVuSans-74" x="156.884766"/>
      <use xlink:href="#DejaVuSans-61" x="196.09375"/>
      <use xlink:href="#DejaVuSans-6e" x="257.373047"/>
      <use xlink:href="#DejaVuSans-63" x="320.751953"/>
      <use xlink:href="#DejaVuSans-65" x="375.732422"/>
      <use xlink:href="#DejaVuSans-20" x="437.255859"/>
      <use xlink:href="#DejaVuSans-28" x="469.042969"/>
      <use xlink:href="#DejaVuSans-6d" x="508.056641"/>
      <use xlink:href="#DejaVuSans-69" x="605.46875"/>
      <use xlink:href="#DejaVuSans-6c" x="633.251953"/>
      <use xlink:href="#DejaVuSans-6c" x="661.035156"/>
      <use xlink:href="#DejaVuSans-69" x="688.818359"/>
      <use xlink:href="#DejaVuSans-6f" x="716.601562"/>
      <use xlink:href="#DejaVuSans-6e" x="777.783203"/>
      <use xlink:href="#DejaVuSans-73" x="841.162109"/>
      <use xlink:href="#DejaVuSans-20" x="893.261719"/>
      <use xlink:href="#DejaVuSans-6f" x="925.048828"/>
      <use xlink:href="#DejaVuSans-66" x="986.230469"/>
      <use xlink:href="#DejaVuSans-20" x="1021.435547"/>
      <use xlink:href="#DejaVuSans-62" x="1053.222656"/>
      <use xlink:href="#DejaVuSans-61" x="1116.699219"/>
      <use xlink:href="#DejaVuSans-73" x="1177.978516"/>
      <use xlink:href="#DejaVuSans-65" x="1230.078125"/>
      <use xlink:href="#DejaVuSans-20" x="1291.601562"/>
      <use xlink:href="#DejaVuSans-70" x="1323.388672"/>
      <use xlink:href="#DejaVuSans-61" x="1386.865234"/>
      <use xlink:href="#DejaVuSans-69" x="1448.144531"/>
      <use xlink:href="#DejaVuSans-72" x="1475.927734"/>
      <use xlink:href="#DejaVuSans-73" x="1517.041016"/>
      <use xlink:href="#DejaVuSans-29" x="1569.140625"/>
     </g>
    </g>
    <g id="text_9">
     <!-- 1e6 -->
     <g transform="translate(57.6 38.472)scale(0.1 -0.1)">
      <defs>
       <path id="DejaVuSans-36" d="M 2113 2584 
Q 1688 2584 1439 2293 
Q 1191 2003 1191 1497 
Q 1191 994 1439 701 
Q 1688 409 2113 409 
Q 2538 409 2786 701 
Q 3034 994 3034 1497 
Q 3034 2003 2786 2293 
Q 2538 2584 2113 2584 
z
M 3366 4563 
L 3366 3988 
Q 3128 4100 2886 4159 
Q 2644 4219 2406 4219 
Q 1781 4219 1451 3797 
Q 1122 3375 1075 2522 
Q 1259 2794 1537 2939 
Q 1816 3084 2150 3084 
Q 2853 3084 3261 2657 
Q 3669 2231 3669 1497 
Q 3669 778 3244 343 
Q 2819 -91 2113 -91 
Q 1303 -91 875 529 
Q 447 1150 447 2328 
Q 447 3434 972 4092 
Q 1497 4750 2381 4750 
Q 2619 4750 2861 4703 
Q 3103 4656 3366 4563 
z
" transform="scale(0.015625)"/>
      </defs>
      <use xlink:href="#DejaVuSans-31"/>
      <use xlink:href="#DejaVuSans-65" x="63.623047"/>
      <use xlink:href="#DejaVuSans-36" x="125.146484"/>
     </g>
    </g>
   </g>
   <g id="line2d_9">
    <path d="M 236.16 307.571258 
L 236.16 42.141512 
" clip-path="url(#p31273c044c)" style="fill: none; stroke: #3f3f3f; stroke-width: 1.5; stroke-linecap: square"/>
   </g>
   <g id="line2d_10">
    <path d="M 236.16 306.682162 
L 236.16 187.959076 
" clip-path="url(#p31273c044c)" style="fill: none; stroke: #3f3f3f; stroke-width: 4.5; stroke-linecap: square"/>
   </g>
   <g id="patch_3">
    <path d="M 57.6 307.584 
L 57.6 41.472 
" style="fill: none; stroke: #000000; stroke-linejoin: miter; stroke-linecap: square"/>
   </g>
   <g id="patch_4">
    <path d="M 414.72 307.584 
L 414.72 41.472 
" style="fill: none; stroke: #000000; stroke-linejoin: miter; stroke-linecap: square"/>
   </g>
   <g id="patch_5">
    <path d="M 57.6 307.584 
L 414.72 307.584 
" style="fill: none; stroke: #000000; stroke-linejoin: miter; stroke-linecap: square"/>
   </g>
   <g id="patch_6">
    <path d="M 57.6 41.472 
L 414.72 41.472 
" style="fill: none; stroke: #000000; stroke-linejoin: miter; stroke-linecap: square"/>
   </g>
   <g id="PathCollection_1">
    <defs>
     <path id="m4dbed550d9" d="M 0 1.5 
C 0.397805 1.5 0.77937 1.341951 1.06066 1.06066 
C 1.341951 0.77937 1.5 0.397805 1.5 0 
C 1.5 -0.397805 1.341951 -0.77937 1.06066 -1.06066 
C 0.77937 -1.341951 0.397805 -1.5 0 -1.5 
C -0.397805 -1.5 -0.77937 -1.341951 -1.06066 -1.06066 
C -1.341951 -0.77937 -1.5 -0.397805 -1.5 0 
C -1.5 0.397805 -1.341951 0.77937 -1.06066 1.06066 
C -0.77937 1.341951 -0.397805 1.5 0 1.5 
z
" style="stroke: #3f3f3f"/>
    </defs>
    <g clip-path="url(#p31273c044c)">
     <use xlink:href="#m4dbed550d9" x="236.16" y="259.255828" style="fill: #ffffff; stroke: #3f3f3f"/>
    </g>
   </g>
  </g>
 </g>
 <defs>
  <clipPath id="p31273c044c">
   <rect x="57.6" y="41.472" width="357.12" height="266.112"/>
  </clipPath>
 </defs>
</svg>
