<?xml version="1.0" encoding="utf-8" standalone="no"?>
<!DOCTYPE svg PUBLIC "-//W3C//DTD SVG 1.1//EN"
  "http://www.w3.org/Graphics/SVG/1.1/DTD/svg11.dtd">
<svg xmlns:xlink="http://www.w3.org/1999/xlink" width="460.8pt" height="345.6pt" viewBox="0 0 460.8 345.6" xmlns="http://www.w3.org/2000/svg" version="1.1">
 <metadata>
  <rdf:RDF xmlns:dc="http://purl.org/dc/elements/1.1/" xmlns:cc="http://creativecommons.org/ns#" xmlns:rdf="http://www.w3.org/1999/02/22-rdf-syntax-ns#">
   <cc:Work>
    <dc:type rdf:resource="http://purl.org/dc/dcmitype/StillImage"/>
    <dc:date>2024-02-27T23:13:03.463334</dc:date>
    <dc:format>image/svg+xml</dc:format>
    <dc:creator>
     <cc:Agent>
      <dc:title>Matplotlib v3.5.1, https://matplotlib.org/</dc:title>
     </cc:Agent>
    </dc:creator>
   </cc:Work>
  </rdf:RDF>
 </metadata>
 <defs>
  <style type="text/css">*{stroke-linejoin: round; stroke-linecap: butt}</style>
 </defs>
 <g id="figure_1">
  <g id="patch_1">
   <path d="M 0 345.6 
L 460.8 345.6 
L 460.8 0 
L 0 0 
z
" style="fill: #ffffff"/>
  </g>
  <g id="axes_1">
   <g id="patch_2">
    <path d="M 57.6 307.584 
L 414.72 307.584 
L 414.72 41.472 
L 57.6 41.472 
z
" style="fill: #ffffff"/>
   </g>
   <g id="PolyCollection_1">
    <defs>
     <path id="m7b7cd14931" d="M 236.684157 -18.645225 
L 235.635843 -18.645225 
L 235.264003 -21.391572 
L 234.738678 -24.137919 
L 234.060361 -26.884266 
L 233.255246 -29.630613 
L 232.363279 -32.37696 
L 231.409677 -35.123307 
L 230.368909 -37.869654 
L 229.137835 -40.616001 
L 227.533403 -43.362348 
L 225.319044 -46.108695 
L 222.248982 -48.855042 
L 218.110507 -51.60139 
L 212.746288 -54.347737 
L 206.05059 -57.094084 
L 197.948843 -59.840431 
L 188.382633 -62.586778 
L 177.325945 -65.333125 
L 164.848412 -68.079472 
L 151.216915 -70.825819 
L 136.996027 -73.572166 
L 123.087656 -76.318513 
L 110.658275 -79.06486 
L 100.942858 -81.811207 
L 94.971985 -84.557554 
L 93.312 -87.303901 
L 95.911714 -90.050248 
L 102.109303 -92.796595 
L 110.791861 -95.542942 
L 120.649563 -98.289289 
L 130.447133 -101.035636 
L 139.246264 -103.781983 
L 146.537983 -106.52833 
L 152.269403 -109.274677 
L 156.770676 -112.021024 
L 160.607449 -114.767371 
L 164.400743 -117.513719 
L 168.662899 -120.260066 
L 173.688457 -123.006413 
L 179.51559 -125.75276 
L 185.9493 -128.499107 
L 192.624151 -131.245454 
L 199.083949 -133.991801 
L 204.861183 -136.738148 
L 209.543122 -139.484495 
L 212.814575 -142.230842 
L 214.474125 -144.977189 
L 214.432029 -147.723536 
L 212.706685 -150.469883 
L 209.433786 -153.21623 
L 204.886717 -155.962577 
L 199.48838 -158.708924 
L 193.787561 -161.455271 
L 188.384994 -164.201618 
L 183.820418 -166.947965 
L 180.457352 -169.694312 
L 178.411526 -172.440659 
L 177.554807 -175.187006 
L 177.59416 -177.933353 
L 178.190392 -180.6797 
L 179.063059 -183.426048 
L 180.03838 -186.172395 
L 181.032506 -188.918742 
L 182.002543 -191.665089 
L 182.916034 -194.411436 
L 183.772253 -197.157783 
L 184.665106 -199.90413 
L 185.836634 -202.650477 
L 187.661471 -205.396824 
L 190.537028 -208.143171 
L 194.713484 -210.889518 
L 200.14453 -213.635865 
L 206.440404 -216.382212 
L 212.954603 -219.128559 
L 218.964974 -221.874906 
L 223.863906 -224.621253 
L 227.277653 -227.3676 
L 229.081833 -230.113947 
L 229.334332 -232.860294 
L 228.177328 -235.606641 
L 225.759234 -238.352988 
L 222.207076 -241.099335 
L 217.655592 -243.845682 
L 212.31801 -246.592029 
L 206.565215 -249.338377 
L 200.967932 -252.084724 
L 196.259923 -254.831071 
L 193.206965 -257.577418 
L 192.411493 -260.323765 
L 194.12416 -263.070112 
L 198.144304 -265.816459 
L 203.859051 -268.562806 
L 210.410069 -271.309153 
L 216.921197 -274.0555 
L 222.699831 -276.801847 
L 227.347687 -279.548194 
L 230.764427 -282.294541 
L 233.072098 -285.040888 
L 234.50897 -287.787235 
L 235.335656 -290.533582 
L 236.984344 -290.533582 
L 236.984344 -290.533582 
L 237.81103 -287.787235 
L 239.247902 -285.040888 
L 241.555573 -282.294541 
L 244.972313 -279.548194 
L 249.620169 -276.801847 
L 255.398803 -274.0555 
L 261.909931 -271.309153 
L 268.460949 -268.562806 
L 274.175696 -265.816459 
L 278.19584 -263.070112 
L 279.908507 -260.323765 
L 279.113035 -257.577418 
L 276.060077 -254.831071 
L 271.352068 -252.084724 
L 265.754785 -249.338377 
L 260.00199 -246.592029 
L 254.664408 -243.845682 
L 250.112924 -241.099335 
L 246.560766 -238.352988 
L 244.142672 -235.606641 
L 242.985668 -232.860294 
L 243.238167 -230.113947 
L 245.042347 -227.3676 
L 248.456094 -224.621253 
L 253.355026 -221.874906 
L 259.365397 -219.128559 
L 265.879596 -216.382212 
L 272.17547 -213.635865 
L 277.606516 -210.889518 
L 281.782972 -208.143171 
L 284.658529 -205.396824 
L 286.483366 -202.650477 
L 287.654894 -199.90413 
L 288.547747 -197.157783 
L 289.403966 -194.411436 
L 290.317457 -191.665089 
L 291.287494 -188.918742 
L 292.28162 -186.172395 
L 293.256941 -183.426048 
L 294.129608 -180.6797 
L 294.72584 -177.933353 
L 294.765193 -175.187006 
L 293.908474 -172.440659 
L 291.862648 -169.694312 
L 288.499582 -166.947965 
L 283.935006 -164.201618 
L 278.532439 -161.455271 
L 272.83162 -158.708924 
L 267.433283 -155.962577 
L 262.886214 -153.21623 
L 259.613315 -150.469883 
L 257.887971 -147.723536 
L 257.845875 -144.977189 
L 259.505425 -142.230842 
L 262.776878 -139.484495 
L 267.458817 -136.738148 
L 273.236051 -133.991801 
L 279.695849 -131.245454 
L 286.3707 -128.499107 
L 292.80441 -125.75276 
L 298.631543 -123.006413 
L 303.657101 -120.260066 
L 307.919257 -117.513719 
L 311.712551 -114.767371 
L 315.549324 -112.021024 
L 320.050597 -109.274677 
L 325.782017 -106.52833 
L 333.073736 -103.781983 
L 341.872867 -101.035636 
L 351.670437 -98.289289 
L 361.528139 -95.542942 
L 370.210697 -92.796595 
L 376.408286 -90.050248 
L 379.008 -87.303901 
L 377.348015 -84.557554 
L 371.377142 -81.811207 
L 361.661725 -79.06486 
L 349.232344 -76.318513 
L 335.323973 -73.572166 
L 321.103085 -70.825819 
L 307.471588 -68.079472 
L 294.994055 -65.333125 
L 283.937367 -62.586778 
L 274.371157 -59.840431 
L 266.26941 -57.094084 
L 259.573712 -54.347737 
L 254.209493 -51.60139 
L 250.071018 -48.855042 
L 247.000956 -46.108695 
L 244.786597 -43.362348 
L 243.182165 -40.616001 
L 241.951091 -37.869654 
L 240.910323 -35.123307 
L 239.956721 -32.37696 
L 239.064754 -29.630613 
L 238.259639 -26.884266 
L 237.581322 -24.137919 
L 237.055997 -21.391572 
L 236.684157 -18.645225 
z
" style="stroke: #3f3f3f; stroke-width: 1.5"/>
    </defs>
    <g clip-path="url(#p289f2f4fc9)">
     <use xlink:href="#m7b7cd14931" x="0" y="345.6" style="fill: #3274a1; stroke: #3f3f3f; stroke-width: 1.5"/>
    </g>
   </g>
   <g id="matplotlib.axis_1">
    <g id="xtick_1">
     <g id="line2d_1">
      <defs>
       <path id="md2453305b3" d="M 0 0 
L 0 6 
" style="stroke: #000000"/>
      </defs>
      <g>
       <use xlink:href="#md2453305b3" x="236.16" y="307.584" style="stroke: #000000"/>
      </g>
     </g>
    </g>
   </g>
   <g id="matplotlib.axis_2">
    <g id="ytick_1">
     <g id="line2d_2">
      <defs>
       <path id="md0dfcfd37c" d="M 0 0 
L -6 0 
" style="stroke: #000000"/>
      </defs>
      <g>
       <use xlink:href="#md0dfcfd37c" x="57.6" y="307.584" style="stroke: #000000"/>
      </g>
     </g>
     <g id="text_1">
      <!-- 0 -->
      <g transform="translate(39.2375 311.383219)scale(0.1 -0.1)">
       <defs>
        <path id="DejaVuSans-30" d="M 2034 4250 
Q 1547 4250 1301 3770 
Q 1056 3291 1056 2328 
Q 1056 1369 1301 889 
Q 1547 409 2034 409 
Q 2525 409 2770 889 
Q 3016 1369 3016 2328 
Q 3016 3291 2770 3770 
Q 2525 4250 2034 4250 
z
M 2034 4750 
Q 2819 4750 3233 4129 
Q 3647 3509 3647 2328 
Q 3647 1150 3233 529 
Q 2819 -91 2034 -91 
Q 1250 -91 836 529 
Q 422 1150 422 2328 
Q 422 3509 836 4129 
Q 1250 4750 2034 4750 
z
" transform="scale(0.015625)"/>
       </defs>
       <use xlink:href="#DejaVuSans-30"/>
      </g>
     </g>
    </g>
    <g id="ytick_2">
     <g id="line2d_3">
      <g>
       <use xlink:href="#md0dfcfd37c" x="57.6" y="276.223201" style="stroke: #000000"/>
      </g>
     </g>
     <g id="text_2">
      <!-- 2 -->
      <g transform="translate(39.2375 280.02242)scale(0.1 -0.1)">
       <defs>
        <path id="DejaVuSans-32" d="M 1228 531 
L 3431 531 
L 3431 0 
L 469 0 
L 469 531 
Q 828 903 1448 1529 
Q 2069 2156 2228 2338 
Q 2531 2678 2651 2914 
Q 2772 3150 2772 3378 
Q 2772 3750 2511 3984 
Q 2250 4219 1831 4219 
Q 1534 4219 1204 4116 
Q 875 4013 500 3803 
L 500 4441 
Q 881 4594 1212 4672 
Q 1544 4750 1819 4750 
Q 2544 4750 2975 4387 
Q 3406 4025 3406 3419 
Q 3406 3131 3298 2873 
Q 3191 2616 2906 2266 
Q 2828 2175 2409 1742 
Q 1991 1309 1228 531 
z
" transform="scale(0.015625)"/>
       </defs>
       <use xlink:href="#DejaVuSans-32"/>
      </g>
     </g>
    </g>
    <g id="ytick_3">
     <g id="line2d_4">
      <g>
       <use xlink:href="#md0dfcfd37c" x="57.6" y="244.862403" style="stroke: #000000"/>
      </g>
     </g>
     <g id="text_3">
      <!-- 4 -->
      <g transform="translate(39.2375 248.661621)scale(0.1 -0.1)">
       <defs>
        <path id="DejaVuSans-34" d="M 2419 4116 
L 825 1625 
L 2419 1625 
L 2419 4116 
z
M 2253 4666 
L 3047 4666 
L 3047 1625 
L 3713 1625 
L 3713 1100 
L 3047 1100 
L 3047 0 
L 2419 0 
L 2419 1100 
L 313 1100 
L 313 1709 
L 2253 4666 
z
" transform="scale(0.015625)"/>
       </defs>
       <use xlink:href="#DejaVuSans-34"/>
      </g>
     </g>
    </g>
    <g id="ytick_4">
     <g id="line2d_5">
      <g>
       <use xlink:href="#md0dfcfd37c" x="57.6" y="213.501604" style="stroke: #000000"/>
      </g>
     </g>
     <g id="text_4">
      <!-- 6 -->
      <g transform="translate(39.2375 217.300823)scale(0.1 -0.1)">
       <defs>
        <path id="DejaVuSans-36" d="M 2113 2584 
Q 1688 2584 1439 2293 
Q 1191 2003 1191 1497 
Q 1191 994 1439 701 
Q 1688 409 2113 409 
Q 2538 409 2786 701 
Q 3034 994 3034 1497 
Q 3034 2003 2786 2293 
Q 2538 2584 2113 2584 
z
M 3366 4563 
L 3366 3988 
Q 3128 4100 2886 4159 
Q 2644 4219 2406 4219 
Q 1781 4219 1451 3797 
Q 1122 3375 1075 2522 
Q 1259 2794 1537 2939 
Q 1816 3084 2150 3084 
Q 2853 3084 3261 2657 
Q 3669 2231 3669 1497 
Q 3669 778 3244 343 
Q 2819 -91 2113 -91 
Q 1303 -91 875 529 
Q 447 1150 447 2328 
Q 447 3434 972 4092 
Q 1497 4750 2381 4750 
Q 2619 4750 2861 4703 
Q 3103 4656 3366 4563 
z
" transform="scale(0.015625)"/>
       </defs>
       <use xlink:href="#DejaVuSans-36"/>
      </g>
     </g>
    </g>
    <g id="ytick_5">
     <g id="line2d_6">
      <g>
       <use xlink:href="#md0dfcfd37c" x="57.6" y="182.140805" style="stroke: #000000"/>
      </g>
     </g>
     <g id="text_5">
      <!-- 8 -->
      <g transform="translate(39.2375 185.940024)scale(0.1 -0.1)">
       <defs>
        <path id="DejaVuSans-38" d="M 2034 2216 
Q 1584 2216 1326 1975 
Q 1069 1734 1069 1313 
Q 1069 891 1326 650 
Q 1584 409 2034 409 
Q 2484 409 2743 651 
Q 3003 894 3003 1313 
Q 3003 1734 2745 1975 
Q 2488 2216 2034 2216 
z
M 1403 2484 
Q 997 2584 770 2862 
Q 544 3141 544 3541 
Q 544 4100 942 4425 
Q 1341 4750 2034 4750 
Q 2731 4750 3128 4425 
Q 3525 4100 3525 3541 
Q 3525 3141 3298 2862 
Q 3072 2584 2669 2484 
Q 3125 2378 3379 2068 
Q 3634 1759 3634 1313 
Q 3634 634 3220 271 
Q 2806 -91 2034 -91 
Q 1263 -91 848 271 
Q 434 634 434 1313 
Q 434 1759 690 2068 
Q 947 2378 1403 2484 
z
M 1172 3481 
Q 1172 3119 1398 2916 
Q 1625 2713 2034 2713 
Q 2441 2713 2670 2916 
Q 2900 3119 2900 3481 
Q 2900 3844 2670 4047 
Q 2441 4250 2034 4250 
Q 1625 4250 1398 4047 
Q 1172 3844 1172 3481 
z
" transform="scale(0.015625)"/>
       </defs>
       <use xlink:href="#DejaVuSans-38"/>
      </g>
     </g>
    </g>
    <g id="ytick_6">
     <g id="line2d_7">
      <g>
       <use xlink:href="#md0dfcfd37c" x="57.6" y="150.780006" style="stroke: #000000"/>
      </g>
     </g>
     <g id="text_6">
      <!-- 10 -->
      <g transform="translate(32.875 154.579225)scale(0.1 -0.1)">
       <defs>
        <path id="DejaVuSans-31" d="M 794 531 
L 1825 531 
L 1825 4091 
L 703 3866 
L 703 4441 
L 1819 4666 
L 2450 4666 
L 2450 531 
L 3481 531 
L 3481 0 
L 794 0 
L 794 531 
z
" transform="scale(0.015625)"/>
       </defs>
       <use xlink:href="#DejaVuSans-31"/>
       <use xlink:href="#DejaVuSans-30" x="63.623047"/>
      </g>
     </g>
    </g>
    <g id="ytick_7">
     <g id="line2d_8">
      <g>
       <use xlink:href="#md0dfcfd37c" x="57.6" y="119.419208" style="stroke: #000000"/>
      </g>
     </g>
     <g id="text_7">
      <!-- 12 -->
      <g transform="translate(32.875 123.218427)scale(0.1 -0.1)">
       <use xlink:href="#DejaVuSans-31"/>
       <use xlink:href="#DejaVuSans-32" x="63.623047"/>
      </g>
     </g>
    </g>
    <g id="ytick_8">
     <g id="line2d_9">
      <g>
       <use xlink:href="#md0dfcfd37c" x="57.6" y="88.058409" style="stroke: #000000"/>
      </g>
     </g>
     <g id="text_8">
      <!-- 14 -->
      <g transform="translate(32.875 91.857628)scale(0.1 -0.1)">
       <use xlink:href="#DejaVuSans-31"/>
       <use xlink:href="#DejaVuSans-34" x="63.623047"/>
      </g>
     </g>
    </g>
    <g id="ytick_9">
     <g id="line2d_10">
      <g>
       <use xlink:href="#md0dfcfd37c" x="57.6" y="56.69761" style="stroke: #000000"/>
      </g>
     </g>
     <g id="text_9">
      <!-- 16 -->
      <g transform="translate(32.875 60.496829)scale(0.1 -0.1)">
       <use xlink:href="#DejaVuSans-31"/>
       <use xlink:href="#DejaVuSans-36" x="63.623047"/>
      </g>
     </g>
    </g>
    <g id="text_10">
     <!-- Log HiC interaction strength -->
     <g transform="translate(26.795312 244.964719)rotate(-90)scale(0.1 -0.1)">
      <defs>
       <path id="DejaVuSans-4c" d="M 628 4666 
L 1259 4666 
L 1259 531 
L 3531 531 
L 3531 0 
L 628 0 
L 628 4666 
z
" transform="scale(0.015625)"/>
       <path id="DejaVuSans-6f" d="M 1959 3097 
Q 1497 3097 1228 2736 
Q 959 2375 959 1747 
Q 959 1119 1226 758 
Q 1494 397 1959 397 
Q 2419 397 2687 759 
Q 2956 1122 2956 1747 
Q 2956 2369 2687 2733 
Q 2419 3097 1959 3097 
z
M 1959 3584 
Q 2709 3584 3137 3096 
Q 3566 2609 3566 1747 
Q 3566 888 3137 398 
Q 2709 -91 1959 -91 
Q 1206 -91 779 398 
Q 353 888 353 1747 
Q 353 2609 779 3096 
Q 1206 3584 1959 3584 
z
" transform="scale(0.015625)"/>
       <path id="DejaVuSans-67" d="M 2906 1791 
Q 2906 2416 2648 2759 
Q 2391 3103 1925 3103 
Q 1463 3103 1205 2759 
Q 947 2416 947 1791 
Q 947 1169 1205 825 
Q 1463 481 1925 481 
Q 2391 481 2648 825 
Q 2906 1169 2906 1791 
z
M 3481 434 
Q 3481 -459 3084 -895 
Q 2688 -1331 1869 -1331 
Q 1566 -1331 1297 -1286 
Q 1028 -1241 775 -1147 
L 775 -588 
Q 1028 -725 1275 -790 
Q 1522 -856 1778 -856 
Q 2344 -856 2625 -561 
Q 2906 -266 2906 331 
L 2906 616 
Q 2728 306 2450 153 
Q 2172 0 1784 0 
Q 1141 0 747 490 
Q 353 981 353 1791 
Q 353 2603 747 3093 
Q 1141 3584 1784 3584 
Q 2172 3584 2450 3431 
Q 2728 3278 2906 2969 
L 2906 3500 
L 3481 3500 
L 3481 434 
z
" transform="scale(0.015625)"/>
       <path id="DejaVuSans-20" transform="scale(0.015625)"/>
       <path id="DejaVuSans-48" d="M 628 4666 
L 1259 4666 
L 1259 2753 
L 3553 2753 
L 3553 4666 
L 4184 4666 
L 4184 0 
L 3553 0 
L 3553 2222 
L 1259 2222 
L 1259 0 
L 628 0 
L 628 4666 
z
" transform="scale(0.015625)"/>
       <path id="DejaVuSans-69" d="M 603 3500 
L 1178 3500 
L 1178 0 
L 603 0 
L 603 3500 
z
M 603 4863 
L 1178 4863 
L 1178 4134 
L 603 4134 
L 603 4863 
z
" transform="scale(0.015625)"/>
       <path id="DejaVuSans-43" d="M 4122 4306 
L 4122 3641 
Q 3803 3938 3442 4084 
Q 3081 4231 2675 4231 
Q 1875 4231 1450 3742 
Q 1025 3253 1025 2328 
Q 1025 1406 1450 917 
Q 1875 428 2675 428 
Q 3081 428 3442 575 
Q 3803 722 4122 1019 
L 4122 359 
Q 3791 134 3420 21 
Q 3050 -91 2638 -91 
Q 1578 -91 968 557 
Q 359 1206 359 2328 
Q 359 3453 968 4101 
Q 1578 4750 2638 4750 
Q 3056 4750 3426 4639 
Q 3797 4528 4122 4306 
z
" transform="scale(0.015625)"/>
       <path id="DejaVuSans-6e" d="M 3513 2113 
L 3513 0 
L 2938 0 
L 2938 2094 
Q 2938 2591 2744 2837 
Q 2550 3084 2163 3084 
Q 1697 3084 1428 2787 
Q 1159 2491 1159 1978 
L 1159 0 
L 581 0 
L 581 3500 
L 1159 3500 
L 1159 2956 
Q 1366 3272 1645 3428 
Q 1925 3584 2291 3584 
Q 2894 3584 3203 3211 
Q 3513 2838 3513 2113 
z
" transform="scale(0.015625)"/>
       <path id="DejaVuSans-74" d="M 1172 4494 
L 1172 3500 
L 2356 3500 
L 2356 3053 
L 1172 3053 
L 1172 1153 
Q 1172 725 1289 603 
Q 1406 481 1766 481 
L 2356 481 
L 2356 0 
L 1766 0 
Q 1100 0 847 248 
Q 594 497 594 1153 
L 594 3053 
L 172 3053 
L 172 3500 
L 594 3500 
L 594 4494 
L 1172 4494 
z
" transform="scale(0.015625)"/>
       <path id="DejaVuSans-65" d="M 3597 1894 
L 3597 1613 
L 953 1613 
Q 991 1019 1311 708 
Q 1631 397 2203 397 
Q 2534 397 2845 478 
Q 3156 559 3463 722 
L 3463 178 
Q 3153 47 2828 -22 
Q 2503 -91 2169 -91 
Q 1331 -91 842 396 
Q 353 884 353 1716 
Q 353 2575 817 3079 
Q 1281 3584 2069 3584 
Q 2775 3584 3186 3129 
Q 3597 2675 3597 1894 
z
M 3022 2063 
Q 3016 2534 2758 2815 
Q 2500 3097 2075 3097 
Q 1594 3097 1305 2825 
Q 1016 2553 972 2059 
L 3022 2063 
z
" transform="scale(0.015625)"/>
       <path id="DejaVuSans-72" d="M 2631 2963 
Q 2534 3019 2420 3045 
Q 2306 3072 2169 3072 
Q 1681 3072 1420 2755 
Q 1159 2438 1159 1844 
L 1159 0 
L 581 0 
L 581 3500 
L 1159 3500 
L 1159 2956 
Q 1341 3275 1631 3429 
Q 1922 3584 2338 3584 
Q 2397 3584 2469 3576 
Q 2541 3569 2628 3553 
L 2631 2963 
z
" transform="scale(0.015625)"/>
       <path id="DejaVuSans-61" d="M 2194 1759 
Q 1497 1759 1228 1600 
Q 959 1441 959 1056 
Q 959 750 1161 570 
Q 1363 391 1709 391 
Q 2188 391 2477 730 
Q 2766 1069 2766 1631 
L 2766 1759 
L 2194 1759 
z
M 3341 1997 
L 3341 0 
L 2766 0 
L 2766 531 
Q 2569 213 2275 61 
Q 1981 -91 1556 -91 
Q 1019 -91 701 211 
Q 384 513 384 1019 
Q 384 1609 779 1909 
Q 1175 2209 1959 2209 
L 2766 2209 
L 2766 2266 
Q 2766 2663 2505 2880 
Q 2244 3097 1772 3097 
Q 1472 3097 1187 3025 
Q 903 2953 641 2809 
L 641 3341 
Q 956 3463 1253 3523 
Q 1550 3584 1831 3584 
Q 2591 3584 2966 3190 
Q 3341 2797 3341 1997 
z
" transform="scale(0.015625)"/>
       <path id="DejaVuSans-63" d="M 3122 3366 
L 3122 2828 
Q 2878 2963 2633 3030 
Q 2388 3097 2138 3097 
Q 1578 3097 1268 2742 
Q 959 2388 959 1747 
Q 959 1106 1268 751 
Q 1578 397 2138 397 
Q 2388 397 2633 464 
Q 2878 531 3122 666 
L 3122 134 
Q 2881 22 2623 -34 
Q 2366 -91 2075 -91 
Q 1284 -91 818 406 
Q 353 903 353 1747 
Q 353 2603 823 3093 
Q 1294 3584 2113 3584 
Q 2378 3584 2631 3529 
Q 2884 3475 3122 3366 
z
" transform="scale(0.015625)"/>
       <path id="DejaVuSans-73" d="M 2834 3397 
L 2834 2853 
Q 2591 2978 2328 3040 
Q 2066 3103 1784 3103 
Q 1356 3103 1142 2972 
Q 928 2841 928 2578 
Q 928 2378 1081 2264 
Q 1234 2150 1697 2047 
L 1894 2003 
Q 2506 1872 2764 1633 
Q 3022 1394 3022 966 
Q 3022 478 2636 193 
Q 2250 -91 1575 -91 
Q 1294 -91 989 -36 
Q 684 19 347 128 
L 347 722 
Q 666 556 975 473 
Q 1284 391 1588 391 
Q 1994 391 2212 530 
Q 2431 669 2431 922 
Q 2431 1156 2273 1281 
Q 2116 1406 1581 1522 
L 1381 1569 
Q 847 1681 609 1914 
Q 372 2147 372 2553 
Q 372 3047 722 3315 
Q 1072 3584 1716 3584 
Q 2034 3584 2315 3537 
Q 2597 3491 2834 3397 
z
" transform="scale(0.015625)"/>
       <path id="DejaVuSans-68" d="M 3513 2113 
L 3513 0 
L 2938 0 
L 2938 2094 
Q 2938 2591 2744 2837 
Q 2550 3084 2163 3084 
Q 1697 3084 1428 2787 
Q 1159 2491 1159 1978 
L 1159 0 
L 581 0 
L 581 4863 
L 1159 4863 
L 1159 2956 
Q 1366 3272 1645 3428 
Q 1925 3584 2291 3584 
Q 2894 3584 3203 3211 
Q 3513 2838 3513 2113 
z
" transform="scale(0.015625)"/>
      </defs>
      <use xlink:href="#DejaVuSans-4c"/>
      <use xlink:href="#DejaVuSans-6f" x="53.962891"/>
      <use xlink:href="#DejaVuSans-67" x="115.144531"/>
      <use xlink:href="#DejaVuSans-20" x="178.621094"/>
      <use xlink:href="#DejaVuSans-48" x="210.408203"/>
      <use xlink:href="#DejaVuSans-69" x="285.603516"/>
      <use xlink:href="#DejaVuSans-43" x="313.386719"/>
      <use xlink:href="#DejaVuSans-20" x="383.210938"/>
      <use xlink:href="#DejaVuSans-69" x="414.998047"/>
      <use xlink:href="#DejaVuSans-6e" x="442.78125"/>
      <use xlink:href="#DejaVuSans-74" x="506.160156"/>
      <use xlink:href="#DejaVuSans-65" x="545.369141"/>
      <use xlink:href="#DejaVuSans-72" x="606.892578"/>
      <use xlink:href="#DejaVuSans-61" x="648.005859"/>
      <use xlink:href="#DejaVuSans-63" x="709.285156"/>
      <use xlink:href="#DejaVuSans-74" x="764.265625"/>
      <use xlink:href="#DejaVuSans-69" x="803.474609"/>
      <use xlink:href="#DejaVuSans-6f" x="831.257812"/>
      <use xlink:href="#DejaVuSans-6e" x="892.439453"/>
      <use xlink:href="#DejaVuSans-20" x="955.818359"/>
      <use xlink:href="#DejaVuSans-73" x="987.605469"/>
      <use xlink:href="#DejaVuSans-74" x="1039.705078"/>
      <use xlink:href="#DejaVuSans-72" x="1078.914062"/>
      <use xlink:href="#DejaVuSans-65" x="1117.777344"/>
      <use xlink:href="#DejaVuSans-6e" x="1179.300781"/>
      <use xlink:href="#DejaVuSans-67" x="1242.679688"/>
      <use xlink:href="#DejaVuSans-74" x="1306.15625"/>
      <use xlink:href="#DejaVuSans-68" x="1345.365234"/>
     </g>
    </g>
   </g>
   <g id="line2d_11">
    <path d="M 236.16 307.584 
L 236.16 74.437193 
" clip-path="url(#p289f2f4fc9)" style="fill: none; stroke: #3f3f3f; stroke-width: 1.5; stroke-linecap: square"/>
   </g>
   <g id="line2d_12">
    <path d="M 236.16 257.87831 
L 236.16 160.922923 
" clip-path="url(#p289f2f4fc9)" style="fill: none; stroke: #3f3f3f; stroke-width: 4.5; stroke-linecap: square"/>
   </g>
   <g id="patch_3">
    <path d="M 57.6 307.584 
L 57.6 41.472 
" style="fill: none; stroke: #000000; stroke-linejoin: miter; stroke-linecap: square"/>
   </g>
   <g id="patch_4">
    <path d="M 414.72 307.584 
L 414.72 41.472 
" style="fill: none; stroke: #000000; stroke-linejoin: miter; stroke-linecap: square"/>
   </g>
   <g id="patch_5">
    <path d="M 57.6 307.584 
L 414.72 307.584 
" style="fill: none; stroke: #000000; stroke-linejoin: miter; stroke-linecap: square"/>
   </g>
   <g id="patch_6">
    <path d="M 57.6 41.472 
L 414.72 41.472 
" style="fill: none; stroke: #000000; stroke-linejoin: miter; stroke-linecap: square"/>
   </g>
   <g id="PathCollection_1">
    <defs>
     <path id="m0c0a0e18cf" d="M 0 1.5 
C 0.397805 1.5 0.77937 1.341951 1.06066 1.06066 
C 1.341951 0.77937 1.5 0.397805 1.5 0 
C 1.5 -0.397805 1.341951 -0.77937 1.06066 -1.06066 
C 0.77937 -1.341951 0.397805 -1.5 0 -1.5 
C -0.397805 -1.5 -0.77937 -1.341951 -1.06066 -1.06066 
C -1.341951 -0.77937 -1.5 -0.397805 -1.5 0 
C -1.5 0.397805 -1.341951 0.77937 -1.06066 1.06066 
C -0.77937 1.341951 -0.397805 1.5 0 1.5 
z
" style="stroke: #3f3f3f"/>
    </defs>
    <g clip-path="url(#p289f2f4fc9)">
     <use xlink:href="#m0c0a0e18cf" x="236.16" y="229.900223" style="fill: #ffffff; stroke: #3f3f3f"/>
    </g>
   </g>
  </g>
 </g>
 <defs>
  <clipPath id="p289f2f4fc9">
   <rect x="57.6" y="41.472" width="357.12" height="266.112"/>
  </clipPath>
 </defs>
</svg>
