<?xml version="1.0" encoding="utf-8" standalone="no"?>
<!DOCTYPE svg PUBLIC "-//W3C//DTD SVG 1.1//EN"
  "http://www.w3.org/Graphics/SVG/1.1/DTD/svg11.dtd">
<svg xmlns:xlink="http://www.w3.org/1999/xlink" width="460.8pt" height="345.6pt" viewBox="0 0 460.8 345.6" xmlns="http://www.w3.org/2000/svg" version="1.1">
 <metadata>
  <rdf:RDF xmlns:dc="http://purl.org/dc/elements/1.1/" xmlns:cc="http://creativecommons.org/ns#" xmlns:rdf="http://www.w3.org/1999/02/22-rdf-syntax-ns#">
   <cc:Work>
    <dc:type rdf:resource="http://purl.org/dc/dcmitype/StillImage"/>
    <dc:date>2024-02-27T23:17:26.825188</dc:date>
    <dc:format>image/svg+xml</dc:format>
    <dc:creator>
     <cc:Agent>
      <dc:title>Matplotlib v3.5.1, https://matplotlib.org/</dc:title>
     </cc:Agent>
    </dc:creator>
   </cc:Work>
  </rdf:RDF>
 </metadata>
 <defs>
  <style type="text/css">*{stroke-linejoin: round; stroke-linecap: butt}</style>
 </defs>
 <g id="figure_1">
  <g id="patch_1">
   <path d="M 0 345.6 
L 460.8 345.6 
L 460.8 0 
L 0 0 
z
" style="fill: #ffffff"/>
  </g>
  <g id="axes_1">
   <g id="patch_2">
    <path d="M 57.6 307.584 
L 219.927273 307.584 
L 219.927273 41.472 
L 57.6 41.472 
z
" style="fill: #ffffff"/>
   </g>
   <g id="PolyCollection_1">
    <defs>
     <path id="m730552d39e" d="M 146.095824 -13.706309 
L 131.431448 -13.706309 
L 126.607026 -16.87878 
L 119.91825 -20.051251 
L 111.443076 -23.223722 
L 101.714668 -26.396192 
L 91.750173 -29.568663 
L 82.909092 -32.741134 
L 76.586856 -35.913605 
L 73.832727 -39.086076 
L 75.035868 -42.258546 
L 79.810199 -45.431017 
L 87.126275 -48.603488 
L 95.629587 -51.775959 
L 104.009838 -54.94843 
L 111.28309 -58.120901 
L 116.911009 -61.293371 
L 120.76536 -64.465842 
L 123.004227 -67.638313 
L 123.936677 -70.810784 
L 123.924257 -73.983255 
L 123.328095 -77.155726 
L 122.483913 -80.328196 
L 121.682909 -83.500667 
L 121.148067 -86.673138 
L 121.009987 -89.845609 
L 121.293618 -93.01808 
L 121.924772 -96.19055 
L 122.756923 -99.363021 
L 123.610678 -102.535492 
L 124.314413 -105.707963 
L 124.735692 -108.880434 
L 124.79771 -112.052905 
L 124.480972 -115.225375 
L 123.815509 -118.397846 
L 122.870982 -121.570317 
L 121.749693 -124.742788 
L 120.581873 -127.915259 
L 119.517363 -131.08773 
L 118.707323 -134.2602 
L 118.275387 -137.432671 
L 118.286447 -140.605142 
L 118.726676 -143.777613 
L 119.505948 -146.950084 
L 120.484161 -150.122554 
L 121.511929 -153.295025 
L 122.470293 -156.467496 
L 123.296081 -159.639967 
L 123.987124 -162.812438 
L 124.589605 -165.984909 
L 125.174679 -169.157379 
L 125.812545 -172.32985 
L 126.550831 -175.502321 
L 127.401839 -178.674792 
L 128.340514 -181.847263 
L 129.311878 -185.019734 
L 130.244012 -188.192204 
L 131.061629 -191.364675 
L 131.696577 -194.537146 
L 132.094368 -197.709617 
L 132.218244 -200.882088 
L 132.052866 -204.054558 
L 131.608487 -207.227029 
L 130.924629 -210.3995 
L 130.071207 -213.571971 
L 129.145176 -216.744442 
L 128.261605 -219.916913 
L 127.539197 -223.089383 
L 127.081642 -226.261854 
L 126.958025 -229.434325 
L 127.187524 -232.606796 
L 127.734151 -235.779267 
L 128.515162 -238.951738 
L 129.421771 -242.124208 
L 130.345473 -245.296679 
L 131.200552 -248.46915 
L 131.935263 -251.641621 
L 132.529773 -254.814092 
L 132.985001 -257.986562 
L 133.309764 -261.159033 
L 133.512714 -264.331504 
L 133.601568 -267.503975 
L 133.587809 -270.676446 
L 133.492637 -273.848917 
L 133.350174 -277.021387 
L 133.206039 -280.193858 
L 133.111634 -283.366329 
L 133.115971 -286.5388 
L 133.257074 -289.711271 
L 133.55475 -292.883742 
L 134.006186 -296.056212 
L 134.585519 -299.228683 
L 135.248014 -302.401154 
L 135.93835 -305.573625 
L 136.601173 -308.746096 
L 137.191106 -311.918566 
L 137.679484 -315.091037 
L 138.056298 -318.263508 
L 138.327596 -321.435979 
L 138.510004 -324.60845 
L 138.624589 -327.780921 
L 138.902684 -327.780921 
L 138.902684 -327.780921 
L 139.017269 -324.60845 
L 139.199677 -321.435979 
L 139.470974 -318.263508 
L 139.847789 -315.091037 
L 140.336167 -311.918566 
L 140.9261 -308.746096 
L 141.588923 -305.573625 
L 142.279258 -302.401154 
L 142.941753 -299.228683 
L 143.521087 -296.056212 
L 143.972522 -292.883742 
L 144.270199 -289.711271 
L 144.411302 -286.5388 
L 144.415639 -283.366329 
L 144.321234 -280.193858 
L 144.177098 -277.021387 
L 144.034636 -273.848917 
L 143.939463 -270.676446 
L 143.925705 -267.503975 
L 144.014559 -264.331504 
L 144.217509 -261.159033 
L 144.542272 -257.986562 
L 144.997499 -254.814092 
L 145.59201 -251.641621 
L 146.326721 -248.46915 
L 147.1818 -245.296679 
L 148.105502 -242.124208 
L 149.012111 -238.951738 
L 149.793121 -235.779267 
L 150.339749 -232.606796 
L 150.569247 -229.434325 
L 150.445631 -226.261854 
L 149.988076 -223.089383 
L 149.265668 -219.916913 
L 148.382096 -216.744442 
L 147.456066 -213.571971 
L 146.602644 -210.3995 
L 145.918786 -207.227029 
L 145.474407 -204.054558 
L 145.309029 -200.882088 
L 145.432905 -197.709617 
L 145.830696 -194.537146 
L 146.465644 -191.364675 
L 147.28326 -188.192204 
L 148.215395 -185.019734 
L 149.186759 -181.847263 
L 150.125434 -178.674792 
L 150.976442 -175.502321 
L 151.714727 -172.32985 
L 152.352594 -169.157379 
L 152.937667 -165.984909 
L 153.540149 -162.812438 
L 154.231192 -159.639967 
L 155.05698 -156.467496 
L 156.015344 -153.295025 
L 157.043112 -150.122554 
L 158.021324 -146.950084 
L 158.800597 -143.777613 
L 159.240826 -140.605142 
L 159.251886 -137.432671 
L 158.81995 -134.2602 
L 158.00991 -131.08773 
L 156.9454 -127.915259 
L 155.77758 -124.742788 
L 154.656291 -121.570317 
L 153.711764 -118.397846 
L 153.046301 -115.225375 
L 152.729563 -112.052905 
L 152.791581 -108.880434 
L 153.21286 -105.707963 
L 153.916595 -102.535492 
L 154.77035 -99.363021 
L 155.602501 -96.19055 
L 156.233655 -93.01808 
L 156.517286 -89.845609 
L 156.379206 -86.673138 
L 155.844363 -83.500667 
L 155.043359 -80.328196 
L 154.199178 -77.155726 
L 153.603016 -73.983255 
L 153.590595 -70.810784 
L 154.523046 -67.638313 
L 156.761913 -64.465842 
L 160.616263 -61.293371 
L 166.244182 -58.120901 
L 173.517435 -54.94843 
L 181.897686 -51.775959 
L 190.400998 -48.603488 
L 197.717074 -45.431017 
L 202.491405 -42.258546 
L 203.694545 -39.086076 
L 200.940416 -35.913605 
L 194.618181 -32.741134 
L 185.7771 -29.568663 
L 175.812604 -26.396192 
L 166.084197 -23.223722 
L 157.609023 -20.051251 
L 150.920246 -16.87878 
L 146.095824 -13.706309 
z
" style="stroke: #3f3f3f; stroke-width: 1.5"/>
    </defs>
    <g clip-path="url(#p6a95b722ab)">
     <use xlink:href="#m730552d39e" x="0" y="345.6" style="fill: #3274a1; stroke: #3f3f3f; stroke-width: 1.5"/>
    </g>
   </g>
   <g id="matplotlib.axis_1">
    <g id="xtick_1">
     <g id="line2d_1">
      <defs>
       <path id="m30fcfb2c4f" d="M 0 0 
L 0 6 
" style="stroke: #000000"/>
      </defs>
      <g>
       <use xlink:href="#m30fcfb2c4f" x="138.763636" y="307.584" style="stroke: #000000"/>
      </g>
     </g>
    </g>
   </g>
   <g id="matplotlib.axis_2">
    <g id="ytick_1">
     <g id="line2d_2">
      <defs>
       <path id="m9fae72b039" d="M 0 0 
L -6 0 
" style="stroke: #000000"/>
      </defs>
      <g>
       <use xlink:href="#m9fae72b039" x="57.6" y="307.584" style="stroke: #000000"/>
      </g>
     </g>
     <g id="text_1">
      <!-- 0.0 -->
      <g transform="translate(29.696875 311.383219)scale(0.1 -0.1)">
       <defs>
        <path id="DejaVuSans-30" d="M 2034 4250 
Q 1547 4250 1301 3770 
Q 1056 3291 1056 2328 
Q 1056 1369 1301 889 
Q 1547 409 2034 409 
Q 2525 409 2770 889 
Q 3016 1369 3016 2328 
Q 3016 3291 2770 3770 
Q 2525 4250 2034 4250 
z
M 2034 4750 
Q 2819 4750 3233 4129 
Q 3647 3509 3647 2328 
Q 3647 1150 3233 529 
Q 2819 -91 2034 -91 
Q 1250 -91 836 529 
Q 422 1150 422 2328 
Q 422 3509 836 4129 
Q 1250 4750 2034 4750 
z
" transform="scale(0.015625)"/>
        <path id="DejaVuSans-2e" d="M 684 794 
L 1344 794 
L 1344 0 
L 684 0 
L 684 794 
z
" transform="scale(0.015625)"/>
       </defs>
       <use xlink:href="#DejaVuSans-30"/>
       <use xlink:href="#DejaVuSans-2e" x="63.623047"/>
       <use xlink:href="#DejaVuSans-30" x="95.410156"/>
      </g>
     </g>
    </g>
    <g id="ytick_2">
     <g id="line2d_3">
      <g>
       <use xlink:href="#m9fae72b039" x="57.6" y="264.536852" style="stroke: #000000"/>
      </g>
     </g>
     <g id="text_2">
      <!-- 0.5 -->
      <g transform="translate(29.696875 268.336071)scale(0.1 -0.1)">
       <defs>
        <path id="DejaVuSans-35" d="M 691 4666 
L 3169 4666 
L 3169 4134 
L 1269 4134 
L 1269 2991 
Q 1406 3038 1543 3061 
Q 1681 3084 1819 3084 
Q 2600 3084 3056 2656 
Q 3513 2228 3513 1497 
Q 3513 744 3044 326 
Q 2575 -91 1722 -91 
Q 1428 -91 1123 -41 
Q 819 9 494 109 
L 494 744 
Q 775 591 1075 516 
Q 1375 441 1709 441 
Q 2250 441 2565 725 
Q 2881 1009 2881 1497 
Q 2881 1984 2565 2268 
Q 2250 2553 1709 2553 
Q 1456 2553 1204 2497 
Q 953 2441 691 2322 
L 691 4666 
z
" transform="scale(0.015625)"/>
       </defs>
       <use xlink:href="#DejaVuSans-30"/>
       <use xlink:href="#DejaVuSans-2e" x="63.623047"/>
       <use xlink:href="#DejaVuSans-35" x="95.410156"/>
      </g>
     </g>
    </g>
    <g id="ytick_3">
     <g id="line2d_4">
      <g>
       <use xlink:href="#m9fae72b039" x="57.6" y="221.489705" style="stroke: #000000"/>
      </g>
     </g>
     <g id="text_3">
      <!-- 1.0 -->
      <g transform="translate(29.696875 225.288923)scale(0.1 -0.1)">
       <defs>
        <path id="DejaVuSans-31" d="M 794 531 
L 1825 531 
L 1825 4091 
L 703 3866 
L 703 4441 
L 1819 4666 
L 2450 4666 
L 2450 531 
L 3481 531 
L 3481 0 
L 794 0 
L 794 531 
z
" transform="scale(0.015625)"/>
       </defs>
       <use xlink:href="#DejaVuSans-31"/>
       <use xlink:href="#DejaVuSans-2e" x="63.623047"/>
       <use xlink:href="#DejaVuSans-30" x="95.410156"/>
      </g>
     </g>
    </g>
    <g id="ytick_4">
     <g id="line2d_5">
      <g>
       <use xlink:href="#m9fae72b039" x="57.6" y="178.442557" style="stroke: #000000"/>
      </g>
     </g>
     <g id="text_4">
      <!-- 1.5 -->
      <g transform="translate(29.696875 182.241776)scale(0.1 -0.1)">
       <use xlink:href="#DejaVuSans-31"/>
       <use xlink:href="#DejaVuSans-2e" x="63.623047"/>
       <use xlink:href="#DejaVuSans-35" x="95.410156"/>
      </g>
     </g>
    </g>
    <g id="ytick_5">
     <g id="line2d_6">
      <g>
       <use xlink:href="#m9fae72b039" x="57.6" y="135.395409" style="stroke: #000000"/>
      </g>
     </g>
     <g id="text_5">
      <!-- 2.0 -->
      <g transform="translate(29.696875 139.194628)scale(0.1 -0.1)">
       <defs>
        <path id="DejaVuSans-32" d="M 1228 531 
L 3431 531 
L 3431 0 
L 469 0 
L 469 531 
Q 828 903 1448 1529 
Q 2069 2156 2228 2338 
Q 2531 2678 2651 2914 
Q 2772 3150 2772 3378 
Q 2772 3750 2511 3984 
Q 2250 4219 1831 4219 
Q 1534 4219 1204 4116 
Q 875 4013 500 3803 
L 500 4441 
Q 881 4594 1212 4672 
Q 1544 4750 1819 4750 
Q 2544 4750 2975 4387 
Q 3406 4025 3406 3419 
Q 3406 3131 3298 2873 
Q 3191 2616 2906 2266 
Q 2828 2175 2409 1742 
Q 1991 1309 1228 531 
z
" transform="scale(0.015625)"/>
       </defs>
       <use xlink:href="#DejaVuSans-32"/>
       <use xlink:href="#DejaVuSans-2e" x="63.623047"/>
       <use xlink:href="#DejaVuSans-30" x="95.410156"/>
      </g>
     </g>
    </g>
    <g id="ytick_6">
     <g id="line2d_7">
      <g>
       <use xlink:href="#m9fae72b039" x="57.6" y="92.348262" style="stroke: #000000"/>
      </g>
     </g>
     <g id="text_6">
      <!-- 2.5 -->
      <g transform="translate(29.696875 96.14748)scale(0.1 -0.1)">
       <use xlink:href="#DejaVuSans-32"/>
       <use xlink:href="#DejaVuSans-2e" x="63.623047"/>
       <use xlink:href="#DejaVuSans-35" x="95.410156"/>
      </g>
     </g>
    </g>
    <g id="ytick_7">
     <g id="line2d_8">
      <g>
       <use xlink:href="#m9fae72b039" x="57.6" y="49.301114" style="stroke: #000000"/>
      </g>
     </g>
     <g id="text_7">
      <!-- 3.0 -->
      <g transform="translate(29.696875 53.100333)scale(0.1 -0.1)">
       <defs>
        <path id="DejaVuSans-33" d="M 2597 2516 
Q 3050 2419 3304 2112 
Q 3559 1806 3559 1356 
Q 3559 666 3084 287 
Q 2609 -91 1734 -91 
Q 1441 -91 1130 -33 
Q 819 25 488 141 
L 488 750 
Q 750 597 1062 519 
Q 1375 441 1716 441 
Q 2309 441 2620 675 
Q 2931 909 2931 1356 
Q 2931 1769 2642 2001 
Q 2353 2234 1838 2234 
L 1294 2234 
L 1294 2753 
L 1863 2753 
Q 2328 2753 2575 2939 
Q 2822 3125 2822 3475 
Q 2822 3834 2567 4026 
Q 2313 4219 1838 4219 
Q 1578 4219 1281 4162 
Q 984 4106 628 3988 
L 628 4550 
Q 988 4650 1302 4700 
Q 1616 4750 1894 4750 
Q 2613 4750 3031 4423 
Q 3450 4097 3450 3541 
Q 3450 3153 3228 2886 
Q 3006 2619 2597 2516 
z
" transform="scale(0.015625)"/>
       </defs>
       <use xlink:href="#DejaVuSans-33"/>
       <use xlink:href="#DejaVuSans-2e" x="63.623047"/>
       <use xlink:href="#DejaVuSans-30" x="95.410156"/>
      </g>
     </g>
    </g>
    <g id="text_8">
     <!-- Distance (millions of base pairs) -->
     <g transform="translate(23.617187 254.93425)rotate(-90)scale(0.1 -0.1)">
      <defs>
       <path id="DejaVuSans-44" d="M 1259 4147 
L 1259 519 
L 2022 519 
Q 2988 519 3436 956 
Q 3884 1394 3884 2338 
Q 3884 3275 3436 3711 
Q 2988 4147 2022 4147 
L 1259 4147 
z
M 628 4666 
L 1925 4666 
Q 3281 4666 3915 4102 
Q 4550 3538 4550 2338 
Q 4550 1131 3912 565 
Q 3275 0 1925 0 
L 628 0 
L 628 4666 
z
" transform="scale(0.015625)"/>
       <path id="DejaVuSans-69" d="M 603 3500 
L 1178 3500 
L 1178 0 
L 603 0 
L 603 3500 
z
M 603 4863 
L 1178 4863 
L 1178 4134 
L 603 4134 
L 603 4863 
z
" transform="scale(0.015625)"/>
       <path id="DejaVuSans-73" d="M 2834 3397 
L 2834 2853 
Q 2591 2978 2328 3040 
Q 2066 3103 1784 3103 
Q 1356 3103 1142 2972 
Q 928 2841 928 2578 
Q 928 2378 1081 2264 
Q 1234 2150 1697 2047 
L 1894 2003 
Q 2506 1872 2764 1633 
Q 3022 1394 3022 966 
Q 3022 478 2636 193 
Q 2250 -91 1575 -91 
Q 1294 -91 989 -36 
Q 684 19 347 128 
L 347 722 
Q 666 556 975 473 
Q 1284 391 1588 391 
Q 1994 391 2212 530 
Q 2431 669 2431 922 
Q 2431 1156 2273 1281 
Q 2116 1406 1581 1522 
L 1381 1569 
Q 847 1681 609 1914 
Q 372 2147 372 2553 
Q 372 3047 722 3315 
Q 1072 3584 1716 3584 
Q 2034 3584 2315 3537 
Q 2597 3491 2834 3397 
z
" transform="scale(0.015625)"/>
       <path id="DejaVuSans-74" d="M 1172 4494 
L 1172 3500 
L 2356 3500 
L 2356 3053 
L 1172 3053 
L 1172 1153 
Q 1172 725 1289 603 
Q 1406 481 1766 481 
L 2356 481 
L 2356 0 
L 1766 0 
Q 1100 0 847 248 
Q 594 497 594 1153 
L 594 3053 
L 172 3053 
L 172 3500 
L 594 3500 
L 594 4494 
L 1172 4494 
z
" transform="scale(0.015625)"/>
       <path id="DejaVuSans-61" d="M 2194 1759 
Q 1497 1759 1228 1600 
Q 959 1441 959 1056 
Q 959 750 1161 570 
Q 1363 391 1709 391 
Q 2188 391 2477 730 
Q 2766 1069 2766 1631 
L 2766 1759 
L 2194 1759 
z
M 3341 1997 
L 3341 0 
L 2766 0 
L 2766 531 
Q 2569 213 2275 61 
Q 1981 -91 1556 -91 
Q 1019 -91 701 211 
Q 384 513 384 1019 
Q 384 1609 779 1909 
Q 1175 2209 1959 2209 
L 2766 2209 
L 2766 2266 
Q 2766 2663 2505 2880 
Q 2244 3097 1772 3097 
Q 1472 3097 1187 3025 
Q 903 2953 641 2809 
L 641 3341 
Q 956 3463 1253 3523 
Q 1550 3584 1831 3584 
Q 2591 3584 2966 3190 
Q 3341 2797 3341 1997 
z
" transform="scale(0.015625)"/>
       <path id="DejaVuSans-6e" d="M 3513 2113 
L 3513 0 
L 2938 0 
L 2938 2094 
Q 2938 2591 2744 2837 
Q 2550 3084 2163 3084 
Q 1697 3084 1428 2787 
Q 1159 2491 1159 1978 
L 1159 0 
L 581 0 
L 581 3500 
L 1159 3500 
L 1159 2956 
Q 1366 3272 1645 3428 
Q 1925 3584 2291 3584 
Q 2894 3584 3203 3211 
Q 3513 2838 3513 2113 
z
" transform="scale(0.015625)"/>
       <path id="DejaVuSans-63" d="M 3122 3366 
L 3122 2828 
Q 2878 2963 2633 3030 
Q 2388 3097 2138 3097 
Q 1578 3097 1268 2742 
Q 959 2388 959 1747 
Q 959 1106 1268 751 
Q 1578 397 2138 397 
Q 2388 397 2633 464 
Q 2878 531 3122 666 
L 3122 134 
Q 2881 22 2623 -34 
Q 2366 -91 2075 -91 
Q 1284 -91 818 406 
Q 353 903 353 1747 
Q 353 2603 823 3093 
Q 1294 3584 2113 3584 
Q 2378 3584 2631 3529 
Q 2884 3475 3122 3366 
z
" transform="scale(0.015625)"/>
       <path id="DejaVuSans-65" d="M 3597 1894 
L 3597 1613 
L 953 1613 
Q 991 1019 1311 708 
Q 1631 397 2203 397 
Q 2534 397 2845 478 
Q 3156 559 3463 722 
L 3463 178 
Q 3153 47 2828 -22 
Q 2503 -91 2169 -91 
Q 1331 -91 842 396 
Q 353 884 353 1716 
Q 353 2575 817 3079 
Q 1281 3584 2069 3584 
Q 2775 3584 3186 3129 
Q 3597 2675 3597 1894 
z
M 3022 2063 
Q 3016 2534 2758 2815 
Q 2500 3097 2075 3097 
Q 1594 3097 1305 2825 
Q 1016 2553 972 2059 
L 3022 2063 
z
" transform="scale(0.015625)"/>
       <path id="DejaVuSans-20" transform="scale(0.015625)"/>
       <path id="DejaVuSans-28" d="M 1984 4856 
Q 1566 4138 1362 3434 
Q 1159 2731 1159 2009 
Q 1159 1288 1364 580 
Q 1569 -128 1984 -844 
L 1484 -844 
Q 1016 -109 783 600 
Q 550 1309 550 2009 
Q 550 2706 781 3412 
Q 1013 4119 1484 4856 
L 1984 4856 
z
" transform="scale(0.015625)"/>
       <path id="DejaVuSans-6d" d="M 3328 2828 
Q 3544 3216 3844 3400 
Q 4144 3584 4550 3584 
Q 5097 3584 5394 3201 
Q 5691 2819 5691 2113 
L 5691 0 
L 5113 0 
L 5113 2094 
Q 5113 2597 4934 2840 
Q 4756 3084 4391 3084 
Q 3944 3084 3684 2787 
Q 3425 2491 3425 1978 
L 3425 0 
L 2847 0 
L 2847 2094 
Q 2847 2600 2669 2842 
Q 2491 3084 2119 3084 
Q 1678 3084 1418 2786 
Q 1159 2488 1159 1978 
L 1159 0 
L 581 0 
L 581 3500 
L 1159 3500 
L 1159 2956 
Q 1356 3278 1631 3431 
Q 1906 3584 2284 3584 
Q 2666 3584 2933 3390 
Q 3200 3197 3328 2828 
z
" transform="scale(0.015625)"/>
       <path id="DejaVuSans-6c" d="M 603 4863 
L 1178 4863 
L 1178 0 
L 603 0 
L 603 4863 
z
" transform="scale(0.015625)"/>
       <path id="DejaVuSans-6f" d="M 1959 3097 
Q 1497 3097 1228 2736 
Q 959 2375 959 1747 
Q 959 1119 1226 758 
Q 1494 397 1959 397 
Q 2419 397 2687 759 
Q 2956 1122 2956 1747 
Q 2956 2369 2687 2733 
Q 2419 3097 1959 3097 
z
M 1959 3584 
Q 2709 3584 3137 3096 
Q 3566 2609 3566 1747 
Q 3566 888 3137 398 
Q 2709 -91 1959 -91 
Q 1206 -91 779 398 
Q 353 888 353 1747 
Q 353 2609 779 3096 
Q 1206 3584 1959 3584 
z
" transform="scale(0.015625)"/>
       <path id="DejaVuSans-66" d="M 2375 4863 
L 2375 4384 
L 1825 4384 
Q 1516 4384 1395 4259 
Q 1275 4134 1275 3809 
L 1275 3500 
L 2222 3500 
L 2222 3053 
L 1275 3053 
L 1275 0 
L 697 0 
L 697 3053 
L 147 3053 
L 147 3500 
L 697 3500 
L 697 3744 
Q 697 4328 969 4595 
Q 1241 4863 1831 4863 
L 2375 4863 
z
" transform="scale(0.015625)"/>
       <path id="DejaVuSans-62" d="M 3116 1747 
Q 3116 2381 2855 2742 
Q 2594 3103 2138 3103 
Q 1681 3103 1420 2742 
Q 1159 2381 1159 1747 
Q 1159 1113 1420 752 
Q 1681 391 2138 391 
Q 2594 391 2855 752 
Q 3116 1113 3116 1747 
z
M 1159 2969 
Q 1341 3281 1617 3432 
Q 1894 3584 2278 3584 
Q 2916 3584 3314 3078 
Q 3713 2572 3713 1747 
Q 3713 922 3314 415 
Q 2916 -91 2278 -91 
Q 1894 -91 1617 61 
Q 1341 213 1159 525 
L 1159 0 
L 581 0 
L 581 4863 
L 1159 4863 
L 1159 2969 
z
" transform="scale(0.015625)"/>
       <path id="DejaVuSans-70" d="M 1159 525 
L 1159 -1331 
L 581 -1331 
L 581 3500 
L 1159 3500 
L 1159 2969 
Q 1341 3281 1617 3432 
Q 1894 3584 2278 3584 
Q 2916 3584 3314 3078 
Q 3713 2572 3713 1747 
Q 3713 922 3314 415 
Q 2916 -91 2278 -91 
Q 1894 -91 1617 61 
Q 1341 213 1159 525 
z
M 3116 1747 
Q 3116 2381 2855 2742 
Q 2594 3103 2138 3103 
Q 1681 3103 1420 2742 
Q 1159 2381 1159 1747 
Q 1159 1113 1420 752 
Q 1681 391 2138 391 
Q 2594 391 2855 752 
Q 3116 1113 3116 1747 
z
" transform="scale(0.015625)"/>
       <path id="DejaVuSans-72" d="M 2631 2963 
Q 2534 3019 2420 3045 
Q 2306 3072 2169 3072 
Q 1681 3072 1420 2755 
Q 1159 2438 1159 1844 
L 1159 0 
L 581 0 
L 581 3500 
L 1159 3500 
L 1159 2956 
Q 1341 3275 1631 3429 
Q 1922 3584 2338 3584 
Q 2397 3584 2469 3576 
Q 2541 3569 2628 3553 
L 2631 2963 
z
" transform="scale(0.015625)"/>
       <path id="DejaVuSans-29" d="M 513 4856 
L 1013 4856 
Q 1481 4119 1714 3412 
Q 1947 2706 1947 2009 
Q 1947 1309 1714 600 
Q 1481 -109 1013 -844 
L 513 -844 
Q 928 -128 1133 580 
Q 1338 1288 1338 2009 
Q 1338 2731 1133 3434 
Q 928 4138 513 4856 
z
" transform="scale(0.015625)"/>
      </defs>
      <use xlink:href="#DejaVuSans-44"/>
      <use xlink:href="#DejaVuSans-69" x="77.001953"/>
      <use xlink:href="#DejaVuSans-73" x="104.785156"/>
      <use xlink:href="#DejaVuSans-74" x="156.884766"/>
      <use xlink:href="#DejaVuSans-61" x="196.09375"/>
      <use xlink:href="#DejaVuSans-6e" x="257.373047"/>
      <use xlink:href="#DejaVuSans-63" x="320.751953"/>
      <use xlink:href="#DejaVuSans-65" x="375.732422"/>
      <use xlink:href="#DejaVuSans-20" x="437.255859"/>
      <use xlink:href="#DejaVuSans-28" x="469.042969"/>
      <use xlink:href="#DejaVuSans-6d" x="508.056641"/>
      <use xlink:href="#DejaVuSans-69" x="605.46875"/>
      <use xlink:href="#DejaVuSans-6c" x="633.251953"/>
      <use xlink:href="#DejaVuSans-6c" x="661.035156"/>
      <use xlink:href="#DejaVuSans-69" x="688.818359"/>
      <use xlink:href="#DejaVuSans-6f" x="716.601562"/>
      <use xlink:href="#DejaVuSans-6e" x="777.783203"/>
      <use xlink:href="#DejaVuSans-73" x="841.162109"/>
      <use xlink:href="#DejaVuSans-20" x="893.261719"/>
      <use xlink:href="#DejaVuSans-6f" x="925.048828"/>
      <use xlink:href="#DejaVuSans-66" x="986.230469"/>
      <use xlink:href="#DejaVuSans-20" x="1021.435547"/>
      <use xlink:href="#DejaVuSans-62" x="1053.222656"/>
      <use xlink:href="#DejaVuSans-61" x="1116.699219"/>
      <use xlink:href="#DejaVuSans-73" x="1177.978516"/>
      <use xlink:href="#DejaVuSans-65" x="1230.078125"/>
      <use xlink:href="#DejaVuSans-20" x="1291.601562"/>
      <use xlink:href="#DejaVuSans-70" x="1323.388672"/>
      <use xlink:href="#DejaVuSans-61" x="1386.865234"/>
      <use xlink:href="#DejaVuSans-69" x="1448.144531"/>
      <use xlink:href="#DejaVuSans-72" x="1475.927734"/>
      <use xlink:href="#DejaVuSans-73" x="1517.041016"/>
      <use xlink:href="#DejaVuSans-29" x="1569.140625"/>
     </g>
    </g>
    <g id="text_9">
     <!-- 1e6 -->
     <g transform="translate(57.6 38.472)scale(0.1 -0.1)">
      <defs>
       <path id="DejaVuSans-36" d="M 2113 2584 
Q 1688 2584 1439 2293 
Q 1191 2003 1191 1497 
Q 1191 994 1439 701 
Q 1688 409 2113 409 
Q 2538 409 2786 701 
Q 3034 994 3034 1497 
Q 3034 2003 2786 2293 
Q 2538 2584 2113 2584 
z
M 3366 4563 
L 3366 3988 
Q 3128 4100 2886 4159 
Q 2644 4219 2406 4219 
Q 1781 4219 1451 3797 
Q 1122 3375 1075 2522 
Q 1259 2794 1537 2939 
Q 1816 3084 2150 3084 
Q 2853 3084 3261 2657 
Q 3669 2231 3669 1497 
Q 3669 778 3244 343 
Q 2819 -91 2113 -91 
Q 1303 -91 875 529 
Q 447 1150 447 2328 
Q 447 3434 972 4092 
Q 1497 4750 2381 4750 
Q 2619 4750 2861 4703 
Q 3103 4656 3366 4563 
z
" transform="scale(0.015625)"/>
      </defs>
      <use xlink:href="#DejaVuSans-31"/>
      <use xlink:href="#DejaVuSans-65" x="63.623047"/>
      <use xlink:href="#DejaVuSans-36" x="125.146484"/>
     </g>
    </g>
   </g>
   <g id="line2d_9">
    <path d="M 138.763636 307.571258 
L 138.763636 42.141512 
" clip-path="url(#p6a95b722ab)" style="fill: none; stroke: #3f3f3f; stroke-width: 1.5; stroke-linecap: square"/>
   </g>
   <g id="line2d_10">
    <path d="M 138.763636 306.682162 
L 138.763636 187.959076 
" clip-path="url(#p6a95b722ab)" style="fill: none; stroke: #3f3f3f; stroke-width: 4.5; stroke-linecap: square"/>
   </g>
   <g id="patch_3">
    <path d="M 57.6 307.584 
L 57.6 41.472 
" style="fill: none; stroke: #000000; stroke-linejoin: miter; stroke-linecap: square"/>
   </g>
   <g id="patch_4">
    <path d="M 219.927273 307.584 
L 219.927273 41.472 
" style="fill: none; stroke: #000000; stroke-linejoin: miter; stroke-linecap: square"/>
   </g>
   <g id="patch_5">
    <path d="M 57.6 307.584 
L 219.927273 307.584 
" style="fill: none; stroke: #000000; stroke-linejoin: miter; stroke-linecap: square"/>
   </g>
   <g id="patch_6">
    <path d="M 57.6 41.472 
L 219.927273 41.472 
" style="fill: none; stroke: #000000; stroke-linejoin: miter; stroke-linecap: square"/>
   </g>
   <g id="PathCollection_1">
    <defs>
     <path id="mddd8f60bbf" d="M 0 1.5 
C 0.397805 1.5 0.77937 1.341951 1.06066 1.06066 
C 1.341951 0.77937 1.5 0.397805 1.5 0 
C 1.5 -0.397805 1.341951 -0.77937 1.06066 -1.06066 
C 0.77937 -1.341951 0.397805 -1.5 0 -1.5 
C -0.397805 -1.5 -0.77937 -1.341951 -1.06066 -1.06066 
C -1.341951 -0.77937 -1.5 -0.397805 -1.5 0 
C -1.5 0.397805 -1.341951 0.77937 -1.06066 1.06066 
C -0.77937 1.341951 -0.397805 1.5 0 1.5 
z
" style="stroke: #3f3f3f"/>
    </defs>
    <g clip-path="url(#p6a95b722ab)">
     <use xlink:href="#mddd8f60bbf" x="138.763636" y="259.255828" style="fill: #ffffff; stroke: #3f3f3f"/>
    </g>
   </g>
  </g>
  <g id="axes_2">
   <g id="patch_7">
    <path d="M 252.392727 307.584 
L 414.72 307.584 
L 414.72 41.472 
L 252.392727 41.472 
z
" style="fill: #ffffff"/>
   </g>
   <g id="PolyCollection_2">
    <defs>
     <path id="m2b497ab3cb" d="M 333.794617 -18.645225 
L 333.31811 -18.645225 
L 333.149092 -21.391572 
L 332.910308 -24.137919 
L 332.601982 -26.884266 
L 332.236021 -29.630613 
L 331.830582 -32.37696 
L 331.397126 -35.123307 
L 330.92405 -37.869654 
L 330.36447 -40.616001 
L 329.635183 -43.362348 
L 328.628656 -46.108695 
L 327.233174 -48.855042 
L 325.352049 -51.60139 
L 322.913767 -54.347737 
L 319.870268 -57.094084 
L 316.187656 -59.840431 
L 311.839378 -62.586778 
L 306.813611 -65.333125 
L 301.142005 -68.079472 
L 294.94587 -70.825819 
L 288.48183 -73.572166 
L 282.159844 -76.318513 
L 276.510125 -79.06486 
L 272.094026 -81.811207 
L 269.379993 -84.557554 
L 268.625455 -87.303901 
L 269.807143 -90.050248 
L 272.624228 -92.796595 
L 276.570846 -95.542942 
L 281.05162 -98.289289 
L 285.50506 -101.035636 
L 289.504665 -103.781983 
L 292.819083 -106.52833 
L 295.424274 -109.274677 
L 297.470307 -112.021024 
L 299.214295 -114.767371 
L 300.93852 -117.513719 
L 302.875863 -120.260066 
L 305.160208 -123.006413 
L 307.808905 -125.75276 
L 310.733318 -128.499107 
L 313.767341 -131.245454 
L 316.703613 -133.991801 
L 319.329629 -136.738148 
L 321.457783 -139.484495 
L 322.944807 -142.230842 
L 323.699148 -144.977189 
L 323.680013 -147.723536 
L 322.895766 -150.469883 
L 321.408084 -153.21623 
L 319.341235 -155.962577 
L 316.887445 -158.708924 
L 314.296164 -161.455271 
L 311.840452 -164.201618 
L 309.765644 -166.947965 
L 308.236978 -169.694312 
L 307.307057 -172.440659 
L 306.91764 -175.187006 
L 306.935527 -177.933353 
L 307.206542 -180.6797 
L 307.603209 -183.426048 
L 308.046536 -186.172395 
L 308.498412 -188.918742 
L 308.939338 -191.665089 
L 309.354561 -194.411436 
L 309.743751 -197.157783 
L 310.149594 -199.90413 
L 310.682106 -202.650477 
L 311.511578 -205.396824 
L 312.818649 -208.143171 
L 314.717038 -210.889518 
L 317.185695 -213.635865 
L 320.047456 -216.382212 
L 323.008456 -219.128559 
L 325.740443 -221.874906 
L 327.96723 -224.621253 
L 329.518933 -227.3676 
L 330.339015 -230.113947 
L 330.453787 -232.860294 
L 329.927876 -235.606641 
L 328.828743 -238.352988 
L 327.214125 -241.099335 
L 325.145269 -243.845682 
L 322.719096 -246.592029 
L 320.104189 -249.338377 
L 317.559969 -252.084724 
L 315.419965 -254.831071 
L 314.032257 -257.577418 
L 313.670678 -260.323765 
L 314.449164 -263.070112 
L 316.276502 -265.816459 
L 318.874114 -268.562806 
L 321.85185 -271.309153 
L 324.811453 -274.0555 
L 327.438105 -276.801847 
L 329.550767 -279.548194 
L 331.103831 -282.294541 
L 332.152772 -285.040888 
L 332.805895 -287.787235 
L 333.181662 -290.533582 
L 333.931065 -290.533582 
L 333.931065 -290.533582 
L 334.306832 -287.787235 
L 334.959956 -285.040888 
L 336.008897 -282.294541 
L 337.56196 -279.548194 
L 339.674622 -276.801847 
L 342.301274 -274.0555 
L 345.260878 -271.309153 
L 348.238613 -268.562806 
L 350.836225 -265.816459 
L 352.663564 -263.070112 
L 353.442049 -260.323765 
L 353.08047 -257.577418 
L 351.692762 -254.831071 
L 349.552758 -252.084724 
L 347.008539 -249.338377 
L 344.393632 -246.592029 
L 341.967458 -243.845682 
L 339.898602 -241.099335 
L 338.283984 -238.352988 
L 337.184851 -235.606641 
L 336.65894 -232.860294 
L 336.773712 -230.113947 
L 337.593794 -227.3676 
L 339.145497 -224.621253 
L 341.372285 -221.874906 
L 344.104271 -219.128559 
L 347.065271 -216.382212 
L 349.927032 -213.635865 
L 352.395689 -210.889518 
L 354.294078 -208.143171 
L 355.601149 -205.396824 
L 356.430621 -202.650477 
L 356.963134 -199.90413 
L 357.368976 -197.157783 
L 357.758166 -194.411436 
L 358.17339 -191.665089 
L 358.614315 -188.918742 
L 359.066191 -186.172395 
L 359.509518 -183.426048 
L 359.906185 -180.6797 
L 360.1772 -177.933353 
L 360.195088 -175.187006 
L 359.80567 -172.440659 
L 358.875749 -169.694312 
L 357.347083 -166.947965 
L 355.272275 -164.201618 
L 352.816563 -161.455271 
L 350.225282 -158.708924 
L 347.771492 -155.962577 
L 345.704643 -153.21623 
L 344.216962 -150.469883 
L 343.432714 -147.723536 
L 343.413579 -144.977189 
L 344.16792 -142.230842 
L 345.654945 -139.484495 
L 347.783099 -136.738148 
L 350.409114 -133.991801 
L 353.345386 -131.245454 
L 356.379409 -128.499107 
L 359.303823 -125.75276 
L 361.95252 -123.006413 
L 364.236864 -120.260066 
L 366.174208 -117.513719 
L 367.898432 -114.767371 
L 369.64242 -112.021024 
L 371.688453 -109.274677 
L 374.293644 -106.52833 
L 377.608062 -103.781983 
L 381.607667 -101.035636 
L 386.061108 -98.289289 
L 390.541881 -95.542942 
L 394.488499 -92.796595 
L 397.305584 -90.050248 
L 398.487273 -87.303901 
L 397.732734 -84.557554 
L 395.018701 -81.811207 
L 390.602602 -79.06486 
L 384.952884 -76.318513 
L 378.630897 -73.572166 
L 372.166857 -70.825819 
L 365.970722 -68.079472 
L 360.299116 -65.333125 
L 355.273349 -62.586778 
L 350.925072 -59.840431 
L 347.242459 -57.094084 
L 344.19896 -54.347737 
L 341.760679 -51.60139 
L 339.879554 -48.855042 
L 338.484071 -46.108695 
L 337.477544 -43.362348 
L 336.748257 -40.616001 
L 336.188678 -37.869654 
L 335.715601 -35.123307 
L 335.282146 -32.37696 
L 334.876706 -29.630613 
L 334.510745 -26.884266 
L 334.202419 -24.137919 
L 333.963635 -21.391572 
L 333.794617 -18.645225 
z
" style="stroke: #3f3f3f; stroke-width: 1.5"/>
    </defs>
    <g clip-path="url(#p3ee255f6e7)">
     <use xlink:href="#m2b497ab3cb" x="0" y="345.6" style="fill: #3274a1; stroke: #3f3f3f; stroke-width: 1.5"/>
    </g>
   </g>
   <g id="matplotlib.axis_3">
    <g id="xtick_2">
     <g id="line2d_11">
      <g>
       <use xlink:href="#m30fcfb2c4f" x="333.556364" y="307.584" style="stroke: #000000"/>
      </g>
     </g>
    </g>
   </g>
   <g id="matplotlib.axis_4">
    <g id="ytick_8">
     <g id="line2d_12">
      <g>
       <use xlink:href="#m9fae72b039" x="252.392727" y="307.584" style="stroke: #000000"/>
      </g>
     </g>
     <g id="text_10">
      <!-- 0 -->
      <g transform="translate(234.030227 311.383219)scale(0.1 -0.1)">
       <use xlink:href="#DejaVuSans-30"/>
      </g>
     </g>
    </g>
    <g id="ytick_9">
     <g id="line2d_13">
      <g>
       <use xlink:href="#m9fae72b039" x="252.392727" y="276.223201" style="stroke: #000000"/>
      </g>
     </g>
     <g id="text_11">
      <!-- 2 -->
      <g transform="translate(234.030227 280.02242)scale(0.1 -0.1)">
       <use xlink:href="#DejaVuSans-32"/>
      </g>
     </g>
    </g>
    <g id="ytick_10">
     <g id="line2d_14">
      <g>
       <use xlink:href="#m9fae72b039" x="252.392727" y="244.862403" style="stroke: #000000"/>
      </g>
     </g>
     <g id="text_12">
      <!-- 4 -->
      <g transform="translate(234.030227 248.661621)scale(0.1 -0.1)">
       <defs>
        <path id="DejaVuSans-34" d="M 2419 4116 
L 825 1625 
L 2419 1625 
L 2419 4116 
z
M 2253 4666 
L 3047 4666 
L 3047 1625 
L 3713 1625 
L 3713 1100 
L 3047 1100 
L 3047 0 
L 2419 0 
L 2419 1100 
L 313 1100 
L 313 1709 
L 2253 4666 
z
" transform="scale(0.015625)"/>
       </defs>
       <use xlink:href="#DejaVuSans-34"/>
      </g>
     </g>
    </g>
    <g id="ytick_11">
     <g id="line2d_15">
      <g>
       <use xlink:href="#m9fae72b039" x="252.392727" y="213.501604" style="stroke: #000000"/>
      </g>
     </g>
     <g id="text_13">
      <!-- 6 -->
      <g transform="translate(234.030227 217.300823)scale(0.1 -0.1)">
       <use xlink:href="#DejaVuSans-36"/>
      </g>
     </g>
    </g>
    <g id="ytick_12">
     <g id="line2d_16">
      <g>
       <use xlink:href="#m9fae72b039" x="252.392727" y="182.140805" style="stroke: #000000"/>
      </g>
     </g>
     <g id="text_14">
      <!-- 8 -->
      <g transform="translate(234.030227 185.940024)scale(0.1 -0.1)">
       <defs>
        <path id="DejaVuSans-38" d="M 2034 2216 
Q 1584 2216 1326 1975 
Q 1069 1734 1069 1313 
Q 1069 891 1326 650 
Q 1584 409 2034 409 
Q 2484 409 2743 651 
Q 3003 894 3003 1313 
Q 3003 1734 2745 1975 
Q 2488 2216 2034 2216 
z
M 1403 2484 
Q 997 2584 770 2862 
Q 544 3141 544 3541 
Q 544 4100 942 4425 
Q 1341 4750 2034 4750 
Q 2731 4750 3128 4425 
Q 3525 4100 3525 3541 
Q 3525 3141 3298 2862 
Q 3072 2584 2669 2484 
Q 3125 2378 3379 2068 
Q 3634 1759 3634 1313 
Q 3634 634 3220 271 
Q 2806 -91 2034 -91 
Q 1263 -91 848 271 
Q 434 634 434 1313 
Q 434 1759 690 2068 
Q 947 2378 1403 2484 
z
M 1172 3481 
Q 1172 3119 1398 2916 
Q 1625 2713 2034 2713 
Q 2441 2713 2670 2916 
Q 2900 3119 2900 3481 
Q 2900 3844 2670 4047 
Q 2441 4250 2034 4250 
Q 1625 4250 1398 4047 
Q 1172 3844 1172 3481 
z
" transform="scale(0.015625)"/>
       </defs>
       <use xlink:href="#DejaVuSans-38"/>
      </g>
     </g>
    </g>
    <g id="ytick_13">
     <g id="line2d_17">
      <g>
       <use xlink:href="#m9fae72b039" x="252.392727" y="150.780006" style="stroke: #000000"/>
      </g>
     </g>
     <g id="text_15">
      <!-- 10 -->
      <g transform="translate(227.667727 154.579225)scale(0.1 -0.1)">
       <use xlink:href="#DejaVuSans-31"/>
       <use xlink:href="#DejaVuSans-30" x="63.623047"/>
      </g>
     </g>
    </g>
    <g id="ytick_14">
     <g id="line2d_18">
      <g>
       <use xlink:href="#m9fae72b039" x="252.392727" y="119.419208" style="stroke: #000000"/>
      </g>
     </g>
     <g id="text_16">
      <!-- 12 -->
      <g transform="translate(227.667727 123.218427)scale(0.1 -0.1)">
       <use xlink:href="#DejaVuSans-31"/>
       <use xlink:href="#DejaVuSans-32" x="63.623047"/>
      </g>
     </g>
    </g>
    <g id="ytick_15">
     <g id="line2d_19">
      <g>
       <use xlink:href="#m9fae72b039" x="252.392727" y="88.058409" style="stroke: #000000"/>
      </g>
     </g>
     <g id="text_17">
      <!-- 14 -->
      <g transform="translate(227.667727 91.857628)scale(0.1 -0.1)">
       <use xlink:href="#DejaVuSans-31"/>
       <use xlink:href="#DejaVuSans-34" x="63.623047"/>
      </g>
     </g>
    </g>
    <g id="ytick_16">
     <g id="line2d_20">
      <g>
       <use xlink:href="#m9fae72b039" x="252.392727" y="56.69761" style="stroke: #000000"/>
      </g>
     </g>
     <g id="text_18">
      <!-- 16 -->
      <g transform="translate(227.667727 60.496829)scale(0.1 -0.1)">
       <use xlink:href="#DejaVuSans-31"/>
       <use xlink:href="#DejaVuSans-36" x="63.623047"/>
      </g>
     </g>
    </g>
    <g id="text_19">
     <!-- Log HiC interaction strength -->
     <g transform="translate(221.58804 244.964719)rotate(-90)scale(0.1 -0.1)">
      <defs>
       <path id="DejaVuSans-4c" d="M 628 4666 
L 1259 4666 
L 1259 531 
L 3531 531 
L 3531 0 
L 628 0 
L 628 4666 
z
" transform="scale(0.015625)"/>
       <path id="DejaVuSans-67" d="M 2906 1791 
Q 2906 2416 2648 2759 
Q 2391 3103 1925 3103 
Q 1463 3103 1205 2759 
Q 947 2416 947 1791 
Q 947 1169 1205 825 
Q 1463 481 1925 481 
Q 2391 481 2648 825 
Q 2906 1169 2906 1791 
z
M 3481 434 
Q 3481 -459 3084 -895 
Q 2688 -1331 1869 -1331 
Q 1566 -1331 1297 -1286 
Q 1028 -1241 775 -1147 
L 775 -588 
Q 1028 -725 1275 -790 
Q 1522 -856 1778 -856 
Q 2344 -856 2625 -561 
Q 2906 -266 2906 331 
L 2906 616 
Q 2728 306 2450 153 
Q 2172 0 1784 0 
Q 1141 0 747 490 
Q 353 981 353 1791 
Q 353 2603 747 3093 
Q 1141 3584 1784 3584 
Q 2172 3584 2450 3431 
Q 2728 3278 2906 2969 
L 2906 3500 
L 3481 3500 
L 3481 434 
z
" transform="scale(0.015625)"/>
       <path id="DejaVuSans-48" d="M 628 4666 
L 1259 4666 
L 1259 2753 
L 3553 2753 
L 3553 4666 
L 4184 4666 
L 4184 0 
L 3553 0 
L 3553 2222 
L 1259 2222 
L 1259 0 
L 628 0 
L 628 4666 
z
" transform="scale(0.015625)"/>
       <path id="DejaVuSans-43" d="M 4122 4306 
L 4122 3641 
Q 3803 3938 3442 4084 
Q 3081 4231 2675 4231 
Q 1875 4231 1450 3742 
Q 1025 3253 1025 2328 
Q 1025 1406 1450 917 
Q 1875 428 2675 428 
Q 3081 428 3442 575 
Q 3803 722 4122 1019 
L 4122 359 
Q 3791 134 3420 21 
Q 3050 -91 2638 -91 
Q 1578 -91 968 557 
Q 359 1206 359 2328 
Q 359 3453 968 4101 
Q 1578 4750 2638 4750 
Q 3056 4750 3426 4639 
Q 3797 4528 4122 4306 
z
" transform="scale(0.015625)"/>
       <path id="DejaVuSans-68" d="M 3513 2113 
L 3513 0 
L 2938 0 
L 2938 2094 
Q 2938 2591 2744 2837 
Q 2550 3084 2163 3084 
Q 1697 3084 1428 2787 
Q 1159 2491 1159 1978 
L 1159 0 
L 581 0 
L 581 4863 
L 1159 4863 
L 1159 2956 
Q 1366 3272 1645 3428 
Q 1925 3584 2291 3584 
Q 2894 3584 3203 3211 
Q 3513 2838 3513 2113 
z
" transform="scale(0.015625)"/>
      </defs>
      <use xlink:href="#DejaVuSans-4c"/>
      <use xlink:href="#DejaVuSans-6f" x="53.962891"/>
      <use xlink:href="#DejaVuSans-67" x="115.144531"/>
      <use xlink:href="#DejaVuSans-20" x="178.621094"/>
      <use xlink:href="#DejaVuSans-48" x="210.408203"/>
      <use xlink:href="#DejaVuSans-69" x="285.603516"/>
      <use xlink:href="#DejaVuSans-43" x="313.386719"/>
      <use xlink:href="#DejaVuSans-20" x="383.210938"/>
      <use xlink:href="#DejaVuSans-69" x="414.998047"/>
      <use xlink:href="#DejaVuSans-6e" x="442.78125"/>
      <use xlink:href="#DejaVuSans-74" x="506.160156"/>
      <use xlink:href="#DejaVuSans-65" x="545.369141"/>
      <use xlink:href="#DejaVuSans-72" x="606.892578"/>
      <use xlink:href="#DejaVuSans-61" x="648.005859"/>
      <use xlink:href="#DejaVuSans-63" x="709.285156"/>
      <use xlink:href="#DejaVuSans-74" x="764.265625"/>
      <use xlink:href="#DejaVuSans-69" x="803.474609"/>
      <use xlink:href="#DejaVuSans-6f" x="831.257812"/>
      <use xlink:href="#DejaVuSans-6e" x="892.439453"/>
      <use xlink:href="#DejaVuSans-20" x="955.818359"/>
      <use xlink:href="#DejaVuSans-73" x="987.605469"/>
      <use xlink:href="#DejaVuSans-74" x="1039.705078"/>
      <use xlink:href="#DejaVuSans-72" x="1078.914062"/>
      <use xlink:href="#DejaVuSans-65" x="1117.777344"/>
      <use xlink:href="#DejaVuSans-6e" x="1179.300781"/>
      <use xlink:href="#DejaVuSans-67" x="1242.679688"/>
      <use xlink:href="#DejaVuSans-74" x="1306.15625"/>
      <use xlink:href="#DejaVuSans-68" x="1345.365234"/>
     </g>
    </g>
   </g>
   <g id="line2d_21">
    <path d="M 333.556364 307.584 
L 333.556364 74.437193 
" clip-path="url(#p3ee255f6e7)" style="fill: none; stroke: #3f3f3f; stroke-width: 1.5; stroke-linecap: square"/>
   </g>
   <g id="line2d_22">
    <path d="M 333.556364 257.87831 
L 333.556364 160.922923 
" clip-path="url(#p3ee255f6e7)" style="fill: none; stroke: #3f3f3f; stroke-width: 4.5; stroke-linecap: square"/>
   </g>
   <g id="patch_8">
    <path d="M 252.392727 307.584 
L 252.392727 41.472 
" style="fill: none; stroke: #000000; stroke-linejoin: miter; stroke-linecap: square"/>
   </g>
   <g id="patch_9">
    <path d="M 414.72 307.584 
L 414.72 41.472 
" style="fill: none; stroke: #000000; stroke-linejoin: miter; stroke-linecap: square"/>
   </g>
   <g id="patch_10">
    <path d="M 252.392727 307.584 
L 414.72 307.584 
" style="fill: none; stroke: #000000; stroke-linejoin: miter; stroke-linecap: square"/>
   </g>
   <g id="patch_11">
    <path d="M 252.392727 41.472 
L 414.72 41.472 
" style="fill: none; stroke: #000000; stroke-linejoin: miter; stroke-linecap: square"/>
   </g>
   <g id="PathCollection_2">
    <g clip-path="url(#p3ee255f6e7)">
     <use xlink:href="#mddd8f60bbf" x="333.556364" y="229.900223" style="fill: #ffffff; stroke: #3f3f3f"/>
    </g>
   </g>
  </g>
 </g>
 <defs>
  <clipPath id="p6a95b722ab">
   <rect x="57.6" y="41.472" width="162.327273" height="266.112"/>
  </clipPath>
  <clipPath id="p3ee255f6e7">
   <rect x="252.392727" y="41.472" width="162.327273" height="266.112"/>
  </clipPath>
 </defs>
</svg>
