<?xml version="1.0" encoding="utf-8" standalone="no"?>
<!DOCTYPE svg PUBLIC "-//W3C//DTD SVG 1.1//EN"
  "http://www.w3.org/Graphics/SVG/1.1/DTD/svg11.dtd">
<svg xmlns:xlink="http://www.w3.org/1999/xlink" width="576pt" height="576pt" viewBox="0 0 576 576" xmlns="http://www.w3.org/2000/svg" version="1.1">
 <metadata>
  <rdf:RDF xmlns:dc="http://purl.org/dc/elements/1.1/" xmlns:cc="http://creativecommons.org/ns#" xmlns:rdf="http://www.w3.org/1999/02/22-rdf-syntax-ns#">
   <cc:Work>
    <dc:type rdf:resource="http://purl.org/dc/dcmitype/StillImage"/>
    <dc:date>2024-08-01T21:54:16.265227</dc:date>
    <dc:format>image/svg+xml</dc:format>
    <dc:creator>
     <cc:Agent>
      <dc:title>Matplotlib v3.8.4, https://matplotlib.org/</dc:title>
     </cc:Agent>
    </dc:creator>
   </cc:Work>
  </rdf:RDF>
 </metadata>
 <defs>
  <style type="text/css">*{stroke-linejoin: round; stroke-linecap: butt}</style>
 </defs>
 <g id="figure_1">
  <g id="patch_1">
   <path d="M 0 576 
L 576 576 
L 576 0 
L 0 0 
L 0 576 
z
" style="fill: none"/>
  </g>
  <g id="axes_1">
   <g id="patch_2">
    <path d="M 576 288 
C 576 250.180187 568.550321 212.728123 554.077305 177.787171 
C 539.604289 142.84622 518.3894 111.095894 491.646753 84.353247 
C 464.904106 57.6106 433.15378 36.395711 398.212829 21.922695 
C 363.271877 7.449679 325.819813 0 288 0 
C 250.180187 0 212.728123 7.449679 177.787171 21.922695 
C 142.84622 36.395711 111.095894 57.6106 84.353247 84.353247 
C 57.6106 111.095894 36.395711 142.84622 21.922695 177.787171 
C 7.449679 212.728123 0 250.180187 0 288 
C 0 325.819813 7.449679 363.271877 21.922695 398.212829 
C 36.395711 433.15378 57.6106 464.904106 84.353247 491.646753 
C 111.095894 518.3894 142.84622 539.604289 177.787171 554.077305 
C 212.728123 568.550321 250.180187 576 288 576 
C 325.819813 576 363.271877 568.550321 398.212829 554.077305 
C 433.15378 539.604289 464.904106 518.3894 491.646753 491.646753 
C 518.3894 464.904106 539.604289 433.15378 554.077305 398.212829 
C 568.550321 363.271877 576 325.819813 576 288 
M 288 288 
C 288 288 288 288 288 288 
C 288 288 288 288 288 288 
C 288 288 288 288 288 288 
C 288 288 288 288 288 288 
C 288 288 288 288 288 288 
C 288 288 288 288 288 288 
C 288 288 288 288 288 288 
C 288 288 288 288 288 288 
C 288 288 288 288 288 288 
C 288 288 288 288 288 288 
C 288 288 288 288 288 288 
C 288 288 288 288 288 288 
C 288 288 288 288 288 288 
C 288 288 288 288 288 288 
C 288 288 288 288 288 288 
C 288 288 288 288 288 288 
L 288 288 
z
" style="fill: none"/>
   </g>
   <g id="patch_3">
    <path d="M 288 144 
C 306.909907 144 325.635938 147.724839 343.106414 154.961347 
C 360.57689 162.197855 376.452053 172.8053 389.823376 186.176624 
C 403.1947 199.547947 413.802145 215.42311 421.038653 232.893586 
C 428.275161 250.364062 432 269.090093 432 288 
C 432 306.909907 428.275161 325.635938 421.038653 343.106414 
C 413.802145 360.57689 403.1947 376.452053 389.823376 389.823376 
C 376.452053 403.1947 360.57689 413.802145 343.106414 421.038653 
C 325.635938 428.275161 306.909907 432 288 432 
C 269.090093 432 250.364062 428.275161 232.893586 421.038653 
C 215.42311 413.802145 199.547947 403.1947 186.176624 389.823376 
C 172.8053 376.452053 162.197855 360.57689 154.961347 343.106414 
C 147.724839 325.635938 144 306.909907 144 288 
C 144 269.090093 147.724839 250.364062 154.961347 232.893586 
C 162.197855 215.42311 172.8053 199.547947 186.176624 186.176624 
C 199.547947 172.8053 215.42311 162.197855 232.893586 154.961347 
C 250.364062 147.724839 269.090093 144 288 144 
L 288 129.6 
C 267.199103 129.6 246.600468 133.697323 227.382944 141.657482 
C 208.165421 149.617641 190.702741 161.28583 175.994286 175.994286 
C 161.28583 190.702741 149.617641 208.165421 141.657482 227.382944 
C 133.697323 246.600468 129.6 267.199103 129.6 288 
C 129.6 308.800897 133.697323 329.399532 141.657482 348.617056 
C 149.617641 367.834579 161.28583 385.297259 175.994286 400.005714 
C 190.702741 414.71417 208.165421 426.382359 227.382944 434.342518 
C 246.600468 442.302677 267.199103 446.4 288 446.4 
C 308.800897 446.4 329.399532 442.302677 348.617056 434.342518 
C 367.834579 426.382359 385.297259 414.71417 400.005714 400.005714 
C 414.71417 385.297259 426.382359 367.834579 434.342518 348.617056 
C 442.302677 329.399532 446.4 308.800897 446.4 288 
C 446.4 267.199103 442.302677 246.600468 434.342518 227.382944 
C 426.382359 208.165421 414.71417 190.702741 400.005714 175.994286 
C 385.297259 161.28583 367.834579 149.617641 348.617056 141.657482 
C 329.399532 133.697323 308.800897 129.6 288 129.6 
L 288 144 
z
" clip-path="url(#p62579e47d7)" style="fill: none"/>
   </g>
   <g id="PathCollection_1">
    <defs>
     <path id="ma280d8b679" d="M 0 1.581139 
C 0.419323 1.581139 0.821528 1.41454 1.118034 1.118034 
C 1.41454 0.821528 1.581139 0.419323 1.581139 0 
C 1.581139 -0.419323 1.41454 -0.821528 1.118034 -1.118034 
C 0.821528 -1.41454 0.419323 -1.581139 0 -1.581139 
C -0.419323 -1.581139 -0.821528 -1.41454 -1.118034 -1.118034 
C -1.41454 -0.821528 -1.581139 -0.419323 -1.581139 0 
C -1.581139 0.419323 -1.41454 0.821528 -1.118034 1.118034 
C -0.821528 1.41454 -0.419323 1.581139 0 1.581139 
z
"/>
    </defs>
    <g clip-path="url(#p62579e47d7)">
     <use xlink:href="#ma280d8b679" x="150.093509" y="454.059063" style="fill: #f44336"/>
     <use xlink:href="#ma280d8b679" x="437.686019" y="132.475377" style="fill: #f44336"/>
     <use xlink:href="#ma280d8b679" x="129.042586" y="141.964548" style="fill: #f44336"/>
     <use xlink:href="#ma280d8b679" x="373.069548" y="486.385949" style="fill: #f44336"/>
    </g>
   </g>
   <g id="matplotlib.axis_1"/>
   <g id="matplotlib.axis_2"/>
  </g>
 </g>
 <defs>
  <clipPath id="p62579e47d7">
   <path d="M 576 288 
C 576 250.180187 568.550321 212.728123 554.077305 177.787171 
C 539.604289 142.84622 518.3894 111.095894 491.646753 84.353247 
C 464.904106 57.6106 433.15378 36.395711 398.212829 21.922695 
C 363.271877 7.449679 325.819813 0 288 0 
C 250.180187 0 212.728123 7.449679 177.787171 21.922695 
C 142.84622 36.395711 111.095894 57.6106 84.353247 84.353247 
C 57.6106 111.095894 36.395711 142.84622 21.922695 177.787171 
C 7.449679 212.728123 0 250.180187 0 288 
C 0 325.819813 7.449679 363.271877 21.922695 398.212829 
C 36.395711 433.15378 57.6106 464.904106 84.353247 491.646753 
C 111.095894 518.3894 142.84622 539.604289 177.787171 554.077305 
C 212.728123 568.550321 250.180187 576 288 576 
C 325.819813 576 363.271877 568.550321 398.212829 554.077305 
C 433.15378 539.604289 464.904106 518.3894 491.646753 491.646753 
C 518.3894 464.904106 539.604289 433.15378 554.077305 398.212829 
C 568.550321 363.271877 576 325.819813 576 288 
M 288 288 
C 288 288 288 288 288 288 
C 288 288 288 288 288 288 
C 288 288 288 288 288 288 
C 288 288 288 288 288 288 
C 288 288 288 288 288 288 
C 288 288 288 288 288 288 
C 288 288 288 288 288 288 
C 288 288 288 288 288 288 
C 288 288 288 288 288 288 
C 288 288 288 288 288 288 
C 288 288 288 288 288 288 
C 288 288 288 288 288 288 
C 288 288 288 288 288 288 
C 288 288 288 288 288 288 
C 288 288 288 288 288 288 
C 288 288 288 288 288 288 
z
"/>
  </clipPath>
 </defs>
</svg>
