<?xml version="1.0" encoding="utf-8" standalone="no"?>
<!DOCTYPE svg PUBLIC "-//W3C//DTD SVG 1.1//EN"
  "http://www.w3.org/Graphics/SVG/1.1/DTD/svg11.dtd">
<svg xmlns:xlink="http://www.w3.org/1999/xlink" width="576pt" height="576pt" viewBox="0 0 576 576" xmlns="http://www.w3.org/2000/svg" version="1.1">
 <metadata>
  <rdf:RDF xmlns:dc="http://purl.org/dc/elements/1.1/" xmlns:cc="http://creativecommons.org/ns#" xmlns:rdf="http://www.w3.org/1999/02/22-rdf-syntax-ns#">
   <cc:Work>
    <dc:type rdf:resource="http://purl.org/dc/dcmitype/StillImage"/>
    <dc:date>2024-08-01T21:54:16.048502</dc:date>
    <dc:format>image/svg+xml</dc:format>
    <dc:creator>
     <cc:Agent>
      <dc:title>Matplotlib v3.8.4, https://matplotlib.org/</dc:title>
     </cc:Agent>
    </dc:creator>
   </cc:Work>
  </rdf:RDF>
 </metadata>
 <defs>
  <style type="text/css">*{stroke-linejoin: round; stroke-linecap: butt}</style>
 </defs>
 <g id="figure_1">
  <g id="patch_1">
   <path d="M 0 576 
L 576 576 
L 576 0 
L 0 0 
L 0 576 
z
" style="fill: none"/>
  </g>
  <g id="axes_1">
   <g id="patch_2">
    <path d="M 576 288 
C 576 250.180187 568.550321 212.728123 554.077305 177.787171 
C 539.604289 142.84622 518.3894 111.095894 491.646753 84.353247 
C 464.904106 57.6106 433.15378 36.395711 398.212829 21.922695 
C 363.271877 7.449679 325.819813 0 288 0 
C 250.180187 0 212.728123 7.449679 177.787171 21.922695 
C 142.84622 36.395711 111.095894 57.6106 84.353247 84.353247 
C 57.6106 111.095894 36.395711 142.84622 21.922695 177.787171 
C 7.449679 212.728123 0 250.180187 0 288 
C 0 325.819813 7.449679 363.271877 21.922695 398.212829 
C 36.395711 433.15378 57.6106 464.904106 84.353247 491.646753 
C 111.095894 518.3894 142.84622 539.604289 177.787171 554.077305 
C 212.728123 568.550321 250.180187 576 288 576 
C 325.819813 576 363.271877 568.550321 398.212829 554.077305 
C 433.15378 539.604289 464.904106 518.3894 491.646753 491.646753 
C 518.3894 464.904106 539.604289 433.15378 554.077305 398.212829 
C 568.550321 363.271877 576 325.819813 576 288 
M 288 288 
C 288 288 288 288 288 288 
C 288 288 288 288 288 288 
C 288 288 288 288 288 288 
C 288 288 288 288 288 288 
C 288 288 288 288 288 288 
C 288 288 288 288 288 288 
C 288 288 288 288 288 288 
C 288 288 288 288 288 288 
C 288 288 288 288 288 288 
C 288 288 288 288 288 288 
C 288 288 288 288 288 288 
C 288 288 288 288 288 288 
C 288 288 288 288 288 288 
C 288 288 288 288 288 288 
C 288 288 288 288 288 288 
C 288 288 288 288 288 288 
L 288 288 
z
" style="fill: none"/>
   </g>
   <g id="patch_3">
    <path d="M 288 144 
C 306.909907 144 325.635938 147.724839 343.106414 154.961347 
C 360.57689 162.197855 376.452053 172.8053 389.823376 186.176624 
C 403.1947 199.547947 413.802145 215.42311 421.038653 232.893586 
C 428.275161 250.364062 432 269.090093 432 288 
C 432 306.909907 428.275161 325.635938 421.038653 343.106414 
C 413.802145 360.57689 403.1947 376.452053 389.823376 389.823376 
C 376.452053 403.1947 360.57689 413.802145 343.106414 421.038653 
C 325.635938 428.275161 306.909907 432 288 432 
C 269.090093 432 250.364062 428.275161 232.893586 421.038653 
C 215.42311 413.802145 199.547947 403.1947 186.176624 389.823376 
C 172.8053 376.452053 162.197855 360.57689 154.961347 343.106414 
C 147.724839 325.635938 144 306.909907 144 288 
C 144 269.090093 147.724839 250.364062 154.961347 232.893586 
C 162.197855 215.42311 172.8053 199.547947 186.176624 186.176624 
C 199.547947 172.8053 215.42311 162.197855 232.893586 154.961347 
C 250.364062 147.724839 269.090093 144 288 144 
L 288 129.6 
C 267.199103 129.6 246.600468 133.697323 227.382944 141.657482 
C 208.165421 149.617641 190.702741 161.28583 175.994286 175.994286 
C 161.28583 190.702741 149.617641 208.165421 141.657482 227.382944 
C 133.697323 246.600468 129.6 267.199103 129.6 288 
C 129.6 308.800897 133.697323 329.399532 141.657482 348.617056 
C 149.617641 367.834579 161.28583 385.297259 175.994286 400.005714 
C 190.702741 414.71417 208.165421 426.382359 227.382944 434.342518 
C 246.600468 442.302677 267.199103 446.4 288 446.4 
C 308.800897 446.4 329.399532 442.302677 348.617056 434.342518 
C 367.834579 426.382359 385.297259 414.71417 400.005714 400.005714 
C 414.71417 385.297259 426.382359 367.834579 434.342518 348.617056 
C 442.302677 329.399532 446.4 308.800897 446.4 288 
C 446.4 267.199103 442.302677 246.600468 434.342518 227.382944 
C 426.382359 208.165421 414.71417 190.702741 400.005714 175.994286 
C 385.297259 161.28583 367.834579 149.617641 348.617056 141.657482 
C 329.399532 133.697323 308.800897 129.6 288 129.6 
L 288 144 
z
" clip-path="url(#p3ab79f4236)" style="fill: none"/>
   </g>
   <g id="patch_4">
    <path d="M 148.098587 134.945225 
C 148.228223 134.826729 148.35801 134.708399 148.487946 134.590234 
C 148.617883 134.472068 148.74797 134.354068 148.878206 134.236233 
L 150.810453 136.371841 
C 150.682026 136.488039 150.553746 136.604401 150.425614 136.720925 
C 150.297482 136.837449 150.169498 136.954136 150.041662 137.070985 
z
" clip-path="url(#p3ab79f4236)" style="fill: #bf151b; stroke: #303030; stroke-width: 0.1; stroke-linejoin: miter"/>
   </g>
   <g id="patch_5">
    <path d="M 537.956545 246.12448 
C 537.992013 246.336191 538.027212 246.547947 538.062143 246.759747 
C 538.097073 246.971547 538.131734 247.183392 538.166125 247.39528 
L 541.008922 246.933863 
C 540.97414 246.719567 540.939085 246.505315 540.903758 246.291108 
C 540.868431 246.076901 540.832832 245.862738 540.79696 245.648622 
z
" clip-path="url(#p3ab79f4236)" style="fill: #bc141a; stroke: #303030; stroke-width: 0.1; stroke-linejoin: miter"/>
   </g>
   <g id="patch_6">
    <path d="M 206.548673 97.306919 
C 206.710188 97.237931 206.871791 97.169148 207.033481 97.10057 
C 207.195171 97.031992 207.356948 96.96362 207.518812 96.895453 
L 208.636606 99.549683 
C 208.476991 99.616903 208.317461 99.684325 208.158016 99.751951 
C 207.998572 99.819576 207.839214 99.887404 207.679942 99.955435 
z
" clip-path="url(#p3ab79f4236)" style="fill: #ac1117; stroke: #303030; stroke-width: 0.1; stroke-linejoin: miter"/>
   </g>
   <g id="patch_7">
    <path d="M 186.251363 107.319662 
C 186.404398 107.233482 186.557542 107.147496 186.710795 107.061705 
C 186.864048 106.975914 187.01741 106.890318 187.17088 106.804917 
L 188.571285 109.321515 
C 188.419946 109.40573 188.268714 109.490138 188.117589 109.574737 
C 187.966465 109.659337 187.815448 109.744128 187.664539 109.829111 
z
" clip-path="url(#p3ab79f4236)" style="fill: #ca181d; stroke: #303030; stroke-width: 0.1; stroke-linejoin: miter"/>
   </g>
   <g id="patch_8">
    <path d="M 483.124078 126.264327 
C 483.261066 126.429595 483.397845 126.595038 483.534413 126.760653 
C 483.670981 126.926269 483.807339 127.092058 483.943486 127.258021 
L 486.170117 125.431407 
C 486.032422 125.263559 485.894515 125.095886 485.756395 124.928388 
C 485.618275 124.76089 485.479942 124.593568 485.341397 124.426422 
z
" clip-path="url(#p3ab79f4236)" style="fill: #b81419; stroke: #303030; stroke-width: 0.1; stroke-linejoin: miter"/>
   </g>
   <g id="patch_9">
    <path d="M 227.182367 41.96535 
C 227.390756 41.913838 227.59921 41.862591 227.807729 41.811608 
C 228.016249 41.760626 228.224833 41.709909 228.433481 41.659456 
L 227.756588 38.860132 
C 227.545569 38.911158 227.334615 38.962451 227.123726 39.014013 
C 226.912837 39.065575 226.702014 39.117404 226.491257 39.169502 
z
" clip-path="url(#p3ab79f4236)" style="fill: #b51318; stroke: #303030; stroke-width: 0.1; stroke-linejoin: miter"/>
   </g>
   <g id="patch_10">
    <path d="M 414.610432 68.451299 
C 414.796388 68.558537 414.982207 68.666011 415.16789 68.773721 
C 415.353572 68.881431 415.539118 68.989377 415.724526 69.097558 
L 417.175941 66.610031 
C 416.988426 66.50062 416.800772 66.391447 416.612979 66.282513 
C 416.425187 66.173579 416.237256 66.064884 416.049187 65.956427 
z
" clip-path="url(#p3ab79f4236)" style="fill: #b31218; stroke: #303030; stroke-width: 0.1; stroke-linejoin: miter"/>
   </g>
   <g id="patch_11">
    <path d="M 92.768671 218.122266 
C 92.827857 217.956907 92.887253 217.791623 92.946858 217.626415 
C 93.006464 217.461206 93.06628 217.296074 93.126305 217.131018 
L 95.832884 218.115309 
C 95.773693 218.278073 95.714708 218.440912 95.65593 218.603825 
C 95.597152 218.766739 95.538581 218.929727 95.480217 219.09279 
z
" clip-path="url(#p3ab79f4236)" style="fill: #aa1016; stroke: #303030; stroke-width: 0.1; stroke-linejoin: miter"/>
   </g>
   <g id="patch_12">
    <path d="M 528.565306 208.249344 
C 528.632854 208.4531 528.700143 208.656943 528.767173 208.86087 
C 528.834203 209.064798 528.900974 209.26881 528.967486 209.472908 
L 531.705753 208.580554 
C 531.638485 208.374138 531.570956 208.167807 531.503164 207.961562 
C 531.435372 207.755317 531.367318 207.549158 531.299003 207.343086 
z
" clip-path="url(#p3ab79f4236)" style="fill: #b31218; stroke: #303030; stroke-width: 0.1; stroke-linejoin: miter"/>
   </g>
   <g id="patch_13">
    <path d="M 368.180557 47.577638 
C 368.384192 47.645551 368.587741 47.713721 368.791203 47.782151 
C 368.994666 47.85058 369.198041 47.919268 369.401329 47.988214 
L 370.326344 45.260808 
C 370.120746 45.191078 369.91506 45.12161 369.709285 45.052403 
C 369.503511 44.983196 369.297649 44.91425 369.091699 44.845566 
z
" clip-path="url(#p3ab79f4236)" style="fill: #b21218; stroke: #303030; stroke-width: 0.1; stroke-linejoin: miter"/>
   </g>
   <g id="patch_14">
    <path d="M 87.429539 235.372441 
C 87.474114 235.20256 87.518905 235.032736 87.563912 234.862968 
C 87.608918 234.693201 87.654141 234.52349 87.699578 234.353838 
L 90.481529 235.098923 
C 90.436722 235.26622 90.392128 235.433573 90.347746 235.600982 
C 90.303365 235.768392 90.259196 235.935858 90.21524 236.10338 
z
" clip-path="url(#p3ab79f4236)" style="fill: #b31218; stroke: #303030; stroke-width: 0.1; stroke-linejoin: miter"/>
   </g>
   <g id="patch_15">
    <path d="M 295.294814 34.665006 
C 295.509386 34.671184 295.723951 34.677636 295.938507 34.68436 
C 296.153063 34.691083 296.36761 34.69808 296.582148 34.705349 
L 296.679673 31.827 
C 296.462696 31.819649 296.245711 31.812573 296.028717 31.805773 
C 295.811723 31.798972 295.59472 31.792448 295.37771 31.786199 
z
" clip-path="url(#p3ab79f4236)" style="fill: #be151a; stroke: #303030; stroke-width: 0.1; stroke-linejoin: miter"/>
   </g>
   <g id="patch_16">
    <path d="M 178.268589 112.053454 
C 178.417614 111.960512 178.566757 111.86776 178.716018 111.775198 
C 178.865279 111.682635 179.014657 111.590263 179.164153 111.49808 
L 180.675762 113.949495 
C 180.528342 114.040398 180.381039 114.131488 180.233851 114.222765 
C 180.086663 114.314041 179.939592 114.405505 179.792636 114.497156 
z
" clip-path="url(#p3ab79f4236)" style="fill: #d92523; stroke: #303030; stroke-width: 0.1; stroke-linejoin: miter"/>
   </g>
   <g id="patch_17">
    <path d="M 114.129043 175.008585 
C 114.224745 174.861318 114.320635 174.714173 114.416712 174.567149 
C 114.512788 174.420126 114.609051 174.273225 114.705501 174.126446 
L 117.112369 175.708023 
C 117.017259 175.852763 116.922333 175.997624 116.827591 176.142606 
C 116.732848 176.287587 116.638291 176.432689 116.543917 176.577911 
z
" clip-path="url(#p3ab79f4236)" style="fill: #ad1117; stroke: #303030; stroke-width: 0.1; stroke-linejoin: miter"/>
   </g>
   <g id="patch_18">
    <path d="M 169.908089 117.552148 
C 170.052457 117.452126 170.196951 117.352286 170.341573 117.252631 
C 170.486194 117.152975 170.630942 117.053503 170.775816 116.954216 
L 172.40393 119.329851 
C 172.261068 119.42776 172.11833 119.52585 171.975718 119.624122 
C 171.833105 119.722393 171.690617 119.820846 171.548254 119.91948 
z
" clip-path="url(#p3ab79f4236)" style="fill: #9a0c14; stroke: #303030; stroke-width: 0.1; stroke-linejoin: miter"/>
   </g>
   <g id="patch_19">
    <path d="M 293.478447 80.712383 
C 293.654018 80.717023 293.829582 80.721886 294.005141 80.726973 
C 294.180699 80.732059 294.356251 80.737368 294.531796 80.742901 
L 294.441076 83.621471 
C 294.26797 83.616016 294.094856 83.61078 293.921736 83.605765 
C 293.748616 83.600749 293.57549 83.595953 293.402358 83.591378 
z
" clip-path="url(#p3ab79f4236)" style="fill: #bf151b; stroke: #303030; stroke-width: 0.1; stroke-linejoin: miter"/>
   </g>
   <g id="patch_20">
    <path d="M 484.114121 355.360382 
C 484.057068 355.526489 483.999803 355.692523 483.942327 355.858484 
C 483.884852 356.024446 483.827166 356.190334 483.769269 356.356149 
L 481.050251 355.406758 
C 481.107344 355.243246 481.164229 355.079662 481.220906 354.916005 
C 481.277584 354.752349 481.334053 354.588621 481.390314 354.424821 
z
" clip-path="url(#p3ab79f4236)" style="fill: #dc2924; stroke: #303030; stroke-width: 0.1; stroke-linejoin: miter"/>
   </g>
   <g id="patch_21">
    <path d="M 460.191743 102.038075 
C 460.349251 102.18392 460.506573 102.329965 460.66371 102.47621 
C 460.820847 102.622454 460.977798 102.768898 461.134563 102.915542 
L 463.102001 100.812309 
C 462.943455 100.663999 462.78472 100.515891 462.625798 100.367985 
C 462.466875 100.220078 462.307765 100.072374 462.148467 99.924872 
z
" clip-path="url(#p3ab79f4236)" style="fill: #de2b25; stroke: #303030; stroke-width: 0.1; stroke-linejoin: miter"/>
   </g>
   <g id="patch_22">
    <path d="M 34.709515 279.295759 
C 34.716887 279.081224 34.724532 278.866699 34.73245 278.652184 
C 34.740367 278.437669 34.748557 278.223164 34.75702 278.008669 
L 31.879259 277.895131 
C 31.8707 278.112063 31.862417 278.329006 31.85441 278.545959 
C 31.846402 278.762912 31.83867 278.979875 31.831214 279.196847 
z
" clip-path="url(#p3ab79f4236)" style="fill: #bb141a; stroke: #303030; stroke-width: 0.1; stroke-linejoin: miter"/>
   </g>
   <g id="patch_23">
    <path d="M 61.001796 175.289535 
C 61.097261 175.097269 61.19297 174.905125 61.288923 174.713103 
C 61.384876 174.521081 61.481072 174.329181 61.577513 174.137403 
L 59.00453 172.84351 
C 58.906994 173.037467 58.809704 173.231548 58.71266 173.425752 
C 58.615617 173.619956 58.518821 173.814284 58.422271 174.008734 
z
" clip-path="url(#p3ab79f4236)" style="fill: #e43027; stroke: #303030; stroke-width: 0.1; stroke-linejoin: miter"/>
   </g>
   <g id="patch_24">
    <path d="M 463.504334 177.562695 
C 463.597874 177.711346 463.691224 177.860115 463.784385 178.009003 
C 463.877547 178.157891 463.970519 178.306897 464.063302 178.456021 
L 461.617978 179.977465 
C 461.526484 179.830412 461.434803 179.683475 461.342936 179.536656 
C 461.251068 179.389836 461.159014 179.243133 461.066774 179.096547 
z
" clip-path="url(#p3ab79f4236)" style="fill: #c3161b; stroke: #303030; stroke-width: 0.1; stroke-linejoin: miter"/>
   </g>
   <g id="patch_25">
    <path d="M 491.931419 325.55191 
C 491.899613 325.724638 491.867587 325.897325 491.835342 326.069972 
C 491.803098 326.242619 491.770633 326.415224 491.73795 326.587788 
L 488.908256 326.051847 
C 488.940486 325.881679 488.972499 325.711471 489.004296 325.541222 
C 489.036093 325.370974 489.067674 325.200684 489.099038 325.030355 
z
" clip-path="url(#p3ab79f4236)" style="fill: #c1161b; stroke: #303030; stroke-width: 0.1; stroke-linejoin: miter"/>
   </g>
   <g id="patch_26">
    <path d="M 415.891801 69.195245 
C 416.077127 69.303568 416.262315 69.412127 416.447365 69.520921 
C 416.632414 69.629714 416.817326 69.738743 417.002099 69.848007 
L 418.468031 67.369007 
C 418.281159 67.258502 418.094146 67.148234 417.906994 67.038204 
C 417.719841 66.928174 417.532549 66.818382 417.345117 66.708828 
z
" clip-path="url(#p3ab79f4236)" style="fill: #a10e15; stroke: #303030; stroke-width: 0.1; stroke-linejoin: miter"/>
   </g>
   <g id="patch_27">
    <path d="M 256.055571 83.115342 
C 256.229106 83.088285 256.402676 83.061449 256.576279 83.034834 
C 256.749883 83.008218 256.92352 82.981823 257.097191 82.955649 
L 257.526397 85.803487 
C 257.355138 85.829298 257.183912 85.855326 257.01272 85.881572 
C 256.841527 85.907818 256.670368 85.934282 256.499243 85.960962 
z
" clip-path="url(#p3ab79f4236)" style="fill: #9f0e14; stroke: #303030; stroke-width: 0.1; stroke-linejoin: miter"/>
   </g>
   <g id="patch_28">
    <path d="M 227.294153 41.937744 
C 227.502565 41.886327 227.711043 41.835174 227.919585 41.784287 
C 228.128128 41.733399 228.336735 41.682777 228.545406 41.632419 
L 227.869785 38.832788 
C 227.658743 38.883717 227.447765 38.934915 227.236853 38.986381 
C 227.025941 39.037847 226.815094 39.089581 226.604314 39.141582 
z
" clip-path="url(#p3ab79f4236)" style="fill: #9c0d14; stroke: #303030; stroke-width: 0.1; stroke-linejoin: miter"/>
   </g>
   <g id="patch_29">
    <path d="M 507.083544 160.586365 
C 507.191462 160.771927 507.299144 160.957626 507.406591 161.143461 
C 507.514037 161.329296 507.621247 161.515268 507.728221 161.701376 
L 510.225133 160.266164 
C 510.116943 160.077941 510.008515 159.889856 509.899847 159.701909 
C 509.79118 159.513962 509.682274 159.326153 509.57313 159.138483 
z
" clip-path="url(#p3ab79f4236)" style="fill: #ca181d; stroke: #303030; stroke-width: 0.1; stroke-linejoin: miter"/>
   </g>
   <g id="patch_30">
    <path d="M 347.284806 41.591507 
C 347.493511 41.641721 347.702153 41.692199 347.91073 41.742943 
C 348.119308 41.793687 348.327821 41.844696 348.536269 41.89597 
L 349.224181 39.099333 
C 349.013364 39.047477 348.802482 38.995888 348.591534 38.944568 
C 348.380587 38.893247 348.169574 38.842195 347.958496 38.79141 
z
" clip-path="url(#p3ab79f4236)" style="fill: #aa1016; stroke: #303030; stroke-width: 0.1; stroke-linejoin: miter"/>
   </g>
   <g id="patch_31">
    <path d="M 306.470166 81.464234 
C 306.645099 81.479878 306.820013 81.495744 306.994907 81.511833 
C 307.1698 81.527921 307.344673 81.544232 307.519525 81.560765 
L 307.248421 84.427977 
C 307.075997 84.411673 306.903553 84.395589 306.731089 84.379724 
C 306.558624 84.363859 306.38614 84.348213 306.213635 84.332786 
z
" clip-path="url(#p3ab79f4236)" style="fill: #c2161b; stroke: #303030; stroke-width: 0.1; stroke-linejoin: miter"/>
   </g>
   <g id="patch_32">
    <path d="M 51.752178 196.24598 
C 51.829893 196.04588 51.907862 195.84588 51.986085 195.645978 
C 52.064308 195.446076 52.142785 195.246274 52.221515 195.046572 
L 49.542214 193.990283 
C 49.462589 194.192255 49.38322 194.394327 49.304108 194.5965 
C 49.224997 194.798674 49.146142 195.000947 49.067544 195.203321 
z
" clip-path="url(#p3ab79f4236)" style="fill: #d92523; stroke: #303030; stroke-width: 0.1; stroke-linejoin: miter"/>
   </g>
   <g id="patch_33">
    <path d="M 285.055257 34.577108 
C 285.269904 34.574614 285.484554 34.572393 285.699206 34.570444 
C 285.913859 34.568495 286.128514 34.566819 286.34317 34.565416 
L 286.324343 31.685477 
C 286.107247 31.686897 285.890153 31.688592 285.673061 31.690562 
C 285.455969 31.692533 285.23888 31.69478 285.021794 31.697303 
z
" clip-path="url(#p3ab79f4236)" style="fill: #d11e1f; stroke: #303030; stroke-width: 0.1; stroke-linejoin: miter"/>
   </g>
   <g id="patch_34">
    <path d="M 89.934623 366.678083 
C 89.867983 366.510324 89.801557 366.34248 89.735344 366.174552 
C 89.669131 366.006623 89.603131 365.838611 89.537345 365.670515 
L 92.219273 364.620913 
C 92.28417 364.786738 92.349278 364.95248 92.414596 365.118139 
C 92.479914 365.283798 92.545443 365.449374 92.611182 365.614866 
z
" clip-path="url(#p3ab79f4236)" style="fill: #fb7858; stroke: #303030; stroke-width: 0.1; stroke-linejoin: miter"/>
   </g>
   <g id="patch_35">
    <path d="M 313.721057 41.65916 
C 313.929706 41.680945 314.138326 41.702996 314.346919 41.725311 
C 314.555511 41.747627 314.764075 41.770208 314.97261 41.793053 
L 315.286245 38.930182 
C 315.075285 38.90707 314.864296 38.884227 314.653278 38.861652 
C 314.44226 38.839077 314.231214 38.81677 314.020139 38.794731 
z
" clip-path="url(#p3ab79f4236)" style="fill: #aa1016; stroke: #303030; stroke-width: 0.1; stroke-linejoin: miter"/>
   </g>
   <g id="patch_36">
    <path d="M 497.487387 248.818765 
C 497.520573 248.996199 497.553534 249.173675 497.586269 249.351193 
C 497.619004 249.52871 497.651514 249.706269 497.683798 249.883869 
L 494.850233 250.398952 
C 494.818385 250.223752 494.786315 250.048592 494.754022 249.873474 
C 494.721729 249.698355 494.689214 249.523277 494.656476 249.348241 
z
" clip-path="url(#p3ab79f4236)" style="fill: #fff1ea; stroke: #303030; stroke-width: 0.1; stroke-linejoin: miter"/>
   </g>
   <g id="patch_37">
    <path d="M 497.487387 248.818765 
C 497.520573 248.996199 497.553534 249.173675 497.586269 249.351193 
C 497.619004 249.52871 497.651514 249.706269 497.683798 249.883869 
L 494.850233 250.398952 
C 494.818385 250.223752 494.786315 250.048592 494.754022 249.873474 
C 494.721729 249.698355 494.689214 249.523277 494.656476 249.348241 
z
" clip-path="url(#p3ab79f4236)" style="fill: #fff0e8; stroke: #303030; stroke-width: 0.1; stroke-linejoin: miter"/>
   </g>
   <g id="patch_38">
    <path d="M 273.317714 75.386348 
C 273.497795 75.373913 273.677893 75.361706 273.858006 75.349727 
C 274.038118 75.337749 274.218246 75.326 274.398389 75.31448 
L 274.582195 78.188608 
C 274.404486 78.199973 274.226793 78.211564 274.049114 78.22338 
C 273.871435 78.235196 273.693771 78.247238 273.516123 78.259506 
z
" clip-path="url(#p3ab79f4236)" style="fill: #c8171c; stroke: #303030; stroke-width: 0.1; stroke-linejoin: miter"/>
   </g>
   <g id="patch_39">
    <path d="M 491.87848 147.362353 
C 491.997599 147.535036 492.116498 147.707871 492.235178 147.880856 
C 492.353857 148.053841 492.472317 148.226977 492.590557 148.400263 
L 494.969517 146.777011 
C 494.849902 146.601709 494.730065 146.42656 494.610005 146.251563 
C 494.489946 146.076567 494.369664 145.901723 494.24916 145.727032 
z
" clip-path="url(#p3ab79f4236)" style="fill: #ce1a1e; stroke: #303030; stroke-width: 0.1; stroke-linejoin: miter"/>
   </g>
   <g id="patch_40">
    <path d="M 148.243102 127.10207 
C 148.379381 126.983697 148.51581 126.865498 148.65239 126.747472 
C 148.788969 126.629446 148.925698 126.511593 149.062577 126.393914 
L 150.94011 128.57778 
C 150.805081 128.693869 150.670199 128.810129 150.535465 128.92656 
C 150.400732 129.042991 150.266146 129.159593 150.131709 129.276367 
z
" clip-path="url(#p3ab79f4236)" style="fill: #ca181d; stroke: #303030; stroke-width: 0.1; stroke-linejoin: miter"/>
   </g>
   <g id="patch_41">
    <path d="M 264.019013 76.233509 
C 264.198377 76.213197 264.377767 76.193114 264.557182 76.173258 
C 264.736597 76.153402 264.916038 76.133774 265.095503 76.114374 
L 265.405023 78.977693 
C 265.227983 78.996831 265.050968 79.016194 264.873977 79.035781 
C 264.696986 79.055369 264.52002 79.075181 264.34308 79.095218 
z
" clip-path="url(#p3ab79f4236)" style="fill: #b91419; stroke: #303030; stroke-width: 0.1; stroke-linejoin: miter"/>
   </g>
   <g id="patch_42">
    <path d="M 211.080098 52.566971 
C 211.279508 52.501821 211.479 52.436924 211.678574 52.37228 
C 211.878149 52.307637 212.077805 52.243247 212.277543 52.17911 
L 211.39705 49.437007 
C 211.194989 49.501889 210.993011 49.567028 210.791116 49.632423 
C 210.589221 49.697818 210.387409 49.76347 210.185681 49.829378 
z
" clip-path="url(#p3ab79f4236)" style="fill: #c1161b; stroke: #303030; stroke-width: 0.1; stroke-linejoin: miter"/>
   </g>
   <g id="patch_43">
    <path d="M 260.222423 76.697987 
C 260.401394 76.67446 260.580394 76.65116 260.759424 76.628087 
C 260.938454 76.605015 261.117514 76.58217 261.296602 76.559552 
L 261.657459 79.416856 
C 261.480791 79.439168 261.304151 79.461704 261.12754 79.484465 
C 260.95093 79.507225 260.774348 79.53021 260.597796 79.55342 
z
" clip-path="url(#p3ab79f4236)" style="fill: #980c13; stroke: #303030; stroke-width: 0.1; stroke-linejoin: miter"/>
   </g>
   <g id="patch_44">
    <path d="M 463.296146 166.791932 
C 463.398808 166.940406 463.501281 167.089011 463.603566 167.237745 
C 463.70585 167.38648 463.807946 167.535345 463.909852 167.684339 
L 461.532692 169.310226 
C 461.432163 169.163245 461.331447 169.016392 461.230545 168.869668 
C 461.129642 168.722943 461.028554 168.576347 460.927279 168.429879 
z
" clip-path="url(#p3ab79f4236)" style="fill: #c7171c; stroke: #303030; stroke-width: 0.1; stroke-linejoin: miter"/>
   </g>
   <g id="patch_45">
    <path d="M 427.80914 448.852537 
C 427.6729 448.970954 427.536509 449.089198 427.399968 449.207269 
C 427.263427 449.325339 427.126736 449.443236 426.989895 449.560959 
L 425.111653 447.377703 
C 425.246644 447.261571 425.381488 447.145267 425.516184 447.028792 
C 425.65088 446.912317 425.785428 446.795671 425.919827 446.678854 
z
" clip-path="url(#p3ab79f4236)" style="fill: #67000d; stroke: #303030; stroke-width: 0.1; stroke-linejoin: miter"/>
   </g>
   <g id="patch_46">
    <path d="M 222.122037 85.31742 
C 222.293708 85.261621 222.465449 85.206042 222.63726 85.15068 
C 222.809072 85.095318 222.980953 85.040175 223.152905 84.98525 
L 224.029217 87.728693 
C 223.859589 87.782875 223.69003 87.837274 223.52054 87.891887 
C 223.351051 87.946501 223.18163 88.001329 223.01228 88.056373 
z
" clip-path="url(#p3ab79f4236)" style="fill: #fcb79c; stroke: #303030; stroke-width: 0.1; stroke-linejoin: miter"/>
   </g>
   <g id="patch_47">
    <path d="M 492.124742 147.720023 
C 492.243558 147.892915 492.362154 148.065957 492.480531 148.239151 
C 492.598907 148.412344 492.717063 148.585687 492.834998 148.75918 
L 495.216801 147.140101 
C 495.097494 146.96459 494.977964 146.789231 494.858211 146.614024 
C 494.738458 146.438817 494.618483 146.263763 494.498286 146.088861 
z
" clip-path="url(#p3ab79f4236)" style="fill: #fcc1a8; stroke: #303030; stroke-width: 0.1; stroke-linejoin: miter"/>
   </g>
   <g id="patch_48">
    <path d="M 41.688685 261.997723 
C 41.710709 261.789099 41.732997 261.580504 41.755551 261.371937 
C 41.778105 261.16337 41.800923 260.954832 41.824007 260.746324 
L 38.961495 260.42942 
C 38.938143 260.640354 38.915059 260.851317 38.892243 261.062308 
C 38.869427 261.2733 38.84688 261.484321 38.8246 261.69537 
z
" clip-path="url(#p3ab79f4236)" style="fill: #ed392b; stroke: #303030; stroke-width: 0.1; stroke-linejoin: miter"/>
   </g>
   <g id="patch_49">
    <path d="M 369.45752 54.098194 
C 369.655633 54.167188 369.853658 54.236433 370.051594 54.30593 
C 370.249531 54.375427 370.447379 54.445176 370.645139 54.515175 
L 371.606129 51.800235 
C 371.40607 51.729422 371.205921 51.658862 371.005683 51.588557 
C 370.805444 51.518252 370.605117 51.448202 370.404701 51.378406 
z
" clip-path="url(#p3ab79f4236)" style="fill: #73030f; stroke: #303030; stroke-width: 0.1; stroke-linejoin: miter"/>
   </g>
   <g id="patch_50">
    <path d="M 342.974523 82.092409 
C 343.148925 82.138971 343.323267 82.185756 343.49755 82.232762 
C 343.671833 82.279768 343.846056 82.326995 344.020219 82.374444 
L 343.263189 85.153167 
C 343.09138 85.10636 342.919511 85.059771 342.747583 85.0134 
C 342.575656 84.967029 342.403669 84.920877 342.231624 84.874944 
z
" clip-path="url(#p3ab79f4236)" style="fill: #800610; stroke: #303030; stroke-width: 0.1; stroke-linejoin: miter"/>
   </g>
   <g id="patch_51">
    <path d="M 463.766284 167.4747 
C 463.868368 167.623573 463.970262 167.772575 464.071967 167.921706 
C 464.173673 168.070837 464.275188 168.220098 464.376514 168.369487 
L 461.993048 169.986115 
C 461.893091 169.838745 461.792947 169.691502 461.692616 169.544386 
C 461.592286 169.39727 461.491768 169.250281 461.391064 169.10342 
z
" clip-path="url(#p3ab79f4236)" style="fill: #a81016; stroke: #303030; stroke-width: 0.1; stroke-linejoin: miter"/>
   </g>
   <g id="patch_52">
    <path d="M 229.94465 82.939739 
C 230.118335 82.890566 230.292081 82.841615 230.46589 82.792884 
C 230.639698 82.744153 230.813568 82.695643 230.9875 82.647354 
L 231.757939 85.42239 
C 231.586358 85.470026 231.414837 85.517881 231.243378 85.565953 
C 231.071918 85.614025 230.900519 85.662315 230.729182 85.710823 
z
" clip-path="url(#p3ab79f4236)" style="fill: #7a0510; stroke: #303030; stroke-width: 0.1; stroke-linejoin: miter"/>
   </g>
   <g id="patch_53">
    <path d="M 463.514162 167.107844 
C 463.616556 167.256503 463.718762 167.405292 463.820778 167.55421 
C 463.922795 167.703129 464.024622 167.852177 464.12626 168.001354 
L 461.746175 169.622958 
C 461.645911 169.475796 461.54546 169.328762 461.444822 169.181856 
C 461.344184 169.03495 461.24336 168.888172 461.142349 168.741522 
z
" clip-path="url(#p3ab79f4236)" style="fill: #c8171c; stroke: #303030; stroke-width: 0.1; stroke-linejoin: miter"/>
   </g>
   <g id="patch_54">
    <path d="M 468.362573 118.250995 
C 468.506348 118.40376 468.64993 118.556708 468.793317 118.709838 
C 468.936704 118.862969 469.079897 119.016281 469.222895 119.169775 
L 471.330138 117.206633 
C 471.185477 117.051354 471.04062 116.896259 470.895565 116.741348 
C 470.750511 116.586437 470.605259 116.431711 470.459812 116.277169 
z
" clip-path="url(#p3ab79f4236)" style="fill: #e43027; stroke: #303030; stroke-width: 0.1; stroke-linejoin: miter"/>
   </g>
   <g id="patch_55">
    <path d="M 40.449524 279.990994 
C 40.456307 279.781321 40.463357 279.571657 40.470674 279.362002 
C 40.47799 279.152347 40.485573 278.942701 40.493422 278.733066 
L 37.615438 278.625311 
C 37.607498 278.837384 37.599827 279.049467 37.592426 279.26156 
C 37.585024 279.473653 37.577892 279.685755 37.57103 279.897866 
z
" clip-path="url(#p3ab79f4236)" style="fill: #af1117; stroke: #303030; stroke-width: 0.1; stroke-linejoin: miter"/>
   </g>
   <g id="patch_56">
    <path d="M 291.325374 40.342324 
C 291.535138 40.345141 291.744898 40.348224 291.954654 40.351574 
C 292.16441 40.354923 292.374161 40.358539 292.583908 40.362422 
L 292.637209 37.482915 
C 292.425023 37.478987 292.212833 37.475329 292.000638 37.471941 
C 291.788443 37.468552 291.576244 37.465433 291.364041 37.462584 
z
" clip-path="url(#p3ab79f4236)" style="fill: #ad1117; stroke: #303030; stroke-width: 0.1; stroke-linejoin: miter"/>
   </g>
   <g id="patch_57">
    <path d="M 285.122183 40.336719 
C 285.331951 40.334282 285.541723 40.332111 285.751497 40.330206 
C 285.961271 40.328302 286.171047 40.326664 286.380825 40.325293 
L 286.361998 37.445354 
C 286.14978 37.446742 285.937565 37.448399 285.725352 37.450325 
C 285.513138 37.452252 285.300928 37.454448 285.08872 37.456914 
z
" clip-path="url(#p3ab79f4236)" style="fill: #d11e1f; stroke: #303030; stroke-width: 0.1; stroke-linejoin: miter"/>
   </g>
   <g id="patch_58">
    <path d="M 420.208968 135.804899 
C 420.337876 135.916879 420.466642 136.029022 420.595265 136.141329 
C 420.723887 136.253636 420.852368 136.366107 420.980705 136.47874 
L 419.08098 138.64333 
C 418.954477 138.532305 418.827832 138.421442 418.701046 138.310739 
C 418.574261 138.200036 418.447335 138.089495 418.320269 137.979115 
z
" clip-path="url(#p3ab79f4236)" style="fill: #b51318; stroke: #303030; stroke-width: 0.1; stroke-linejoin: miter"/>
   </g>
   <g id="patch_59">
    <path d="M 454.171601 173.852907 
C 454.268283 173.993652 454.364785 174.134521 454.461109 174.275512 
C 454.557433 174.416503 454.653577 174.557616 454.749542 174.698852 
L 452.367406 176.317439 
C 452.272812 176.178222 452.178041 176.039124 452.083093 175.900148 
C 451.988146 175.761171 451.893022 175.622315 451.797721 175.483579 
z
" clip-path="url(#p3ab79f4236)" style="fill: #d42121; stroke: #303030; stroke-width: 0.1; stroke-linejoin: miter"/>
   </g>
   <g id="patch_60">
    <path d="M 76.679673 137.905499 
C 76.806801 137.726513 76.934157 137.547688 77.06174 137.369025 
C 77.189323 137.190362 77.317133 137.011862 77.44517 136.833524 
L 75.105672 135.153896 
C 74.976212 135.334216 74.846982 135.5147 74.717982 135.695348 
C 74.588981 135.875996 74.46021 136.056807 74.331669 136.237782 
z
" clip-path="url(#p3ab79f4236)" style="fill: #e53228; stroke: #303030; stroke-width: 0.1; stroke-linejoin: miter"/>
   </g>
   <g id="patch_61">
    <path d="M 274.023861 86.885039 
C 274.194204 86.873201 274.364561 86.86158 274.534933 86.850175 
C 274.705305 86.83877 274.875692 86.827582 275.046092 86.81661 
L 275.231148 89.690659 
C 275.063182 89.701474 274.89523 89.712502 274.727292 89.723744 
C 274.559353 89.734986 274.39143 89.746441 274.223521 89.75811 
z
" clip-path="url(#p3ab79f4236)" style="fill: #c4161c; stroke: #303030; stroke-width: 0.1; stroke-linejoin: miter"/>
   </g>
   <g id="patch_62">
    <path d="M 335.55205 33.19921 
C 335.767864 33.239486 335.983627 33.280037 336.199338 33.320861 
C 336.415048 33.361685 336.630707 33.402784 336.846314 33.444156 
L 337.389051 30.615758 
C 337.171049 30.573926 336.952993 30.532371 336.734886 30.491093 
C 336.516778 30.449815 336.298618 30.408814 336.080406 30.36809 
z
" clip-path="url(#p3ab79f4236)" style="fill: #fff5f0; stroke: #303030; stroke-width: 0.1; stroke-linejoin: miter"/>
   </g>
   <g id="patch_63">
    <path d="M 424.835032 139.950232 
C 424.960429 140.06613 425.085679 140.182187 425.210781 140.298403 
C 425.335882 140.414619 425.460837 140.530995 425.585643 140.647528 
L 423.620134 142.752564 
C 423.49711 142.637695 423.373941 142.522982 423.250627 142.408426 
C 423.127312 142.29387 423.003852 142.179471 422.880246 142.065228 
z
" clip-path="url(#p3ab79f4236)" style="fill: #ca181d; stroke: #303030; stroke-width: 0.1; stroke-linejoin: miter"/>
   </g>
   <g id="patch_64">
    <path d="M 290.546069 86.416078 
C 290.716808 86.418235 290.887545 86.420608 291.058279 86.423198 
C 291.229013 86.425789 291.399743 86.428596 291.570469 86.43162 
L 291.519463 89.311168 
C 291.351175 89.308187 291.182884 89.30542 291.014589 89.302867 
C 290.846295 89.300314 290.677997 89.297974 290.509696 89.295848 
z
" clip-path="url(#p3ab79f4236)" style="fill: #e32f27; stroke: #303030; stroke-width: 0.1; stroke-linejoin: miter"/>
   </g>
   <g id="patch_65">
    <path d="M 291.229353 86.425867 
C 291.400084 86.428602 291.570812 86.431554 291.741536 86.434723 
C 291.91226 86.437892 292.08298 86.441278 292.253695 86.444881 
L 292.192928 89.32424 
C 292.024652 89.320688 291.856371 89.317351 291.688086 89.314227 
C 291.519801 89.311103 291.351512 89.308193 291.183219 89.305497 
z
" clip-path="url(#p3ab79f4236)" style="fill: #b01217; stroke: #303030; stroke-width: 0.1; stroke-linejoin: miter"/>
   </g>
   <g id="patch_66">
    <path d="M 261.688749 30.138878 
C 261.907155 30.116593 262.125589 30.094585 262.344051 30.072855 
C 262.562513 30.051124 262.781002 30.029672 262.999518 30.008496 
L 262.721735 27.141924 
C 262.500791 27.163335 262.279874 27.185026 262.058985 27.206998 
C 261.838095 27.228969 261.617234 27.251222 261.396402 27.273755 
z
" clip-path="url(#p3ab79f4236)" style="fill: #ab1016; stroke: #303030; stroke-width: 0.1; stroke-linejoin: miter"/>
   </g>
   <g id="patch_67">
    <path d="M 339.577161 33.983393 
C 339.792311 34.027079 340.007405 34.071037 340.222443 34.115269 
C 340.437481 34.159501 340.652462 34.204006 340.867387 34.248785 
L 341.454803 31.429327 
C 341.23749 31.384051 341.020119 31.339051 340.802692 31.294328 
C 340.585265 31.249604 340.367781 31.205157 340.150241 31.160987 
z
" clip-path="url(#p3ab79f4236)" style="fill: #af1117; stroke: #303030; stroke-width: 0.1; stroke-linejoin: miter"/>
   </g>
   <g id="patch_68">
    <path d="M 291.2722 28.820655 
C 291.491722 28.823427 291.711241 28.826477 291.930756 28.829807 
C 292.150271 28.833136 292.369781 28.836744 292.589287 28.840631 
L 292.640279 25.961083 
C 292.418334 25.957152 292.196385 25.953504 291.974431 25.950138 
C 291.752477 25.946771 291.530519 25.943687 291.308558 25.940885 
z
" clip-path="url(#p3ab79f4236)" style="fill: #c1161b; stroke: #303030; stroke-width: 0.1; stroke-linejoin: miter"/>
   </g>
   <g id="patch_69">
    <path d="M 376.914727 107.067053 
C 377.067975 107.142363 377.221128 107.217867 377.374185 107.293567 
C 377.527241 107.369266 377.680202 107.445159 377.833066 107.521247 
L 376.549736 110.099515 
C 376.399056 110.024514 376.248281 109.949705 376.097411 109.875087 
C 375.946541 109.800469 375.795576 109.726043 375.644516 109.651809 
z
" clip-path="url(#p3ab79f4236)" style="fill: #f14331; stroke: #303030; stroke-width: 0.1; stroke-linejoin: miter"/>
   </g>
   <g id="patch_70">
    <path d="M 86.484114 282.176979 
C 86.489046 282.006297 86.494195 281.835621 86.49956 281.664952 
C 86.504926 281.494283 86.510509 281.323621 86.516308 281.152966 
L 89.394646 281.250781 
C 89.38893 281.418998 89.383427 281.587222 89.378138 281.755453 
C 89.372849 281.923684 89.367774 282.091921 89.362912 282.260165 
z
" clip-path="url(#p3ab79f4236)" style="fill: #d52221; stroke: #303030; stroke-width: 0.1; stroke-linejoin: miter"/>
   </g>
   <g id="patch_71">
    <path d="M 259.622535 30.358079 
C 259.840756 30.334043 260.059006 30.310285 260.277287 30.286804 
C 260.495568 30.263324 260.713878 30.24012 260.932218 30.217194 
L 260.631465 27.35294 
C 260.410699 27.376121 260.189963 27.399583 259.969257 27.423324 
C 259.748551 27.447066 259.527875 27.471088 259.30723 27.495391 
z
" clip-path="url(#p3ab79f4236)" style="fill: #f14331; stroke: #303030; stroke-width: 0.1; stroke-linejoin: miter"/>
   </g>
   <g id="patch_72">
    <path d="M 335.650717 33.217643 
C 335.866515 33.258003 336.082262 33.298637 336.297957 33.339545 
C 336.513652 33.380453 336.729295 33.421635 336.944885 33.463091 
L 337.488717 30.634903 
C 337.270732 30.592986 337.052693 30.551347 336.834601 30.509984 
C 336.616509 30.468622 336.398365 30.427537 336.180169 30.386728 
z
" clip-path="url(#p3ab79f4236)" style="fill: #ffebe2; stroke: #303030; stroke-width: 0.1; stroke-linejoin: miter"/>
   </g>
   <g id="patch_73">
    <path d="M 259.078445 30.418588 
C 259.296614 30.394092 259.514814 30.369873 259.733045 30.345931 
C 259.951275 30.321989 260.169536 30.298325 260.387827 30.274937 
L 260.081025 27.411326 
C 259.860309 27.434973 259.639623 27.4589 259.418967 27.483108 
C 259.198312 27.507316 258.977688 27.531804 258.757094 27.556573 
z
" clip-path="url(#p3ab79f4236)" style="fill: #d72322; stroke: #303030; stroke-width: 0.1; stroke-linejoin: miter"/>
   </g>
   <g id="patch_74">
    <path d="M 334.144572 32.940559 
C 334.360605 32.979643 334.576588 33.019001 334.792521 33.058634 
C 335.008454 33.098267 335.224336 33.138174 335.440168 33.178356 
L 335.967281 30.347004 
C 335.749051 30.306376 335.53077 30.266026 335.312438 30.225952 
C 335.094106 30.185879 334.875722 30.146083 334.657289 30.106565 
z
" clip-path="url(#p3ab79f4236)" style="fill: #fedecf; stroke: #303030; stroke-width: 0.1; stroke-linejoin: miter"/>
   </g>
   <g id="patch_75">
    <path d="M 78.35328 135.5766 
C 78.482381 135.399031 78.611708 135.221626 78.74126 135.044386 
C 78.870812 134.867146 79.000589 134.690071 79.130591 134.51316 
L 76.80982 132.807751 
C 76.678373 132.986627 76.547154 133.16567 76.416163 133.344879 
C 76.285172 133.524089 76.154408 133.703465 76.023872 133.883007 
z
" clip-path="url(#p3ab79f4236)" style="fill: #920a13; stroke: #303030; stroke-width: 0.1; stroke-linejoin: miter"/>
   </g>
   <g id="patch_76">
    <path d="M 420.148651 65.017099 
C 420.337516 65.129028 420.526238 65.241197 420.714817 65.353605 
C 420.903396 65.466013 421.091833 65.578661 421.280126 65.691548 
L 422.761016 63.221454 
C 422.570631 63.107312 422.380101 62.993413 422.189426 62.879756 
C 421.998751 62.766099 421.807932 62.652684 421.616969 62.539511 
z
" clip-path="url(#p3ab79f4236)" style="fill: #fdd1be; stroke: #303030; stroke-width: 0.1; stroke-linejoin: miter"/>
   </g>
   <g id="patch_77">
    <path d="M 484.821945 244.368798 
C 484.858901 244.535504 484.895644 244.702258 484.932176 244.869057 
C 484.968707 245.035857 485.005027 245.202703 485.041134 245.369595 
L 482.226261 245.978601 
C 482.190669 245.814093 482.154868 245.649631 482.118859 245.485214 
C 482.082849 245.320797 482.046631 245.156426 482.010203 244.992101 
z
" clip-path="url(#p3ab79f4236)" style="fill: #f5523a; stroke: #303030; stroke-width: 0.1; stroke-linejoin: miter"/>
   </g>
   <g id="patch_78">
    <path d="M 74.818992 435.439811 
C 74.694112 435.259249 74.569461 435.078528 74.44504 434.897649 
C 74.32062 434.71677 74.196428 434.535733 74.072468 434.354538 
L 71.695495 435.9807 
C 71.820833 436.163908 71.946404 436.346956 72.072208 436.529845 
C 72.198011 436.712734 72.324047 436.895463 72.450314 437.078031 
z
" clip-path="url(#p3ab79f4236)" style="fill: #b01217; stroke: #303030; stroke-width: 0.1; stroke-linejoin: miter"/>
   </g>
   <g id="patch_79">
    <path d="M 454.358978 174.126164 
C 454.455428 174.267068 454.551699 174.408095 454.64779 174.549244 
C 454.743882 174.690393 454.839794 174.831665 454.935527 174.973057 
L 452.550734 176.587728 
C 452.456369 176.448355 452.361827 176.309102 452.267108 176.169969 
C 452.172389 176.030837 452.077493 175.891824 451.982421 175.752933 
z
" clip-path="url(#p3ab79f4236)" style="fill: #b81419; stroke: #303030; stroke-width: 0.1; stroke-linejoin: miter"/>
   </g>
   <g id="patch_80">
    <path d="M 284.988331 28.817497 
C 285.207856 28.814946 285.427385 28.812674 285.646915 28.810681 
C 285.866446 28.808688 286.08598 28.806974 286.305515 28.805539 
L 286.286687 25.9256 
C 286.064713 25.927051 285.84274 25.928785 285.62077 25.9308 
C 285.3988 25.932815 285.176832 25.935112 284.954868 25.937691 
z
" clip-path="url(#p3ab79f4236)" style="fill: #d11e1f; stroke: #303030; stroke-width: 0.1; stroke-linejoin: miter"/>
   </g>
   <g id="patch_81">
    <path d="M 133.577983 153.963023 
C 133.691511 153.832229 133.805205 153.70158 133.919065 153.571074 
C 134.032926 153.440569 134.146951 153.310209 134.261143 153.179994 
L 136.426479 155.078867 
C 136.313896 155.207248 136.201476 155.335773 136.08922 155.46444 
C 135.976963 155.593107 135.86487 155.721916 135.752941 155.850868 
z
" clip-path="url(#p3ab79f4236)" style="fill: #bb141a; stroke: #303030; stroke-width: 0.1; stroke-linejoin: miter"/>
   </g>
   <g id="patch_82">
    <path d="M 179.912225 114.42263 
C 180.059243 114.331081 180.206378 114.239718 180.353629 114.148543 
C 180.500879 114.057367 180.648245 113.966379 180.795727 113.875578 
L 182.305647 116.328035 
C 182.160242 116.417557 182.014951 116.507264 181.869775 116.597155 
C 181.724598 116.687046 181.579536 116.777122 181.434588 116.867382 
z
" clip-path="url(#p3ab79f4236)" style="fill: #f44f39; stroke: #303030; stroke-width: 0.1; stroke-linejoin: miter"/>
   </g>
   <g id="patch_83">
    <path d="M 83.620266 281.597302 
C 83.625689 281.424194 83.631332 281.251093 83.637194 281.078 
C 83.643057 280.904906 83.64914 280.73182 83.655443 280.558743 
L 86.533535 280.663549 
C 86.527321 280.834189 86.521324 281.004837 86.515544 281.175493 
C 86.509763 281.346148 86.5042 281.516811 86.498853 281.68748 
z
" clip-path="url(#p3ab79f4236)" style="fill: #b51318; stroke: #303030; stroke-width: 0.1; stroke-linejoin: miter"/>
   </g>
   <g id="patch_84">
    <path d="M 290.719598 83.538086 
C 290.892775 83.54039 291.06595 83.542913 291.239121 83.545657 
C 291.412292 83.5484 291.585459 83.551364 291.758622 83.554547 
L 291.705684 86.434061 
C 291.53496 86.430922 291.364231 86.428 291.193499 86.425295 
C 291.022767 86.42259 290.852032 86.420103 290.681294 86.417831 
z
" clip-path="url(#p3ab79f4236)" style="fill: #c4161c; stroke: #303030; stroke-width: 0.1; stroke-linejoin: miter"/>
   </g>
   <g id="patch_85">
    <path d="M 83.589763 282.659087 
C 83.594287 282.485954 83.59903 282.312826 83.603994 282.139705 
C 83.608957 281.966583 83.614141 281.793468 83.619545 281.62036 
L 86.498142 281.710214 
C 86.492815 281.880884 86.487705 282.051561 86.482811 282.222244 
C 86.477917 282.392927 86.47324 282.563616 86.46878 282.734311 
z
" clip-path="url(#p3ab79f4236)" style="fill: #f6553c; stroke: #303030; stroke-width: 0.1; stroke-linejoin: miter"/>
   </g>
   <g id="patch_86">
    <path d="M 459.020475 175.910448 
C 459.115414 176.055301 459.210168 176.200275 459.304739 176.345368 
C 459.399309 176.490462 459.493695 176.635675 459.587897 176.781008 
L 457.171166 178.347473 
C 457.078291 178.204187 456.985235 178.061018 456.891996 177.917968 
C 456.798758 177.774919 456.705337 177.631987 456.611736 177.489175 
z
" clip-path="url(#p3ab79f4236)" style="fill: #d21f20; stroke: #303030; stroke-width: 0.1; stroke-linejoin: miter"/>
   </g>
   <g id="patch_87">
    <path d="M 135.03458 152.303093 
C 135.149514 152.173532 135.264613 152.044118 135.379875 151.91485 
C 135.495138 151.785583 135.610565 151.656461 135.726156 151.527487 
L 137.870858 153.449635 
C 137.756895 153.576793 137.643094 153.704095 137.529455 153.831543 
C 137.415815 153.95899 137.302338 154.086581 137.189022 154.214317 
z
" clip-path="url(#p3ab79f4236)" style="fill: #aa1016; stroke: #303030; stroke-width: 0.1; stroke-linejoin: miter"/>
   </g>
   <g id="patch_88">
    <path d="M 399.149353 116.366985 
C 399.294725 116.461128 399.439977 116.555455 399.585108 116.649967 
C 399.73024 116.744478 399.875252 116.839174 400.020143 116.934054 
L 398.442395 119.343434 
C 398.299544 119.24989 398.156575 119.156528 398.013487 119.063347 
C 397.870399 118.970167 397.727193 118.877168 397.583869 118.784352 
z
" clip-path="url(#p3ab79f4236)" style="fill: #cc191e; stroke: #303030; stroke-width: 0.1; stroke-linejoin: miter"/>
   </g>
   <g id="patch_89">
    <path d="M 284.689916 31.701374 
C 284.906998 31.69857 285.124084 31.696042 285.341173 31.69379 
C 285.558262 31.691538 285.775354 31.689562 285.992448 31.687862 
L 285.969891 28.80795 
C 285.750358 28.80967 285.530827 28.811668 285.311299 28.813945 
C 285.091771 28.816223 284.872245 28.818779 284.652724 28.821614 
z
" clip-path="url(#p3ab79f4236)" style="fill: #fc8767; stroke: #303030; stroke-width: 0.1; stroke-linejoin: miter"/>
   </g>
   <g id="patch_90">
    <path d="M 350.008466 93.148722 
C 350.173503 93.201242 350.338473 93.253973 350.503376 93.306912 
C 350.66828 93.359852 350.833115 93.413001 350.997884 93.46636 
L 350.11059 96.206271 
C 349.948142 96.153663 349.785628 96.101263 349.623047 96.049069 
C 349.460466 95.996874 349.29782 95.944887 349.135107 95.893106 
z
" clip-path="url(#p3ab79f4236)" style="fill: #af1117; stroke: #303030; stroke-width: 0.1; stroke-linejoin: miter"/>
   </g>
   <g id="patch_91">
    <path d="M 367.32872 44.2647 
C 367.535162 44.33189 367.741518 44.399343 367.947788 44.467058 
C 368.154058 44.534773 368.360242 44.602751 368.566339 44.670989 
L 369.471579 41.936956 
C 369.263166 41.86795 369.054665 41.799209 368.846078 41.730733 
C 368.63749 41.662257 368.428815 41.594047 368.220054 41.526101 
z
" clip-path="url(#p3ab79f4236)" style="fill: #f34c37; stroke: #303030; stroke-width: 0.1; stroke-linejoin: miter"/>
   </g>
   <g id="patch_92">
    <path d="M 83.60047 282.263938 
C 83.605328 282.090813 83.610406 281.917695 83.615705 281.744583 
C 83.621003 281.571472 83.626521 281.398367 83.632259 281.225269 
L 86.510678 281.320688 
C 86.505021 281.491348 86.49958 281.662014 86.494357 281.832688 
C 86.489133 282.003361 86.484126 282.174041 86.479336 282.344727 
z
" clip-path="url(#p3ab79f4236)" style="fill: #b01217; stroke: #303030; stroke-width: 0.1; stroke-linejoin: miter"/>
   </g>
   <g id="patch_93">
    <path d="M 190.324252 51.020274 
C 190.524972 50.937543 190.725796 50.855068 190.926725 50.772848 
C 191.127655 50.690628 191.328688 50.608663 191.529826 50.526953 
L 190.445891 47.858717 
C 190.242494 47.941344 190.039201 48.02423 189.836014 48.107374 
C 189.632828 48.190518 189.429747 48.27392 189.226772 48.35758 
z
" clip-path="url(#p3ab79f4236)" style="fill: #fdc6b0; stroke: #303030; stroke-width: 0.1; stroke-linejoin: miter"/>
   </g>
   <g id="patch_94">
    <path d="M 325.657717 87.017496 
C 325.827947 87.049392 325.998137 87.081504 326.168286 87.113832 
C 326.338435 87.146161 326.508542 87.178705 326.678608 87.211465 
L 326.133839 90.039473 
C 325.966168 90.007174 325.798457 89.975088 325.630704 89.943215 
C 325.462952 89.911342 325.295159 89.879682 325.127327 89.848236 
z
" clip-path="url(#p3ab79f4236)" style="fill: #be151a; stroke: #303030; stroke-width: 0.1; stroke-linejoin: miter"/>
   </g>
   <g id="patch_95">
    <path d="M 422.596219 134.065182 
C 422.7266 134.179184 422.856837 134.293351 422.986928 134.407684 
C 423.117019 134.522016 423.246965 134.636514 423.376766 134.751177 
L 421.470051 136.909611 
C 421.342078 136.796563 421.213963 136.683678 421.085704 136.570956 
C 420.957445 136.458233 420.829043 136.345674 420.700498 136.233278 
z
" clip-path="url(#p3ab79f4236)" style="fill: #b61319; stroke: #303030; stroke-width: 0.1; stroke-linejoin: miter"/>
   </g>
   <g id="patch_96">
    <path d="M 499.391048 143.03874 
C 499.513829 143.217786 499.636383 143.396988 499.758708 143.576346 
C 499.881034 143.755703 500.003131 143.935216 500.125 144.114884 
L 502.508427 142.498197 
C 502.385189 142.316511 502.261719 142.134981 502.138019 141.953608 
C 502.014319 141.772235 501.890389 141.591019 501.766229 141.409961 
z
" clip-path="url(#p3ab79f4236)" style="fill: #e43027; stroke: #303030; stroke-width: 0.1; stroke-linejoin: miter"/>
   </g>
   <g id="patch_97">
    <path d="M 334.790976 88.945548 
C 334.959573 88.985179 335.12812 89.025025 335.296616 89.065085 
C 335.465112 89.105145 335.633557 89.145418 335.801951 89.185906 
L 335.128684 91.986105 
C 334.962662 91.946187 334.796589 91.906481 334.630467 91.866985 
C 334.464344 91.827489 334.298171 91.788205 334.131948 91.749132 
z
" clip-path="url(#p3ab79f4236)" style="fill: #fca78b; stroke: #303030; stroke-width: 0.1; stroke-linejoin: miter"/>
   </g>
   <g id="patch_98">
    <path d="M 212.119394 98.120554 
C 212.28022 98.056284 212.441127 97.992218 212.602116 97.928357 
C 212.763105 97.864496 212.924175 97.800839 213.085326 97.737387 
L 214.140462 100.417142 
C 213.981581 100.4797 213.82278 100.54246 213.664058 100.605422 
C 213.505337 100.668384 213.346695 100.731548 213.188134 100.794913 
z
" clip-path="url(#p3ab79f4236)" style="fill: #a91016; stroke: #303030; stroke-width: 0.1; stroke-linejoin: miter"/>
   </g>
   <g id="patch_99">
    <path d="M 321.610819 86.301256 
C 321.781656 86.329724 321.952456 86.358409 322.12322 86.387311 
C 322.293984 86.416213 322.464712 86.445332 322.635402 86.474668 
L 322.147579 89.313053 
C 321.979293 89.284131 321.810971 89.255422 321.642612 89.226927 
C 321.474253 89.198432 321.305858 89.170151 321.137427 89.142084 
z
" clip-path="url(#p3ab79f4236)" style="fill: #fc9474; stroke: #303030; stroke-width: 0.1; stroke-linejoin: miter"/>
   </g>
   <g id="patch_100">
    <path d="M 372.520306 101.805509 
C 372.678011 101.877097 372.835625 101.948886 372.993147 102.020874 
C 373.15067 102.092862 373.308101 102.165051 373.46544 102.237439 
L 372.261702 104.853813 
C 372.106578 104.782445 371.951365 104.711273 371.796061 104.640298 
C 371.640757 104.569324 371.485363 104.498547 371.329879 104.427967 
z
" clip-path="url(#p3ab79f4236)" style="fill: #f6553c; stroke: #303030; stroke-width: 0.1; stroke-linejoin: miter"/>
   </g>
   <g id="patch_101">
    <path d="M 342.52854 90.924612 
C 342.695461 90.970797 342.862323 91.017194 343.029126 91.063803 
C 343.19593 91.110412 343.362673 91.157233 343.529358 91.204266 
L 342.747254 93.976037 
C 342.582917 93.929667 342.418522 93.883505 342.254068 93.837552 
C 342.089615 93.7916 341.925102 93.745856 341.760532 93.700321 
z
" clip-path="url(#p3ab79f4236)" style="fill: #d52221; stroke: #303030; stroke-width: 0.1; stroke-linejoin: miter"/>
   </g>
   <g id="patch_102">
    <path d="M 405.505713 120.654615 
C 405.647453 120.754141 405.789066 120.853848 405.930553 120.953734 
C 406.072039 121.05362 406.213399 121.153685 406.354631 121.253931 
L 404.687665 123.602467 
C 404.548422 123.503634 404.409053 123.404977 404.269559 123.306498 
C 404.130065 123.208019 403.990446 123.109717 403.850703 123.011592 
z
" clip-path="url(#p3ab79f4236)" style="fill: #fc8b6b; stroke: #303030; stroke-width: 0.1; stroke-linejoin: miter"/>
   </g>
   <g id="patch_103">
    <path d="M 442.606094 83.557103 
C 442.779255 83.688053 442.95225 83.819223 443.125077 83.950612 
C 443.297905 84.082001 443.470566 84.21361 443.64306 84.345439 
L 445.391858 82.057185 
C 445.217427 81.923876 445.042826 81.790788 444.868056 81.657922 
C 444.693286 81.525056 444.518348 81.392413 444.343241 81.259992 
z
" clip-path="url(#p3ab79f4236)" style="fill: #bd151a; stroke: #303030; stroke-width: 0.1; stroke-linejoin: miter"/>
   </g>
   <g id="patch_104">
    <path d="M 227.097813 92.800118 
C 227.263146 92.748534 227.428544 92.697161 227.594007 92.645997 
C 227.75947 92.594834 227.924998 92.543881 228.09059 92.493138 
L 228.934385 95.246756 
C 228.771124 95.296784 228.607928 95.347019 228.444795 95.397462 
C 228.281663 95.447905 228.118594 95.498555 227.95559 95.549412 
z
" clip-path="url(#p3ab79f4236)" style="fill: #f44d38; stroke: #303030; stroke-width: 0.1; stroke-linejoin: miter"/>
   </g>
   <g id="patch_105">
    <path d="M 351.246961 93.547198 
C 351.411661 93.600767 351.576293 93.654546 351.740856 93.708534 
C 351.905419 93.762522 352.069913 93.816719 352.234338 93.871125 
L 351.329629 96.605334 
C 351.16752 96.551695 351.005342 96.498261 350.843097 96.445034 
C 350.680852 96.391806 350.518539 96.338785 350.356159 96.28597 
z
" clip-path="url(#p3ab79f4236)" style="fill: #f75c41; stroke: #303030; stroke-width: 0.1; stroke-linejoin: miter"/>
   </g>
   <g id="patch_106">
    <path d="M 273.54805 84.031347 
C 273.72081 84.019106 273.893585 84.007085 274.066375 83.995283 
C 274.239165 83.983482 274.41197 83.971899 274.58479 83.960537 
L 274.773736 86.834332 
C 274.603351 86.845535 274.43298 86.856954 274.262623 86.868589 
C 274.092267 86.880224 273.921925 86.892076 273.751599 86.904145 
z
" clip-path="url(#p3ab79f4236)" style="fill: #b81419; stroke: #303030; stroke-width: 0.1; stroke-linejoin: miter"/>
   </g>
   <g id="patch_107">
    <path d="M 417.343093 66.707644 
C 417.530526 66.817197 417.717819 66.926987 417.904973 67.037016 
C 418.092126 67.147044 418.27914 67.25731 418.466013 67.367813 
L 419.931924 64.8888 
C 419.74295 64.777055 419.553835 64.66555 419.364579 64.554285 
C 419.175323 64.443021 418.985925 64.331997 418.796386 64.221213 
z
" clip-path="url(#p3ab79f4236)" style="fill: #fca689; stroke: #303030; stroke-width: 0.1; stroke-linejoin: miter"/>
   </g>
   <g id="patch_108">
    <path d="M 83.64328 280.900616 
C 83.649293 280.727528 83.655526 280.554448 83.661979 280.381375 
C 83.668432 280.208303 83.675104 280.035239 83.681997 279.862183 
L 86.559715 279.9768 
C 86.55292 280.147418 86.546341 280.318045 86.539979 280.48868 
C 86.533617 280.659314 86.527472 280.829957 86.521543 281.000608 
z
" clip-path="url(#p3ab79f4236)" style="fill: #c2161b; stroke: #303030; stroke-width: 0.1; stroke-linejoin: miter"/>
   </g>
   <g id="patch_109">
    <path d="M 415.352131 128.020298 
C 415.487633 128.128164 415.622997 128.236202 415.758224 128.344412 
C 415.893451 128.452622 416.02854 128.561004 416.163491 128.669557 
L 414.358372 130.913648 
C 414.225321 130.806624 414.092134 130.699769 413.958812 130.593083 
C 413.82549 130.486397 413.692032 130.37988 413.558439 130.273533 
z
" clip-path="url(#p3ab79f4236)" style="fill: #bd151a; stroke: #303030; stroke-width: 0.1; stroke-linejoin: miter"/>
   </g>
   <g id="patch_110">
    <path d="M 342.52854 90.924612 
C 342.695461 90.970797 342.862323 91.017194 343.029126 91.063803 
C 343.19593 91.110412 343.362673 91.157233 343.529358 91.204266 
L 342.747254 93.976037 
C 342.582917 93.929667 342.418522 93.883505 342.254068 93.837552 
C 342.089615 93.7916 341.925102 93.745856 341.760532 93.700321 
z
" clip-path="url(#p3ab79f4236)" style="fill: #b81419; stroke: #303030; stroke-width: 0.1; stroke-linejoin: miter"/>
   </g>
   <g id="patch_111">
    <path d="M 259.95778 33.218572 
C 260.173578 33.19482 260.389405 33.171343 260.605262 33.14814 
C 260.821119 33.124937 261.037006 33.102008 261.252921 33.079353 
L 260.952392 30.215076 
C 260.734051 30.237985 260.515739 30.261172 260.297456 30.284636 
C 260.079174 30.308099 259.860921 30.33184 259.642699 30.355859 
z
" clip-path="url(#p3ab79f4236)" style="fill: #ad1117; stroke: #303030; stroke-width: 0.1; stroke-linejoin: miter"/>
   </g>
   <g id="patch_112">
    <path d="M 208.39635 44.354353 
C 208.602716 44.286929 208.809167 44.219768 209.015703 44.152869 
C 209.22224 44.08597 209.428861 44.019334 209.635566 43.95296 
L 208.755067 41.210858 
C 208.546039 41.277978 208.337096 41.345363 208.128239 41.413014 
C 207.919382 41.480664 207.710612 41.54858 207.501927 41.616761 
z
" clip-path="url(#p3ab79f4236)" style="fill: #fb6c4c; stroke: #303030; stroke-width: 0.1; stroke-linejoin: miter"/>
   </g>
   <g id="patch_113">
    <path d="M 265.778813 84.730993 
C 265.95098 84.712172 266.123171 84.693569 266.295385 84.675186 
C 266.467599 84.656802 266.639837 84.638637 266.812097 84.620691 
L 267.110518 87.485189 
C 266.940684 87.502882 266.770872 87.520791 266.601084 87.538916 
C 266.431295 87.55704 266.261529 87.575381 266.091787 87.593937 
z
" clip-path="url(#p3ab79f4236)" style="fill: #f44f39; stroke: #303030; stroke-width: 0.1; stroke-linejoin: miter"/>
   </g>
   <g id="patch_114">
    <path d="M 83.575527 283.235019 
C 83.579562 283.061874 83.583818 282.888733 83.588294 282.715598 
C 83.59277 282.542463 83.597466 282.369334 83.602382 282.196212 
L 86.481221 282.277955 
C 86.476375 282.44864 86.471745 282.61933 86.467332 282.790026 
C 86.462919 282.960723 86.458724 283.131425 86.454744 283.302132 
z
" clip-path="url(#p3ab79f4236)" style="fill: #980c13; stroke: #303030; stroke-width: 0.1; stroke-linejoin: miter"/>
   </g>
   <g id="patch_115">
    <path d="M 83.582539 282.943101 
C 83.586823 282.769961 83.591326 282.596827 83.596049 282.423699 
C 83.600772 282.25057 83.605715 282.077448 83.610878 281.904332 
L 86.489598 281.990187 
C 86.484508 282.160864 86.479634 282.331548 86.474978 282.502238 
C 86.470321 282.672928 86.465881 282.843623 86.461659 283.014325 
z
" clip-path="url(#p3ab79f4236)" style="fill: #ac1117; stroke: #303030; stroke-width: 0.1; stroke-linejoin: miter"/>
   </g>
   <g id="patch_116">
    <path d="M 499.206411 142.769858 
C 499.32942 142.948748 499.452201 143.127794 499.574755 143.306996 
C 499.697309 143.486198 499.819634 143.665555 499.941732 143.845068 
L 502.3231 142.225349 
C 502.19963 142.04382 502.07593 141.862447 501.951999 141.681232 
C 501.828069 141.500016 501.703908 141.318958 501.579517 141.138059 
z
" clip-path="url(#p3ab79f4236)" style="fill: #de2b25; stroke: #303030; stroke-width: 0.1; stroke-linejoin: miter"/>
   </g>
   <g id="patch_117">
    <path d="M 160.31938 120.971509 
C 160.460851 120.863365 160.60246 120.7554 160.744206 120.647616 
C 160.885952 120.539831 161.027835 120.432227 161.169854 120.324803 
L 162.907253 122.621724 
C 162.767179 122.727676 162.62724 122.833806 162.487436 122.940114 
C 162.347632 123.046422 162.207963 123.152908 162.068429 123.259571 
z
" clip-path="url(#p3ab79f4236)" style="fill: #ab1016; stroke: #303030; stroke-width: 0.1; stroke-linejoin: miter"/>
   </g>
   <g id="patch_118">
    <path d="M 243.62014 41.401659 
C 243.829007 41.36407 244.037921 41.326746 244.246882 41.289688 
C 244.455844 41.252629 244.664852 41.215836 244.873907 41.179309 
L 244.378204 38.342289 
C 244.166747 38.379236 243.955336 38.416452 243.743973 38.453937 
C 243.53261 38.491421 243.321294 38.529174 243.110027 38.567196 
z
" clip-path="url(#p3ab79f4236)" style="fill: #9a0c14; stroke: #303030; stroke-width: 0.1; stroke-linejoin: miter"/>
   </g>
   <g id="patch_119">
    <path d="M 73.702219 158.166357 
C 73.812187 157.984849 73.922385 157.803481 74.032814 157.622253 
C 74.143243 157.441024 74.253902 157.259937 74.364791 157.07899 
L 71.909214 155.57415 
C 71.79705 155.757177 71.685119 155.940347 71.573421 156.123658 
C 71.461723 156.306969 71.350258 156.490422 71.239026 156.674017 
z
" clip-path="url(#p3ab79f4236)" style="fill: #b11218; stroke: #303030; stroke-width: 0.1; stroke-linejoin: miter"/>
   </g>
   <g id="patch_120">
    <path d="M 152.963747 76.941895 
C 153.142511 76.82752 153.32142 76.713373 153.500475 76.599453 
C 153.679529 76.485533 153.858728 76.371841 154.038071 76.258376 
L 152.498279 73.824565 
C 152.316874 73.939333 152.135615 74.054332 151.954503 74.169562 
C 151.773391 74.284791 151.592425 74.40025 151.411606 74.515939 
z
" clip-path="url(#p3ab79f4236)" style="fill: #b21218; stroke: #303030; stroke-width: 0.1; stroke-linejoin: miter"/>
   </g>
   <g id="patch_121">
    <path d="M 44.620171 228.446896 
C 44.670611 228.240755 44.721314 228.034679 44.772279 227.828668 
C 44.823243 227.622656 44.87447 227.416709 44.925957 227.210828 
L 42.132003 226.512102 
C 42.079923 226.72035 42.028108 226.928664 41.976558 227.137043 
C 41.925008 227.345423 41.873722 227.553868 41.822701 227.762377 
z
" clip-path="url(#p3ab79f4236)" style="fill: #d52221; stroke: #303030; stroke-width: 0.1; stroke-linejoin: miter"/>
   </g>
   <g id="patch_122">
    <path d="M 496.503805 314.963323 
C 496.480968 315.139924 496.457906 315.316496 496.434619 315.493038 
C 496.411333 315.66958 496.387822 315.846093 496.364087 316.022575 
L 493.509785 315.638704 
C 493.533194 315.464639 493.556383 315.290545 493.57935 315.116421 
C 493.602318 314.942297 493.625064 314.768144 493.647589 314.593963 
z
" clip-path="url(#p3ab79f4236)" style="fill: #a50f15; stroke: #303030; stroke-width: 0.1; stroke-linejoin: miter"/>
   </g>
   <g id="patch_123">
    <path d="M 369.052238 50.911729 
C 369.25305 50.980379 369.453774 51.049285 369.654411 51.118446 
C 369.855047 51.187606 370.055596 51.257022 370.256056 51.326692 
L 371.201528 48.606309 
C 370.998763 48.535838 370.79591 48.465625 370.592967 48.395669 
C 370.390025 48.325714 370.186993 48.256016 369.983873 48.186576 
z
" clip-path="url(#p3ab79f4236)" style="fill: #fdd2bf; stroke: #303030; stroke-width: 0.1; stroke-linejoin: miter"/>
   </g>
   <g id="patch_124">
    <path d="M 227.8003 44.779298 
C 228.006306 44.72831 228.212376 44.677583 228.418511 44.627118 
C 228.624645 44.576653 228.830844 44.52645 229.037106 44.476509 
L 228.359372 41.677388 
C 228.150739 41.727903 227.94217 41.778683 227.733666 41.829728 
C 227.525162 41.880773 227.316723 41.932083 227.10835 41.983658 
z
" clip-path="url(#p3ab79f4236)" style="fill: #f5523a; stroke: #303030; stroke-width: 0.1; stroke-linejoin: miter"/>
   </g>
   <g id="patch_125">
    <path d="M 295.587608 77.896964 
C 295.765563 77.90339 295.94351 77.910043 296.121448 77.916922 
C 296.299387 77.923801 296.477316 77.930906 296.655237 77.938237 
L 296.536672 80.815795 
C 296.361189 80.808564 296.185697 80.801557 296.010196 80.794772 
C 295.834695 80.787988 295.659185 80.781426 295.483668 80.775088 
z
" clip-path="url(#p3ab79f4236)" style="fill: #a60f15; stroke: #303030; stroke-width: 0.1; stroke-linejoin: miter"/>
   </g>
   <g id="patch_126">
    <path d="M 79.334401 262.31877 
C 79.356153 262.142032 79.37813 261.965322 79.40033 261.78864 
C 79.422531 261.611958 79.444956 261.435304 79.467606 261.258679 
L 82.324214 261.624999 
C 82.301875 261.799204 82.279757 261.973438 82.25786 262.147699 
C 82.235963 262.321961 82.214288 262.49625 82.192834 262.670567 
z
" clip-path="url(#p3ab79f4236)" style="fill: #b11218; stroke: #303030; stroke-width: 0.1; stroke-linejoin: miter"/>
   </g>
   <g id="patch_127">
    <path d="M 187.05187 58.675364 
C 187.246106 58.589862 187.44045 58.504607 187.634903 58.419598 
C 187.829355 58.33459 188.023915 58.249829 188.218583 58.165315 
L 187.07167 55.523537 
C 186.874765 55.609022 186.677968 55.694758 186.481281 55.780743 
C 186.284593 55.866729 186.088015 55.952964 185.891547 56.039449 
z
" clip-path="url(#p3ab79f4236)" style="fill: #fb6b4b; stroke: #303030; stroke-width: 0.1; stroke-linejoin: miter"/>
   </g>
   <g id="patch_128">
    <path d="M 273.480309 78.261982 
C 273.657955 78.249684 273.835617 78.237612 274.013294 78.225765 
C 274.190971 78.213918 274.368662 78.202298 274.546369 78.190902 
L 274.730665 81.065 
C 274.555393 81.076239 274.380135 81.0877 274.204893 81.099385 
C 274.02965 81.111069 273.854422 81.122976 273.679209 81.135106 
z
" clip-path="url(#p3ab79f4236)" style="fill: #f96044; stroke: #303030; stroke-width: 0.1; stroke-linejoin: miter"/>
   </g>
   <g id="patch_129">
    <path d="M 226.910761 45.001197 
C 227.116579 44.949455 227.322462 44.897974 227.52841 44.846755 
C 227.734359 44.795536 227.940372 44.744579 228.14645 44.693884 
L 227.458479 41.897262 
C 227.250032 41.94854 227.04165 42.000083 226.833335 42.05189 
C 226.625019 42.103698 226.416769 42.15577 226.208586 42.208107 
z
" clip-path="url(#p3ab79f4236)" style="fill: #a81016; stroke: #303030; stroke-width: 0.1; stroke-linejoin: miter"/>
   </g>
   <g id="patch_130">
    <path d="M 149.499929 129.827348 
C 149.633899 129.71004 149.768019 129.592902 149.902288 129.475934 
C 150.036556 129.358967 150.170973 129.24217 150.305538 129.125544 
L 152.191764 131.301906 
C 152.059042 131.416935 151.926466 131.532132 151.794037 131.647497 
C 151.661608 131.762862 151.529325 131.878395 151.39719 131.994097 
z
" clip-path="url(#p3ab79f4236)" style="fill: #b71319; stroke: #303030; stroke-width: 0.1; stroke-linejoin: miter"/>
   </g>
   <g id="patch_131">
    <path d="M 508.782373 169.528664 
C 508.882717 169.715665 508.982824 169.902793 509.082692 170.090048 
C 509.182561 170.277303 509.282191 170.464685 509.381584 170.652193 
L 511.9262 169.303367 
C 511.825665 169.113704 511.724889 168.924168 511.623873 168.734761 
C 511.522856 168.545354 511.421599 168.356075 511.320101 168.166925 
z
" clip-path="url(#p3ab79f4236)" style="fill: #ab1016; stroke: #303030; stroke-width: 0.1; stroke-linejoin: miter"/>
   </g>
   <g id="patch_132">
    <path d="M 209.057523 93.143789 
C 209.222564 93.076926 209.387691 93.010272 209.552901 92.943828 
C 209.718112 92.877384 209.883407 92.81115 210.048786 92.745126 
L 211.116611 95.41985 
C 210.953498 95.48497 210.790467 95.550296 210.627519 95.61583 
C 210.464572 95.681364 210.301707 95.747105 210.138927 95.813052 
z
" clip-path="url(#p3ab79f4236)" style="fill: #b51318; stroke: #303030; stroke-width: 0.1; stroke-linejoin: miter"/>
   </g>
   <g id="patch_133">
    <path d="M 409.620161 459.491674 
C 409.474909 459.594685 409.329526 459.697511 409.184013 459.800153 
C 409.0385 459.902795 408.892857 460.005251 408.747083 460.107523 
L 407.093014 457.749886 
C 407.23679 457.649015 407.380438 457.547962 407.523958 457.446726 
C 407.667478 457.345491 407.810869 457.244073 407.954131 457.142473 
z
" clip-path="url(#p3ab79f4236)" style="fill: #fff0e9; stroke: #303030; stroke-width: 0.1; stroke-linejoin: miter"/>
   </g>
   <g id="patch_134">
    <path d="M 108.784921 397.92185 
C 108.691818 397.770056 108.598908 397.618145 108.506192 397.466115 
C 108.413475 397.314086 108.320951 397.161938 108.228621 397.009674 
L 110.691243 395.51639 
C 110.782308 395.666569 110.873564 395.816632 110.965011 395.966579 
C 111.056458 396.116526 111.148095 396.266357 111.239922 396.416071 
z
" clip-path="url(#p3ab79f4236)" style="fill: #f96245; stroke: #303030; stroke-width: 0.1; stroke-linejoin: miter"/>
   </g>
   <g id="patch_135">
    <path d="M 475.519497 383.064694 
C 475.438978 383.223521 475.358257 383.382246 475.277335 383.540868 
C 475.196413 383.69949 475.115289 383.858009 475.033964 384.016425 
L 472.471855 382.701132 
C 472.552066 382.544886 472.632078 382.388538 472.711892 382.232089 
C 472.791706 382.07564 472.871321 381.919089 472.950736 381.762437 
z
" clip-path="url(#p3ab79f4236)" style="fill: #d11e1f; stroke: #303030; stroke-width: 0.1; stroke-linejoin: miter"/>
   </g>
   <g id="patch_136">
    <path d="M 115.342226 168.041047 
C 115.44383 167.894807 115.54562 167.748697 115.647595 167.602716 
C 115.74957 167.456735 115.851731 167.310884 115.954077 167.165162 
L 118.31087 168.820434 
C 118.209927 168.964159 118.109165 169.108013 118.008587 169.251994 
C 117.908008 169.395975 117.807613 169.540084 117.707401 169.68432 
z
" clip-path="url(#p3ab79f4236)" style="fill: #fc8969; stroke: #303030; stroke-width: 0.1; stroke-linejoin: miter"/>
   </g>
   <g id="patch_137">
    <path d="M 475.888897 122.234877 
C 476.029299 122.394018 476.169498 122.553336 476.309495 122.712832 
C 476.449491 122.872329 476.589285 123.032003 476.728876 123.191854 
L 478.898174 121.297508 
C 478.756978 121.135819 478.615578 120.97431 478.473972 120.81298 
C 478.332366 120.65165 478.190555 120.4905 478.04854 120.329531 
z
" clip-path="url(#p3ab79f4236)" style="fill: #b71319; stroke: #303030; stroke-width: 0.1; stroke-linejoin: miter"/>
   </g>
   <g id="patch_138">
    <path d="M 491.045341 233.470676 
C 491.091527 233.642654 491.137494 233.81469 491.183243 233.986784 
C 491.228991 234.158878 491.274521 234.331031 491.319833 234.503241 
L 488.534629 235.236073 
C 488.489939 235.066222 488.445033 234.896428 488.399911 234.726691 
C 488.354789 234.556954 488.309451 234.387275 488.263898 234.217653 
z
" clip-path="url(#p3ab79f4236)" style="fill: #fc9576; stroke: #303030; stroke-width: 0.1; stroke-linejoin: miter"/>
   </g>
   <g id="patch_139">
    <path d="M 115.479576 106.294148 
C 115.633479 106.148025 115.787567 106.002097 115.941841 105.856365 
C 116.096115 105.710634 116.250574 105.565098 116.405218 105.419759 
L 114.432864 103.321135 
C 114.276443 103.468145 114.120209 103.615354 113.964161 103.76276 
C 113.808114 103.910167 113.652254 104.057772 113.496582 104.205575 
z
" clip-path="url(#p3ab79f4236)" style="fill: #b21218; stroke: #303030; stroke-width: 0.1; stroke-linejoin: miter"/>
   </g>
   <g id="patch_140">
    <path d="M 66.177851 171.487135 
C 66.276536 171.299253 66.37546 171.111498 66.474623 170.923868 
C 66.573785 170.736238 66.673186 170.548734 66.772825 170.361357 
L 64.229983 169.009188 
C 64.129199 169.198719 64.028656 169.388378 63.928354 169.578165 
C 63.828052 169.767952 63.727991 169.957866 63.628171 170.147906 
z
" clip-path="url(#p3ab79f4236)" style="fill: #fc9b7c; stroke: #303030; stroke-width: 0.1; stroke-linejoin: miter"/>
   </g>
   <g id="patch_141">
    <path d="M 496.929403 264.561526 
C 496.949255 264.738487 496.968883 264.915473 496.988285 265.092485 
C 497.007688 265.269496 497.026865 265.446531 497.045818 265.623591 
L 494.182176 265.930117 
C 494.163483 265.755483 494.144569 265.580872 494.125432 265.406286 
C 494.106295 265.2317 494.086937 265.057138 494.067357 264.882601 
z
" clip-path="url(#p3ab79f4236)" style="fill: #bd151a; stroke: #303030; stroke-width: 0.1; stroke-linejoin: miter"/>
   </g>
   <g id="patch_142">
    <path d="M 240.998755 41.887837 
C 241.207209 41.848028 241.415715 41.808483 241.62427 41.769203 
C 241.832825 41.729924 242.04143 41.690909 242.250084 41.652159 
L 241.724223 38.820575 
C 241.51317 38.85977 241.302168 38.899233 241.091215 38.938964 
C 240.880263 38.978696 240.669361 39.018695 240.45851 39.058962 
z
" clip-path="url(#p3ab79f4236)" style="fill: #fb7757; stroke: #303030; stroke-width: 0.1; stroke-linejoin: miter"/>
   </g>
   <g id="patch_143">
    <path d="M 275.699978 37.742087 
C 275.911944 37.731669 276.123923 37.72152 276.335915 37.711641 
C 276.547907 37.701761 276.759911 37.692151 276.971928 37.682811 
L 276.845168 34.805602 
C 276.630715 34.81505 276.416274 34.82477 276.201845 34.834763 
C 275.987417 34.844756 275.773001 34.855021 275.558598 34.865559 
z
" clip-path="url(#p3ab79f4236)" style="fill: #bc141a; stroke: #303030; stroke-width: 0.1; stroke-linejoin: miter"/>
   </g>
   <g id="patch_144">
    <path d="M 441.863689 144.728151 
C 441.985039 144.858472 442.106224 144.988947 442.227242 145.119576 
C 442.34826 145.250206 442.469113 145.380988 442.589799 145.511924 
L 440.47213 147.463816 
C 440.353098 147.334673 440.233901 147.205682 440.11454 147.076843 
C 439.995179 146.948003 439.875655 146.819315 439.755968 146.690779 
z
" clip-path="url(#p3ab79f4236)" style="fill: #ab1016; stroke: #303030; stroke-width: 0.1; stroke-linejoin: miter"/>
   </g>
   <g id="patch_145">
    <path d="M 494.101553 145.513286 
C 494.222237 145.687852 494.342701 145.862572 494.462942 146.037444 
C 494.583182 146.212316 494.703201 146.387341 494.822997 146.562518 
L 497.200273 144.9368 
C 497.0791 144.759609 496.957702 144.582572 496.836079 144.40569 
C 496.714456 144.228808 496.592608 144.05208 496.470536 143.875508 
z
" clip-path="url(#p3ab79f4236)" style="fill: #e12d26; stroke: #303030; stroke-width: 0.1; stroke-linejoin: miter"/>
   </g>
   <g id="patch_146">
    <path d="M 538.309636 299.198213 
C 538.300151 299.410223 538.290397 299.622221 538.280373 299.834206 
C 538.27035 300.046191 538.260057 300.258163 538.249495 300.470122 
L 541.125926 300.613457 
C 541.136609 300.399062 541.14702 300.184653 541.157159 299.970231 
C 541.167298 299.755809 541.177164 299.541375 541.186758 299.326928 
z
" clip-path="url(#p3ab79f4236)" style="fill: #820711; stroke: #303030; stroke-width: 0.1; stroke-linejoin: miter"/>
   </g>
   <g id="patch_147">
    <path d="M 340.080271 84.312732 
C 340.252792 84.356844 340.425257 84.401174 340.597665 84.445724 
C 340.770074 84.490274 340.942426 84.535043 341.114721 84.58003 
L 340.387122 87.366605 
C 340.217187 87.322234 340.047196 87.278078 339.877149 87.234139 
C 339.707103 87.190199 339.537 87.146476 339.366842 87.102969 
z
" clip-path="url(#p3ab79f4236)" style="fill: #9f0e14; stroke: #303030; stroke-width: 0.1; stroke-linejoin: miter"/>
   </g>
   <g id="patch_148">
    <path d="M 483.217436 209.955075 
C 483.283539 210.120422 483.349432 210.285854 483.415115 210.451368 
C 483.480798 210.616883 483.546271 210.782481 483.611533 210.948162 
L 480.931923 212.003667 
C 480.867555 211.840256 480.802979 211.676926 480.738196 211.513678 
C 480.673413 211.350431 480.608422 211.187266 480.543224 211.024184 
z
" clip-path="url(#p3ab79f4236)" style="fill: #fca588; stroke: #303030; stroke-width: 0.1; stroke-linejoin: miter"/>
   </g>
   <g id="patch_149">
    <path d="M 407.586598 115.084115 
C 407.733056 115.185404 407.879386 115.286879 408.025586 115.388539 
C 408.171786 115.4902 408.317857 115.592046 408.463799 115.694078 
L 406.81361 118.054433 
C 406.669667 117.953799 406.525597 117.853348 406.3814 117.75308 
C 406.237202 117.652812 406.092877 117.552727 405.948425 117.452826 
z
" clip-path="url(#p3ab79f4236)" style="fill: #b71319; stroke: #303030; stroke-width: 0.1; stroke-linejoin: miter"/>
   </g>
   <g id="patch_150">
    <path d="M 223.380219 87.937156 
C 223.54967 87.882424 223.719191 87.827907 223.888781 87.773605 
C 224.058371 87.719304 224.22803 87.665217 224.397757 87.611347 
L 225.26902 90.356397 
C 225.101618 90.40953 224.934283 90.462875 224.767017 90.516433 
C 224.59975 90.56999 224.432551 90.62376 224.265421 90.677743 
z
" clip-path="url(#p3ab79f4236)" style="fill: #b21218; stroke: #303030; stroke-width: 0.1; stroke-linejoin: miter"/>
   </g>
   <g id="patch_151">
    <path d="M 46.362114 221.732017 
C 46.418242 221.527352 46.474631 221.322758 46.531279 221.118237 
C 46.587927 220.913715 46.644835 220.709265 46.702003 220.504888 
L 43.928463 219.729082 
C 43.870638 219.935808 43.813076 220.142608 43.755776 220.349481 
C 43.698477 220.556353 43.64144 220.763298 43.584667 220.970316 
z
" clip-path="url(#p3ab79f4236)" style="fill: #fee7dc; stroke: #303030; stroke-width: 0.1; stroke-linejoin: miter"/>
   </g>
   <g id="patch_152">
    <path d="M 259.440005 39.073022 
C 259.650844 39.048832 259.861713 39.02491 260.072613 39.001256 
C 260.283513 38.977601 260.494442 38.954215 260.705401 38.931097 
L 260.39167 36.068236 
C 260.178286 36.09162 259.964932 36.115275 259.751609 36.139201 
C 259.538285 36.163127 259.324992 36.187324 259.111729 36.211793 
z
" clip-path="url(#p3ab79f4236)" style="fill: #a91016; stroke: #303030; stroke-width: 0.1; stroke-linejoin: miter"/>
   </g>
   <g id="patch_153">
    <path d="M 233.493016 84.948661 
C 233.664999 84.902494 233.83704 84.856546 234.009139 84.810816 
C 234.181239 84.765086 234.353396 84.719575 234.525611 84.674283 
L 235.258137 87.459566 
C 235.088281 87.504238 234.918482 87.549126 234.74874 87.594229 
C 234.578998 87.639333 234.409314 87.684652 234.239687 87.730186 
z
" clip-path="url(#p3ab79f4236)" style="fill: #b31218; stroke: #303030; stroke-width: 0.1; stroke-linejoin: miter"/>
   </g>
   <g id="patch_154">
    <path d="M 77.851108 281.811225 
C 77.85635 281.633231 77.861818 281.455244 77.867512 281.277264 
C 77.873206 281.099283 77.879127 280.92131 77.885273 280.743345 
L 80.763557 280.842751 
C 80.757495 281.018279 80.751656 281.193814 80.746039 281.369356 
C 80.740423 281.544898 80.73503 281.720447 80.72986 281.896003 
z
" clip-path="url(#p3ab79f4236)" style="fill: #ab1016; stroke: #303030; stroke-width: 0.1; stroke-linejoin: miter"/>
   </g>
   <g id="patch_155">
    <path d="M 79.54554 315.342193 
C 79.522381 315.165634 79.499447 314.989046 79.476737 314.812429 
C 79.454027 314.635811 79.431542 314.459165 79.40928 314.282491 
L 82.266688 313.922457 
C 82.288644 314.096711 82.310821 314.270937 82.33322 314.445135 
C 82.355619 314.619333 82.378239 314.793502 82.40108 314.967643 
z
" clip-path="url(#p3ab79f4236)" style="fill: #ee3a2c; stroke: #303030; stroke-width: 0.1; stroke-linejoin: miter"/>
   </g>
   <g id="patch_156">
    <path d="M 134.967749 143.840409 
C 135.089851 143.710792 135.212117 143.58133 135.334548 143.452024 
C 135.456979 143.322718 135.579574 143.193567 135.702333 143.064572 
L 137.788602 145.049989 
C 137.667525 145.177217 137.546609 145.304598 137.425856 145.432133 
C 137.305102 145.559668 137.184511 145.687356 137.064081 145.815198 
z
" clip-path="url(#p3ab79f4236)" style="fill: #aa1016; stroke: #303030; stroke-width: 0.1; stroke-linejoin: miter"/>
   </g>
   <g id="patch_157">
    <path d="M 131.522351 147.587739 
C 131.641279 147.455204 131.760375 147.32282 131.879639 147.190588 
C 131.998904 147.058355 132.118336 146.926274 132.237936 146.794345 
L 134.371663 148.728669 
C 134.253701 148.858791 134.135905 148.989063 134.018274 149.119484 
C 133.900644 149.249905 133.783179 149.380475 133.665881 149.511195 
z
" clip-path="url(#p3ab79f4236)" style="fill: #a60f15; stroke: #303030; stroke-width: 0.1; stroke-linejoin: miter"/>
   </g>
   <g id="patch_158">
    <path d="M 467.78917 462.516956 
C 467.641356 462.669236 467.493348 462.821328 467.345148 462.973231 
C 467.196947 463.125135 467.048553 463.27685 466.899967 463.428377 
L 468.956288 465.444795 
C 469.106583 465.291527 469.256682 465.138068 469.406586 464.984418 
C 469.55649 464.830768 469.706199 464.676928 469.855712 464.522898 
z
" clip-path="url(#p3ab79f4236)" style="fill: #be151a; stroke: #303030; stroke-width: 0.1; stroke-linejoin: miter"/>
   </g>
   <g id="patch_159">
    <path d="M 258.991224 79.770923 
C 259.167592 79.746353 259.343991 79.722007 259.520421 79.697885 
C 259.696851 79.673763 259.873311 79.649865 260.049802 79.626192 
L 260.432681 82.480627 
C 260.258609 82.503977 260.084565 82.527547 259.910552 82.551338 
C 259.736539 82.57513 259.562556 82.599143 259.388604 82.623376 
z
" clip-path="url(#p3ab79f4236)" style="fill: #bd151a; stroke: #303030; stroke-width: 0.1; stroke-linejoin: miter"/>
   </g>
   <g id="patch_160">
    <path d="M 489.011457 138.418224 
C 489.138151 138.588478 489.264629 138.758894 489.390891 138.92947 
C 489.517152 139.100047 489.643196 139.270783 489.769024 139.44168 
L 492.088208 137.734113 
C 491.960934 137.561252 491.833441 137.388553 491.705728 137.216016 
C 491.578016 137.043479 491.450084 136.871105 491.321933 136.698893 
z
" clip-path="url(#p3ab79f4236)" style="fill: #ab1016; stroke: #303030; stroke-width: 0.1; stroke-linejoin: miter"/>
   </g>
   <g id="patch_161">
    <path d="M 151.617187 127.998169 
C 151.752707 127.882654 151.888374 127.767311 152.024187 127.652141 
C 152.16 127.536971 152.29596 127.421973 152.432065 127.307148 
L 154.28916 129.50842 
C 154.154919 129.621672 154.020822 129.735094 153.886869 129.848687 
C 153.752917 129.96228 153.619108 130.076042 153.485445 130.189975 
z
" clip-path="url(#p3ab79f4236)" style="fill: #b71319; stroke: #303030; stroke-width: 0.1; stroke-linejoin: miter"/>
   </g>
   <g id="patch_162">
    <path d="M 137.340682 87.794897 
C 137.510254 87.667289 137.679988 87.539898 137.849883 87.412722 
C 138.019779 87.285546 138.189836 87.158587 138.360054 87.031843 
L 136.640054 84.721864 
C 136.46788 84.850065 136.295868 84.978484 136.12402 85.107121 
C 135.952171 85.235759 135.780487 85.364615 135.608966 85.493688 
z
" clip-path="url(#p3ab79f4236)" style="fill: #d21f20; stroke: #303030; stroke-width: 0.1; stroke-linejoin: miter"/>
   </g>
   <g id="patch_163">
    <path d="M 47.107443 219.071852 
C 47.165825 218.867818 47.224465 218.663859 47.283365 218.459974 
C 47.342265 218.256089 47.401424 218.052279 47.460841 217.848545 
L 44.696023 217.042206 
C 44.635923 217.248283 44.576084 217.454435 44.516507 217.660663 
C 44.45693 217.866891 44.397616 218.073195 44.338563 218.279574 
z
" clip-path="url(#p3ab79f4236)" style="fill: #a30f15; stroke: #303030; stroke-width: 0.1; stroke-linejoin: miter"/>
   </g>
   <g id="patch_164">
    <path d="M 274.35829 78.203047 
C 274.535986 78.191493 274.713697 78.180164 274.891421 78.169061 
C 275.069146 78.157959 275.246885 78.147082 275.424638 78.13643 
L 275.596903 81.011274 
C 275.421585 81.021779 275.246281 81.032507 275.070991 81.043458 
C 274.895701 81.054409 274.720424 81.065582 274.545163 81.076978 
z
" clip-path="url(#p3ab79f4236)" style="fill: #960b13; stroke: #303030; stroke-width: 0.1; stroke-linejoin: miter"/>
   </g>
   <g id="patch_165">
    <path d="M 43.381912 233.756986 
C 43.427855 233.549796 43.474062 233.342666 43.520531 233.135594 
C 43.567001 232.928522 43.613734 232.721509 43.660729 232.514556 
L 40.852232 231.876792 
C 40.804696 232.086124 40.757426 232.295516 40.710423 232.504968 
C 40.663419 232.71442 40.616681 232.923932 40.57021 233.133503 
z
" clip-path="url(#p3ab79f4236)" style="fill: #be151a; stroke: #303030; stroke-width: 0.1; stroke-linejoin: miter"/>
   </g>
   <g id="patch_166">
    <path d="M 461.036705 168.58829 
C 461.137845 168.734851 461.2388 168.881539 461.339567 169.028356 
C 461.440335 169.175173 461.540917 169.322118 461.641311 169.469191 
L 459.262663 171.092901 
C 459.163644 170.947843 459.06444 170.802911 458.965053 170.658105 
C 458.865665 170.513299 458.766094 170.36862 458.666339 170.224067 
z
" clip-path="url(#p3ab79f4236)" style="fill: #cf1c1f; stroke: #303030; stroke-width: 0.1; stroke-linejoin: miter"/>
   </g>
   <g id="patch_167">
    <path d="M 190.833228 518.952229 
C 190.637614 518.86993 190.442104 518.787382 190.2467 518.704586 
C 190.051295 518.62179 189.855996 518.538745 189.660802 518.455453 
L 188.530466 521.104366 
C 188.727904 521.188616 188.925448 521.272615 189.123099 521.356363 
C 189.320749 521.44011 189.518506 521.523607 189.716369 521.606852 
z
" clip-path="url(#p3ab79f4236)" style="fill: #bc141a; stroke: #303030; stroke-width: 0.1; stroke-linejoin: miter"/>
   </g>
   <g id="patch_168">
    <path d="M 528.592672 357.967707 
C 528.53341 358.171487 528.473889 358.375191 528.414109 358.57882 
C 528.354329 358.782448 528.294291 358.986001 528.233994 359.189476 
L 530.995305 360.007746 
C 531.056295 359.801932 531.117023 359.596039 531.17749 359.39007 
C 531.237956 359.184101 531.298161 358.978056 531.358105 358.771933 
z
" clip-path="url(#p3ab79f4236)" style="fill: #a81016; stroke: #303030; stroke-width: 0.1; stroke-linejoin: miter"/>
   </g>
   <g id="patch_169">
    <path d="M 245.371712 41.092846 
C 245.58084 41.05674 245.790014 41.0209 245.999233 40.985326 
C 246.208452 40.949752 246.417716 40.914443 246.627025 40.879401 
L 246.151473 38.038934 
C 245.939759 38.07438 245.728089 38.110094 245.516465 38.146077 
C 245.304841 38.18206 245.093263 38.218312 244.881731 38.254833 
z
" clip-path="url(#p3ab79f4236)" style="fill: #af1117; stroke: #303030; stroke-width: 0.1; stroke-linejoin: miter"/>
   </g>
   <g id="patch_170">
    <path d="M 344.173699 85.403423 
C 344.345297 85.451001 344.516834 85.498798 344.68831 85.546812 
C 344.859786 85.594827 345.0312 85.643059 345.202554 85.691509 
L 344.418957 88.462858 
C 344.249951 88.415072 344.080884 88.367501 343.911757 88.320144 
C 343.74263 88.272787 343.573443 88.225645 343.404197 88.178718 
z
" clip-path="url(#p3ab79f4236)" style="fill: #7c0510; stroke: #303030; stroke-width: 0.1; stroke-linejoin: miter"/>
   </g>
   <g id="patch_171">
    <path d="M 261.916757 79.384272 
C 262.093452 79.36218 262.270176 79.340312 262.446927 79.318669 
C 262.623678 79.297025 262.800457 79.275607 262.977262 79.254413 
L 263.320039 82.113941 
C 263.145656 82.134845 262.971299 82.15597 262.796969 82.177317 
C 262.622639 82.198664 262.448336 82.220232 262.274061 82.242022 
z
" clip-path="url(#p3ab79f4236)" style="fill: #aa1016; stroke: #303030; stroke-width: 0.1; stroke-linejoin: miter"/>
   </g>
   <g id="patch_172">
    <path d="M 457.119709 103.124805 
C 457.276296 103.268048 457.432702 103.41149 457.588925 103.55513 
C 457.745148 103.69877 457.901189 103.842609 458.057046 103.986646 
L 460.011725 101.871549 
C 459.854076 101.725857 459.696242 101.580365 459.538223 101.435074 
C 459.380204 101.289783 459.222001 101.144692 459.063614 100.999803 
z
" clip-path="url(#p3ab79f4236)" style="fill: #ca181d; stroke: #303030; stroke-width: 0.1; stroke-linejoin: miter"/>
   </g>
   <g id="patch_173">
    <path d="M 394.441914 61.173122 
C 394.634035 61.263278 394.82604 61.353677 395.017931 61.44432 
C 395.209821 61.534963 395.401597 61.62585 395.593256 61.716981 
L 396.82996 59.116026 
C 396.636098 59.023849 396.442118 58.931917 396.248022 58.840232 
C 396.053926 58.748547 395.859713 58.657108 395.665385 58.565917 
z
" clip-path="url(#p3ab79f4236)" style="fill: #fdcbb6; stroke: #303030; stroke-width: 0.1; stroke-linejoin: miter"/>
   </g>
   <g id="patch_174">
    <path d="M 450.651363 173.832699 
C 450.748061 173.970463 450.844585 174.10835 450.940933 174.246359 
C 451.037281 174.384369 451.133454 174.522501 451.229451 174.660754 
L 448.863807 176.303352 
C 448.769201 176.167102 448.674422 176.030972 448.57947 175.894963 
C 448.484518 175.758954 448.389394 175.623065 448.294096 175.487297 
z
" clip-path="url(#p3ab79f4236)" style="fill: #e63328; stroke: #303030; stroke-width: 0.1; stroke-linejoin: miter"/>
   </g>
   <g id="patch_175">
    <path d="M 274.244274 89.756669 
C 274.412184 89.745018 274.580109 89.73358 274.748049 89.722356 
C 274.915988 89.711132 275.083942 89.700121 275.251909 89.689323 
L 275.436664 92.563391 
C 275.271131 92.574032 275.105611 92.584883 274.940106 92.595945 
C 274.774601 92.607006 274.609109 92.618278 274.443633 92.62976 
z
" clip-path="url(#p3ab79f4236)" style="fill: #dc2924; stroke: #303030; stroke-width: 0.1; stroke-linejoin: miter"/>
   </g>
   <g id="patch_176">
    <path d="M 428.795746 147.763784 
C 428.914524 147.883036 429.033152 148.00244 429.151627 148.121994 
C 429.270102 148.241548 429.388426 148.361253 429.506597 148.481107 
L 427.455777 150.50312 
C 427.339318 150.385003 427.22271 150.267033 427.105951 150.149211 
C 426.989193 150.03139 426.872285 149.913717 426.755228 149.796193 
z
" clip-path="url(#p3ab79f4236)" style="fill: #e83429; stroke: #303030; stroke-width: 0.1; stroke-linejoin: miter"/>
   </g>
   <g id="patch_177">
    <path d="M 89.337239 283.230727 
C 89.341279 283.062461 89.345532 282.894201 89.349999 282.725946 
C 89.354466 282.557691 89.359147 282.389443 89.364042 282.2212 
L 92.242824 282.30495 
C 92.238 282.470755 92.233387 282.636566 92.228985 282.802382 
C 92.224583 282.968198 92.220391 283.13402 92.21641 283.299847 
z
" clip-path="url(#p3ab79f4236)" style="fill: #d52221; stroke: #303030; stroke-width: 0.1; stroke-linejoin: miter"/>
   </g>
   <g id="patch_178">
    <path d="M 89.355819 282.511122 
C 89.360468 282.342872 89.365331 282.174628 89.370407 282.006391 
C 89.375484 281.838153 89.380774 281.669923 89.386278 281.501699 
L 92.264738 281.595877 
C 92.259314 281.761663 92.2541 281.927456 92.249097 282.093255 
C 92.244094 282.259054 92.239302 282.424859 92.23472 282.590671 
z
" clip-path="url(#p3ab79f4236)" style="fill: #d82422; stroke: #303030; stroke-width: 0.1; stroke-linejoin: miter"/>
   </g>
   <g id="patch_179">
    <path d="M 403.803344 126.509369 
C 403.940125 126.607453 404.076781 126.705711 404.213312 126.804143 
C 404.349844 126.902574 404.48625 127.001179 404.622531 127.099957 
L 402.932349 129.431842 
C 402.798044 129.334496 402.663614 129.23732 402.529062 129.140315 
C 402.394509 129.04331 402.259833 128.946475 402.125034 128.849813 
z
" clip-path="url(#p3ab79f4236)" style="fill: #c8171c; stroke: #303030; stroke-width: 0.1; stroke-linejoin: miter"/>
   </g>
   <g id="patch_180">
    <path d="M 26.008845 281.17644 
C 26.014624 280.954536 26.020686 280.73264 26.027029 280.510751 
C 26.033372 280.288862 26.039998 280.066982 26.046905 279.84511 
L 23.168299 279.755496 
C 23.161316 279.979806 23.154618 280.204124 23.148205 280.428451 
C 23.141792 280.652778 23.135664 280.877113 23.129821 281.101456 
z
" clip-path="url(#p3ab79f4236)" style="fill: #ef3c2c; stroke: #303030; stroke-width: 0.1; stroke-linejoin: miter"/>
   </g>
   <g id="patch_181">
    <path d="M 225.790842 99.268288 
C 225.950696 99.215598 226.110617 99.16311 226.270604 99.110826 
C 226.430591 99.058542 226.590645 99.006461 226.750765 98.954583 
L 227.638435 101.694372 
C 227.480636 101.745498 227.322902 101.796824 227.165233 101.84835 
C 227.007564 101.899877 226.849961 101.951604 226.692424 102.00353 
z
" clip-path="url(#p3ab79f4236)" style="fill: #ed392b; stroke: #303030; stroke-width: 0.1; stroke-linejoin: miter"/>
   </g>
   <g id="patch_182">
    <path d="M 366.715046 38.020265 
C 366.926776 38.086936 367.138422 38.153876 367.349982 38.221084 
C 367.561543 38.288293 367.773017 38.35577 367.984406 38.423516 
L 368.863356 35.680918 
C 368.649644 35.612427 368.435845 35.544208 368.22196 35.476261 
C 368.008075 35.408314 367.794103 35.340638 367.580046 35.273235 
z
" clip-path="url(#p3ab79f4236)" style="fill: #e12d26; stroke: #303030; stroke-width: 0.1; stroke-linejoin: miter"/>
   </g>
   <g id="patch_183">
    <path d="M 205.25556 107.326272 
C 205.408589 107.256188 205.561707 107.186299 205.714914 107.116604 
C 205.86812 107.046909 206.021415 106.977409 206.174798 106.908104 
L 207.360671 109.532624 
C 207.209511 109.600925 207.058437 109.669418 206.907451 109.738102 
C 206.756465 109.806787 206.605566 109.875663 206.454755 109.944732 
z
" clip-path="url(#p3ab79f4236)" style="fill: #d32020; stroke: #303030; stroke-width: 0.1; stroke-linejoin: miter"/>
   </g>
   <g id="patch_184">
    <path d="M 411.764747 132.526769 
C 411.896432 132.631596 412.027983 132.736591 412.159401 132.841753 
C 412.290818 132.946915 412.422102 133.052243 412.553252 133.157739 
L 410.748132 135.40183 
C 410.618883 135.297863 410.489502 135.194061 410.359989 135.090423 
C 410.230476 134.986785 410.100831 134.883312 409.971055 134.780004 
z
" clip-path="url(#p3ab79f4236)" style="fill: #e53228; stroke: #303030; stroke-width: 0.1; stroke-linejoin: miter"/>
   </g>
   <g id="patch_185">
    <path d="M 231.819415 97.386831 
C 231.980863 97.339246 232.142371 97.291867 232.303939 97.244693 
C 232.465507 97.197519 232.627135 97.15055 232.788822 97.103787 
L 233.588984 99.870399 
C 233.42964 99.916484 233.270354 99.962772 233.111128 100.009263 
C 232.951902 100.055753 232.792734 100.102446 232.633627 100.14934 
z
" clip-path="url(#p3ab79f4236)" style="fill: #cb181d; stroke: #303030; stroke-width: 0.1; stroke-linejoin: miter"/>
   </g>
   <g id="patch_186">
    <path d="M 120.207186 86.67564 
C 120.377706 86.533521 120.548406 86.391619 120.719287 86.249934 
C 120.890167 86.108248 121.061227 85.96678 121.232467 85.82553 
L 119.399857 83.603832 
C 119.226735 83.746635 119.053795 83.889658 118.881037 84.0329 
C 118.708279 84.176142 118.535703 84.319604 118.363309 84.463284 
z
" clip-path="url(#p3ab79f4236)" style="fill: #d82422; stroke: #303030; stroke-width: 0.1; stroke-linejoin: miter"/>
   </g>
   <g id="patch_187">
    <path d="M 67.544841 146.276857 
C 67.664879 146.090134 67.785154 145.903563 67.905667 145.717145 
C 68.026179 145.530727 68.146928 145.344463 68.267913 145.158351 
L 65.853275 143.588663 
C 65.73096 143.776819 65.608884 143.965131 65.487048 144.153597 
C 65.365211 144.342064 65.243614 144.530685 65.122257 144.71946 
z
" clip-path="url(#p3ab79f4236)" style="fill: #de2b25; stroke: #303030; stroke-width: 0.1; stroke-linejoin: miter"/>
   </g>
   <g id="patch_188">
    <path d="M 510.752046 426.084947 
C 510.635089 426.273616 510.517893 426.462136 510.400457 426.650507 
C 510.283021 426.838878 510.165347 427.0271 510.047433 427.215172 
L 512.487514 428.745009 
C 512.606724 428.55487 512.725692 428.36458 512.844418 428.174139 
C 512.963144 427.983698 513.081629 427.793106 513.19987 427.602364 
z
" clip-path="url(#p3ab79f4236)" style="fill: #f14331; stroke: #303030; stroke-width: 0.1; stroke-linejoin: miter"/>
   </g>
   <g id="patch_189">
    <path d="M 325.825884 28.664062 
C 326.045539 28.6961 326.265153 28.728417 326.484726 28.761013 
C 326.704299 28.793609 326.923831 28.826485 327.14332 28.859639 
L 327.573467 26.011942 
C 327.351565 25.978424 327.129621 25.945188 326.907635 25.912233 
C 326.685649 25.879279 326.463622 25.846606 326.241553 25.814216 
z
" clip-path="url(#p3ab79f4236)" style="fill: #cb181d; stroke: #303030; stroke-width: 0.1; stroke-linejoin: miter"/>
   </g>
   <g id="patch_190">
    <path d="M 422.113328 141.360123 
C 422.237531 141.473716 422.361589 141.587466 422.485503 141.701374 
C 422.609416 141.815282 422.733185 141.929347 422.856809 142.04357 
L 420.902362 144.158881 
C 420.78053 144.046313 420.658555 143.933901 420.536438 143.821644 
C 420.41432 143.709387 420.29206 143.597285 420.169657 143.485339 
z
" clip-path="url(#p3ab79f4236)" style="fill: #ee3a2c; stroke: #303030; stroke-width: 0.1; stroke-linejoin: miter"/>
   </g>
   <g id="patch_191">
    <path d="M 493.507561 125.357544 
C 493.645318 125.531607 493.782853 125.705844 493.920167 125.880257 
C 494.057481 126.054669 494.194573 126.229256 494.331444 126.404017 
L 496.598822 124.628237 
C 496.460448 124.451556 496.321849 124.27505 496.183026 124.098721 
C 496.044203 123.922392 495.905157 123.74624 495.765886 123.570264 
z
" clip-path="url(#p3ab79f4236)" style="fill: #d52221; stroke: #303030; stroke-width: 0.1; stroke-linejoin: miter"/>
   </g>
   <g id="patch_192">
    <path d="M 434.017846 70.365639 
C 434.20218 70.489315 434.386357 70.613225 434.570377 70.737369 
C 434.754396 70.861512 434.938258 70.98589 435.121961 71.110501 
L 436.738686 68.7271 
C 436.552964 68.601119 436.367082 68.475375 436.18104 68.349867 
C 435.994999 68.224359 435.808798 68.099088 435.622438 67.974053 
z
" clip-path="url(#p3ab79f4236)" style="fill: #e02c26; stroke: #303030; stroke-width: 0.1; stroke-linejoin: miter"/>
   </g>
   <g id="matplotlib.axis_1"/>
   <g id="matplotlib.axis_2"/>
  </g>
 </g>
 <defs>
  <clipPath id="p3ab79f4236">
   <path d="M 576 288 
C 576 250.180187 568.550321 212.728123 554.077305 177.787171 
C 539.604289 142.84622 518.3894 111.095894 491.646753 84.353247 
C 464.904106 57.6106 433.15378 36.395711 398.212829 21.922695 
C 363.271877 7.449679 325.819813 0 288 0 
C 250.180187 0 212.728123 7.449679 177.787171 21.922695 
C 142.84622 36.395711 111.095894 57.6106 84.353247 84.353247 
C 57.6106 111.095894 36.395711 142.84622 21.922695 177.787171 
C 7.449679 212.728123 0 250.180187 0 288 
C 0 325.819813 7.449679 363.271877 21.922695 398.212829 
C 36.395711 433.15378 57.6106 464.904106 84.353247 491.646753 
C 111.095894 518.3894 142.84622 539.604289 177.787171 554.077305 
C 212.728123 568.550321 250.180187 576 288 576 
C 325.819813 576 363.271877 568.550321 398.212829 554.077305 
C 433.15378 539.604289 464.904106 518.3894 491.646753 491.646753 
C 518.3894 464.904106 539.604289 433.15378 554.077305 398.212829 
C 568.550321 363.271877 576 325.819813 576 288 
M 288 288 
C 288 288 288 288 288 288 
C 288 288 288 288 288 288 
C 288 288 288 288 288 288 
C 288 288 288 288 288 288 
C 288 288 288 288 288 288 
C 288 288 288 288 288 288 
C 288 288 288 288 288 288 
C 288 288 288 288 288 288 
C 288 288 288 288 288 288 
C 288 288 288 288 288 288 
C 288 288 288 288 288 288 
C 288 288 288 288 288 288 
C 288 288 288 288 288 288 
C 288 288 288 288 288 288 
C 288 288 288 288 288 288 
C 288 288 288 288 288 288 
z
"/>
  </clipPath>
 </defs>
</svg>
