<?xml version="1.0" encoding="utf-8" standalone="no"?>
<!DOCTYPE svg PUBLIC "-//W3C//DTD SVG 1.1//EN"
  "http://www.w3.org/Graphics/SVG/1.1/DTD/svg11.dtd">
<svg xmlns:xlink="http://www.w3.org/1999/xlink" width="576pt" height="576pt" viewBox="0 0 576 576" xmlns="http://www.w3.org/2000/svg" version="1.1">
 <metadata>
  <rdf:RDF xmlns:dc="http://purl.org/dc/elements/1.1/" xmlns:cc="http://creativecommons.org/ns#" xmlns:rdf="http://www.w3.org/1999/02/22-rdf-syntax-ns#">
   <cc:Work>
    <dc:type rdf:resource="http://purl.org/dc/dcmitype/StillImage"/>
    <dc:date>2024-08-01T21:54:15.849015</dc:date>
    <dc:format>image/svg+xml</dc:format>
    <dc:creator>
     <cc:Agent>
      <dc:title>Matplotlib v3.8.4, https://matplotlib.org/</dc:title>
     </cc:Agent>
    </dc:creator>
   </cc:Work>
  </rdf:RDF>
 </metadata>
 <defs>
  <style type="text/css">*{stroke-linejoin: round; stroke-linecap: butt}</style>
 </defs>
 <g id="figure_1">
  <g id="patch_1">
   <path d="M 0 576 
L 576 576 
L 576 0 
L 0 0 
L 0 576 
z
" style="fill: none"/>
  </g>
  <g id="axes_1">
   <g id="patch_2">
    <path d="M 576 288 
C 576 250.180187 568.550321 212.728123 554.077305 177.787171 
C 539.604289 142.84622 518.3894 111.095894 491.646753 84.353247 
C 464.904106 57.6106 433.15378 36.395711 398.212829 21.922695 
C 363.271877 7.449679 325.819813 0 288 0 
C 250.180187 0 212.728123 7.449679 177.787171 21.922695 
C 142.84622 36.395711 111.095894 57.6106 84.353247 84.353247 
C 57.6106 111.095894 36.395711 142.84622 21.922695 177.787171 
C 7.449679 212.728123 0 250.180187 0 288 
C 0 325.819813 7.449679 363.271877 21.922695 398.212829 
C 36.395711 433.15378 57.6106 464.904106 84.353247 491.646753 
C 111.095894 518.3894 142.84622 539.604289 177.787171 554.077305 
C 212.728123 568.550321 250.180187 576 288 576 
C 325.819813 576 363.271877 568.550321 398.212829 554.077305 
C 433.15378 539.604289 464.904106 518.3894 491.646753 491.646753 
C 518.3894 464.904106 539.604289 433.15378 554.077305 398.212829 
C 568.550321 363.271877 576 325.819813 576 288 
M 288 288 
C 288 288 288 288 288 288 
C 288 288 288 288 288 288 
C 288 288 288 288 288 288 
C 288 288 288 288 288 288 
C 288 288 288 288 288 288 
C 288 288 288 288 288 288 
C 288 288 288 288 288 288 
C 288 288 288 288 288 288 
C 288 288 288 288 288 288 
C 288 288 288 288 288 288 
C 288 288 288 288 288 288 
C 288 288 288 288 288 288 
C 288 288 288 288 288 288 
C 288 288 288 288 288 288 
C 288 288 288 288 288 288 
C 288 288 288 288 288 288 
L 288 288 
z
" style="fill: none"/>
   </g>
   <g id="patch_3">
    <path d="M 288 144 
C 306.909907 144 325.635938 147.724839 343.106414 154.961347 
C 360.57689 162.197855 376.452053 172.8053 389.823376 186.176624 
C 403.1947 199.547947 413.802145 215.42311 421.038653 232.893586 
C 428.275161 250.364062 432 269.090093 432 288 
C 432 306.909907 428.275161 325.635938 421.038653 343.106414 
C 413.802145 360.57689 403.1947 376.452053 389.823376 389.823376 
C 376.452053 403.1947 360.57689 413.802145 343.106414 421.038653 
C 325.635938 428.275161 306.909907 432 288 432 
C 269.090093 432 250.364062 428.275161 232.893586 421.038653 
C 215.42311 413.802145 199.547947 403.1947 186.176624 389.823376 
C 172.8053 376.452053 162.197855 360.57689 154.961347 343.106414 
C 147.724839 325.635938 144 306.909907 144 288 
C 144 269.090093 147.724839 250.364062 154.961347 232.893586 
C 162.197855 215.42311 172.8053 199.547947 186.176624 186.176624 
C 199.547947 172.8053 215.42311 162.197855 232.893586 154.961347 
C 250.364062 147.724839 269.090093 144 288 144 
L 288 129.6 
C 267.199103 129.6 246.600468 133.697323 227.382944 141.657482 
C 208.165421 149.617641 190.702741 161.28583 175.994286 175.994286 
C 161.28583 190.702741 149.617641 208.165421 141.657482 227.382944 
C 133.697323 246.600468 129.6 267.199103 129.6 288 
C 129.6 308.800897 133.697323 329.399532 141.657482 348.617056 
C 149.617641 367.834579 161.28583 385.297259 175.994286 400.005714 
C 190.702741 414.71417 208.165421 426.382359 227.382944 434.342518 
C 246.600468 442.302677 267.199103 446.4 288 446.4 
C 308.800897 446.4 329.399532 442.302677 348.617056 434.342518 
C 367.834579 426.382359 385.297259 414.71417 400.005714 400.005714 
C 414.71417 385.297259 426.382359 367.834579 434.342518 348.617056 
C 442.302677 329.399532 446.4 308.800897 446.4 288 
C 446.4 267.199103 442.302677 246.600468 434.342518 227.382944 
C 426.382359 208.165421 414.71417 190.702741 400.005714 175.994286 
C 385.297259 161.28583 367.834579 149.617641 348.617056 141.657482 
C 329.399532 133.697323 308.800897 129.6 288 129.6 
L 288 144 
z
" clip-path="url(#pe9fb9e5580)" style="fill: none"/>
   </g>
   <g id="matplotlib.axis_1"/>
   <g id="matplotlib.axis_2"/>
   <g id="line2d_1">
    <path d="M 288 38.88 
L 295.594906 38.9958 
L 303.182752 39.343091 
L 310.756482 39.921551 
L 318.309056 40.730642 
L 325.833453 41.769612 
L 333.322678 43.037494 
L 340.769767 44.533111 
L 348.167798 46.255071 
L 355.509893 48.201775 
L 362.789226 50.371411 
L 369.999029 52.761964 
L 377.132601 55.37121 
L 384.183308 58.196724 
L 391.144597 61.235879 
L 398.009996 64.48585 
L 404.773122 67.943615 
L 411.427687 71.60596 
L 417.967505 75.46948 
L 424.386497 79.530583 
L 430.678694 83.785493 
L 436.838247 88.230256 
L 442.85943 92.860738 
L 448.736644 97.672636 
L 454.464427 102.661475 
L 460.037453 107.822617 
L 465.450541 113.151265 
L 470.698658 118.642465 
L 475.776926 124.291111 
L 480.680624 130.091952 
L 485.405192 136.039596 
L 489.946239 142.128512 
L 494.299542 148.353041 
L 498.461055 154.707395 
L 502.426909 161.185667 
L 506.193417 167.781835 
L 509.757077 174.489766 
L 513.114576 181.303224 
L 516.262793 188.215874 
L 519.198801 195.221291 
L 521.919871 202.312962 
L 524.423472 209.484293 
L 526.707278 216.728617 
L 528.769164 224.039201 
L 530.607216 231.409247 
L 532.219722 238.831903 
L 533.605185 246.30027 
L 534.762316 253.807404 
L 535.69004 261.346325 
L 536.387494 268.910026 
L 536.85403 276.491474 
L 537.089214 284.083621 
L 537.092827 291.679409 
L 536.864866 299.271776 
L 536.405543 306.853665 
L 535.715285 314.418025 
L 534.794733 321.957826 
L 533.644745 329.466057 
L 532.266387 336.935738 
L 530.660943 344.359926 
L 528.829904 351.731717 
L 526.774973 359.044259 
L 524.49806 366.290753 
L 522.001282 373.464462 
L 519.28696 380.558718 
L 516.357618 387.566925 
L 513.215979 394.482568 
L 509.864963 401.299217 
L 506.307686 408.010535 
L 502.547456 414.610283 
L 498.587767 421.092325 
L 494.432301 427.450635 
L 490.084921 433.679303 
L 485.549669 439.772536 
L 480.830761 445.724672 
L 475.932584 451.530175 
L 470.859692 457.18365 
L 465.616801 462.67984 
L 460.208785 468.013635 
L 454.640672 473.180077 
L 448.917638 478.174363 
L 443.045003 482.991849 
L 437.028229 487.628058 
L 430.872907 492.078678 
L 424.58476 496.339573 
L 418.169635 500.406781 
L 411.633495 504.27652 
L 404.982417 507.945194 
L 398.222584 511.409392 
L 391.36028 514.665893 
L 384.401886 517.711669 
L 377.353869 520.543889 
L 370.222783 523.159921 
L 363.015257 525.557331 
L 355.737992 527.733892 
L 348.397752 529.687579 
L 341.001363 531.416577 
L 333.5557 532.919278 
L 326.067685 534.194285 
L 318.54428 535.240412 
L 310.992479 536.056688 
L 303.419302 536.642353 
L 295.83179 536.996862 
L 288.236998 537.119887 
L 280.641985 537.011313 
L 273.053813 536.671241 
L 265.479535 536.099986 
L 257.926194 535.298081 
L 250.400812 534.26627 
L 242.910385 533.005512 
L 235.461876 531.516981 
L 228.062211 529.802059 
L 220.718267 527.862341 
L 213.436874 525.699631 
L 206.224799 523.315939 
L 199.088749 520.71348 
L 192.035356 517.894675 
L 185.071179 514.862144 
L 178.202692 511.618706 
L 171.43628 508.167376 
L 164.778233 504.511364 
L 158.234742 500.654067 
L 151.81189 496.599073 
L 145.515648 492.35015 
L 139.351869 487.911249 
L 133.326284 483.286497 
L 127.444494 478.480193 
L 121.711968 473.496806 
L 116.134035 468.340967 
L 110.71588 463.017471 
L 105.462541 457.531267 
L 100.378902 451.887455 
L 95.469688 446.091281 
L 90.739463 440.148135 
L 86.192626 434.063542 
L 81.833403 427.843157 
L 77.665846 421.492765 
L 73.693831 415.018268 
L 69.92105 408.425687 
L 66.35101 401.721149 
L 62.987031 394.910889 
L 59.832239 388.001236 
L 56.889568 380.998615 
L 54.161753 373.909537 
L 51.65133 366.740591 
L 49.360634 359.498442 
L 47.291793 352.189824 
L 45.446731 344.82153 
L 43.827164 337.40041 
L 42.434597 329.933365 
L 41.270324 322.427336 
L 40.335429 314.8893 
L 39.630779 307.326266 
L 39.157031 299.745266 
L 38.914625 292.153346 
L 38.903786 284.557565 
L 39.124523 276.964984 
L 39.576633 269.382662 
L 40.259695 261.817648 
L 41.173073 254.276975 
L 42.315918 246.767653 
L 43.687169 239.296664 
L 45.28555 231.870953 
L 47.109574 224.497423 
L 49.157548 217.18293 
L 51.427566 209.934273 
L 53.917518 202.758191 
L 56.625089 195.661356 
L 59.547763 188.650366 
L 62.682822 181.731737 
L 66.027351 174.911904 
L 69.578242 168.197204 
L 73.332192 161.593882 
L 77.285713 155.108076 
L 81.435128 148.745815 
L 85.77658 142.513015 
L 90.306033 136.415469 
L 95.019277 130.458847 
L 99.911928 124.648686 
L 104.97944 118.990388 
L 110.2171 113.489213 
L 115.620039 108.150275 
L 121.183235 102.978539 
L 126.901515 97.97881 
L 132.769563 93.155739 
L 138.781925 88.513809 
L 144.93301 84.057335 
L 151.2171 79.79046 
L 157.628353 75.717151 
L 164.160808 71.841195 
L 170.808393 68.166195 
L 177.564928 64.695568 
L 184.42413 61.432541 
L 191.379624 58.380146 
L 198.424943 55.541222 
L 205.553537 52.918408 
L 212.758779 50.514141 
L 220.033971 48.330659 
L 227.372348 46.369989 
L 234.767089 44.633956 
L 242.211319 43.124172 
L 249.698118 41.842042 
L 257.220524 40.788758 
L 264.771546 39.965298 
L 272.344162 39.372429 
L 279.931333 39.010701 
L 287.526005 38.880451 
L 287.526005 38.880451 
" clip-path="url(#pe9fb9e5580)" style="fill: none; stroke: #346c8c; stroke-width: 0.25; stroke-linecap: square"/>
   </g>
   <g id="line2d_2">
    <path d="M 288 76.32 
L 294.453475 76.418396 
L 300.900951 76.713493 
L 307.336433 77.205017 
L 313.753938 77.892511 
L 320.147501 78.775335 
L 326.511177 79.852668 
L 332.839051 81.12351 
L 339.125239 82.586679 
L 345.363897 84.240814 
L 351.549226 86.084378 
L 357.675476 88.115657 
L 363.73695 90.332762 
L 369.728013 92.733633 
L 375.643097 95.316036 
L 381.476702 98.077572 
L 387.223404 101.015673 
L 392.877861 104.127608 
L 398.434817 107.410483 
L 403.889104 110.861247 
L 409.235653 114.476691 
L 414.469493 118.253454 
L 419.585758 122.188026 
L 424.579692 126.276748 
L 429.446652 130.51582 
L 434.182113 134.901299 
L 438.781673 139.42911 
L 443.241056 144.095042 
L 447.556116 148.894759 
L 451.722842 153.823797 
L 455.73736 158.877575 
L 459.595937 164.051395 
L 463.294987 169.340445 
L 466.83107 174.73981 
L 470.2009 180.244469 
L 473.401343 185.849305 
L 476.429424 191.549107 
L 479.282328 197.338577 
L 481.957402 203.212332 
L 484.45216 209.164912 
L 486.764283 215.190782 
L 488.891621 221.284341 
L 490.832195 227.439923 
L 492.584203 233.651806 
L 494.146016 239.914215 
L 495.51618 246.221328 
L 496.693423 252.567282 
L 497.67665 258.946175 
L 498.464947 265.35208 
L 499.057582 271.779039 
L 499.454002 278.221079 
L 499.653841 284.67221 
L 499.656911 291.126434 
L 499.46321 297.577752 
L 499.072918 304.020166 
L 498.486398 310.447686 
L 497.704195 316.854338 
L 496.727037 323.234164 
L 495.555832 329.581234 
L 494.191668 335.889648 
L 492.635814 342.15354 
L 490.889717 348.367087 
L 488.954999 354.524513 
L 486.833459 360.620092 
L 484.52707 366.648159 
L 482.037976 372.60311 
L 479.368491 378.479407 
L 476.521096 384.271589 
L 473.498439 389.974269 
L 470.303329 395.582148 
L 466.938738 401.09001 
L 463.407793 406.492736 
L 459.713777 411.785303 
L 455.860123 416.962791 
L 451.850415 422.020386 
L 447.688381 426.953386 
L 443.377889 431.757206 
L 438.922946 436.427378 
L 434.327696 440.959563 
L 429.596409 445.349545 
L 424.733484 449.593245 
L 419.743442 453.686716 
L 414.630923 457.626153 
L 409.400678 461.407894 
L 404.057571 465.028423 
L 398.606569 468.484374 
L 393.052739 471.772535 
L 387.401245 474.889847 
L 381.65734 477.833414 
L 375.826365 480.600498 
L 369.913741 483.188528 
L 363.924964 485.595097 
L 357.865602 487.817967 
L 351.741288 489.855073 
L 345.557716 491.704521 
L 339.320634 493.36459 
L 333.03584 494.833739 
L 326.709179 496.1106 
L 320.34653 497.193987 
L 313.95381 498.082894 
L 307.536962 498.776492 
L 301.10195 499.274138 
L 294.654758 499.575369 
L 288.20138 499.679904 
L 281.747814 499.587647 
L 275.30006 499.298684 
L 268.864114 498.813283 
L 262.445957 498.131895 
L 256.051557 497.255154 
L 249.686859 496.183875 
L 243.357779 494.919053 
L 237.070202 493.461865 
L 230.829973 491.813666 
L 224.642893 489.975987 
L 218.514714 487.950537 
L 212.451133 485.7392 
L 206.457788 483.34403 
L 200.54025 480.767255 
L 194.704021 478.01127 
L 188.954527 475.078637 
L 183.297111 471.972084 
L 177.737035 468.694496 
L 172.279467 465.248923 
L 166.929481 461.638567 
L 161.692051 457.866784 
L 156.572045 453.937081 
L 151.574224 449.853112 
L 146.703233 445.618673 
L 141.963602 441.2377 
L 137.359736 436.714268 
L 132.895916 432.05258 
L 128.576292 427.25697 
L 124.404879 422.331898 
L 120.385555 417.281941 
L 116.522058 412.111795 
L 112.817978 406.826266 
L 109.27676 401.430268 
L 105.901695 395.928818 
L 102.695921 390.327029 
L 99.662419 384.630109 
L 96.804009 378.843356 
L 94.123348 372.972149 
L 91.622927 367.021945 
L 89.305073 360.998277 
L 87.171939 354.906745 
L 85.22551 348.753012 
L 83.467593 342.542798 
L 81.899824 336.281878 
L 80.52366 329.976071 
L 79.34038 323.631241 
L 78.351085 317.253285 
L 77.556694 310.848134 
L 76.957945 304.421741 
L 76.555396 297.980081 
L 76.349421 291.529144 
L 76.340211 285.074925 
L 76.527774 278.623426 
L 76.911937 272.180643 
L 77.492342 265.752568 
L 78.268449 259.345175 
L 79.239538 252.964422 
L 80.404704 246.616241 
L 81.762866 240.306532 
L 83.31276 234.041163 
L 85.052945 227.825957 
L 86.981804 221.666694 
L 89.097544 215.569099 
L 91.398197 209.53884 
L 93.881625 203.581525 
L 96.545519 197.70269 
L 99.387402 191.907803 
L 102.404633 186.202249 
L 105.594406 180.591333 
L 108.953756 175.080273 
L 112.47956 169.67419 
L 116.168539 164.378111 
L 120.017265 159.196959 
L 124.02216 154.135552 
L 128.1795 149.198595 
L 132.48542 144.390677 
L 136.935917 139.716268 
L 141.526854 135.179714 
L 146.253962 130.785232 
L 151.112848 126.536908 
L 156.098993 122.438692 
L 161.207763 118.494393 
L 166.434407 114.707678 
L 171.774067 111.082067 
L 177.221779 107.620932 
L 182.772479 104.327489 
L 188.421005 101.204802 
L 194.162106 98.255772 
L 199.990446 95.483142 
L 205.900605 92.889488 
L 211.88709 90.477223 
L 217.944335 88.248589 
L 224.066708 86.205658 
L 230.248518 84.350328 
L 236.484018 82.684326 
L 242.767411 81.209199 
L 249.092855 79.92632 
L 255.45447 78.83688 
L 261.846341 77.941892 
L 268.262527 77.24219 
L 274.697062 76.738422 
L 281.143965 76.431058 
L 287.597241 76.320383 
L 287.597241 76.320383 
" clip-path="url(#pe9fb9e5580)" style="fill: none; stroke: #346c8c; stroke-width: 0.25; stroke-linecap: square"/>
   </g>
   <g id="line2d_3">
    <path d="M 288 36 
L 295.682709 36.117138 
L 303.358275 36.468445 
L 311.019563 37.053592 
L 318.65945 37.872037 
L 326.270834 38.923017 
L 333.846639 40.205558 
L 341.379822 41.718465 
L 348.86338 43.460332 
L 356.290354 45.429541 
L 363.653841 47.62426 
L 370.946995 50.042449 
L 378.163035 52.68186 
L 385.295254 55.540039 
L 392.33702 58.614329 
L 399.281788 61.901872 
L 406.1231 65.399611 
L 412.854597 69.104295 
L 419.47002 73.01248 
L 425.963219 77.120532 
L 432.328159 81.424632 
L 438.55892 85.920779 
L 444.649712 90.604793 
L 450.594871 95.472319 
L 456.388871 100.518833 
L 462.026325 105.739642 
L 467.501992 111.129893 
L 472.810781 116.684574 
L 477.947758 122.398523 
L 482.908145 128.266425 
L 487.687333 134.282828 
L 492.280877 140.442136 
L 496.684508 146.738625 
L 500.894131 153.16644 
L 504.905833 159.719606 
L 508.715884 166.39203 
L 512.320742 173.177509 
L 515.717057 180.069735 
L 518.901669 187.062301 
L 521.87162 194.148705 
L 524.624147 201.32236 
L 527.156691 208.576597 
L 529.466899 215.904671 
L 531.552623 223.29977 
L 533.411923 230.755018 
L 535.043072 238.263486 
L 536.444551 245.818192 
L 537.61506 253.412114 
L 538.553509 261.03819 
L 539.259026 268.689332 
L 539.730955 276.358427 
L 539.968858 284.038345 
L 539.972513 291.721945 
L 539.741916 299.402086 
L 539.277283 307.071626 
L 538.579045 314.723436 
L 537.647852 322.350402 
L 536.484568 329.945433 
L 535.090276 337.50147 
L 533.466272 345.011486 
L 531.614065 352.4685 
L 529.535377 359.86558 
L 527.232142 367.195848 
L 524.706499 374.452491 
L 521.960798 381.628761 
L 518.997591 388.717988 
L 515.819632 395.71358 
L 512.429876 402.609034 
L 508.831475 409.39794 
L 505.027773 416.073985 
L 501.022307 422.630964 
L 496.818801 429.062781 
L 492.421163 435.363456 
L 487.83348 441.527132 
L 483.060018 447.548078 
L 478.105215 453.420698 
L 472.973677 459.13953 
L 467.670174 464.69926 
L 462.199638 470.094718 
L 456.567153 475.320887 
L 450.777957 480.37291 
L 444.837431 485.24609 
L 438.751098 489.935897 
L 432.524617 494.437969 
L 426.163775 498.748123 
L 419.674486 502.86235 
L 413.062784 506.776827 
L 406.334815 510.487913 
L 399.496834 513.992159 
L 392.555197 517.286307 
L 385.516358 520.367295 
L 378.386862 523.232258 
L 371.173336 525.878533 
L 363.882486 528.303659 
L 356.52109 530.505382 
L 349.095992 532.481655 
L 341.614096 534.230641 
L 334.082355 535.750714 
L 326.507774 537.040461 
L 318.897393 538.098683 
L 311.258288 538.924395 
L 303.59756 539.516831 
L 295.922331 539.875439 
L 288.239738 539.999886 
L 280.556921 539.890057 
L 272.881024 539.546053 
L 265.219183 538.968194 
L 257.57852 538.157018 
L 249.96614 537.113278 
L 242.389118 535.837946 
L 234.854499 534.332206 
L 227.369288 532.597459 
L 219.940444 530.635317 
L 212.574872 528.447604 
L 205.279421 526.036354 
L 198.060873 523.403809 
L 190.925938 520.552417 
L 183.88125 517.484827 
L 176.933359 514.203893 
L 170.088722 510.712664 
L 163.353704 507.014385 
L 156.734566 503.112496 
L 150.237461 499.010623 
L 143.86843 494.71258 
L 137.633394 490.222362 
L 131.538149 485.544145 
L 125.588361 480.682276 
L 119.789563 475.641277 
L 114.147145 470.425834 
L 108.666353 465.040795 
L 103.352282 459.491166 
L 98.209872 453.782107 
L 93.243904 447.918926 
L 88.458995 441.907073 
L 83.859593 435.752137 
L 79.449974 429.459841 
L 75.234238 423.036034 
L 71.216303 416.486688 
L 67.399906 409.817891 
L 63.788594 403.035845 
L 60.385725 396.146853 
L 57.194461 389.15732 
L 54.217771 382.073744 
L 51.45842 374.902711 
L 48.918976 367.650887 
L 46.601797 360.325014 
L 44.509039 352.931902 
L 42.642647 345.478426 
L 41.004357 337.971513 
L 39.59569 330.418144 
L 38.417958 322.825339 
L 37.472254 315.200159 
L 36.759459 307.549691 
L 36.280234 299.881049 
L 36.035025 292.201361 
L 36.024061 284.517768 
L 36.24735 276.837411 
L 36.704687 269.167433 
L 37.395645 261.514962 
L 38.319582 253.887113 
L 39.47564 246.290979 
L 40.862743 238.73362 
L 42.479602 231.222062 
L 44.324714 223.763289 
L 46.396363 216.364235 
L 48.692624 209.031779 
L 51.211362 201.772737 
L 53.950235 194.593857 
L 56.906697 187.501815 
L 60.077999 180.503203 
L 63.461193 173.604527 
L 67.053134 166.812201 
L 70.850483 160.13254 
L 74.849709 153.571753 
L 79.047095 147.13594 
L 83.438737 140.831084 
L 88.020554 134.663047 
L 92.788286 128.637562 
L 97.7375 122.760232 
L 102.863595 117.03652 
L 108.161806 111.471747 
L 113.627207 106.071088 
L 119.254717 100.839562 
L 125.039105 95.782034 
L 130.974992 90.903205 
L 137.05686 86.20761 
L 143.279056 81.699616 
L 149.635795 77.383413 
L 156.121166 73.263014 
L 162.729141 69.342249 
L 169.453577 65.624764 
L 176.288222 62.114014 
L 183.226721 58.813264 
L 190.262625 55.725581 
L 197.389393 52.853837 
L 204.600399 50.200701 
L 211.888938 47.76864 
L 219.248236 45.559915 
L 226.67145 43.576578 
L 234.15168 41.820475 
L 241.68197 40.293238 
L 249.255321 38.996285 
L 256.864692 37.930824 
L 264.503009 37.097845 
L 272.163169 36.498122 
L 279.838053 36.132212 
L 287.520525 36.000456 
L 287.520525 36.000456 
" clip-path="url(#pe9fb9e5580)" style="fill: none; stroke: #56b4e9; stroke-width: 0.25; stroke-linecap: square"/>
   </g>
   <g id="line2d_4">
    <path d="M 288 79.2 
L 294.365673 79.297057 
L 300.725428 79.58814 
L 307.073352 80.072976 
L 313.403544 80.751116 
L 319.71012 81.621929 
L 325.987216 82.684605 
L 332.228996 83.938157 
L 338.429657 85.381418 
L 344.583436 87.013048 
L 350.684611 88.83153 
L 356.72751 90.835172 
L 362.706515 93.022112 
L 368.616068 95.390318 
L 374.450674 97.937587 
L 380.20491 100.661551 
L 385.873426 103.559678 
L 391.450951 106.629273 
L 396.932302 109.867483 
L 402.312382 113.271298 
L 407.586189 116.837552 
L 412.74882 120.562931 
L 417.795476 124.443971 
L 422.721465 128.477065 
L 427.522208 132.658462 
L 432.193241 136.984275 
L 436.730222 141.450482 
L 441.128933 146.052933 
L 445.385285 150.787347 
L 449.495321 155.649324 
L 453.455219 160.634343 
L 457.261298 165.73777 
L 460.910021 170.954861 
L 464.397994 176.280765 
L 467.721976 181.71053 
L 470.878875 187.23911 
L 473.865758 192.861364 
L 476.679847 198.572066 
L 479.318526 204.365906 
L 481.779342 210.237498 
L 484.060007 216.181384 
L 486.158401 222.192037 
L 488.072574 228.26387 
L 489.800745 234.391238 
L 491.341308 240.568444 
L 492.692831 246.789746 
L 493.854057 253.049359 
L 494.823907 259.341466 
L 495.601479 265.660215 
L 496.18605 271.999733 
L 496.577077 278.354125 
L 496.774196 284.717486 
L 496.777225 291.083898 
L 496.586159 297.447443 
L 496.201178 303.802204 
L 495.622638 310.142276 
L 494.851077 316.461762 
L 493.887214 322.754788 
L 492.731943 329.015503 
L 491.386339 335.238088 
L 489.851654 341.416757 
L 488.129313 347.545766 
L 486.220917 353.619417 
L 484.128242 359.632064 
L 481.853233 365.578116 
L 479.398004 371.452047 
L 476.764838 377.248395 
L 473.956183 382.961771 
L 470.974651 388.586864 
L 467.823012 394.118445 
L 464.504197 399.551371 
L 461.021292 404.88059 
L 457.377535 410.10115 
L 453.576312 415.208195 
L 449.621158 420.196979 
L 445.51575 425.062864 
L 441.263904 429.801325 
L 436.869573 434.407958 
L 432.336843 438.87848 
L 427.669927 443.208735 
L 422.873164 447.394697 
L 417.951014 451.432475 
L 412.908053 455.318314 
L 407.748968 459.048603 
L 402.478556 462.619873 
L 397.101717 466.028805 
L 391.62345 469.272228 
L 386.048847 472.347128 
L 380.383091 475.250646 
L 374.631449 477.980083 
L 368.799268 480.532902 
L 362.891971 482.906728 
L 356.91505 485.099356 
L 350.87406 487.108746 
L 344.774617 488.933031 
L 338.622394 490.570514 
L 332.423108 492.019674 
L 326.182523 493.279163 
L 319.906441 494.347811 
L 313.600697 495.224623 
L 307.271153 495.908785 
L 300.923692 496.39966 
L 294.564217 496.696792 
L 288.19864 496.799906 
L 281.832878 496.708904 
L 275.472849 496.423872 
L 269.124466 495.945075 
L 262.793631 495.272958 
L 256.48623 494.408145 
L 250.208126 493.351441 
L 243.965157 492.103828 
L 237.763125 490.666466 
L 231.607796 489.040691 
L 225.504894 487.228014 
L 219.460092 485.230122 
L 213.479009 483.048871 
L 207.567206 480.686288 
L 201.730179 478.144571 
L 195.973354 475.426083 
L 190.302084 472.53335 
L 184.721641 469.469062 
L 179.237212 466.236068 
L 173.853896 462.837373 
L 168.576699 459.276137 
L 163.410526 455.555671 
L 158.36018 451.679434 
L 153.430357 447.651029 
L 148.625638 443.474201 
L 143.950492 439.152834 
L 139.409264 434.690944 
L 135.006176 430.09268 
L 130.745322 425.362318 
L 126.630663 420.504253 
L 122.666024 415.523003 
L 118.855091 410.4232 
L 115.201407 405.209583 
L 111.708368 399.886999 
L 108.379223 394.460398 
L 105.217065 388.934824 
L 102.224835 383.315414 
L 99.405315 377.607392 
L 96.761125 371.816065 
L 94.294724 365.946816 
L 92.008406 360.005103 
L 89.904294 353.996449 
L 87.984346 347.92644 
L 86.250347 341.800719 
L 84.703908 335.624981 
L 83.346467 329.404968 
L 82.179286 323.146462 
L 81.203451 316.855281 
L 80.419868 310.537275 
L 79.829266 304.198316 
L 79.432194 297.844298 
L 79.229021 291.481128 
L 79.219936 285.114722 
L 79.404947 278.750998 
L 79.783883 272.395873 
L 80.356392 266.055254 
L 81.12194 259.735037 
L 82.079816 253.441097 
L 83.22913 247.179285 
L 84.568813 240.955423 
L 86.09762 234.775297 
L 87.81413 228.644652 
L 89.716746 222.569188 
L 91.8037 216.554553 
L 94.073052 210.606339 
L 96.522692 204.730075 
L 99.150342 198.931225 
L 101.95356 193.215179 
L 104.92974 187.587252 
L 108.076115 182.052676 
L 111.389759 176.616595 
L 114.867593 171.284065 
L 118.506382 166.060041 
L 122.302745 160.949382 
L 126.253151 155.956837 
L 130.353928 151.087049 
L 134.601264 146.344545 
L 138.991211 141.733734 
L 143.519686 137.258901 
L 148.18248 132.924209 
L 152.975258 128.733685 
L 157.893565 124.691227 
L 162.932827 120.800591 
L 168.088361 117.065396 
L 173.355373 113.489114 
L 178.728966 110.075069 
L 184.204146 106.826435 
L 189.775821 103.746233 
L 195.438812 100.837326 
L 201.187855 98.102419 
L 207.017604 95.544053 
L 212.92264 93.164608 
L 218.897473 90.966295 
L 224.936549 88.951159 
L 231.034253 87.121072 
L 237.184916 85.477736 
L 243.38282 84.022679 
L 249.622204 82.757254 
L 255.897266 81.682636 
L 262.202174 80.799826 
L 268.531064 80.109643 
L 274.878055 79.612729 
L 281.237244 79.309547 
L 287.602721 79.200378 
L 287.602721 79.200378 
" clip-path="url(#pe9fb9e5580)" style="fill: none; stroke: #56b4e9; stroke-width: 0.25; stroke-linecap: square"/>
   </g>
   <g id="line2d_5">
    <path d="M 288 27.36 
L 295.946116 27.481155 
L 303.884844 27.844505 
L 311.808805 28.449715 
L 319.710631 29.296221 
L 327.582977 30.383235 
L 335.418524 31.709748 
L 343.209988 33.274526 
L 350.950124 35.076115 
L 358.631737 37.11284 
L 366.247687 39.382806 
L 373.790892 41.883904 
L 381.254339 44.613809 
L 388.631091 47.569983 
L 395.91429 50.749677 
L 403.097163 54.149936 
L 410.173035 57.767597 
L 417.135326 61.599299 
L 423.977563 65.641479 
L 430.693387 69.890379 
L 437.276553 74.342048 
L 443.720941 78.992349 
L 450.020559 83.836957 
L 456.169553 88.87137 
L 462.162204 94.090907 
L 467.992942 99.490715 
L 473.656346 105.065775 
L 479.147151 110.810902 
L 484.460252 116.720758 
L 489.59071 122.789846 
L 494.533756 129.012525 
L 499.284793 135.38301 
L 503.839406 141.895378 
L 508.193358 148.543575 
L 512.342604 155.321421 
L 516.283286 162.222613 
L 520.011739 169.240738 
L 523.524499 176.369269 
L 526.818298 183.601579 
L 529.890075 190.930946 
L 532.736974 198.350555 
L 535.356349 205.853508 
L 537.745764 213.432831 
L 539.902999 221.081476 
L 541.826046 228.792333 
L 543.51312 236.558234 
L 544.96265 244.371959 
L 546.17329 252.226243 
L 547.143915 260.113785 
L 547.873621 268.027252 
L 548.361731 275.959288 
L 548.60779 283.902517 
L 548.61157 291.849555 
L 548.373068 299.793014 
L 547.892504 307.72551 
L 547.170327 315.639668 
L 546.207207 323.52813 
L 545.004039 331.383563 
L 543.561943 339.198663 
L 541.882258 346.966165 
L 539.966547 354.678848 
L 537.81659 362.329542 
L 535.434387 369.911134 
L 532.822151 377.416576 
L 529.982311 384.83889 
L 526.917508 392.171176 
L 523.630591 399.406617 
L 520.124615 406.538487 
L 516.40284 413.560155 
L 512.468725 420.465093 
L 508.325929 427.246883 
L 503.978303 433.899219 
L 499.429888 440.415918 
L 494.684914 446.79092 
L 489.74779 453.018298 
L 484.623108 459.092264 
L 479.315631 465.007171 
L 473.830295 470.75752 
L 468.172197 476.337965 
L 462.346599 481.743318 
L 456.358916 486.968553 
L 450.214715 492.008814 
L 443.919707 496.859413 
L 437.479746 501.515843 
L 430.900819 505.973773 
L 424.18904 510.22906 
L 417.350651 514.277747 
L 410.392009 518.11607 
L 403.319582 521.740462 
L 396.139947 525.147552 
L 388.859776 528.334174 
L 381.48584 531.297364 
L 374.024993 534.034368 
L 366.484171 536.542641 
L 358.870384 538.819852 
L 351.190712 540.863883 
L 343.452293 542.672835 
L 335.662322 544.245025 
L 327.82804 545.578991 
L 319.956732 546.673495 
L 312.055715 547.527517 
L 304.132333 548.140265 
L 296.193954 548.511168 
L 288.247957 548.639882 
L 280.30173 548.526287 
L 272.362659 548.170489 
L 264.438126 547.572818 
L 256.535498 546.73383 
L 248.662122 545.654305 
L 240.825316 544.335247 
L 233.032368 542.777882 
L 225.290521 540.983657 
L 217.606973 538.954242 
L 209.988868 536.691522 
L 202.443287 534.1976 
L 194.977246 531.474797 
L 187.597685 528.525642 
L 180.311465 525.352879 
L 173.12536 521.959455 
L 166.04605 518.348526 
L 159.080117 514.52345 
L 152.234037 510.487781 
L 145.514174 506.245273 
L 138.926776 501.799868 
L 132.477967 497.1557 
L 126.173742 492.317087 
L 120.019962 487.288526 
L 114.022348 482.074693 
L 108.186476 476.680434 
L 102.517771 471.110765 
L 97.021503 465.370863 
L 91.702781 459.466065 
L 86.566552 453.401861 
L 81.617589 447.183887 
L 76.860493 440.817925 
L 72.299687 434.309893 
L 67.939412 427.665841 
L 63.783719 420.891945 
L 59.836474 413.994505 
L 56.101346 406.979931 
L 52.581807 399.854745 
L 49.281129 392.625571 
L 46.20238 385.299129 
L 43.348423 377.882232 
L 40.721912 370.381774 
L 38.325287 362.804729 
L 36.160778 355.158139 
L 34.230395 347.449115 
L 32.535935 339.684822 
L 31.078971 331.87248 
L 29.860859 324.019351 
L 28.882732 316.132736 
L 28.145497 308.219967 
L 27.649842 300.288399 
L 27.396226 292.345408 
L 27.384885 284.398377 
L 27.615831 276.454694 
L 28.088848 268.521745 
L 28.803496 260.606903 
L 29.759111 252.717529 
L 30.954805 244.860955 
L 32.389466 237.044487 
L 34.06176 229.27539 
L 35.970133 221.560888 
L 38.11281 213.908152 
L 40.4878 206.324297 
L 43.092895 198.816373 
L 45.925672 191.391361 
L 48.983498 184.056163 
L 52.26353 176.817598 
L 55.76272 169.682396 
L 59.477813 162.657191 
L 63.405357 155.748513 
L 67.541699 148.962785 
L 71.882995 142.306315 
L 76.425208 135.785293 
L 81.164116 129.40578 
L 86.095313 123.173707 
L 91.214214 117.094868 
L 96.516061 111.174915 
L 101.995925 105.41935 
L 107.648711 99.833525 
L 113.469165 94.422633 
L 119.451874 89.191703 
L 125.591277 84.1456 
L 131.881667 79.289014 
L 138.317195 74.62646 
L 144.891879 70.162273 
L 151.599606 65.900603 
L 158.43414 61.845412 
L 165.389128 58.00047 
L 172.458103 54.369352 
L 179.634494 50.955433 
L 186.91163 47.761887 
L 194.282744 44.791683 
L 201.740984 42.047582 
L 209.279416 39.532136 
L 216.891033 37.247683 
L 224.568757 35.196347 
L 232.305452 33.380034 
L 240.093924 31.800434 
L 247.926932 30.459015 
L 255.797196 29.357024 
L 263.697397 28.495485 
L 271.620192 27.8752 
L 279.558215 27.496745 
L 287.504086 27.360472 
L 287.504086 27.360472 
" clip-path="url(#pe9fb9e5580)" style="fill: none; stroke: #005f45; stroke-width: 0.25; stroke-linecap: square"/>
   </g>
   <g id="line2d_6">
    <path d="M 288 87.84 
L 295.118912 87.966636 
L 302.228815 88.346384 
L 309.320714 88.978763 
L 316.385635 89.862973 
L 323.414639 90.997896 
L 330.39883 92.382095 
L 337.329373 94.013819 
L 344.197496 95.891002 
L 350.99451 98.011271 
L 357.711814 100.371941 
L 364.340908 102.970026 
L 370.873405 105.802238 
L 377.301038 108.864994 
L 383.615674 112.154418 
L 389.809322 115.666348 
L 395.874147 119.39634 
L 401.802473 123.339675 
L 407.5868 127.491362 
L 413.219807 131.846148 
L 418.694368 136.398523 
L 424.003555 141.142727 
L 429.14065 146.072757 
L 434.099154 151.182373 
L 438.87279 156.465112 
L 443.455521 161.914288 
L 447.841546 167.523007 
L 452.025315 173.284171 
L 456.001536 179.19049 
L 459.765176 185.234491 
L 463.311474 191.408526 
L 466.635941 197.704783 
L 469.734372 204.115295 
L 472.602845 210.631951 
L 475.237732 217.246504 
L 477.635698 223.950584 
L 479.793709 230.73571 
L 481.709033 237.593295 
L 483.379249 244.514661 
L 484.802242 251.491052 
L 485.976211 258.51364 
L 486.899672 265.573537 
L 487.571455 272.661813 
L 487.990711 279.769496 
L 488.156909 286.887594 
L 488.069839 294.007099 
L 487.729611 301.119003 
L 487.136655 308.214308 
L 486.291722 315.284034 
L 485.195881 322.319236 
L 483.850519 329.311012 
L 482.257338 336.250516 
L 480.418353 343.128966 
L 478.335893 349.937659 
L 476.012591 356.667978 
L 473.451388 363.311409 
L 470.655524 369.859545 
L 467.628537 376.3041 
L 464.374258 382.63692 
L 460.896804 388.849991 
L 457.200576 394.935452 
L 453.290249 400.885602 
L 449.170773 406.692912 
L 444.84736 412.350035 
L 440.325481 417.849812 
L 435.610856 423.185283 
L 430.709453 428.349698 
L 425.627472 433.336522 
L 420.371345 438.139444 
L 414.947722 442.752388 
L 409.363466 447.169516 
L 403.625642 451.385239 
L 397.741513 455.394223 
L 391.718522 459.191395 
L 385.56429 462.771951 
L 379.286607 466.131359 
L 372.893413 469.265369 
L 366.3928 472.170015 
L 359.792993 474.841622 
L 353.102343 477.276809 
L 346.329316 479.472496 
L 339.482481 481.425902 
L 332.570504 483.134558 
L 325.602129 484.596301 
L 318.586175 485.809281 
L 311.531518 486.771963 
L 304.447086 487.48313 
L 297.341842 487.941881 
L 290.224778 488.147635 
L 283.104899 488.100134 
L 275.991214 487.799436 
L 268.892724 487.245922 
L 261.818411 486.440293 
L 254.777227 485.383568 
L 247.778082 484.077084 
L 240.829831 482.522494 
L 233.941267 480.721766 
L 227.121106 478.677177 
L 220.377978 476.391315 
L 213.720415 473.867073 
L 207.156842 471.107645 
L 200.695564 468.116521 
L 194.344756 464.897487 
L 188.112455 461.454616 
L 182.006546 457.792265 
L 176.034756 453.915068 
L 170.204641 449.82793 
L 164.523578 445.536024 
L 158.998756 441.04478 
L 153.637165 436.35988 
L 148.44559 431.487254 
L 143.430599 426.433067 
L 138.59854 421.203713 
L 133.955525 415.805811 
L 129.50743 410.24619 
L 125.259883 404.531884 
L 121.21826 398.670125 
L 117.387673 392.668331 
L 113.77297 386.534094 
L 110.378725 380.275177 
L 107.209233 373.8995 
L 104.268504 367.41513 
L 101.560259 360.830273 
L 99.087926 354.15326 
L 96.854632 347.39254 
L 94.863203 340.556667 
L 93.11616 333.654293 
L 91.615712 326.694149 
L 90.363759 319.685044 
L 89.361885 312.635847 
L 88.611357 305.555476 
L 88.113125 298.452892 
L 87.86782 291.337081 
L 87.875751 284.217048 
L 88.13691 277.101801 
L 88.650964 270.000345 
L 89.417265 262.921664 
L 90.434842 255.874716 
L 91.702407 248.868418 
L 93.218358 241.911635 
L 94.980775 235.013169 
L 96.987428 228.181751 
L 99.235779 221.426023 
L 101.722982 214.754535 
L 104.445891 208.175727 
L 107.401059 201.697925 
L 110.584748 195.329326 
L 113.992929 189.077987 
L 117.621289 182.951818 
L 121.465238 176.958572 
L 125.519911 171.105833 
L 129.780178 165.401005 
L 134.240649 159.851307 
L 138.895678 154.463762 
L 143.739376 149.245187 
L 148.765614 144.202186 
L 153.968032 139.341138 
L 159.340048 134.668196 
L 164.874862 130.189271 
L 170.565473 125.910032 
L 176.40468 121.835894 
L 182.385093 117.972011 
L 188.499146 114.323272 
L 194.739103 110.894295 
L 201.097066 107.689419 
L 207.564993 104.712698 
L 214.134697 101.967899 
L 220.797867 99.458495 
L 227.546071 97.187663 
L 234.37077 95.158274 
L 241.263329 93.372897 
L 248.215026 91.833791 
L 255.217065 90.542904 
L 262.260585 89.501869 
L 269.336675 88.712003 
L 276.436381 88.174305 
L 283.550719 87.889457 
L 287.61916 87.840362 
L 287.61916 87.840362 
" clip-path="url(#pe9fb9e5580)" style="fill: none; stroke: #005f45; stroke-width: 0.25; stroke-linecap: square"/>
   </g>
   <g id="line2d_7">
    <path d="M 288 24.48 
L 296.033918 24.602493 
L 304.060367 24.969859 
L 312.071886 25.581756 
L 320.061025 26.437615 
L 328.020358 27.536641 
L 335.942486 28.877812 
L 343.820043 30.45988 
L 351.645705 32.281376 
L 359.412199 34.340606 
L 367.112302 36.635655 
L 374.738857 39.16439 
L 382.284774 41.924459 
L 389.743037 44.913298 
L 397.106713 48.128127 
L 404.368955 51.565957 
L 411.523013 55.223593 
L 418.562235 59.097634 
L 425.480078 63.184479 
L 432.270109 67.480327 
L 438.926017 71.981187 
L 445.441614 76.682872 
L 451.810842 81.581012 
L 458.02778 86.671054 
L 464.086648 91.948265 
L 469.981814 97.40774 
L 475.707797 103.044402 
L 481.259274 108.853012 
L 486.631084 114.828169 
L 491.818232 120.964319 
L 496.815897 127.255757 
L 501.619432 133.696634 
L 506.224371 140.280962 
L 510.626434 147.00262 
L 514.821528 153.855359 
L 518.805753 160.832808 
L 522.575405 167.928481 
L 526.126979 175.13578 
L 529.457174 182.448006 
L 532.562894 189.85836 
L 535.44125 197.359954 
L 538.089569 204.945812 
L 540.505386 212.608884 
L 542.686457 220.342045 
L 544.630754 228.138105 
L 546.336469 235.989817 
L 547.802017 243.889881 
L 549.026034 251.830953 
L 550.007384 259.80565 
L 550.745153 267.806559 
L 551.238656 275.826241 
L 551.487434 283.857241 
L 551.491256 291.892091 
L 551.250118 299.923324 
L 550.764245 307.943472 
L 550.034087 315.945079 
L 549.060325 323.920706 
L 547.843863 331.862939 
L 546.385832 339.764394 
L 544.687587 347.617725 
L 542.750708 355.415631 
L 540.576994 363.150863 
L 538.168468 370.81623 
L 535.527368 378.404605 
L 532.656149 385.908933 
L 529.557481 393.322239 
L 526.234244 400.637629 
L 522.689528 407.848304 
L 518.926628 414.94756 
L 514.949043 421.928796 
L 510.76047 428.785523 
L 506.364804 435.511366 
L 501.76613 442.100071 
L 496.968725 448.545515 
L 491.977048 454.841705 
L 486.795739 460.982787 
L 481.429616 466.963052 
L 475.883668 472.77694 
L 470.16305 478.419047 
L 464.27308 483.884128 
L 458.219235 489.167101 
L 452.007142 494.263055 
L 445.642577 499.167252 
L 439.131456 503.875134 
L 432.479833 508.382323 
L 425.693892 512.684629 
L 418.77994 516.778053 
L 411.744407 520.658789 
L 404.593832 524.32323 
L 397.334863 527.767967 
L 389.974249 530.9898 
L 382.518833 533.985733 
L 374.975545 536.75298 
L 367.351399 539.288969 
L 359.653483 541.591342 
L 351.888952 543.657959 
L 344.065026 545.486899 
L 336.188977 547.076461 
L 328.268129 548.425168 
L 320.309845 549.531765 
L 312.321524 550.395225 
L 304.310591 551.014743 
L 296.284495 551.389745 
L 288.250697 551.519881 
L 280.216666 551.405031 
L 272.189871 551.045301 
L 264.177774 550.441026 
L 256.187824 549.592767 
L 248.227449 548.501314 
L 240.304049 547.167681 
L 232.424991 545.593107 
L 224.597599 543.779057 
L 216.82915 541.727217 
L 209.126867 539.439494 
L 201.497909 536.918016 
L 193.94937 534.165126 
L 186.488267 531.183384 
L 179.121536 527.975562 
L 171.856026 524.544642 
L 164.698492 520.893814 
L 157.655588 517.026471 
L 150.73386 512.94621 
L 143.939745 508.656823 
L 137.279558 504.162298 
L 130.759492 499.466813 
L 124.385607 494.574734 
L 118.163829 489.490609 
L 112.099943 484.219164 
L 106.199586 478.765301 
L 100.468243 473.134088 
L 94.911243 467.330762 
L 89.533751 461.360718 
L 84.340768 455.229506 
L 79.33712 448.942825 
L 74.52746 442.506521 
L 69.916258 435.926577 
L 65.507803 429.20911 
L 61.306192 422.360365 
L 57.315331 415.386709 
L 53.53893 408.294626 
L 49.980501 401.090709 
L 46.643351 393.781654 
L 43.530583 386.374258 
L 40.645091 378.875406 
L 37.989557 371.29207 
L 35.566451 363.6313 
L 33.378024 355.900218 
L 31.426311 348.106011 
L 29.713127 340.255925 
L 28.240065 332.357259 
L 27.008493 324.417355 
L 26.019557 316.443595 
L 25.274177 308.443392 
L 24.773045 300.424183 
L 24.516626 292.393424 
L 24.50516 284.35858 
L 24.738658 276.327122 
L 25.216901 268.306515 
L 25.939446 260.304217 
L 26.90562 252.327667 
L 28.114526 244.384281 
L 29.56504 236.481442 
L 31.255813 228.626499 
L 33.185272 220.826754 
L 35.351626 213.089457 
L 37.752859 205.421803 
L 40.386739 197.830919 
L 43.250817 190.323862 
L 46.342431 182.907612 
L 49.658707 175.589063 
L 53.196562 168.37502 
L 56.952706 161.272187 
L 60.923648 154.28717 
L 65.105696 147.426462 
L 69.494962 140.69644 
L 74.087365 134.103362 
L 78.878637 127.653358 
L 83.864322 121.352422 
L 89.039785 115.206414 
L 94.400217 109.221046 
L 99.940631 103.401884 
L 105.655879 97.754338 
L 111.540647 92.283656 
L 117.589464 86.994927 
L 123.796706 81.893065 
L 130.156603 76.982815 
L 136.663242 72.268741 
L 143.310574 67.755226 
L 150.092419 63.446466 
L 157.002473 59.346466 
L 164.034312 55.459039 
L 171.181397 51.787798 
L 178.437086 48.336156 
L 185.794631 45.107322 
L 193.247194 42.104298 
L 200.787845 39.329876 
L 208.409575 36.786635 
L 216.105298 34.476939 
L 223.867859 32.402936 
L 231.690042 30.566554 
L 239.564575 28.9695 
L 247.484136 27.613258 
L 255.441364 26.499091 
L 263.42886 25.628032 
L 271.4392 25.000893 
L 279.464936 24.618256 
L 287.498606 24.480477 
L 287.498606 24.480477 
" clip-path="url(#pe9fb9e5580)" style="fill: none; stroke: #009e73; stroke-width: 0.25; stroke-linecap: square"/>
   </g>
   <g id="line2d_8">
    <path d="M 288 90.72 
L 295.016481 90.844814 
L 302.024084 91.219098 
L 309.013941 91.842378 
L 315.977209 92.713866 
L 322.905076 93.832459 
L 329.788775 95.196741 
L 336.619597 96.804987 
L 343.388899 98.65516 
L 350.088114 100.744921 
L 356.708766 103.071625 
L 363.242478 105.632328 
L 369.680982 108.423789 
L 376.016131 111.442476 
L 382.239908 114.684571 
L 388.34444 118.145969 
L 394.322001 121.822292 
L 400.165027 125.708888 
L 405.866126 129.800839 
L 411.418083 134.092966 
L 416.813874 138.579839 
L 422.046669 143.255781 
L 427.10985 148.114875 
L 431.997007 153.150972 
L 436.701959 158.3577 
L 441.218751 163.728471 
L 445.541667 169.256489 
L 449.665239 174.934758 
L 453.584248 180.756094 
L 457.293735 186.713131 
L 460.789006 192.798332 
L 464.06564 199.003995 
L 467.119489 205.32227 
L 469.946689 211.74516 
L 472.543664 218.26454 
L 474.907127 224.872159 
L 477.034087 231.559656 
L 478.921853 238.318571 
L 480.568037 245.14035 
L 481.970555 252.016361 
L 483.127632 258.937904 
L 484.037806 265.89622 
L 484.699923 272.882506 
L 485.113147 279.88792 
L 485.276953 286.9036 
L 485.191136 293.920666 
L 484.855803 300.930241 
L 484.271379 307.923454 
L 483.438604 314.891458 
L 482.358531 321.825434 
L 481.032526 328.716609 
L 479.462268 335.556264 
L 477.649744 342.335743 
L 475.597247 349.046469 
L 473.307374 355.67995 
L 470.783022 362.227792 
L 468.027387 368.68171 
L 465.043954 375.033538 
L 461.836499 381.275238 
L 458.40908 387.398912 
L 454.766035 393.396812 
L 450.911972 399.261349 
L 446.851769 404.985101 
L 442.590564 410.560826 
L 438.133747 415.981469 
L 433.486959 421.240171 
L 428.656079 426.330278 
L 423.647221 431.245349 
L 418.466721 435.979164 
L 413.121136 440.525735 
L 407.617229 444.879307 
L 401.961964 449.034373 
L 396.162498 452.985673 
L 390.226169 456.72821 
L 384.160488 460.257247 
L 377.97313 463.568318 
L 371.671925 466.657234 
L 365.264846 469.520087 
L 358.760001 472.153253 
L 352.165619 474.553402 
L 345.490045 476.717496 
L 338.741726 478.642796 
L 331.929202 480.326867 
L 325.061091 481.767577 
L 318.146086 482.963104 
L 311.192935 483.911935 
L 304.210437 484.612869 
L 297.207427 485.065019 
L 290.192767 485.267813 
L 283.175332 485.220995 
L 276.164002 484.924624 
L 269.167648 484.379075 
L 262.195124 483.585037 
L 255.255253 482.543517 
L 248.356814 481.255831 
L 241.508538 479.723609 
L 234.71909 477.948791 
L 227.997061 475.933621 
L 221.350957 473.680649 
L 214.789186 471.192727 
L 208.320053 468.473002 
L 201.951743 465.524916 
L 195.692314 462.3522 
L 189.549686 458.958867 
L 183.531632 455.349211 
L 177.645767 451.527801 
L 171.899538 447.499471 
L 166.300217 443.269318 
L 160.854889 438.842696 
L 155.570443 434.225206 
L 150.453567 429.422689 
L 145.510735 424.441224 
L 140.748201 419.287113 
L 136.171992 413.966878 
L 131.787899 408.487252 
L 127.601468 402.855166 
L 123.617997 397.07775 
L 119.842526 391.162311 
L 116.279834 385.116337 
L 112.934427 378.947477 
L 109.810539 372.663536 
L 106.912122 366.272467 
L 104.242845 359.782355 
L 101.806085 353.201414 
L 99.604925 346.537971 
L 97.64215 339.800456 
L 95.920244 332.997396 
L 94.441386 326.137399 
L 93.207446 319.229144 
L 92.219988 312.281374 
L 91.480259 305.30288 
L 90.989196 298.302491 
L 90.74742 291.289066 
L 90.755237 284.271479 
L 91.012638 277.25861 
L 91.519296 270.259333 
L 92.27457 263.282503 
L 93.277506 256.33695 
L 94.526833 249.431462 
L 96.020971 242.574777 
L 97.75803 235.77557 
L 99.73581 229.042445 
L 101.951811 222.383922 
L 104.403227 215.808426 
L 107.086957 209.324278 
L 109.999605 202.939682 
L 113.137485 196.662717 
L 116.496628 190.501325 
L 120.072781 184.463303 
L 123.861422 178.556291 
L 127.857754 172.787763 
L 132.056723 167.165019 
L 136.453013 161.695173 
L 141.041064 156.385147 
L 145.815069 151.24166 
L 150.768987 146.271219 
L 155.89655 141.480114 
L 161.19127 136.874409 
L 166.646447 132.459929 
L 172.255179 128.242262 
L 178.010368 124.226744 
L 183.904732 120.418457 
L 189.930813 116.822218 
L 196.080986 113.442579 
L 202.347468 110.283816 
L 208.722331 107.349925 
L 215.197507 104.64462 
L 221.764804 102.171323 
L 228.415912 99.933164 
L 235.142414 97.932975 
L 241.935799 96.173287 
L 248.787472 94.656327 
L 255.688762 93.384013 
L 262.630937 92.357957 
L 269.605212 91.579456 
L 276.602764 91.049495 
L 283.614737 90.768745 
L 287.62464 90.720357 
L 287.62464 90.720357 
" clip-path="url(#pe9fb9e5580)" style="fill: none; stroke: #009e73; stroke-width: 0.25; stroke-linecap: square"/>
   </g>
   <g id="line2d_9">
    <path d="M 288 33.12 
L 295.770511 33.238477 
L 303.533798 33.593798 
L 311.282643 34.185633 
L 319.009844 35.013431 
L 326.708215 36.076423 
L 334.370601 37.373621 
L 341.989877 38.903819 
L 349.558961 40.665593 
L 357.070815 42.657307 
L 364.518456 44.877109 
L 371.89496 47.322934 
L 379.19347 49.99251 
L 386.4072 52.883354 
L 393.529444 55.992778 
L 400.55358 59.317893 
L 407.473078 62.855606 
L 414.281506 66.60263 
L 420.972534 70.555479 
L 427.539942 74.710481 
L 433.977623 79.063771 
L 440.279594 83.611302 
L 446.439995 88.348848 
L 452.453099 93.272003 
L 458.313316 98.376191 
L 464.015197 103.656666 
L 469.553443 109.10852 
L 474.922905 114.726684 
L 480.118589 120.505934 
L 485.135667 126.440899 
L 489.969474 132.52606 
L 494.615516 138.755761 
L 499.069474 145.124209 
L 503.327207 151.625485 
L 507.384757 158.253544 
L 511.238351 165.002224 
L 514.884408 171.865252 
L 518.319537 178.836246 
L 521.540545 185.908727 
L 524.544438 193.076119 
L 527.328422 200.331758 
L 529.889911 207.668901 
L 532.226521 215.080724 
L 534.336082 222.560338 
L 536.216631 230.10079 
L 537.866421 237.695069 
L 539.283918 245.336114 
L 540.467803 253.016823 
L 541.416978 260.730055 
L 542.130558 268.468639 
L 542.60788 276.225381 
L 542.848502 283.993069 
L 542.852198 291.764482 
L 542.618967 299.532395 
L 542.149024 307.289588 
L 541.442806 315.028847 
L 540.50097 322.742978 
L 539.324392 330.42481 
L 537.914165 338.067201 
L 536.2716 345.663045 
L 534.398225 353.205283 
L 532.295782 360.686901 
L 529.966223 368.100944 
L 527.411716 375.440519 
L 524.634636 382.698804 
L 521.637563 389.869051 
L 518.423285 396.944592 
L 514.994789 403.918852 
L 511.355263 410.785345 
L 507.508091 417.537688 
L 503.456848 424.169604 
L 499.205302 430.674927 
L 494.757404 437.04761 
L 490.117291 443.281728 
L 485.289275 449.371485 
L 480.277846 455.31122 
L 475.087662 461.095411 
L 469.723548 466.71868 
L 464.190491 472.1758 
L 458.493635 477.461697 
L 452.638277 482.571458 
L 446.629859 487.500331 
L 440.473968 492.243736 
L 434.176327 496.79726 
L 427.742789 501.156673 
L 421.179338 505.31792 
L 414.492073 509.277133 
L 407.687213 513.030632 
L 400.771083 516.574927 
L 393.750113 519.906722 
L 386.630831 523.022921 
L 379.419855 525.920627 
L 372.123888 528.597144 
L 364.749714 531.049986 
L 357.304188 533.276872 
L 349.794232 535.275731 
L 342.226828 537.044706 
L 334.609011 538.582151 
L 326.947863 539.886638 
L 319.250506 540.956953 
L 311.524097 541.792102 
L 303.775817 542.391309 
L 296.012872 542.754015 
L 288.242477 542.879885 
L 280.471857 542.7688 
L 272.708236 542.420865 
L 264.958831 541.836402 
L 257.230846 541.015955 
L 249.531467 539.960287 
L 241.867851 538.67038 
L 234.247122 537.147431 
L 226.676366 535.392858 
L 219.16262 533.408292 
L 211.712871 531.195576 
L 204.334043 528.75677 
L 197.032997 526.094139 
L 189.81652 523.210159 
L 182.691322 520.107511 
L 175.664026 516.78908 
L 168.741165 513.257951 
L 161.929175 509.517407 
L 155.234389 505.570924 
L 148.663032 501.422173 
L 142.221212 497.075009 
L 135.914918 492.533475 
L 129.750013 487.801792 
L 123.732228 482.88436 
L 117.867158 477.785749 
L 112.160255 472.510701 
L 106.616825 467.064118 
L 101.242022 461.451065 
L 96.040841 455.67676 
L 91.01812 449.746571 
L 86.178526 443.666011 
L 81.526559 437.440733 
L 77.066545 431.076525 
L 72.802629 424.579303 
L 68.738775 417.955107 
L 64.878762 411.210096 
L 61.226178 404.35054 
L 57.784419 397.382817 
L 54.556684 390.313403 
L 51.545974 383.148872 
L 48.755088 375.895885 
L 46.186621 368.561183 
L 43.84296 361.151585 
L 41.726285 353.673981 
L 39.838563 346.135322 
L 38.181549 338.542616 
L 36.756784 330.902923 
L 35.565592 323.223343 
L 34.60908 315.511018 
L 33.888138 307.773117 
L 33.403437 300.016833 
L 33.155425 292.249377 
L 33.144336 284.477971 
L 33.370177 276.709839 
L 33.83274 268.952203 
L 34.531595 261.212276 
L 35.466092 253.497252 
L 36.635362 245.814304 
L 38.038317 238.170575 
L 39.673655 230.573171 
L 41.539854 223.029155 
L 43.635179 215.545541 
L 45.957683 208.129285 
L 48.505206 200.787282 
L 51.275381 193.526359 
L 54.26563 186.353264 
L 57.473176 179.274668 
L 60.895035 172.29715 
L 64.528027 165.427198 
L 68.368774 158.671197 
L 72.413706 152.03543 
L 76.659061 145.526065 
L 81.100894 139.149154 
L 85.735075 132.910625 
L 90.557295 126.816277 
L 95.563071 120.871777 
L 100.74775 115.082651 
L 106.106512 109.454282 
L 111.634375 103.9919 
L 117.3262 98.700586 
L 123.176694 93.585257 
L 129.18042 88.65067 
L 135.331796 83.901411 
L 141.625102 79.341897 
L 148.054489 74.976366 
L 154.613979 70.808877 
L 161.297474 66.843304 
L 168.098761 63.083333 
L 175.011515 59.53246 
L 182.029312 56.193987 
L 189.145627 53.071016 
L 196.353843 50.166452 
L 203.64726 47.482995 
L 211.019098 45.023139 
L 218.462502 42.789171 
L 225.970553 40.783168 
L 233.53627 39.006995 
L 241.152621 37.462303 
L 248.812525 36.150529 
L 256.50886 35.072891 
L 264.234472 34.230392 
L 271.982177 33.623815 
L 279.744774 33.253723 
L 287.515045 33.120461 
L 287.515045 33.120461 
" clip-path="url(#pe9fb9e5580)" style="fill: none; stroke: #7a4964; stroke-width: 0.25; stroke-linecap: square"/>
   </g>
   <g id="line2d_10">
    <path d="M 288 82.08 
L 294.27787 82.175719 
L 300.549904 82.462786 
L 306.810271 82.940935 
L 313.053151 83.609721 
L 319.272739 84.468523 
L 325.463254 85.516541 
L 331.61894 86.752803 
L 337.734076 88.176157 
L 343.802975 89.785282 
L 349.819996 91.578681 
L 355.779544 93.554687 
L 361.67608 95.711463 
L 367.504122 98.047003 
L 373.258251 100.559137 
L 378.933118 103.245529 
L 384.523447 106.103682 
L 390.024042 109.130938 
L 395.429788 112.324483 
L 400.735659 115.681349 
L 405.936724 119.198414 
L 411.028146 122.872408 
L 416.005193 126.699917 
L 420.863238 130.677381 
L 425.597763 134.801103 
L 430.204369 139.06725 
L 434.678771 143.471855 
L 439.01681 148.010823 
L 443.214453 152.679936 
L 447.267799 157.474851 
L 451.173078 162.391111 
L 454.92666 167.424146 
L 458.525055 172.569276 
L 461.964919 177.821719 
L 465.243052 183.176592 
L 468.356408 188.628916 
L 471.302092 194.173621 
L 474.077366 199.805555 
L 476.67965 205.51948 
L 479.106523 211.310085 
L 481.355731 217.171986 
L 483.425182 223.099733 
L 485.312952 229.087817 
L 487.017286 235.130669 
L 488.5366 241.222672 
L 489.869481 247.358163 
L 491.014691 253.531437 
L 491.971163 259.736756 
L 492.73801 265.96835 
L 493.314518 272.220426 
L 493.700152 278.487172 
L 493.894552 284.762762 
L 493.897539 291.041361 
L 493.709109 297.317133 
L 493.329437 303.584243 
L 492.758877 309.836865 
L 491.997959 316.069186 
L 491.04739 322.275411 
L 489.908054 328.449772 
L 488.581011 334.586528 
L 487.067493 340.679974 
L 485.368908 346.724445 
L 483.486836 352.714322 
L 481.423025 358.644035 
L 479.179395 364.508073 
L 476.758031 370.300984 
L 474.161185 376.017382 
L 471.39127 381.651954 
L 468.450862 387.199459 
L 465.342695 392.654742 
L 462.069657 398.012731 
L 458.634792 403.268444 
L 455.041293 408.416996 
L 451.292501 413.453599 
L 447.391901 418.373573 
L 443.343119 423.172342 
L 439.149919 427.845445 
L 434.8162 432.388538 
L 430.34599 436.797398 
L 425.743445 441.067925 
L 421.012845 445.19615 
L 416.158587 449.178234 
L 411.185183 453.010476 
L 406.097258 456.689312 
L 400.899542 460.211323 
L 395.596866 463.573235 
L 390.194161 466.771921 
L 384.696449 469.804409 
L 379.108841 472.667879 
L 373.436532 475.359668 
L 367.684796 477.877275 
L 361.858979 480.218359 
L 355.964497 482.380744 
L 350.006831 484.362418 
L 343.991519 486.161541 
L 337.924154 487.776438 
L 331.810375 489.20561 
L 325.655868 490.447727 
L 319.466352 491.501634 
L 313.247584 492.366352 
L 307.005344 493.041077 
L 300.745434 493.525182 
L 294.473676 493.818216 
L 288.1959 493.919907 
L 281.917941 493.83016 
L 275.645637 493.54906 
L 269.384818 493.076867 
L 263.141305 492.41402 
L 256.920903 491.561136 
L 250.729394 490.519007 
L 244.572534 489.288603 
L 238.456047 487.871066 
L 232.38562 486.267716 
L 226.366896 484.480042 
L 220.40547 482.509706 
L 214.506885 480.358541 
L 208.676624 478.028546 
L 202.920108 475.521888 
L 197.242687 472.840895 
L 191.649641 469.988062 
L 186.14617 466.96604 
L 180.737388 463.777639 
L 175.428325 460.425823 
L 170.223917 456.913708 
L 165.129002 453.244559 
L 160.148316 449.421787 
L 155.28649 445.448946 
L 150.548043 441.329729 
L 145.937381 437.067967 
L 141.458791 432.667621 
L 137.116436 428.132781 
L 132.914352 423.467665 
L 128.856447 418.676608 
L 124.946493 413.764065 
L 121.188124 408.734604 
L 117.584836 403.592899 
L 114.139977 398.34373 
L 110.856751 392.991979 
L 107.738209 387.54262 
L 104.787251 382.000719 
L 102.006621 376.371428 
L 99.398903 370.659981 
L 96.966521 364.871688 
L 94.711738 359.011929 
L 92.636649 353.086153 
L 90.743183 347.099868 
L 89.033101 341.05864 
L 87.507992 334.968085 
L 86.169274 328.833865 
L 85.018193 322.661683 
L 84.055817 316.457277 
L 83.283042 310.226416 
L 82.700586 303.974891 
L 82.308991 297.708514 
L 82.108621 291.433112 
L 82.099661 285.154519 
L 82.282121 278.87857 
L 82.65583 272.611102 
L 83.220441 266.35794 
L 83.97543 260.124898 
L 84.920094 253.917771 
L 86.053556 247.742329 
L 87.374761 241.604314 
L 88.882481 235.509431 
L 90.575314 229.463346 
L 92.451687 223.471682 
L 94.509856 217.540008 
L 96.747906 211.673838 
L 99.163758 205.878626 
L 101.755165 200.15976 
L 104.519718 194.522556 
L 107.454847 188.972256 
L 110.557823 183.514018 
L 113.825762 178.152918 
L 117.255626 172.89394 
L 120.844225 167.741972 
L 124.588224 162.701804 
L 128.484142 157.778122 
L 132.528357 152.975504 
L 136.717109 148.298413 
L 141.046504 143.751199 
L 145.512518 139.338089 
L 150.110997 135.063185 
L 154.837668 130.930462 
L 159.688136 126.943761 
L 164.657892 123.10679 
L 169.742314 119.423115 
L 174.936678 115.89616 
L 180.236153 112.529206 
L 185.635813 109.325381 
L 191.130637 106.287664 
L 196.715518 103.41888 
L 202.385264 100.721696 
L 208.134602 98.198618 
L 213.95819 95.851993 
L 219.850611 93.684002 
L 225.80639 91.69666 
L 231.819987 89.891816 
L 237.885814 88.271147 
L 243.99823 86.83616 
L 250.151553 85.588188 
L 256.340063 84.528393 
L 262.558006 83.657759 
L 268.799601 82.977096 
L 275.059047 82.487037 
L 281.330524 82.188036 
L 287.6082 82.080373 
L 287.6082 82.080373 
" clip-path="url(#pe9fb9e5580)" style="fill: none; stroke: #7a4964; stroke-width: 0.25; stroke-linecap: square"/>
   </g>
   <g id="line2d_11">
    <path d="M 288 30.24 
L 295.858313 30.359816 
L 303.709321 30.719152 
L 311.545724 31.317674 
L 319.360238 32.154826 
L 327.145596 33.229829 
L 334.894563 34.541685 
L 342.599932 36.089173 
L 350.254542 37.870854 
L 357.851276 39.885073 
L 365.383072 42.129957 
L 372.842926 44.603419 
L 380.223905 47.30316 
L 387.519146 50.226668 
L 394.721867 53.371228 
L 401.825372 56.733914 
L 408.823057 60.311602 
L 415.708416 64.100965 
L 422.475049 68.098479 
L 429.116664 72.30043 
L 435.627088 76.702909 
L 442.000267 81.301826 
L 448.230277 86.092903 
L 454.311326 91.071687 
L 460.23776 96.233549 
L 466.00407 101.573691 
L 471.604895 107.087147 
L 477.035028 112.768793 
L 482.289421 118.613346 
L 487.363189 124.615372 
L 492.251615 130.769292 
L 496.950155 137.069385 
L 501.45444 143.509794 
L 505.760283 150.08453 
L 509.863681 156.787482 
L 513.760819 163.612419 
L 517.448074 170.552995 
L 520.922018 177.602757 
L 524.179422 184.755153 
L 527.217257 192.003532 
L 530.032698 199.341157 
L 532.62313 206.761204 
L 534.986143 214.256777 
L 537.11954 221.820907 
L 539.021339 229.446562 
L 540.68977 237.126651 
L 542.123284 244.854037 
L 543.320547 252.621533 
L 544.280446 260.42192 
L 545.002089 268.247946 
L 545.484806 276.092334 
L 545.728146 283.947793 
L 545.731884 291.807018 
L 545.496017 299.662705 
L 545.020764 307.507549 
L 544.306566 315.334257 
L 543.354088 323.135554 
L 542.164215 330.904186 
L 540.738054 338.632932 
L 539.076929 346.314605 
L 537.182386 353.942066 
L 535.056186 361.508221 
L 532.700305 369.006039 
L 530.116934 376.428548 
L 527.308474 383.768847 
L 524.277536 391.020113 
L 521.026938 398.175605 
L 517.559702 405.228669 
L 513.879051 412.17275 
L 509.988408 419.001391 
L 505.891389 425.708244 
L 501.591802 432.287073 
L 497.093646 438.731764 
L 492.401102 445.036324 
L 487.518533 451.194892 
L 482.450477 457.201742 
L 477.201647 463.051291 
L 471.776921 468.7381 
L 466.181344 474.256883 
L 460.420117 479.602508 
L 454.498596 484.770006 
L 448.422287 489.754572 
L 442.196838 494.551574 
L 435.828036 499.156552 
L 429.321804 503.565223 
L 422.684189 507.77349 
L 415.921362 511.77744 
L 409.039611 515.573351 
L 402.045333 519.157694 
L 394.94503 522.527137 
L 387.745304 525.678548 
L 380.452847 528.608995 
L 373.074441 531.315756 
L 365.616942 533.796314 
L 358.087286 536.048362 
L 350.492472 538.069807 
L 342.839561 539.85877 
L 335.135666 541.413588 
L 327.387952 542.732815 
L 319.603619 543.815224 
L 311.789906 544.65981 
L 303.954075 545.265787 
L 296.103413 545.632592 
L 288.245217 545.759883 
L 280.386794 545.647544 
L 272.535448 545.295677 
L 264.698479 544.70461 
L 256.883172 543.874893 
L 249.096794 542.807296 
L 241.346584 541.502813 
L 233.639745 539.962657 
L 225.983444 538.188258 
L 218.384797 536.181267 
L 210.850869 533.943549 
L 203.388665 531.477185 
L 196.005121 528.784468 
L 188.707103 525.867901 
L 181.501393 522.730195 
L 174.394693 519.374268 
L 167.393607 515.803239 
L 160.504646 512.020428 
L 153.734213 508.029353 
L 147.088603 503.833723 
L 140.573994 499.437439 
L 134.196443 494.844588 
L 127.961878 490.059439 
L 121.876095 485.086443 
L 115.944753 479.930221 
L 110.173366 474.595567 
L 104.567298 469.087441 
L 99.131762 463.410964 
L 93.871811 457.571413 
L 88.792336 451.574216 
L 83.898057 445.424949 
L 79.193526 439.129329 
L 74.683116 432.693209 
L 70.37102 426.122572 
L 66.261247 419.423526 
L 62.357618 412.6023 
L 58.663762 405.665235 
L 55.183113 398.618781 
L 51.918906 391.469487 
L 48.874177 384.224001 
L 46.051756 376.889058 
L 43.454266 369.471478 
L 41.084124 361.978157 
L 38.943531 354.41606 
L 37.034479 346.792218 
L 35.358742 339.113719 
L 33.917878 331.387701 
L 32.713226 323.621347 
L 31.745906 315.821877 
L 31.016818 307.996542 
L 30.526639 300.152616 
L 30.275826 292.297393 
L 30.264611 284.438174 
L 30.493004 276.582267 
L 30.960794 268.736974 
L 31.667545 260.90959 
L 32.612601 253.10739 
L 33.795083 245.33763 
L 35.213891 237.607531 
L 36.867707 229.924281 
L 38.754993 222.295021 
L 40.873995 214.726846 
L 43.222742 207.226791 
L 45.79905 199.801828 
L 48.600526 192.45886 
L 51.624564 185.204714 
L 54.868353 178.046133 
L 58.328878 170.989773 
L 62.00292 164.042194 
L 65.887066 157.209855 
L 69.977703 150.499107 
L 74.271028 143.91619 
L 78.763051 137.467223 
L 83.449595 131.158202 
L 88.326304 124.994992 
L 93.388643 118.983323 
L 98.631906 113.128783 
L 104.051219 107.436816 
L 109.641543 101.912713 
L 115.397682 96.561609 
L 121.314284 91.38848 
L 127.385849 86.398135 
L 133.606731 81.595213 
L 139.971149 76.984179 
L 146.473184 72.56932 
L 153.106793 68.35474 
L 159.865807 64.344358 
L 166.743944 60.541902 
L 173.734809 56.950906 
L 180.831903 53.57471 
L 188.028628 50.416452 
L 195.318293 47.479068 
L 202.694122 44.765289 
L 210.149257 42.277638 
L 217.676767 40.018427 
L 225.269655 37.989757 
L 232.920861 36.193515 
L 240.623273 34.631369 
L 248.369729 33.304772 
L 256.153028 32.214957 
L 263.965935 31.362939 
L 271.801185 30.749507 
L 279.651494 30.375234 
L 287.509566 30.240467 
L 287.509566 30.240467 
" clip-path="url(#pe9fb9e5580)" style="fill: none; stroke: #cc79a7; stroke-width: 0.25; stroke-linecap: square"/>
   </g>
   <g id="line2d_12">
    <path d="M 288 84.96 
L 295.221342 85.088458 
L 302.433546 85.47367 
L 309.627487 86.115148 
L 316.794062 87.012081 
L 323.924202 88.163333 
L 331.008885 89.567449 
L 338.039148 91.22265 
L 345.006093 93.126844 
L 351.900906 95.27762 
L 358.714862 97.672257 
L 365.439339 100.307724 
L 372.065828 103.180688 
L 378.585945 106.287512 
L 384.991439 109.624266 
L 391.274205 113.186727 
L 397.426293 116.970388 
L 403.439919 120.970461 
L 409.307473 125.181885 
L 415.021531 129.59933 
L 420.574863 134.217207 
L 425.960441 139.029673 
L 431.171451 144.030638 
L 436.2013 149.213774 
L 441.043622 154.572524 
L 445.692291 160.100105 
L 450.141424 165.789525 
L 454.385392 171.633583 
L 458.418824 177.624885 
L 462.236618 183.755851 
L 465.833941 190.018721 
L 469.206242 196.405572 
L 472.349255 202.908321 
L 475.259002 209.518741 
L 477.9318 216.228468 
L 480.364269 223.02901 
L 482.55333 229.911763 
L 484.496214 236.868018 
L 486.190461 243.888973 
L 487.633929 250.965744 
L 488.82479 258.089375 
L 489.761537 265.250855 
L 490.442987 272.441119 
L 490.868275 279.651071 
L 491.036864 286.871588 
L 490.948541 294.093532 
L 490.603418 301.307766 
L 490.001931 308.505161 
L 489.144841 315.67661 
L 488.033232 322.813038 
L 486.668512 329.905415 
L 485.052407 336.944768 
L 483.186963 343.922188 
L 481.074539 350.828848 
L 478.717808 357.656007 
L 476.119753 364.395027 
L 473.283661 371.037381 
L 470.213121 377.574663 
L 466.912017 383.998602 
L 463.384528 390.30107 
L 459.635116 396.474091 
L 455.668526 402.509855 
L 451.489777 408.400724 
L 447.104157 414.139244 
L 442.517214 419.718154 
L 437.734753 425.130395 
L 432.762826 430.369118 
L 427.607724 435.427695 
L 422.275969 440.299724 
L 416.774308 444.979041 
L 411.109703 449.459725 
L 405.289321 453.736106 
L 399.320527 457.802773 
L 393.210874 461.654581 
L 386.968093 465.286655 
L 380.600083 468.6944 
L 374.114901 471.873504 
L 367.520754 474.819943 
L 360.825986 477.529991 
L 354.039067 480.000217 
L 347.168586 482.227495 
L 340.223237 484.209009 
L 333.211806 485.94225 
L 326.143167 487.425025 
L 319.026264 488.655457 
L 311.870101 489.631991 
L 304.683735 490.35339 
L 297.476257 490.818742 
L 290.256789 491.027458 
L 283.034466 490.979273 
L 275.818425 490.674248 
L 268.617799 490.11277 
L 261.441697 489.295549 
L 254.299202 488.223619 
L 247.199349 486.898337 
L 240.151123 485.321379 
L 233.163443 483.494741 
L 226.245151 481.420734 
L 219.404999 479.101982 
L 212.651644 476.54142 
L 205.993632 473.742287 
L 199.439385 470.708125 
L 192.997199 467.442775 
L 186.675224 463.950366 
L 180.481461 460.23532 
L 174.423745 456.302335 
L 168.509744 452.15639 
L 162.746939 447.802729 
L 157.142623 443.246863 
L 151.703886 438.494555 
L 146.437612 433.551819 
L 141.350464 428.424909 
L 136.448878 423.120314 
L 131.739058 417.644743 
L 127.226961 412.005127 
L 122.918299 406.208602 
L 118.818522 400.262501 
L 114.932819 394.17435 
L 111.266106 387.95185 
L 107.823023 381.602877 
L 104.607927 375.135464 
L 101.624885 368.557794 
L 98.877673 361.87819 
L 96.369766 355.105105 
L 94.104339 348.247108 
L 92.084256 341.312878 
L 90.312076 334.311189 
L 88.790039 327.2509 
L 87.520073 320.140944 
L 86.503783 312.990319 
L 85.742456 305.808073 
L 85.237055 298.603293 
L 84.98822 291.385097 
L 84.996266 284.162617 
L 85.261182 276.944993 
L 85.782633 269.741357 
L 86.559959 262.560825 
L 87.592178 255.412482 
L 88.877982 248.305374 
L 90.415744 241.248493 
L 92.20352 234.250769 
L 94.239046 227.321057 
L 96.519747 220.468124 
L 99.042737 213.700643 
L 101.804824 207.027177 
L 104.802513 200.456169 
L 108.03201 193.995935 
L 111.48923 187.654648 
L 115.169797 181.440334 
L 119.069054 175.360854 
L 123.182068 169.423902 
L 127.503634 163.63699 
L 132.028284 158.007441 
L 136.750292 152.542378 
L 141.663684 147.248715 
L 146.762242 142.133152 
L 152.039515 137.202161 
L 157.488825 132.461983 
L 163.103278 127.918613 
L 168.875768 123.577803 
L 174.798992 119.445044 
L 180.865454 115.525565 
L 187.067479 111.824327 
L 193.397219 108.346012 
L 199.846665 105.095022 
L 206.407654 102.07547 
L 213.071887 99.291178 
L 219.83093 96.745668 
L 226.67623 94.442161 
L 233.599127 92.383573 
L 240.590859 90.572507 
L 247.64258 89.011256 
L 254.745368 87.701795 
L 261.890234 86.64578 
L 269.068138 85.844549 
L 276.269998 85.299115 
L 283.4867 85.010168 
L 287.61368 84.960368 
L 287.61368 84.960368 
" clip-path="url(#pe9fb9e5580)" style="fill: none; stroke: #cc79a7; stroke-width: 0.25; stroke-linecap: square"/>
   </g>
  </g>
 </g>
 <defs>
  <clipPath id="pe9fb9e5580">
   <path d="M 576 288 
C 576 250.180187 568.550321 212.728123 554.077305 177.787171 
C 539.604289 142.84622 518.3894 111.095894 491.646753 84.353247 
C 464.904106 57.6106 433.15378 36.395711 398.212829 21.922695 
C 363.271877 7.449679 325.819813 0 288 0 
C 250.180187 0 212.728123 7.449679 177.787171 21.922695 
C 142.84622 36.395711 111.095894 57.6106 84.353247 84.353247 
C 57.6106 111.095894 36.395711 142.84622 21.922695 177.787171 
C 7.449679 212.728123 0 250.180187 0 288 
C 0 325.819813 7.449679 363.271877 21.922695 398.212829 
C 36.395711 433.15378 57.6106 464.904106 84.353247 491.646753 
C 111.095894 518.3894 142.84622 539.604289 177.787171 554.077305 
C 212.728123 568.550321 250.180187 576 288 576 
C 325.819813 576 363.271877 568.550321 398.212829 554.077305 
C 433.15378 539.604289 464.904106 518.3894 491.646753 491.646753 
C 518.3894 464.904106 539.604289 433.15378 554.077305 398.212829 
C 568.550321 363.271877 576 325.819813 576 288 
M 288 288 
C 288 288 288 288 288 288 
C 288 288 288 288 288 288 
C 288 288 288 288 288 288 
C 288 288 288 288 288 288 
C 288 288 288 288 288 288 
C 288 288 288 288 288 288 
C 288 288 288 288 288 288 
C 288 288 288 288 288 288 
C 288 288 288 288 288 288 
C 288 288 288 288 288 288 
C 288 288 288 288 288 288 
C 288 288 288 288 288 288 
C 288 288 288 288 288 288 
C 288 288 288 288 288 288 
C 288 288 288 288 288 288 
C 288 288 288 288 288 288 
z
"/>
  </clipPath>
 </defs>
</svg>
