<?xml version="1.0" encoding="utf-8" standalone="no"?>
<!DOCTYPE svg PUBLIC "-//W3C//DTD SVG 1.1//EN"
  "http://www.w3.org/Graphics/SVG/1.1/DTD/svg11.dtd">
<svg xmlns:xlink="http://www.w3.org/1999/xlink" width="576pt" height="576pt" viewBox="0 0 576 576" xmlns="http://www.w3.org/2000/svg" version="1.1">
 <metadata>
  <rdf:RDF xmlns:dc="http://purl.org/dc/elements/1.1/" xmlns:cc="http://creativecommons.org/ns#" xmlns:rdf="http://www.w3.org/1999/02/22-rdf-syntax-ns#">
   <cc:Work>
    <dc:type rdf:resource="http://purl.org/dc/dcmitype/StillImage"/>
    <dc:date>2024-03-11T12:00:29.512216</dc:date>
    <dc:format>image/svg+xml</dc:format>
    <dc:creator>
     <cc:Agent>
      <dc:title>Matplotlib v3.5.1, https://matplotlib.org/</dc:title>
     </cc:Agent>
    </dc:creator>
   </cc:Work>
  </rdf:RDF>
 </metadata>
 <defs>
  <style type="text/css">*{stroke-linejoin: round; stroke-linecap: butt}</style>
 </defs>
 <g id="figure_1">
  <g id="patch_1">
   <path d="M 0 576 
L 576 576 
L 576 0 
L 0 0 
L 0 576 
z
" style="fill: none"/>
  </g>
  <g id="axes_1">
   <g id="patch_2">
    <path d="M 576 288 
C 576 250.180187 568.550321 212.728123 554.077305 177.787171 
C 539.604289 142.84622 518.3894 111.095894 491.646753 84.353247 
C 464.904106 57.6106 433.15378 36.395711 398.212829 21.922695 
C 363.271877 7.449679 325.819813 0 288 0 
C 250.180187 0 212.728123 7.449679 177.787171 21.922695 
C 142.84622 36.395711 111.095894 57.6106 84.353247 84.353247 
C 57.6106 111.095894 36.395711 142.84622 21.922695 177.787171 
C 7.449679 212.728123 0 250.180187 0 288 
C 0 325.819813 7.449679 363.271877 21.922695 398.212829 
C 36.395711 433.15378 57.6106 464.904106 84.353247 491.646753 
C 111.095894 518.3894 142.84622 539.604289 177.787171 554.077305 
C 212.728123 568.550321 250.180187 576 288 576 
C 325.819813 576 363.271877 568.550321 398.212829 554.077305 
C 433.15378 539.604289 464.904106 518.3894 491.646753 491.646753 
C 518.3894 464.904106 539.604289 433.15378 554.077305 398.212829 
C 568.550321 363.271877 576 325.819813 576 288 
M 288 288 
C 288 288 288 288 288 288 
C 288 288 288 288 288 288 
C 288 288 288 288 288 288 
C 288 288 288 288 288 288 
C 288 288 288 288 288 288 
C 288 288 288 288 288 288 
C 288 288 288 288 288 288 
C 288 288 288 288 288 288 
C 288 288 288 288 288 288 
C 288 288 288 288 288 288 
C 288 288 288 288 288 288 
C 288 288 288 288 288 288 
C 288 288 288 288 288 288 
C 288 288 288 288 288 288 
C 288 288 288 288 288 288 
C 288 288 288 288 288 288 
M 576 288 
L 576 288 
z
" style="fill: none"/>
   </g>
   <g id="patch_3">
    <path d="M 288 144 
C 306.909907 144 325.635938 147.724839 343.106414 154.961347 
C 360.57689 162.197855 376.452053 172.8053 389.823376 186.176624 
C 403.1947 199.547947 413.802145 215.42311 421.038653 232.893586 
C 428.275161 250.364062 432 269.090093 432 288 
C 432 306.909907 428.275161 325.635938 421.038653 343.106414 
C 413.802145 360.57689 403.1947 376.452053 389.823376 389.823376 
C 376.452053 403.1947 360.57689 413.802145 343.106414 421.038653 
C 325.635938 428.275161 306.909907 432 288 432 
C 269.090093 432 250.364062 428.275161 232.893586 421.038653 
C 215.42311 413.802145 199.547947 403.1947 186.176624 389.823376 
C 172.8053 376.452053 162.197855 360.57689 154.961347 343.106414 
C 147.724839 325.635938 144 306.909907 144 288 
C 144 269.090093 147.724839 250.364062 154.961347 232.893586 
C 162.197855 215.42311 172.8053 199.547947 186.176624 186.176624 
C 199.547947 172.8053 215.42311 162.197855 232.893586 154.961347 
C 250.364062 147.724839 269.090093 144 288 144 
L 288 129.6 
C 267.199103 129.6 246.600468 133.697323 227.382944 141.657482 
C 208.165421 149.617641 190.702741 161.28583 175.994286 175.994286 
C 161.28583 190.702741 149.617641 208.165421 141.657482 227.382944 
C 133.697323 246.600468 129.6 267.199103 129.6 288 
C 129.6 308.800897 133.697323 329.399532 141.657482 348.617056 
C 149.617641 367.834579 161.28583 385.297259 175.994286 400.005714 
C 190.702741 414.71417 208.165421 426.382359 227.382944 434.342518 
C 246.600468 442.302677 267.199103 446.4 288 446.4 
C 308.800897 446.4 329.399532 442.302677 348.617056 434.342518 
C 367.834579 426.382359 385.297259 414.71417 400.005714 400.005714 
C 414.71417 385.297259 426.382359 367.834579 434.342518 348.617056 
C 442.302677 329.399532 446.4 308.800897 446.4 288 
C 446.4 267.199103 442.302677 246.600468 434.342518 227.382944 
C 426.382359 208.165421 414.71417 190.702741 400.005714 175.994286 
C 385.297259 161.28583 367.834579 149.617641 348.617056 141.657482 
C 329.399532 133.697323 308.800897 129.6 288 129.6 
L 288 144 
z
" clip-path="url(#pf0a48747aa)" style="fill: none"/>
   </g>
   <g id="patch_4">
    <path d="M 294.631649 57.69546 
C 294.826715 57.701077 295.021773 57.706942 295.216824 57.713054 
C 295.411875 57.719167 295.606918 57.725527 295.801953 57.732135 
L 296.777197 28.948652 
C 296.557783 28.941218 296.33836 28.934063 296.118927 28.927186 
C 295.899495 28.920309 295.680054 28.913711 295.460605 28.907392 
z
" clip-path="url(#pf0a48747aa)" style="fill: #909090; stroke: #303030; stroke-width: 0.1; stroke-linejoin: miter"/>
   </g>
   <g id="PathCollection_1">
    <defs>
     <path id="m93066e7bc4" d="M -3.883634 -1.243787 
L -3.594907 -1.243787 
L -4.070428 1.198093 
L -4.359156 1.198093 
L -3.883634 -1.243787 
z
M -2.557936 -0.935979 
Q -2.802476 -0.935979 -2.926001 -0.694954 
Q -3.049024 -0.454432 -3.049024 0.029124 
Q -3.049024 0.510671 -2.926001 0.751695 
Q -2.802476 0.99272 -2.557936 0.99272 
Q -2.311388 0.99272 -2.188365 0.751695 
Q -2.06484 0.510671 -2.06484 0.029124 
Q -2.06484 -0.454432 -2.188365 -0.694954 
Q -2.311388 -0.935979 -2.557936 -0.935979 
z
M -2.557936 -1.187046 
Q -2.163761 -1.187046 -1.955877 -0.875221 
Q -1.747993 -0.563897 -1.747993 0.029124 
Q -1.747993 0.620638 -1.955877 0.932464 
Q -2.163761 1.243787 -2.557936 1.243787 
Q -2.95161 1.243787 -3.159493 0.932464 
Q -3.367377 0.620638 -3.367377 0.029124 
Q -3.367377 -0.563897 -3.159493 -0.875221 
Q -2.95161 -1.187046 -2.557936 -1.187046 
z
M -0.991841 -1.144867 
L -0.181898 -1.144867 
Q 0.147502 -1.144867 0.310696 -1.022346 
Q 0.473889 -0.899825 0.473889 -0.653779 
Q 0.473889 -0.427819 0.333292 -0.263621 
Q 0.193196 -0.099423 -0.034271 -0.065277 
Q 0.160055 -0.02109 0.257469 0.102938 
Q 0.354884 0.226965 0.354884 0.433844 
Q 0.354884 0.786845 0.093271 0.99272 
Q -0.167838 1.198093 -0.621266 1.198093 
L -1.448282 1.198093 
L -0.991841 -1.144867 
z
M -0.915015 0.079337 
L -1.081221 0.937485 
L -0.571053 0.937485 
Q -0.283832 0.937485 -0.128672 0.805926 
Q 0.026488 0.673865 0.026488 0.433844 
Q 0.026488 0.248557 -0.07645 0.164198 
Q -0.178885 0.079337 -0.406352 0.079337 
L -0.915015 0.079337 
z
M -0.728221 -0.884259 
L -0.866308 -0.178258 
L -0.393799 -0.178258 
Q -0.141225 -0.178258 0.000879 -0.287723 
Q 0.142983 -0.397691 0.142983 -0.592519 
Q 0.142983 -0.744666 0.047075 -0.814462 
Q -0.048833 -0.884259 -0.258725 -0.884259 
L -0.728221 -0.884259 
z
M 1.017011 -1.144867 
L 2.2613 -1.144867 
L 2.2613 -0.877731 
L 1.307245 -0.877731 
L 1.307245 -0.303791 
Q 1.376037 -0.327392 1.444829 -0.338941 
Q 1.514124 -0.35049 1.583419 -0.35049 
Q 1.975586 -0.35049 2.204559 -0.135576 
Q 2.434035 0.079337 2.434035 0.446398 
Q 2.434035 0.824505 2.198533 1.034397 
Q 1.963032 1.243787 1.534712 1.243787 
Q 1.387084 1.243787 1.233933 1.218681 
Q 1.081284 1.193574 0.91809 1.14336 
L 0.91809 0.824505 
Q 1.05919 0.901332 1.20983 0.938992 
Q 1.360471 0.976652 1.528184 0.976652 
Q 1.799839 0.976652 1.958011 0.834046 
Q 2.116685 0.691439 2.116685 0.446398 
Q 2.116685 0.201858 1.958011 0.059252 
Q 1.799839 -0.083856 1.528184 -0.083856 
Q 1.401144 -0.083856 1.274606 -0.055737 
Q 1.14857 -0.027617 1.017011 0.032137 
L 1.017011 -1.144867 
z
M 4.441004 0.19533 
L 4.244669 1.198093 
L 3.955942 1.198093 
L 4.009168 0.93146 
Q 3.882128 1.088126 3.719436 1.165956 
Q 3.557247 1.243787 3.357899 1.243787 
Q 3.133445 1.243787 2.989835 1.106705 
Q 2.846726 0.96912 2.846726 0.754206 
Q 2.846726 0.446398 3.09227 0.267638 
Q 3.337814 0.088878 3.769148 0.088878 
L 4.170855 0.088878 
L 4.186421 0.011549 
Q 4.189936 -0.001004 4.191443 -0.015566 
Q 4.192949 -0.03063 4.192949 -0.061763 
Q 4.192949 -0.201858 4.078965 -0.279187 
Q 3.965482 -0.357018 3.759607 -0.357018 
Q 3.618507 -0.357018 3.469875 -0.320864 
Q 3.321746 -0.28471 3.16508 -0.212403 
L 3.215293 -0.479539 
Q 3.378487 -0.540799 3.534651 -0.570927 
Q 3.690815 -0.601557 3.836434 -0.601557 
Q 4.147255 -0.601557 4.309444 -0.466483 
Q 4.472136 -0.331911 4.472136 -0.074316 
Q 4.472136 -0.022596 4.464102 0.047201 
Q 4.45657 0.116997 4.441004 0.19533 
z
M 4.128676 0.314838 
L 3.839949 0.314838 
Q 3.484939 0.314838 3.314716 0.409742 
Q 3.144492 0.504645 3.144492 0.703993 
Q 3.144492 0.84208 3.231361 0.920413 
Q 3.318733 0.998746 3.472386 0.998746 
Q 3.707887 0.998746 3.883634 0.830028 
Q 4.059381 0.661311 4.116123 0.379112 
L 4.128676 0.314838 
z
"/>
    </defs>
    <g clip-path="url(#pf0a48747aa)">
     <use xlink:href="#m93066e7bc4" x="295.543502" y="26.028586"/>
    </g>
   </g>
   <g id="patch_5">
    <path d="M 240.928095 121.734923 
C 241.06892 121.695054 241.209796 121.655363 241.350721 121.615852 
C 241.491647 121.57634 241.632623 121.537008 241.773649 121.497854 
L 234.069257 93.747497 
C 233.904727 93.793176 233.740255 93.839064 233.575842 93.88516 
C 233.411428 93.931257 233.247073 93.977563 233.082777 94.024077 
z
" clip-path="url(#pf0a48747aa)" style="fill: #2b2b2b; stroke: #303030; stroke-width: 0.1; stroke-linejoin: miter"/>
   </g>
   <g id="PathCollection_2">
    <defs>
     <path id="md2d6ad866d" d="M -3.201193 -0.549756 
L -3.242055 -0.33981 
L -3.780773 -0.33981 
L -3.955493 0.552574 
Q -3.964416 0.602359 -3.968643 0.636176 
Q -3.972871 0.669993 -3.972871 0.68878 
Q -3.972871 0.782715 -3.916509 0.825455 
Q -3.860148 0.868196 -3.735215 0.868196 
L -3.462333 0.868196 
L -3.507891 1.09411 
L -3.766213 1.09411 
Q -4.006687 1.09411 -4.125046 1.000175 
Q -4.242934 0.90624 -4.242934 0.715551 
Q -4.242934 0.681734 -4.238707 0.641342 
Q -4.23448 0.60095 -4.225556 0.552574 
L -4.050837 -0.33981 
L -4.280039 -0.33981 
L -4.237298 -0.549756 
L -4.012793 -0.549756 
L -3.921676 -1.016613 
L -3.651612 -1.016613 
L -3.74132 -0.549756 
L -3.201193 -0.549756 
z
M -2.338222 -0.902012 
Q -2.566955 -0.902012 -2.682495 -0.676568 
Q -2.797565 -0.451593 -2.797565 0.000705 
Q -2.797565 0.451124 -2.682495 0.676568 
Q -2.566955 0.902012 -2.338222 0.902012 
Q -2.107612 0.902012 -1.992541 0.676568 
Q -1.877001 0.451124 -1.877001 0.000705 
Q -1.877001 -0.451593 -1.992541 -0.676568 
Q -2.107612 -0.902012 -2.338222 -0.902012 
z
M -2.338222 -1.13685 
Q -1.969527 -1.13685 -1.775081 -0.845182 
Q -1.580635 -0.553983 -1.580635 0.000705 
Q -1.580635 0.553983 -1.775081 0.845651 
Q -1.969527 1.13685 -2.338222 1.13685 
Q -2.706448 1.13685 -2.900894 0.845651 
Q -3.09534 0.553983 -3.09534 0.000705 
Q -3.09534 -0.553983 -2.900894 -0.845182 
Q -2.706448 -1.13685 -2.338222 -1.13685 
z
M 0.259966 0.766746 
L 0.374566 0.192802 
L -0.112957 0.192802 
L -0.067398 -0.05096 
L 0.710385 -0.05096 
L 0.521105 0.913754 
Q 0.32572 1.02084 0.095109 1.07908 
Q -0.135032 1.13685 -0.368461 1.13685 
Q -0.780836 1.13685 -1.013326 0.908118 
Q -1.245815 0.678916 -1.245815 0.270768 
Q -1.245815 -0.068338 -1.104443 -0.374097 
Q -0.962601 -0.680325 -0.713203 -0.884634 
Q -0.556331 -1.011917 -0.36987 -1.074383 
Q -0.183408 -1.13685 0.043915 -1.13685 
Q 0.249633 -1.13685 0.437973 -1.084716 
Q 0.626782 -1.032582 0.798684 -0.928314 
L 0.738565 -0.612692 
Q 0.606117 -0.750777 0.428579 -0.823577 
Q 0.251042 -0.896376 0.05002 -0.896376 
Q -0.183408 -0.896376 -0.360946 -0.807138 
Q -0.538483 -0.718369 -0.677977 -0.532378 
Q -0.796805 -0.373627 -0.865378 -0.158516 
Q -0.933481 0.056596 -0.933481 0.279692 
Q -0.933481 0.58639 -0.776609 0.741383 
Q -0.619268 0.895907 -0.308342 0.895907 
Q -0.15241 0.895907 -0.00728 0.863029 
Q 0.13785 0.829682 0.259966 0.766746 
z
M 2.084363 -0.839076 
L 1.335699 0.330887 
L 2.084363 0.330887 
L 2.084363 -0.839076 
z
M 2.006396 -1.097398 
L 2.379319 -1.097398 
L 2.379319 0.330887 
L 2.692123 0.330887 
L 2.692123 0.577466 
L 2.379319 0.577466 
L 2.379319 1.09411 
L 2.084363 1.09411 
L 2.084363 0.577466 
L 1.095225 0.577466 
L 1.095225 0.291434 
L 2.006396 -1.097398 
z
M 4.472136 -0.486819 
L 4.418123 -0.219573 
Q 4.3209 -0.290025 4.211466 -0.325251 
Q 4.102501 -0.360476 3.985082 -0.360476 
Q 3.855921 -0.360476 3.738972 -0.314918 
Q 3.622492 -0.269359 3.543117 -0.185757 
Q 3.416774 -0.058005 3.347732 0.113896 
Q 3.279159 0.285328 3.279159 0.468971 
Q 3.279159 0.690658 3.390003 0.799153 
Q 3.500846 0.907649 3.72676 0.907649 
Q 3.838074 0.907649 3.963477 0.873832 
Q 4.08935 0.840015 4.225556 0.772852 
L 4.174361 1.039627 
Q 4.056943 1.088004 3.932948 1.112427 
Q 3.808954 1.13685 3.678384 1.13685 
Q 3.35102 1.13685 3.174891 0.973403 
Q 2.998763 0.809486 2.998763 0.505606 
Q 2.998763 0.250102 3.09035 0.034991 
Q 3.181936 -0.180121 3.362762 -0.351552 
Q 3.485817 -0.468971 3.651612 -0.52909 
Q 3.817878 -0.589208 4.014202 -0.589208 
Q 4.128803 -0.589208 4.241525 -0.563376 
Q 4.354717 -0.538014 4.472136 -0.486819 
z
"/>
    </defs>
    <g clip-path="url(#pf0a48747aa)">
     <use xlink:href="#md2d6ad866d" x="241.712786" y="124.505963"/>
    </g>
   </g>
   <g id="patch_6">
    <path d="M 264.615716 58.789758 
C 264.809855 58.769951 265.004019 58.750392 265.198207 58.731079 
C 265.392396 58.711766 265.586609 58.6927 265.780846 58.67388 
L 263.003452 30.008115 
C 262.784935 30.029287 262.566445 30.050737 262.347983 30.072464 
C 262.129521 30.094191 261.911086 30.116195 261.69268 30.138477 
z
" clip-path="url(#pf0a48747aa)" style="fill: #868686; stroke: #303030; stroke-width: 0.1; stroke-linejoin: miter"/>
   </g>
   <g id="PathCollection_3">
    <defs>
     <path id="m651e107a2d" d="M -2.937254 0.148443 
L -3.111814 1.039997 
L -3.368521 1.039997 
L -3.321197 0.802934 
Q -3.434148 0.942225 -3.578797 1.011424 
Q -3.722999 1.080623 -3.900238 1.080623 
Q -4.0998 1.080623 -4.227483 0.958743 
Q -4.354721 0.836417 -4.354721 0.645338 
Q -4.354721 0.371667 -4.136408 0.212732 
Q -3.918096 0.053797 -3.534599 0.053797 
L -3.177442 0.053797 
L -3.163602 -0.014956 
Q -3.160477 -0.026117 -3.159137 -0.039064 
Q -3.157798 -0.052457 -3.157798 -0.080137 
Q -3.157798 -0.204696 -3.259141 -0.273448 
Q -3.360038 -0.342648 -3.543081 -0.342648 
Q -3.668533 -0.342648 -3.800681 -0.310503 
Q -3.932382 -0.278359 -4.071674 -0.214071 
L -4.027029 -0.45158 
Q -3.881934 -0.506047 -3.743089 -0.532834 
Q -3.604244 -0.560067 -3.474775 -0.560067 
Q -3.198425 -0.560067 -3.054223 -0.439973 
Q -2.909574 -0.320325 -2.909574 -0.091298 
Q -2.909574 -0.045314 -2.916717 0.016742 
Q -2.923414 0.078798 -2.937254 0.148443 
z
M -3.214943 0.254698 
L -3.47165 0.254698 
Q -3.787287 0.254698 -3.938633 0.339076 
Q -4.089978 0.423454 -4.089978 0.600693 
Q -4.089978 0.723466 -4.012743 0.793112 
Q -3.935061 0.862757 -3.798449 0.862757 
Q -3.589065 0.862757 -3.432809 0.712751 
Q -3.276553 0.562746 -3.226104 0.311843 
L -3.214943 0.254698 
z
M -1.813158 -0.8574 
Q -2.030577 -0.8574 -2.140403 -0.643106 
Q -2.249782 -0.429258 -2.249782 0.00067 
Q -2.249782 0.428812 -2.140403 0.643106 
Q -2.030577 0.8574 -1.813158 0.8574 
Q -1.593953 0.8574 -1.484573 0.643106 
Q -1.374748 0.428812 -1.374748 0.00067 
Q -1.374748 -0.429258 -1.484573 -0.643106 
Q -1.593953 -0.8574 -1.813158 -0.8574 
z
M -1.813158 -1.080623 
Q -1.462697 -1.080623 -1.277869 -0.80338 
Q -1.09304 -0.526583 -1.09304 0.00067 
Q -1.09304 0.526583 -1.277869 0.803827 
Q -1.462697 1.080623 -1.813158 1.080623 
Q -2.163172 1.080623 -2.348 0.803827 
Q -2.532829 0.526583 -2.532829 0.00067 
Q -2.532829 -0.526583 -2.348 -0.80338 
Q -2.163172 -1.080623 -1.813158 -1.080623 
z
M 1.08199 -0.882401 
L 1.024845 -0.585514 
Q 0.890911 -0.720787 0.740905 -0.786415 
Q 0.5909 -0.852043 0.416339 -0.852043 
Q 0.177937 -0.852043 -0.002874 -0.737306 
Q -0.183238 -0.623016 -0.314493 -0.388631 
Q -0.398425 -0.238179 -0.442624 -0.069869 
Q -0.486375 0.098441 -0.486375 0.268537 
Q -0.486375 0.552924 -0.339048 0.702483 
Q -0.191721 0.851596 0.088647 0.851596 
Q 0.282405 0.851596 0.460984 0.78954 
Q 0.639562 0.727484 0.808319 0.603372 
L 0.743138 0.936867 
Q 0.57706 1.007852 0.40741 1.044015 
Q 0.237761 1.080623 0.067665 1.080623 
Q -0.332798 1.080623 -0.558253 0.863204 
Q -0.783262 0.645338 -0.783262 0.257376 
Q -0.783262 0.009152 -0.697544 -0.230589 
Q -0.611827 -0.470778 -0.451106 -0.669 
Q -0.28101 -0.879722 -0.062698 -0.980173 
Q 0.155614 -1.080623 0.445804 -1.080623 
Q 0.624383 -1.080623 0.784211 -1.031068 
Q 0.944039 -0.981512 1.08199 -0.882401 
z
M 1.999772 0.050672 
Q 1.798872 0.050672 1.683688 0.158265 
Q 1.568952 0.265859 1.568952 0.453813 
Q 1.568952 0.642213 1.683688 0.749807 
Q 1.798872 0.8574 1.999772 0.8574 
Q 2.200673 0.8574 2.316303 0.74936 
Q 2.432379 0.640874 2.432379 0.453813 
Q 2.432379 0.265859 2.317196 0.158265 
Q 2.202459 0.050672 1.999772 0.050672 
z
M 1.718065 -0.068976 
Q 1.536808 -0.113621 1.435464 -0.237733 
Q 1.334567 -0.362291 1.334567 -0.54087 
Q 1.334567 -0.790433 1.512253 -0.935528 
Q 1.690385 -1.080623 1.999772 -1.080623 
Q 2.310945 -1.080623 2.488185 -0.935528 
Q 2.665424 -0.790433 2.665424 -0.54087 
Q 2.665424 -0.362291 2.56408 -0.237733 
Q 2.463184 -0.113621 2.283266 -0.068976 
Q 2.486845 -0.021653 2.600243 0.116746 
Q 2.714086 0.254698 2.714086 0.453813 
Q 2.714086 0.75695 2.529258 0.91901 
Q 2.344429 1.080623 1.999772 1.080623 
Q 1.655562 1.080623 1.470287 0.91901 
Q 1.285458 0.75695 1.285458 0.453813 
Q 1.285458 0.254698 1.399749 0.116746 
Q 1.514485 -0.021653 1.718065 -0.068976 
z
M 1.614936 -0.514083 
Q 1.614936 -0.352469 1.715833 -0.261841 
Q 1.817176 -0.171212 1.999772 -0.171212 
Q 2.181476 -0.171212 2.283712 -0.261841 
Q 2.386395 -0.352469 2.386395 -0.514083 
Q 2.386395 -0.676143 2.283712 -0.766771 
Q 2.181476 -0.8574 1.999772 -0.8574 
Q 1.817176 -0.8574 1.715833 -0.766771 
Q 1.614936 -0.676143 1.614936 -0.514083 
z
M 4.444456 0.148443 
L 4.269896 1.039997 
L 4.013189 1.039997 
L 4.060512 0.802934 
Q 3.947562 0.942225 3.802913 1.011424 
Q 3.658711 1.080623 3.481472 1.080623 
Q 3.28191 1.080623 3.154227 0.958743 
Q 3.026989 0.836417 3.026989 0.645338 
Q 3.026989 0.371667 3.245302 0.212732 
Q 3.463614 0.053797 3.847111 0.053797 
L 4.204268 0.053797 
L 4.218108 -0.014956 
Q 4.221233 -0.026117 4.222572 -0.039064 
Q 4.223912 -0.052457 4.223912 -0.080137 
Q 4.223912 -0.204696 4.122569 -0.273448 
Q 4.021672 -0.342648 3.838629 -0.342648 
Q 3.713177 -0.342648 3.581029 -0.310503 
Q 3.449328 -0.278359 3.310036 -0.214071 
L 3.354681 -0.45158 
Q 3.499776 -0.506047 3.638621 -0.532834 
Q 3.777466 -0.560067 3.906935 -0.560067 
Q 4.183285 -0.560067 4.327487 -0.439973 
Q 4.472136 -0.320325 4.472136 -0.091298 
Q 4.472136 -0.045314 4.464993 0.016742 
Q 4.458296 0.078798 4.444456 0.148443 
z
M 4.166767 0.254698 
L 3.91006 0.254698 
Q 3.594423 0.254698 3.443077 0.339076 
Q 3.291732 0.423454 3.291732 0.600693 
Q 3.291732 0.723466 3.368967 0.793112 
Q 3.446649 0.862757 3.583261 0.862757 
Q 3.792645 0.862757 3.948901 0.712751 
Q 4.105157 0.562746 4.155606 0.311843 
L 4.166767 0.254698 
z
"/>
    </defs>
    <g clip-path="url(#pf0a48747aa)">
     <use xlink:href="#m651e107a2d" x="261.400637" y="27.273323"/>
    </g>
   </g>
   <g id="patch_7">
    <path d="M 333.846365 62.207461 
C 334.03761 62.246292 334.228804 62.285367 334.419949 62.324684 
C 334.611094 62.364001 334.802189 62.403561 334.993233 62.443364 
L 340.867387 34.248785 
C 340.652462 34.204006 340.437481 34.159501 340.222443 34.115269 
C 340.007405 34.071037 339.792311 34.027079 339.577161 33.983393 
z
" clip-path="url(#pf0a48747aa)" style="fill: #898989; stroke: #303030; stroke-width: 0.1; stroke-linejoin: miter"/>
   </g>
   <g id="PathCollection_4">
    <defs>
     <path id="m811508a68f" d="M -3.173623 0.125583 
L -3.321302 0.879839 
L -3.538476 0.879839 
L -3.49844 0.679283 
Q -3.593997 0.797124 -3.71637 0.855666 
Q -3.838365 0.914209 -3.98831 0.914209 
Q -4.157139 0.914209 -4.26516 0.811098 
Q -4.372802 0.70761 -4.372802 0.545957 
Q -4.372802 0.31443 -4.18811 0.179971 
Q -4.003417 0.045512 -3.678978 0.045512 
L -3.376823 0.045512 
L -3.365114 -0.012653 
Q -3.36247 -0.022095 -3.361337 -0.033048 
Q -3.360204 -0.044379 -3.360204 -0.067796 
Q -3.360204 -0.173173 -3.445941 -0.231338 
Q -3.5313 -0.28988 -3.686154 -0.28988 
Q -3.792286 -0.28988 -3.904084 -0.262686 
Q -4.015504 -0.235492 -4.133344 -0.181104 
L -4.095575 -0.382038 
Q -3.972824 -0.428116 -3.855361 -0.450778 
Q -3.737898 -0.473817 -3.628367 -0.473817 
Q -3.394574 -0.473817 -3.272579 -0.372218 
Q -3.150206 -0.270996 -3.150206 -0.077238 
Q -3.150206 -0.038336 -3.156249 0.014164 
Q -3.161915 0.066663 -3.173623 0.125583 
z
M -3.408549 0.215475 
L -3.625723 0.215475 
Q -3.892753 0.215475 -4.020791 0.286859 
Q -4.14883 0.358243 -4.14883 0.508188 
Q -4.14883 0.612054 -4.083489 0.670974 
Q -4.01777 0.729894 -3.902195 0.729894 
Q -3.725057 0.729894 -3.592864 0.602989 
Q -3.460671 0.476084 -3.417991 0.263819 
L -3.408549 0.215475 
z
M -2.222636 -0.725362 
Q -2.406573 -0.725362 -2.499486 -0.544069 
Q -2.592021 -0.363153 -2.592021 0.000567 
Q -2.592021 0.362775 -2.499486 0.544069 
Q -2.406573 0.725362 -2.222636 0.725362 
Q -2.037188 0.725362 -1.944653 0.544069 
Q -1.85174 0.362775 -1.85174 0.000567 
Q -1.85174 -0.363153 -1.944653 -0.544069 
Q -2.037188 -0.725362 -2.222636 -0.725362 
z
M -2.222636 -0.914209 
Q -1.926146 -0.914209 -1.769781 -0.679661 
Q -1.613415 -0.44549 -1.613415 0.000567 
Q -1.613415 0.44549 -1.769781 0.680038 
Q -1.926146 0.914209 -2.222636 0.914209 
Q -2.518749 0.914209 -2.675114 0.680038 
Q -2.831479 0.44549 -2.831479 0.000567 
Q -2.831479 -0.44549 -2.675114 -0.679661 
Q -2.518749 -0.914209 -2.222636 -0.914209 
z
M -1.044655 -0.882483 
L 0.069543 -0.882483 
L 0.03064 -0.681549 
L -0.846366 -0.681549 
L -0.947588 -0.159954 
L -0.106085 -0.159954 
L -0.144987 0.040602 
L -0.986868 0.040602 
L -1.109618 0.679283 
L -0.212595 0.679283 
L -0.251497 0.879839 
L -1.387979 0.879839 
L -1.044655 -0.882483 
z
M 0.374248 0.679283 
L 0.763651 0.679283 
L 0.763651 -0.665308 
L 0.339878 -0.580327 
L 0.339878 -0.797501 
L 0.761384 -0.882483 
L 0.999709 -0.882483 
L 0.999709 0.679283 
L 1.389112 0.679283 
L 1.389112 0.879839 
L 0.374248 0.879839 
L 0.374248 0.679283 
z
M 2.380512 -0.725362 
Q 2.196575 -0.725362 2.103663 -0.544069 
Q 2.011127 -0.363153 2.011127 0.000567 
Q 2.011127 0.362775 2.103663 0.544069 
Q 2.196575 0.725362 2.380512 0.725362 
Q 2.56596 0.725362 2.658495 0.544069 
Q 2.751408 0.362775 2.751408 0.000567 
Q 2.751408 -0.363153 2.658495 -0.544069 
Q 2.56596 -0.725362 2.380512 -0.725362 
z
M 2.380512 -0.914209 
Q 2.677002 -0.914209 2.833368 -0.679661 
Q 2.989733 -0.44549 2.989733 0.000567 
Q 2.989733 0.44549 2.833368 0.680038 
Q 2.677002 0.914209 2.380512 0.914209 
Q 2.0844 0.914209 1.928035 0.680038 
Q 1.771669 0.44549 1.771669 0.000567 
Q 1.771669 -0.44549 1.928035 -0.679661 
Q 2.0844 -0.914209 2.380512 -0.914209 
z
M 4.448719 0.125583 
L 4.30104 0.879839 
L 4.083866 0.879839 
L 4.123902 0.679283 
Q 4.028345 0.797124 3.905972 0.855666 
Q 3.783977 0.914209 3.634032 0.914209 
Q 3.465203 0.914209 3.357183 0.811098 
Q 3.24954 0.70761 3.24954 0.545957 
Q 3.24954 0.31443 3.434232 0.179971 
Q 3.618925 0.045512 3.943364 0.045512 
L 4.245519 0.045512 
L 4.257228 -0.012653 
Q 4.259872 -0.022095 4.261005 -0.033048 
Q 4.262138 -0.044379 4.262138 -0.067796 
Q 4.262138 -0.173173 4.176401 -0.231338 
Q 4.091042 -0.28988 3.936188 -0.28988 
Q 3.830056 -0.28988 3.718258 -0.262686 
Q 3.606838 -0.235492 3.488998 -0.181104 
L 3.526767 -0.382038 
Q 3.649518 -0.428116 3.766981 -0.450778 
Q 3.884444 -0.473817 3.993975 -0.473817 
Q 4.227768 -0.473817 4.349763 -0.372218 
Q 4.472136 -0.270996 4.472136 -0.077238 
Q 4.472136 -0.038336 4.466093 0.014164 
Q 4.460427 0.066663 4.448719 0.125583 
z
M 4.213793 0.215475 
L 3.996619 0.215475 
Q 3.729589 0.215475 3.601551 0.286859 
Q 3.473512 0.358243 3.473512 0.508188 
Q 3.473512 0.612054 3.538853 0.670974 
Q 3.604572 0.729894 3.720147 0.729894 
Q 3.897285 0.729894 4.029478 0.602989 
Q 4.161671 0.476084 4.204351 0.263819 
L 4.213793 0.215475 
z
"/>
    </defs>
    <g clip-path="url(#pf0a48747aa)">
     <use xlink:href="#m811508a68f" x="340.150249" y="31.160988"/>
    </g>
   </g>
   <g id="patch_8">
    <path d="M 200.201575 74.984516 
C 200.381997 74.910151 200.562513 74.836016 200.743124 74.76211 
C 200.923734 74.688205 201.104439 74.614528 201.285236 74.541082 
L 190.445891 47.858717 
C 190.242494 47.941344 190.039201 48.02423 189.836014 48.107374 
C 189.632828 48.190518 189.429747 48.27392 189.226772 48.35758 
z
" clip-path="url(#pf0a48747aa)" style="fill: #ececec; stroke: #303030; stroke-width: 0.1; stroke-linejoin: miter"/>
   </g>
   <g id="PathCollection_5">
    <defs>
     <path id="me277d5a214" d="M -3.945196 -1.113678 
L -3.686671 -1.113678 
L -4.11245 1.072764 
L -4.370974 1.072764 
L -3.945196 -1.113678 
z
M -1.088781 0.122743 
L -1.272671 1.072764 
L -1.531195 1.072764 
L -1.350003 0.131285 
Q -1.338763 0.071038 -1.333368 0.027426 
Q -1.327523 -0.016186 -1.327523 -0.047209 
Q -1.327523 -0.173549 -1.398112 -0.243687 
Q -1.46825 -0.313826 -1.59459 -0.313826 
Q -1.782976 -0.313826 -1.930447 -0.172649 
Q -2.077918 -0.031473 -2.12153 0.19468 
L -2.29418 1.072764 
L -2.552704 1.072764 
L -2.368815 0.131285 
Q -2.357574 0.079581 -2.352179 0.035519 
Q -2.346334 -0.008992 -2.346334 -0.044062 
Q -2.346334 -0.1722 -2.416473 -0.242788 
Q -2.486612 -0.313826 -2.610254 -0.313826 
Q -2.801337 -0.313826 -2.949258 -0.172649 
Q -3.09673 -0.031473 -3.140342 0.19468 
L -3.312991 1.072764 
L -3.571515 1.072764 
L -3.263984 -0.500863 
L -3.005459 -0.500863 
L -3.054466 -0.256276 
Q -2.949258 -0.394306 -2.808081 -0.466243 
Q -2.666455 -0.53863 -2.505046 -0.53863 
Q -2.333745 -0.53863 -2.223591 -0.448709 
Q -2.112988 -0.358787 -2.090507 -0.198727 
Q -1.97271 -0.364632 -1.817596 -0.451406 
Q -1.662031 -0.53863 -1.489382 -0.53863 
Q -1.287058 -0.53863 -1.176905 -0.422182 
Q -1.066301 -0.305733 -1.066301 -0.09217 
Q -1.066301 -0.04586 -1.072146 0.009891 
Q -1.077541 0.065193 -1.088781 0.122743 
z
M 0.189622 -1.025106 
L 0.511541 -1.025106 
L 0.900902 1.072764 
L 0.60416 1.072764 
L 0.516937 0.534584 
L -0.42724 0.534584 
L -0.723531 1.072764 
L -1.02297 1.072764 
L 0.189622 -1.025106 
z
M 0.292133 -0.74545 
L -0.296404 0.29854 
L 0.473774 0.29854 
L 0.292133 -0.74545 
z
M 1.334829 -1.025106 
L 2.683652 -1.025106 
L 2.683652 -0.904161 
L 1.922017 1.072764 
L 1.625725 1.072764 
L 2.3424 -0.785914 
L 1.334829 -0.785914 
L 1.334829 -1.025106 
z
M 4.472136 -0.440616 
L 4.420431 -0.184789 
Q 4.327362 -0.25223 4.222604 -0.285951 
Q 4.118295 -0.319671 4.005893 -0.319671 
Q 3.882251 -0.319671 3.770298 -0.276059 
Q 3.658796 -0.232447 3.582812 -0.152417 
Q 3.461867 -0.030124 3.395775 0.134433 
Q 3.330132 0.29854 3.330132 0.474336 
Q 3.330132 0.686551 3.43624 0.79041 
Q 3.542347 0.89427 3.758608 0.89427 
Q 3.865165 0.89427 3.985211 0.861898 
Q 4.105706 0.829526 4.236092 0.765232 
L 4.187085 1.02061 
Q 4.074683 1.066919 3.955986 1.090299 
Q 3.83729 1.113678 3.712299 1.113678 
Q 3.398922 1.113678 3.230319 0.957215 
Q 3.061716 0.800302 3.061716 0.509406 
Q 3.061716 0.264819 3.14939 0.058899 
Q 3.237063 -0.147022 3.410162 -0.311129 
Q 3.52796 -0.423531 3.686671 -0.48108 
Q 3.845832 -0.53863 4.033768 -0.53863 
Q 4.143473 -0.53863 4.251379 -0.513902 
Q 4.359734 -0.489623 4.472136 -0.440616 
z
"/>
    </defs>
    <g clip-path="url(#pf0a48747aa)">
     <use xlink:href="#me277d5a214" x="188.129522" y="45.694791"/>
    </g>
   </g>
   <g id="patch_9">
    <path d="M 395.62152 152.805886 
C 395.736028 152.89704 395.85042 152.98834 395.964696 153.079785 
C 396.078972 153.17123 396.193132 153.26282 396.307176 153.354556 
L 414.358372 130.913648 
C 414.225321 130.806624 414.092134 130.699769 413.958812 130.593083 
C 413.82549 130.486397 413.692032 130.37988 413.558439 130.273533 
z
" clip-path="url(#pf0a48747aa)" style="fill: #8e8e8e; stroke: #303030; stroke-width: 0.1; stroke-linejoin: miter"/>
   </g>
   <g id="PathCollection_6">
    <defs>
     <path id="m2c1008a201" d="M -3.961874 -1.078428 
L -3.711533 -1.078428 
L -4.123835 1.038809 
L -4.374176 1.038809 
L -3.961874 -1.078428 
z
M -1.195871 0.118858 
L -1.37394 1.038809 
L -1.624282 1.038809 
L -1.448825 0.12713 
Q -1.437941 0.06879 -1.432716 0.026558 
Q -1.427056 -0.015674 -1.427056 -0.045715 
Q -1.427056 -0.168055 -1.49541 -0.235974 
Q -1.563329 -0.303893 -1.68567 -0.303893 
Q -1.868093 -0.303893 -2.010897 -0.167185 
Q -2.1537 -0.030476 -2.195932 0.188518 
L -2.363116 1.038809 
L -2.613458 1.038809 
L -2.435389 0.12713 
Q -2.424504 0.077062 -2.41928 0.034395 
Q -2.41362 -0.008708 -2.41362 -0.042667 
Q -2.41362 -0.166749 -2.481539 -0.235103 
Q -2.549458 -0.303893 -2.669186 -0.303893 
Q -2.854221 -0.303893 -2.99746 -0.167185 
Q -3.140264 -0.030476 -3.182495 0.188518 
L -3.34968 1.038809 
L -3.600022 1.038809 
L -3.302224 -0.48501 
L -3.051882 -0.48501 
L -3.099339 -0.248165 
Q -2.99746 -0.381825 -2.860752 -0.451486 
Q -2.723608 -0.521581 -2.567308 -0.521581 
Q -2.40143 -0.521581 -2.294762 -0.434506 
Q -2.18766 -0.347431 -2.165891 -0.192437 
Q -2.051822 -0.353091 -1.901617 -0.437118 
Q -1.750977 -0.521581 -1.583792 -0.521581 
Q -1.387872 -0.521581 -1.281205 -0.408819 
Q -1.174102 -0.296056 -1.174102 -0.089252 
Q -1.174102 -0.044408 -1.179762 0.009578 
Q -1.184987 0.06313 -1.195871 0.118858 
z
M 0.537527 0.735351 
L 0.643759 0.203321 
L 0.191838 0.203321 
L 0.234069 -0.02264 
L 0.955053 -0.02264 
L 0.779597 0.871624 
Q 0.59848 0.97089 0.38471 1.024877 
Q 0.171375 1.078428 -0.045007 1.078428 
Q -0.427268 1.078428 -0.642779 0.8664 
Q -0.858291 0.653936 -0.858291 0.275594 
Q -0.858291 -0.038749 -0.727243 -0.322179 
Q -0.595759 -0.606044 -0.364574 -0.795433 
Q -0.219158 -0.913421 -0.046313 -0.971326 
Q 0.126531 -1.029231 0.337254 -1.029231 
Q 0.527949 -1.029231 0.702535 -0.980904 
Q 0.877556 -0.932577 1.036904 -0.835923 
L 0.981176 -0.54335 
Q 0.8584 -0.671351 0.693827 -0.738834 
Q 0.529255 -0.806318 0.342914 -0.806318 
Q 0.126531 -0.806318 -0.038041 -0.723596 
Q -0.202613 -0.64131 -0.33192 -0.468901 
Q -0.442071 -0.321743 -0.505636 -0.122341 
Q -0.568765 0.077062 -0.568765 0.283866 
Q -0.568765 0.568167 -0.42335 0.711841 
Q -0.277498 0.85508 0.010721 0.85508 
Q 0.155266 0.85508 0.289798 0.824604 
Q 0.424329 0.793692 0.537527 0.735351 
z
M 1.476363 -0.992659 
L 2.555226 -0.992659 
L 2.555226 -0.761039 
L 1.72801 -0.761039 
L 1.72801 -0.263403 
Q 1.787657 -0.283866 1.847304 -0.293879 
Q 1.907386 -0.303893 1.967468 -0.303893 
Q 2.307497 -0.303893 2.506029 -0.117552 
Q 2.704996 0.06879 2.704996 0.38705 
Q 2.704996 0.714889 2.500804 0.896876 
Q 2.296613 1.078428 1.925236 1.078428 
Q 1.797235 1.078428 1.664445 1.056659 
Q 1.532091 1.034891 1.390593 0.991353 
L 1.390593 0.714889 
Q 1.512934 0.781501 1.643547 0.814155 
Q 1.77416 0.846808 1.919576 0.846808 
Q 2.155115 0.846808 2.292259 0.723161 
Q 2.429838 0.599514 2.429838 0.38705 
Q 2.429838 0.175021 2.292259 0.051374 
Q 2.155115 -0.072708 1.919576 -0.072708 
Q 1.809426 -0.072708 1.699711 -0.048327 
Q 1.590431 -0.023946 1.476363 0.027864 
L 1.476363 -0.992659 
z
M 4.445143 0.169362 
L 4.27491 1.038809 
L 4.024569 1.038809 
L 4.070719 0.807624 
Q 3.960568 0.943462 3.819506 1.010945 
Q 3.678879 1.078428 3.506035 1.078428 
Q 3.311421 1.078428 3.186904 0.95957 
Q 3.062821 0.840277 3.062821 0.653936 
Q 3.062821 0.38705 3.275721 0.232056 
Q 3.48862 0.077062 3.862608 0.077062 
L 4.21091 0.077062 
L 4.224407 0.010014 
Q 4.227454 -0.000871 4.22876 -0.013497 
Q 4.230066 -0.026558 4.230066 -0.053551 
Q 4.230066 -0.175021 4.131236 -0.242069 
Q 4.032841 -0.309553 3.854336 -0.309553 
Q 3.731995 -0.309553 3.603124 -0.278206 
Q 3.474688 -0.246859 3.33885 -0.184164 
L 3.382388 -0.415785 
Q 3.523885 -0.468901 3.659287 -0.495023 
Q 3.79469 -0.521581 3.920949 -0.521581 
Q 4.190447 -0.521581 4.331074 -0.404465 
Q 4.472136 -0.287784 4.472136 -0.064436 
Q 4.472136 -0.019592 4.46517 0.040925 
Q 4.458639 0.101443 4.445143 0.169362 
z
M 4.174338 0.272981 
L 3.923997 0.272981 
Q 3.616185 0.272981 3.468592 0.355267 
Q 3.321 0.437554 3.321 0.610398 
Q 3.321 0.730127 3.39632 0.798046 
Q 3.472075 0.865964 3.605301 0.865964 
Q 3.809492 0.865964 3.961874 0.719678 
Q 4.114256 0.573391 4.163454 0.328709 
L 4.174338 0.272981 
z
"/>
    </defs>
    <g clip-path="url(#pf0a48747aa)">
     <use xlink:href="#m2c1008a201" x="393.827842" y="155.059132"/>
    </g>
   </g>
   <g id="patch_10">
    <path d="M 129.360529 120.914159 
C 129.502049 120.779793 129.64374 120.645606 129.785601 120.5116 
C 129.927462 120.377594 130.069494 120.243768 130.211695 120.110123 
L 110.488157 99.123889 
C 110.32818 99.274239 110.168395 99.424793 110.008801 99.57555 
C 109.849208 99.726307 109.689806 99.877267 109.530595 100.028429 
z
" clip-path="url(#pf0a48747aa)" style="fill: #414141; stroke: #303030; stroke-width: 0.1; stroke-linejoin: miter"/>
   </g>
   <g id="PathCollection_7">
    <defs>
     <path id="mecdf256cbb" d="M -3.316155 -0.500028 
L -3.353321 -0.309073 
L -3.84331 -0.309073 
L -4.002225 0.502591 
Q -4.010342 0.547873 -4.014186 0.578631 
Q -4.018031 0.609389 -4.018031 0.626477 
Q -4.018031 0.711915 -3.966768 0.750789 
Q -3.915505 0.789664 -3.801872 0.789664 
L -3.553674 0.789664 
L -3.595111 0.995143 
L -3.830067 0.995143 
Q -4.048789 0.995143 -4.156441 0.909705 
Q -4.263666 0.824266 -4.263666 0.650826 
Q -4.263666 0.620069 -4.259822 0.58333 
Q -4.255977 0.546592 -4.24786 0.502591 
L -4.088945 -0.309073 
L -4.297415 -0.309073 
L -4.25854 -0.500028 
L -4.054343 -0.500028 
L -3.971467 -0.924656 
L -3.725832 -0.924656 
L -3.807426 -0.500028 
L -3.316155 -0.500028 
z
M -0.945081 0.092487 
L -1.119803 0.995143 
L -1.365438 0.995143 
L -1.19328 0.100604 
Q -1.1826 0.04336 -1.177474 0.001922 
Q -1.17192 -0.039515 -1.17192 -0.068991 
Q -1.17192 -0.189032 -1.238989 -0.255674 
Q -1.305631 -0.322316 -1.425672 -0.322316 
Q -1.604665 -0.322316 -1.744784 -0.188178 
Q -1.884903 -0.05404 -1.926341 0.160838 
L -2.090382 0.995143 
L -2.336017 0.995143 
L -2.161296 0.100604 
Q -2.150616 0.051477 -2.14549 0.009612 
Q -2.139937 -0.03268 -2.139937 -0.066001 
Q -2.139937 -0.187751 -2.206578 -0.25482 
Q -2.27322 -0.322316 -2.390698 -0.322316 
Q -2.572254 -0.322316 -2.712801 -0.188178 
Q -2.852919 -0.05404 -2.894357 0.160838 
L -3.058399 0.995143 
L -3.304034 0.995143 
L -3.011835 -0.500028 
L -2.766199 -0.500028 
L -2.812763 -0.267636 
Q -2.712801 -0.398783 -2.578662 -0.467134 
Q -2.444097 -0.535912 -2.290735 -0.535912 
Q -2.127975 -0.535912 -2.023313 -0.450474 
Q -1.918224 -0.365035 -1.896864 -0.212955 
Q -1.78494 -0.370589 -1.637559 -0.453037 
Q -1.489751 -0.535912 -1.325709 -0.535912 
Q -1.133473 -0.535912 -1.028811 -0.425269 
Q -0.923722 -0.314627 -0.923722 -0.111711 
Q -0.923722 -0.06771 -0.929275 -0.014738 
Q -0.934402 0.037806 -0.945081 0.092487 
z
M 1.162842 -0.844344 
L 1.108162 -0.560262 
Q 0.980004 -0.689701 0.836468 -0.752498 
Q 0.692932 -0.815295 0.5259 -0.815295 
Q 0.297779 -0.815295 0.124767 -0.705507 
Q -0.047819 -0.596146 -0.173413 -0.37187 
Q -0.253725 -0.227907 -0.296017 -0.066855 
Q -0.337882 0.094196 -0.337882 0.256956 
Q -0.337882 0.529077 -0.196909 0.672186 
Q -0.055935 0.814868 0.212341 0.814868 
Q 0.397742 0.814868 0.568619 0.755488 
Q 0.739495 0.696109 0.900974 0.57735 
L 0.838604 0.896462 
Q 0.679689 0.964385 0.517356 0.998988 
Q 0.355023 1.034017 0.192263 1.034017 
Q -0.190928 1.034017 -0.40666 0.825975 
Q -0.621964 0.617506 -0.621964 0.246276 
Q -0.621964 0.008757 -0.539944 -0.220644 
Q -0.457923 -0.450474 -0.304134 -0.640147 
Q -0.141374 -0.841781 0.067523 -0.937899 
Q 0.27642 -1.034017 0.554094 -1.034017 
Q 0.724971 -1.034017 0.877906 -0.986599 
Q 1.03084 -0.939181 1.162842 -0.844344 
z
M 2.20551 -0.763178 
L 1.524567 0.300957 
L 2.20551 0.300957 
L 2.20551 -0.763178 
z
M 2.134597 -0.998133 
L 2.473787 -0.998133 
L 2.473787 0.300957 
L 2.758296 0.300957 
L 2.758296 0.525232 
L 2.473787 0.525232 
L 2.473787 0.995143 
L 2.20551 0.995143 
L 2.20551 0.525232 
L 1.305845 0.525232 
L 1.305845 0.265072 
L 2.134597 -0.998133 
z
M 4.226501 0.113847 
Q 4.230773 0.092487 4.232481 0.069846 
Q 4.234617 0.047205 4.234617 0.024564 
Q 4.234617 -0.138197 4.138926 -0.233033 
Q 4.043663 -0.32787 3.879621 -0.32787 
Q 3.696783 -0.32787 3.556237 -0.212101 
Q 3.416118 -0.096759 3.34435 0.115555 
L 4.226501 0.113847 
z
M 4.440097 0.306083 
L 3.297359 0.306083 
Q 3.289242 0.356919 3.286679 0.386395 
Q 3.284116 0.415871 3.284116 0.437231 
Q 3.284116 0.622632 3.398176 0.724303 
Q 3.512236 0.825548 3.720706 0.825548 
Q 3.880903 0.825548 4.023585 0.789664 
Q 4.166694 0.753352 4.289298 0.684147 
L 4.242734 0.927219 
Q 4.110305 0.980618 3.969331 1.007104 
Q 3.828785 1.034017 3.683113 1.034017 
Q 3.372117 1.034017 3.204658 0.885355 
Q 3.037199 0.736265 3.037199 0.462435 
Q 3.037199 0.228761 3.120502 0.027981 
Q 3.203804 -0.172799 3.36571 -0.330433 
Q 3.469517 -0.429114 3.613054 -0.482513 
Q 3.75659 -0.535912 3.918068 -0.535912 
Q 4.17182 -0.535912 4.321764 -0.383832 
Q 4.472136 -0.231751 4.472136 0.024564 
Q 4.472136 0.086079 4.464019 0.156139 
Q 4.45633 0.226198 4.440097 0.306083 
z
"/>
    </defs>
    <g clip-path="url(#pf0a48747aa)">
     <use xlink:href="#mecdf256cbb" x="107.547772" y="97.939694"/>
    </g>
   </g>
   <g id="patch_11">
    <path d="M 116.667567 310.473035 
C 116.648532 310.327919 116.629682 310.182777 116.611017 310.037613 
C 116.592351 309.892448 116.57387 309.747259 116.555573 309.602047 
L 87.981502 313.202389 
C 88.002848 313.371802 88.024409 313.541189 88.046186 313.710548 
C 88.067963 313.879907 88.089954 314.049238 88.112161 314.218541 
z
" clip-path="url(#pf0a48747aa)" style="fill: #656565; stroke: #303030; stroke-width: 0.1; stroke-linejoin: miter"/>
   </g>
   <g id="PathCollection_8">
    <defs>
     <path id="m3fe2d85ea2" d="M -3.2981 -0.483325 
L -3.335846 -0.289387 
L -3.833488 -0.289387 
L -3.994885 0.534954 
Q -4.003129 0.580944 -4.007034 0.612182 
Q -4.010938 0.643421 -4.010938 0.660775 
Q -4.010938 0.747548 -3.958875 0.78703 
Q -3.906811 0.826511 -3.791403 0.826511 
L -3.539328 0.826511 
L -3.581413 1.0352 
L -3.820038 1.0352 
Q -4.042177 1.0352 -4.15151 0.948427 
Q -4.26041 0.861654 -4.26041 0.685505 
Q -4.26041 0.654267 -4.256505 0.616955 
Q -4.252601 0.579642 -4.244357 0.534954 
L -4.08296 -0.289387 
L -4.294686 -0.289387 
L -4.255204 -0.483325 
L -4.047817 -0.483325 
L -3.963647 -0.914586 
L -3.714175 -0.914586 
L -3.797043 -0.483325 
L -3.2981 -0.483325 
z
M -0.889991 0.118445 
L -1.067441 1.0352 
L -1.316913 1.0352 
L -1.142066 0.126688 
Q -1.131219 0.068551 -1.126013 0.026466 
Q -1.120373 -0.015619 -1.120373 -0.045556 
Q -1.120373 -0.167472 -1.188489 -0.235154 
Q -1.256172 -0.302837 -1.378088 -0.302837 
Q -1.559877 -0.302837 -1.702185 -0.166604 
Q -1.844492 -0.03037 -1.886577 0.187863 
L -2.053181 1.0352 
L -2.302653 1.0352 
L -2.125202 0.126688 
Q -2.114356 0.076794 -2.109149 0.034275 
Q -2.103509 -0.008677 -2.103509 -0.042519 
Q -2.103509 -0.16617 -2.171192 -0.234287 
Q -2.238875 -0.302837 -2.358187 -0.302837 
Q -2.542579 -0.302837 -2.685321 -0.166604 
Q -2.827628 -0.03037 -2.869713 0.187863 
L -3.036317 1.0352 
L -3.285789 1.0352 
L -2.989026 -0.483325 
L -2.739554 -0.483325 
L -2.786845 -0.247303 
Q -2.685321 -0.380499 -2.549087 -0.449917 
Q -2.41242 -0.519769 -2.256663 -0.519769 
Q -2.091361 -0.519769 -1.985064 -0.432996 
Q -1.878333 -0.346224 -1.85664 -0.191768 
Q -1.742968 -0.351864 -1.593285 -0.4356 
Q -1.443168 -0.519769 -1.276564 -0.519769 
Q -1.081325 -0.519769 -0.975028 -0.407398 
Q -0.868298 -0.295028 -0.868298 -0.088942 
Q -0.868298 -0.044254 -0.873938 0.009545 
Q -0.879144 0.06291 -0.889991 0.118445 
z
M -0.209529 -0.98921 
L 1.07037 -0.98921 
L 1.025682 -0.758395 
L 0.018249 -0.758395 
L -0.098026 -0.159228 
L 0.868623 -0.159228 
L 0.823935 0.071154 
L -0.143148 0.071154 
L -0.284154 0.804818 
L 0.746273 0.804818 
L 0.701585 1.0352 
L -0.603912 1.0352 
L -0.209529 -0.98921 
z
M 1.30368 -0.98921 
L 2.605273 -0.98921 
L 2.605273 -0.872501 
L 1.870307 1.0352 
L 1.58439 1.0352 
L 2.27597 -0.758395 
L 1.30368 -0.758395 
L 1.30368 -0.98921 
z
M 4.217458 0.107598 
Q 4.217458 -0.088942 4.127214 -0.200011 
Q 4.03697 -0.311081 3.87861 -0.311081 
Q 3.763202 -0.311081 3.662112 -0.254678 
Q 3.561021 -0.19871 3.486397 -0.091545 
Q 3.407867 0.020825 3.362311 0.169641 
Q 3.31719 0.318022 3.31719 0.465536 
Q 3.31719 0.652966 3.405698 0.759262 
Q 3.49464 0.865559 3.650831 0.865559 
Q 3.768408 0.865559 3.868631 0.810892 
Q 3.969287 0.755791 4.045214 0.648627 
Q 4.122441 0.537558 4.169733 0.390044 
Q 4.217458 0.242096 4.217458 0.107598 
z
M 3.441709 -0.252943 
Q 3.534122 -0.377462 3.672958 -0.448616 
Q 3.811795 -0.519769 3.963647 -0.519769 
Q 4.197066 -0.519769 4.334601 -0.362277 
Q 4.472136 -0.205218 4.472136 0.06291 
Q 4.472136 0.282879 4.391437 0.488965 
Q 4.310738 0.69505 4.161923 0.854712 
Q 4.064304 0.960575 3.936748 1.017845 
Q 3.809192 1.074681 3.669487 1.074681 
Q 3.521973 1.074681 3.413507 1.006999 
Q 3.305041 0.938882 3.236925 0.804818 
L 3.192237 1.0352 
L 2.942765 1.0352 
L 3.353634 -1.074681 
L 3.603106 -1.074681 
L 3.441709 -0.252943 
z
"/>
    </defs>
    <g clip-path="url(#pf0a48747aa)">
     <use xlink:href="#m3fe2d85ea2" x="119.523091" y="310.09836"/>
    </g>
   </g>
   <g id="patch_12">
    <path d="M 404.620286 160.487063 
C 404.728288 160.58584 404.836165 160.684753 404.943916 160.783804 
C 405.051666 160.882854 405.159292 160.982041 405.26679 161.081365 
L 424.811255 139.928259 
C 424.68584 139.812381 424.560278 139.696663 424.434568 139.581104 
C 424.308859 139.465545 424.183003 139.350146 424.057 139.234907 
z
" clip-path="url(#pf0a48747aa)" style="fill: #b3b3b3; stroke: #303030; stroke-width: 0.1; stroke-linejoin: miter"/>
   </g>
   <g id="PathCollection_9">
    <defs>
     <path id="m565cedf2c6" d="M -3.116746 0.131084 
L -3.270893 0.918377 
L -3.49758 0.918377 
L -3.455791 0.709037 
Q -3.555533 0.832039 -3.683266 0.893146 
Q -3.810605 0.954253 -3.967117 0.954253 
Q -4.143342 0.954253 -4.256094 0.846626 
Q -4.368451 0.738605 -4.368451 0.569871 
Q -4.368451 0.328203 -4.175669 0.187854 
Q -3.982887 0.047506 -3.644236 0.047506 
L -3.328846 0.047506 
L -3.316625 -0.013207 
Q -3.313865 -0.023063 -3.312682 -0.034496 
Q -3.3115 -0.046323 -3.3115 -0.070766 
Q -3.3115 -0.180758 -3.400992 -0.241471 
Q -3.490089 -0.302578 -3.651727 -0.302578 
Q -3.762508 -0.302578 -3.879202 -0.274192 
Q -3.995502 -0.245807 -4.118505 -0.189037 
L -4.079081 -0.398772 
Q -3.950953 -0.446869 -3.828345 -0.470523 
Q -3.705738 -0.494571 -3.591409 -0.494571 
Q -3.347375 -0.494571 -3.220036 -0.388521 
Q -3.092303 -0.282866 -3.092303 -0.080622 
Q -3.092303 -0.040015 -3.098611 0.014784 
Q -3.104525 0.069583 -3.116746 0.131084 
z
M -3.361962 0.224913 
L -3.588649 0.224913 
Q -3.867375 0.224913 -4.001022 0.299424 
Q -4.134668 0.373935 -4.134668 0.530447 
Q -4.134668 0.638862 -4.066465 0.700364 
Q -3.997868 0.761865 -3.877231 0.761865 
Q -3.692333 0.761865 -3.55435 0.629401 
Q -3.416367 0.496937 -3.371818 0.275375 
L -3.361962 0.224913 
z
M -0.660299 0.085353 
L -0.821542 0.918377 
L -1.048229 0.918377 
L -0.889351 0.092843 
Q -0.879495 0.040015 -0.874765 0.001774 
Q -0.869639 -0.036467 -0.869639 -0.063669 
Q -0.869639 -0.17445 -0.931535 -0.235951 
Q -0.993036 -0.297452 -1.103817 -0.297452 
Q -1.269002 -0.297452 -1.398312 -0.173662 
Q -1.527623 -0.049871 -1.565864 0.148431 
L -1.717251 0.918377 
L -1.943938 0.918377 
L -1.782694 0.092843 
Q -1.772838 0.047506 -1.768108 0.00887 
Q -1.762983 -0.030159 -1.762983 -0.06091 
Q -1.762983 -0.173268 -1.824484 -0.235163 
Q -1.885985 -0.297452 -1.9944 -0.297452 
Q -2.161951 -0.297452 -2.291656 -0.173662 
Q -2.420966 -0.049871 -2.459207 0.148431 
L -2.610594 0.918377 
L -2.837281 0.918377 
L -2.567622 -0.461455 
L -2.340935 -0.461455 
L -2.383907 -0.24699 
Q -2.291656 -0.368021 -2.167865 -0.431099 
Q -2.04368 -0.494571 -1.902148 -0.494571 
Q -1.751944 -0.494571 -1.655356 -0.415724 
Q -1.558373 -0.336876 -1.538661 -0.196528 
Q -1.435371 -0.342001 -1.299359 -0.418089 
Q -1.162952 -0.494571 -1.011565 -0.494571 
Q -0.834158 -0.494571 -0.73757 -0.392464 
Q -0.640587 -0.290356 -0.640587 -0.103093 
Q -0.640587 -0.062487 -0.645712 -0.013601 
Q -0.650443 0.03489 -0.660299 0.085353 
z
M 0.90931 0.643593 
L 1.005504 0.161835 
L 0.596285 0.161835 
L 0.634526 -0.042775 
L 1.287384 -0.042775 
L 1.128506 0.76699 
Q 0.964503 0.856876 0.770932 0.905762 
Q 0.577756 0.954253 0.381819 0.954253 
Q 0.035679 0.954253 -0.159469 0.762259 
Q -0.354617 0.569871 -0.354617 0.227278 
Q -0.354617 -0.057362 -0.235951 -0.31401 
Q -0.116892 -0.571054 0.092449 -0.742547 
Q 0.224124 -0.849386 0.380637 -0.901819 
Q 0.537149 -0.954253 0.72796 -0.954253 
Q 0.900636 -0.954253 1.058726 -0.910492 
Q 1.217209 -0.866732 1.361501 -0.779211 
L 1.311038 -0.514283 
Q 1.199863 -0.630189 1.050841 -0.691296 
Q 0.901819 -0.752403 0.733085 -0.752403 
Q 0.537149 -0.752403 0.388127 -0.677498 
Q 0.239105 -0.602987 0.122017 -0.446869 
Q 0.022274 -0.313616 -0.035284 -0.133055 
Q -0.092449 0.047506 -0.092449 0.234769 
Q -0.092449 0.492206 0.039227 0.622304 
Q 0.171296 0.752009 0.432282 0.752009 
Q 0.563169 0.752009 0.684988 0.724412 
Q 0.806808 0.696421 0.90931 0.643593 
z
M 2.288896 0.044746 
Q 2.111489 0.044746 2.009775 0.139757 
Q 1.908456 0.234769 1.908456 0.400743 
Q 1.908456 0.567111 2.009775 0.662123 
Q 2.111489 0.757134 2.288896 0.757134 
Q 2.466303 0.757134 2.568411 0.661728 
Q 2.670912 0.565928 2.670912 0.400743 
Q 2.670912 0.234769 2.569199 0.139757 
Q 2.46788 0.044746 2.288896 0.044746 
z
M 2.040132 -0.06091 
Q 1.880071 -0.100334 1.790579 -0.209932 
Q 1.701481 -0.319924 1.701481 -0.477619 
Q 1.701481 -0.697998 1.858388 -0.826125 
Q 2.015689 -0.954253 2.288896 -0.954253 
Q 2.56368 -0.954253 2.720192 -0.826125 
Q 2.876705 -0.697998 2.876705 -0.477619 
Q 2.876705 -0.319924 2.787213 -0.209932 
Q 2.698115 -0.100334 2.539237 -0.06091 
Q 2.719009 -0.019121 2.819146 0.103093 
Q 2.919676 0.224913 2.919676 0.400743 
Q 2.919676 0.66843 2.756462 0.811539 
Q 2.593247 0.954253 2.288896 0.954253 
Q 1.984938 0.954253 1.82133 0.811539 
Q 1.658115 0.66843 1.658115 0.400743 
Q 1.658115 0.224913 1.75904 0.103093 
Q 1.860359 -0.019121 2.040132 -0.06091 
z
M 1.949063 -0.453965 
Q 1.949063 -0.311251 2.038161 -0.231221 
Q 2.127653 -0.15119 2.288896 -0.15119 
Q 2.449351 -0.15119 2.539631 -0.231221 
Q 2.630306 -0.311251 2.630306 -0.453965 
Q 2.630306 -0.597073 2.539631 -0.677104 
Q 2.449351 -0.757134 2.288896 -0.757134 
Q 2.127653 -0.757134 2.038161 -0.677104 
Q 1.949063 -0.597073 1.949063 -0.453965 
z
M 4.447693 0.131084 
L 4.293546 0.918377 
L 4.066859 0.918377 
L 4.108649 0.709037 
Q 4.008906 0.832039 3.881173 0.893146 
Q 3.753835 0.954253 3.597322 0.954253 
Q 3.421098 0.954253 3.308346 0.846626 
Q 3.195988 0.738605 3.195988 0.569871 
Q 3.195988 0.328203 3.38877 0.187854 
Q 3.581553 0.047506 3.920203 0.047506 
L 4.235593 0.047506 
L 4.247815 -0.013207 
Q 4.250574 -0.023063 4.251757 -0.034496 
Q 4.25294 -0.046323 4.25294 -0.070766 
Q 4.25294 -0.180758 4.163448 -0.241471 
Q 4.07435 -0.302578 3.912712 -0.302578 
Q 3.801932 -0.302578 3.685237 -0.274192 
Q 3.568937 -0.245807 3.445935 -0.189037 
L 3.485359 -0.398772 
Q 3.613486 -0.446869 3.736094 -0.470523 
Q 3.858702 -0.494571 3.973031 -0.494571 
Q 4.217064 -0.494571 4.344403 -0.388521 
Q 4.472136 -0.282866 4.472136 -0.080622 
Q 4.472136 -0.040015 4.465828 0.014784 
Q 4.459915 0.069583 4.447693 0.131084 
z
M 4.202477 0.224913 
L 3.97579 0.224913 
Q 3.697064 0.224913 3.563418 0.299424 
Q 3.429771 0.373935 3.429771 0.530447 
Q 3.429771 0.638862 3.497974 0.700364 
Q 3.566572 0.761865 3.687208 0.761865 
Q 3.872106 0.761865 4.010089 0.629401 
Q 4.148072 0.496937 4.192621 0.275375 
L 4.202477 0.224913 
z
"/>
    </defs>
    <g clip-path="url(#pf0a48747aa)">
     <use xlink:href="#m565cedf2c6" x="402.676629" y="162.612293"/>
    </g>
   </g>
   <g id="matplotlib.axis_1"/>
   <g id="matplotlib.axis_2"/>
  </g>
 </g>
 <defs>
  <clipPath id="pf0a48747aa">
   <path d="M 576 288 
C 576 250.180187 568.550321 212.728123 554.077305 177.787171 
C 539.604289 142.84622 518.3894 111.095894 491.646753 84.353247 
C 464.904106 57.6106 433.15378 36.395711 398.212829 21.922695 
C 363.271877 7.449679 325.819813 0 288 0 
C 250.180187 0 212.728123 7.449679 177.787171 21.922695 
C 142.84622 36.395711 111.095894 57.6106 84.353247 84.353247 
C 57.6106 111.095894 36.395711 142.84622 21.922695 177.787171 
C 7.449679 212.728123 0 250.180187 0 288 
C 0 325.819813 7.449679 363.271877 21.922695 398.212829 
C 36.395711 433.15378 57.6106 464.904106 84.353247 491.646753 
C 111.095894 518.3894 142.84622 539.604289 177.787171 554.077305 
C 212.728123 568.550321 250.180187 576 288 576 
C 325.819813 576 363.271877 568.550321 398.212829 554.077305 
C 433.15378 539.604289 464.904106 518.3894 491.646753 491.646753 
C 518.3894 464.904106 539.604289 433.15378 554.077305 398.212829 
C 568.550321 363.271877 576 325.819813 576 288 
M 288 288 
C 288 288 288 288 288 288 
C 288 288 288 288 288 288 
C 288 288 288 288 288 288 
C 288 288 288 288 288 288 
C 288 288 288 288 288 288 
C 288 288 288 288 288 288 
C 288 288 288 288 288 288 
C 288 288 288 288 288 288 
C 288 288 288 288 288 288 
C 288 288 288 288 288 288 
C 288 288 288 288 288 288 
C 288 288 288 288 288 288 
C 288 288 288 288 288 288 
C 288 288 288 288 288 288 
C 288 288 288 288 288 288 
C 288 288 288 288 288 288 
M 576 288 
z
"/>
  </clipPath>
 </defs>
</svg>
