<?xml version="1.0" encoding="utf-8" standalone="no"?>
<!DOCTYPE svg PUBLIC "-//W3C//DTD SVG 1.1//EN"
  "http://www.w3.org/Graphics/SVG/1.1/DTD/svg11.dtd">
<svg xmlns:xlink="http://www.w3.org/1999/xlink" width="576pt" height="576pt" viewBox="0 0 576 576" xmlns="http://www.w3.org/2000/svg" version="1.1">
 <metadata>
  <rdf:RDF xmlns:dc="http://purl.org/dc/elements/1.1/" xmlns:cc="http://creativecommons.org/ns#" xmlns:rdf="http://www.w3.org/1999/02/22-rdf-syntax-ns#">
   <cc:Work>
    <dc:type rdf:resource="http://purl.org/dc/dcmitype/StillImage"/>
    <dc:date>2024-03-05T15:16:25.630538</dc:date>
    <dc:format>image/svg+xml</dc:format>
    <dc:creator>
     <cc:Agent>
      <dc:title>Matplotlib v3.5.1, https://matplotlib.org/</dc:title>
     </cc:Agent>
    </dc:creator>
   </cc:Work>
  </rdf:RDF>
 </metadata>
 <defs>
  <style type="text/css">*{stroke-linejoin: round; stroke-linecap: butt}</style>
 </defs>
 <g id="figure_1">
  <g id="patch_1">
   <path d="M 0 576 
L 576 576 
L 576 0 
L 0 0 
L 0 576 
z
" style="fill: none"/>
  </g>
  <g id="axes_1">
   <g id="patch_2">
    <path d="M 576 288 
C 576 250.180187 568.550321 212.728123 554.077305 177.787171 
C 539.604289 142.84622 518.3894 111.095894 491.646753 84.353247 
C 464.904106 57.6106 433.15378 36.395711 398.212829 21.922695 
C 363.271877 7.449679 325.819813 0 288 0 
C 250.180187 0 212.728123 7.449679 177.787171 21.922695 
C 142.84622 36.395711 111.095894 57.6106 84.353247 84.353247 
C 57.6106 111.095894 36.395711 142.84622 21.922695 177.787171 
C 7.449679 212.728123 0 250.180187 0 288 
C 0 325.819813 7.449679 363.271877 21.922695 398.212829 
C 36.395711 433.15378 57.6106 464.904106 84.353247 491.646753 
C 111.095894 518.3894 142.84622 539.604289 177.787171 554.077305 
C 212.728123 568.550321 250.180187 576 288 576 
C 325.819813 576 363.271877 568.550321 398.212829 554.077305 
C 433.15378 539.604289 464.904106 518.3894 491.646753 491.646753 
C 518.3894 464.904106 539.604289 433.15378 554.077305 398.212829 
C 568.550321 363.271877 576 325.819813 576 288 
M 288 288 
C 288 288 288 288 288 288 
C 288 288 288 288 288 288 
C 288 288 288 288 288 288 
C 288 288 288 288 288 288 
C 288 288 288 288 288 288 
C 288 288 288 288 288 288 
C 288 288 288 288 288 288 
C 288 288 288 288 288 288 
C 288 288 288 288 288 288 
C 288 288 288 288 288 288 
C 288 288 288 288 288 288 
C 288 288 288 288 288 288 
C 288 288 288 288 288 288 
C 288 288 288 288 288 288 
C 288 288 288 288 288 288 
C 288 288 288 288 288 288 
M 576 288 
L 576 288 
z
" style="fill: none"/>
   </g>
   <g id="patch_3">
    <path d="M 288 144 
C 306.909907 144 325.635938 147.724839 343.106414 154.961347 
C 360.57689 162.197855 376.452053 172.8053 389.823376 186.176624 
C 403.1947 199.547947 413.802145 215.42311 421.038653 232.893586 
C 428.275161 250.364062 432 269.090093 432 288 
C 432 306.909907 428.275161 325.635938 421.038653 343.106414 
C 413.802145 360.57689 403.1947 376.452053 389.823376 389.823376 
C 376.452053 403.1947 360.57689 413.802145 343.106414 421.038653 
C 325.635938 428.275161 306.909907 432 288 432 
C 269.090093 432 250.364062 428.275161 232.893586 421.038653 
C 215.42311 413.802145 199.547947 403.1947 186.176624 389.823376 
C 172.8053 376.452053 162.197855 360.57689 154.961347 343.106414 
C 147.724839 325.635938 144 306.909907 144 288 
C 144 269.090093 147.724839 250.364062 154.961347 232.893586 
C 162.197855 215.42311 172.8053 199.547947 186.176624 186.176624 
C 199.547947 172.8053 215.42311 162.197855 232.893586 154.961347 
C 250.364062 147.724839 269.090093 144 288 144 
L 288 129.6 
C 267.199103 129.6 246.600468 133.697323 227.382944 141.657482 
C 208.165421 149.617641 190.702741 161.28583 175.994286 175.994286 
C 161.28583 190.702741 149.617641 208.165421 141.657482 227.382944 
C 133.697323 246.600468 129.6 267.199103 129.6 288 
C 129.6 308.800897 133.697323 329.399532 141.657482 348.617056 
C 149.617641 367.834579 161.28583 385.297259 175.994286 400.005714 
C 190.702741 414.71417 208.165421 426.382359 227.382944 434.342518 
C 246.600468 442.302677 267.199103 446.4 288 446.4 
C 308.800897 446.4 329.399532 442.302677 348.617056 434.342518 
C 367.834579 426.382359 385.297259 414.71417 400.005714 400.005714 
C 414.71417 385.297259 426.382359 367.834579 434.342518 348.617056 
C 442.302677 329.399532 446.4 308.800897 446.4 288 
C 446.4 267.199103 442.302677 246.600468 434.342518 227.382944 
C 426.382359 208.165421 414.71417 190.702741 400.005714 175.994286 
C 385.297259 161.28583 367.834579 149.617641 348.617056 141.657482 
C 329.399532 133.697323 308.800897 129.6 288 129.6 
L 288 144 
z
" clip-path="url(#pcc53ff55c9)" style="fill: none"/>
   </g>
   <g id="matplotlib.axis_1"/>
   <g id="matplotlib.axis_2"/>
   <g id="line2d_1">
    <path d="M 288 41.76 
L 295.507104 41.874461 
L 303.007228 42.217737 
L 310.493401 42.78951 
L 317.958663 43.589247 
L 325.396072 44.616206 
L 332.798716 45.869431 
L 340.159712 47.347757 
L 347.472217 49.049811 
L 354.729432 50.974009 
L 361.92461 53.118563 
L 369.051063 55.481479 
L 376.102166 58.06056 
L 383.071363 60.853409 
L 389.952174 63.85743 
L 396.738204 67.069829 
L 403.423143 70.48762 
L 410.000777 74.107625 
L 416.464991 77.92648 
L 422.809774 81.940634 
L 429.029229 86.146355 
L 435.117574 90.539733 
L 441.069147 95.116684 
L 446.878417 99.872952 
L 452.539983 104.804117 
L 458.048581 109.905593 
L 463.399089 115.172638 
L 468.586535 120.600355 
L 473.606095 126.183699 
L 478.453102 131.917479 
L 483.123051 137.796363 
L 487.6116 143.814888 
L 491.914576 149.967456 
L 496.02798 156.24835 
L 499.947985 162.651729 
L 503.67095 169.17164 
L 507.193411 175.802023 
L 510.512095 182.536712 
L 513.623917 189.369448 
L 516.525982 196.293877 
L 519.215595 203.303563 
L 521.690253 210.391989 
L 523.947656 217.552564 
L 525.985706 224.778632 
L 527.802508 232.063475 
L 529.396373 239.400321 
L 530.765819 246.782348 
L 531.909573 254.202694 
L 532.826572 261.65446 
L 533.515962 269.130719 
L 533.977105 276.62452 
L 534.20957 284.128897 
L 534.213141 291.636872 
L 533.987815 299.141467 
L 533.533802 306.635703 
L 532.851524 314.112615 
L 531.941615 321.56525 
L 530.804921 328.986681 
L 529.442498 336.370007 
L 527.855614 343.708366 
L 526.045743 350.994934 
L 524.014569 358.222938 
L 521.763978 365.385657 
L 519.296065 372.476434 
L 516.613123 379.488675 
L 513.717646 386.415862 
L 510.612326 393.251555 
L 507.30005 399.989399 
L 503.783898 406.62313 
L 500.067138 413.14658 
L 496.153226 419.553685 
L 492.0458 425.838489 
L 487.748679 431.995149 
L 483.265858 438.017941 
L 478.601503 443.901265 
L 473.759953 449.639653 
L 468.745707 455.22777 
L 463.563427 460.66042 
L 458.217932 465.932553 
L 452.71419 471.039267 
L 447.057318 475.975815 
L 441.252576 480.737608 
L 435.305359 485.320219 
L 429.221197 489.719387 
L 423.005746 493.931023 
L 416.664784 497.951211 
L 410.204206 501.776214 
L 403.630019 505.402475 
L 396.948335 508.826624 
L 390.165364 512.045478 
L 383.287413 515.056043 
L 376.320877 517.855521 
L 369.272231 520.441309 
L 362.148029 522.811004 
L 354.954894 524.962402 
L 347.699512 526.893503 
L 340.38863 528.602512 
L 333.029044 530.087841 
L 325.627596 531.348108 
L 318.191167 532.382141 
L 310.72667 533.18898 
L 303.241044 533.767875 
L 295.741249 534.118286 
L 288.234258 534.239889 
L 280.727049 534.13257 
L 273.226601 533.796429 
L 265.739887 533.231778 
L 258.273869 532.439143 
L 250.835485 531.419261 
L 243.431652 530.173079 
L 236.069254 528.701756 
L 228.755133 527.00666 
L 221.496091 525.089366 
L 214.298875 522.951658 
L 207.170177 520.595523 
L 200.116624 518.023151 
L 193.144774 515.236933 
L 186.261108 512.23946 
L 179.472025 509.033518 
L 172.783837 505.622088 
L 166.202762 502.008342 
L 159.734919 498.195639 
L 153.386319 494.187523 
L 147.162866 489.987721 
L 141.070345 485.600137 
L 135.11442 481.02885 
L 129.300627 476.27811 
L 123.634373 471.352334 
L 118.120925 466.256101 
L 112.765408 460.994148 
L 107.572801 455.571368 
L 102.547932 449.992802 
L 97.695472 444.263636 
L 93.019932 438.389197 
L 88.525659 432.374946 
L 84.216832 426.226473 
L 80.097455 419.949496 
L 76.171359 413.549849 
L 72.442194 407.033482 
L 68.913426 400.406454 
L 65.588337 393.674924 
L 62.470017 386.845152 
L 59.561365 379.923487 
L 56.865085 372.916363 
L 54.383685 365.830295 
L 52.11947 358.671871 
L 50.074547 351.447745 
L 48.250815 344.164633 
L 46.649971 336.829307 
L 45.273503 329.448586 
L 44.12269 322.029332 
L 43.198603 314.578441 
L 42.5021 307.102841 
L 42.033829 299.609482 
L 41.794225 292.10533 
L 41.783511 284.597362 
L 42.001697 277.092556 
L 42.44858 269.597891 
L 43.123745 262.120334 
L 44.026563 254.666837 
L 45.156197 247.244328 
L 46.511595 239.859708 
L 48.091497 232.519843 
L 49.894435 225.231557 
L 51.918732 218.001624 
L 54.162507 210.836767 
L 56.623674 203.743645 
L 59.299944 196.728855 
L 62.188829 189.798916 
L 65.287645 182.960272 
L 68.593509 176.219281 
L 72.103349 169.582208 
L 75.813901 163.055225 
L 79.721716 156.644399 
L 83.823161 150.35569 
L 88.114423 144.194945 
L 92.591513 138.167892 
L 97.250268 132.280132 
L 102.086357 126.537141 
L 107.095284 120.944257 
L 112.272393 115.506679 
L 117.612871 110.229463 
L 123.111752 105.117515 
L 128.763925 100.175587 
L 134.564135 95.408274 
L 140.506989 90.820008 
L 146.586963 86.415053 
L 152.798405 82.197507 
L 159.135539 78.171288 
L 165.592475 74.340141 
L 172.163209 70.707627 
L 178.841634 67.277123 
L 185.621539 64.051818 
L 192.496623 61.034711 
L 199.460493 58.228607 
L 206.506675 55.636114 
L 213.62862 53.259643 
L 220.819705 51.101402 
L 228.073246 49.1634 
L 235.382498 47.447436 
L 242.740668 45.955106 
L 250.140914 44.687799 
L 257.576356 43.646691 
L 265.040083 42.832751 
L 272.525154 42.246736 
L 280.024612 41.88919 
L 287.531484 41.760446 
L 287.531484 41.760446 
" clip-path="url(#pcc53ff55c9)" style="fill: none; stroke: #f44336; stroke-width: 0.25; stroke-linecap: square"/>
   </g>
   <g id="line2d_2">
    <path d="M 288 73.44 
L 294.541278 73.539735 
L 301.076474 73.838847 
L 307.599513 74.337058 
L 314.104332 75.033905 
L 320.584882 75.928741 
L 327.035139 77.020732 
L 333.449106 78.308864 
L 339.82082 79.79194 
L 346.144358 81.468581 
L 352.413842 83.337227 
L 358.623441 85.396142 
L 364.767384 87.643412 
L 370.839959 90.076947 
L 376.83552 92.694486 
L 382.748494 95.493593 
L 388.573382 98.471669 
L 394.304771 101.625943 
L 399.937331 104.953483 
L 405.465827 108.451196 
L 410.885118 112.11583 
L 416.190166 115.943978 
L 421.376041 119.932081 
L 426.437919 124.076432 
L 431.371096 128.373178 
L 436.170985 132.818324 
L 440.833125 137.407737 
L 445.35318 142.137152 
L 449.726948 147.002171 
L 453.950364 151.998271 
L 458.019501 157.120808 
L 461.930576 162.365019 
L 465.679953 167.726029 
L 469.264146 173.198855 
L 472.679824 178.778407 
L 475.92381 184.459499 
L 478.993089 190.23685 
L 481.884808 196.105089 
L 484.596278 202.058759 
L 487.124979 208.092326 
L 489.468559 214.200181 
L 491.62484 220.376645 
L 493.591817 226.615977 
L 495.367662 232.912375 
L 496.950723 239.259987 
L 498.339529 245.652911 
L 499.532789 252.085204 
L 500.529394 258.550885 
L 501.328416 265.043945 
L 501.929114 271.558346 
L 502.330928 278.088032 
L 502.533485 284.626934 
L 502.536596 291.168971 
L 502.34026 297.708062 
L 501.944658 304.238127 
L 501.350159 310.753097 
L 500.557314 317.246914 
L 499.566861 323.71354 
L 498.379721 330.146965 
L 496.996997 336.541208 
L 495.419975 342.890323 
L 493.650121 349.188408 
L 491.689081 355.429608 
L 489.538677 361.608121 
L 487.200908 367.718202 
L 484.677949 373.754172 
L 481.972144 379.71042 
L 479.086009 385.581406 
L 476.022227 391.361674 
L 472.783647 397.04585 
L 469.373279 402.62865 
L 465.794294 408.104882 
L 462.050018 413.469457 
L 458.143934 418.717387 
L 454.079673 423.843792 
L 449.861012 428.843908 
L 445.491873 433.713086 
L 440.97632 438.446798 
L 436.318549 443.040645 
L 431.522891 447.490355 
L 426.593803 451.791792 
L 421.53587 455.940957 
L 416.353792 459.933992 
L 411.052388 463.767185 
L 405.636585 467.436973 
L 400.11142 470.939944 
L 394.482028 474.272841 
L 388.753643 477.432566 
L 382.93159 480.416181 
L 377.021282 483.220913 
L 371.028214 485.844154 
L 364.957957 488.283465 
L 358.816154 490.536579 
L 352.608516 492.601401 
L 346.340814 494.476011 
L 340.018873 496.158666 
L 333.648573 497.647803 
L 327.235834 498.942037 
L 320.786619 500.040164 
L 314.306923 500.941164 
L 307.802771 501.644199 
L 301.280208 502.148616 
L 294.745299 502.453945 
L 288.204119 502.559903 
L 281.66275 502.466391 
L 275.127272 502.173496 
L 268.603762 501.681491 
L 262.098283 500.990832 
L 255.616885 500.102163 
L 249.165592 499.016308 
L 242.750402 497.734278 
L 236.37728 496.257265 
L 230.052149 494.586641 
L 223.780891 492.72396 
L 217.569336 490.670953 
L 211.423258 488.429529 
L 205.34837 486.001772 
L 199.350322 483.389939 
L 193.434688 480.596457 
L 187.606969 477.623925 
L 181.872582 474.475105 
L 176.236859 471.152925 
L 170.705038 467.660473 
L 165.282263 464.000996 
L 159.973575 460.177897 
L 154.783909 456.194729 
L 149.718091 452.055195 
L 144.780828 447.763145 
L 139.976712 443.322567 
L 135.310209 438.737591 
L 130.785657 434.012479 
L 126.407262 429.151623 
L 122.179095 424.159543 
L 118.105087 419.040879 
L 114.189025 413.800391 
L 110.434549 408.44295 
L 106.845151 402.973537 
L 103.424167 397.397237 
L 100.174777 391.719233 
L 97.100003 385.944805 
L 94.202703 380.07932 
L 91.48557 374.128232 
L 88.951131 368.097073 
L 86.601741 361.991451 
L 84.439585 355.817041 
L 82.466673 349.579583 
L 80.684839 343.284877 
L 79.09574 336.938774 
L 77.700852 330.547174 
L 76.501473 324.11602 
L 75.498718 317.651289 
L 74.693519 311.158993 
L 74.086625 304.645166 
L 73.678599 298.115865 
L 73.469821 291.577159 
L 73.460486 285.035128 
L 73.650601 278.495853 
L 74.039991 271.965414 
L 74.628292 265.449882 
L 75.414959 258.955314 
L 76.399259 252.487748 
L 77.580278 246.053196 
L 78.956918 239.657641 
L 80.527899 233.307029 
L 82.291761 227.007263 
L 84.246863 220.7642 
L 86.391388 214.583644 
L 88.723343 208.471341 
L 91.240559 202.432974 
L 93.940696 196.474155 
L 96.821245 190.600426 
L 99.879526 184.817245 
L 103.112697 179.129991 
L 106.517752 173.54395 
L 110.091526 168.064315 
L 113.830696 162.69618 
L 117.731786 157.444537 
L 121.791169 152.314267 
L 126.005071 147.31014 
L 130.369575 142.436808 
L 134.880623 137.698802 
L 139.534022 133.100526 
L 144.325445 128.646256 
L 149.250438 124.340132 
L 154.304422 120.186157 
L 159.482698 116.188194 
L 164.780454 112.349959 
L 170.192762 108.67502 
L 175.714593 105.166795 
L 181.340812 101.828544 
L 187.066188 98.663371 
L 192.8854 95.674218 
L 198.793037 92.863865 
L 204.783607 90.234923 
L 210.85154 87.789838 
L 216.991197 85.530883 
L 223.196867 83.460156 
L 229.462784 81.579585 
L 235.783121 79.890915 
L 242.152002 78.395719 
L 248.563506 77.095385 
L 255.011674 75.991123 
L 261.490509 75.083959 
L 267.99399 74.374737 
L 274.51607 73.864115 
L 281.050685 73.552569 
L 287.591761 73.440388 
L 287.591761 73.440388 
" clip-path="url(#pcc53ff55c9)" style="fill: none; stroke: #e91e63; stroke-width: 0.25; stroke-linecap: square"/>
   </g>
  </g>
 </g>
 <defs>
  <clipPath id="pcc53ff55c9">
   <path d="M 576 288 
C 576 250.180187 568.550321 212.728123 554.077305 177.787171 
C 539.604289 142.84622 518.3894 111.095894 491.646753 84.353247 
C 464.904106 57.6106 433.15378 36.395711 398.212829 21.922695 
C 363.271877 7.449679 325.819813 0 288 0 
C 250.180187 0 212.728123 7.449679 177.787171 21.922695 
C 142.84622 36.395711 111.095894 57.6106 84.353247 84.353247 
C 57.6106 111.095894 36.395711 142.84622 21.922695 177.787171 
C 7.449679 212.728123 0 250.180187 0 288 
C 0 325.819813 7.449679 363.271877 21.922695 398.212829 
C 36.395711 433.15378 57.6106 464.904106 84.353247 491.646753 
C 111.095894 518.3894 142.84622 539.604289 177.787171 554.077305 
C 212.728123 568.550321 250.180187 576 288 576 
C 325.819813 576 363.271877 568.550321 398.212829 554.077305 
C 433.15378 539.604289 464.904106 518.3894 491.646753 491.646753 
C 518.3894 464.904106 539.604289 433.15378 554.077305 398.212829 
C 568.550321 363.271877 576 325.819813 576 288 
M 288 288 
C 288 288 288 288 288 288 
C 288 288 288 288 288 288 
C 288 288 288 288 288 288 
C 288 288 288 288 288 288 
C 288 288 288 288 288 288 
C 288 288 288 288 288 288 
C 288 288 288 288 288 288 
C 288 288 288 288 288 288 
C 288 288 288 288 288 288 
C 288 288 288 288 288 288 
C 288 288 288 288 288 288 
C 288 288 288 288 288 288 
C 288 288 288 288 288 288 
C 288 288 288 288 288 288 
C 288 288 288 288 288 288 
C 288 288 288 288 288 288 
M 576 288 
z
"/>
  </clipPath>
 </defs>
</svg>
