<?xml version="1.0" encoding="UTF-8" standalone="no"?>
<!-- Created with Inkscape (http://www.inkscape.org/) -->

<svg
   width="26.740004mm"
   height="38.391514mm"
   viewBox="0 0 26.740004 38.391514"
   version="1.1"
   id="svg166725"
   xml:space="preserve"
   inkscape:version="1.2.2 (b0a8486541, 2022-12-01)"
   sodipodi:docname="zoomed-inserts-bars.svg"
   xmlns:inkscape="http://www.inkscape.org/namespaces/inkscape"
   xmlns:sodipodi="http://sodipodi.sourceforge.net/DTD/sodipodi-0.dtd"
   xmlns="http://www.w3.org/2000/svg"
   xmlns:svg="http://www.w3.org/2000/svg"><sodipodi:namedview
     id="namedview166727"
     pagecolor="#ffffff"
     bordercolor="#000000"
     borderopacity="0.25"
     inkscape:showpageshadow="2"
     inkscape:pageopacity="0.0"
     inkscape:pagecheckerboard="0"
     inkscape:deskcolor="#d1d1d1"
     inkscape:document-units="mm"
     showgrid="false"
     showguides="true"
     inkscape:zoom="4.5203646"
     inkscape:cx="82.736689"
     inkscape:cy="84.727679"
     inkscape:window-width="1920"
     inkscape:window-height="1047"
     inkscape:window-x="1920"
     inkscape:window-y="33"
     inkscape:window-maximized="1"
     inkscape:current-layer="layer1" /><defs
     id="defs166722"><style
       type="text/css"
       id="style274728">*{stroke-linejoin: round; stroke-linecap: butt}</style><clipPath
       id="ped997a31d9"><path
         d="M 576,288 C 576,250.18019 568.55032,212.72812 554.07731,177.78717 539.60429,142.84622 518.3894,111.09589 491.64675,84.353247 464.90411,57.6106 433.15378,36.395711 398.21283,21.922695 363.27188,7.449679 325.81981,0 288,0 250.18019,0 212.72812,7.449679 177.78717,21.922695 142.84622,36.395711 111.09589,57.6106 84.353247,84.353247 57.6106,111.09589 36.395711,142.84622 21.922695,177.78717 7.449679,212.72812 0,250.18019 0,288 c 0,37.81981 7.449679,75.27188 21.922695,110.21283 14.473016,34.94095 35.687905,66.69128 62.430552,93.43392 26.742643,26.74265 58.492973,47.95754 93.433923,62.43056 C 212.72812,568.55032 250.18019,576 288,576 c 37.81981,0 75.27188,-7.44968 110.21283,-21.92269 34.94095,-14.47302 66.69128,-35.68791 93.43392,-62.43056 26.74265,-26.74264 47.95754,-58.49297 62.43056,-93.43392 C 568.55032,363.27188 576,325.81981 576,288 m -288,0 c 0,0 0,0 0,0 0,0 0,0 0,0 0,0 0,0 0,0 0,0 0,0 0,0 0,0 0,0 0,0 0,0 0,0 0,0 0,0 0,0 0,0 0,0 0,0 0,0 0,0 0,0 0,0 0,0 0,0 0,0 0,0 0,0 0,0 0,0 0,0 0,0 0,0 0,0 0,0 0,0 0,0 0,0 0,0 0,0 0,0 0,0 0,0 0,0 m 288,0 z"
         id="path275318" /></clipPath><inkscape:path-effect
       effect="spiro"
       id="path-effect166705"
       is_visible="true"
       lpeversion="1" /></defs><g
     inkscape:label="Layer 1"
     inkscape:groupmode="layer"
     id="layer1"
     transform="translate(-91.629998,49.345758)"><g
       id="patch_15"
       transform="matrix(0.35277778,0,0,0.35277778,3.3999994,-49.345759)"><path
         d="m 295.4606,28.907392 c 0.21945,0.0063 0.43889,0.01292 0.65833,0.01979 0.21943,0.0069 0.43885,0.01403 0.65827,0.02147 l 0.0975,-2.878348 c -0.22185,-0.0075 -0.44371,-0.01475 -0.66558,-0.02171 -0.22187,-0.007 -0.44375,-0.01362 -0.66564,-0.02001 z"
         clip-path="url(#ped997a31d9)"
         style="fill:#2f6c8e"
         id="path274774" /></g><g
       id="patch_23"
       transform="matrix(0.35277778,0,0,0.35277778,3.3999994,-49.345759)"><path
         d="m 291.71531,86.434238 c 0.17073,0.0031 0.34145,0.0065 0.51216,0.01009 0.17072,0.0036 0.34143,0.0074 0.51214,0.01139 l -0.0677,2.879204 c -0.16827,-0.004 -0.33654,-0.0077 -0.50482,-0.01123 -0.16828,-0.0035 -0.33656,-0.0068 -0.50484,-0.0099 z"
         clip-path="url(#ped997a31d9)"
         style="fill:#440154"
         id="path274798" /></g><g
       id="patch_32"
       transform="matrix(0.35277778,0,0,0.35277778,3.3999994,-49.345759)"><path
         d="m 305.95711,87.201339 c 0.17007,0.01521 0.34012,0.03063 0.51016,0.04628 0.17004,0.01564 0.34005,0.0315 0.51005,0.04757 l -0.27111,2.867212 c -0.16757,-0.01584 -0.33515,-0.03148 -0.50276,-0.04689 -0.1676,-0.01542 -0.33523,-0.03062 -0.50287,-0.04562 z"
         clip-path="url(#ped997a31d9)"
         style="fill:#33628d"
         id="path274825" /></g><g
       id="patch_34"
       transform="matrix(0.35277778,0,0,0.35277778,3.3999994,-49.345759)"><path
         d="m 284.98833,28.817497 c 0.21953,-0.0026 0.43906,-0.0048 0.65858,-0.0068 0.21954,-0.002 0.43907,-0.0037 0.65861,-0.0051 l -0.0188,-2.879939 c -0.22198,0.0015 -0.44395,0.0032 -0.66592,0.0052 -0.22197,0.002 -0.44394,0.0043 -0.6659,0.0069 z"
         clip-path="url(#ped997a31d9)"
         style="fill:#46307e"
         id="path274831" /></g><g
       id="patch_36"
       transform="matrix(0.35277778,0,0,0.35277778,3.3999994,-49.345759)"><path
         d="m 313.72106,41.65916 c 0.20865,0.02179 0.41727,0.04384 0.62586,0.06615 0.20859,0.02232 0.41715,0.0449 0.62569,0.06774 l 0.31363,-2.862871 c -0.21096,-0.02311 -0.42194,-0.04595 -0.63296,-0.06853 -0.21102,-0.02257 -0.42207,-0.04488 -0.63314,-0.06692 z"
         clip-path="url(#ped997a31d9)"
         style="fill:#433e85"
         id="path274837" /></g><g
       id="patch_39"
       transform="matrix(0.35277778,0,0,0.35277778,3.3999994,-49.345759)"><path
         d="m 273.31771,75.386348 c 0.18008,-0.01243 0.36018,-0.02464 0.5403,-0.03662 0.18011,-0.01198 0.36024,-0.02373 0.54038,-0.03525 l 0.18381,2.874128 c -0.17771,0.01136 -0.35541,0.02296 -0.53309,0.03477 -0.17767,0.01182 -0.35534,0.02386 -0.53299,0.03613 z"
         clip-path="url(#ped997a31d9)"
         style="fill:#472c7a"
         id="path274846" /></g><g
       id="patch_42"
       transform="matrix(0.35277778,0,0,0.35277778,3.3999994,-49.345759)"><path
         d="m 264.01901,76.233509 c 0.17937,-0.02031 0.35876,-0.0404 0.53817,-0.06025 0.17942,-0.01986 0.35886,-0.03948 0.53832,-0.05888 l 0.30952,2.863319 c -0.17704,0.01914 -0.35405,0.0385 -0.53104,0.05809 -0.17699,0.01959 -0.35396,0.0394 -0.5309,0.05944 z"
         clip-path="url(#ped997a31d9)"
         style="fill:#443a83"
         id="path274855" /></g><g
       id="patch_57"
       transform="matrix(0.35277778,0,0,0.35277778,3.3999994,-49.345759)"><path
         d="m 291.32537,40.342324 c 0.20977,0.0028 0.41953,0.0059 0.62928,0.0093 0.20976,0.0033 0.41951,0.007 0.62926,0.01085 l 0.0533,-2.879507 c -0.21219,-0.0039 -0.42438,-0.0076 -0.63657,-0.01097 -0.2122,-0.0034 -0.4244,-0.0065 -0.6366,-0.0094 z"
         clip-path="url(#ped997a31d9)"
         style="fill:#453581"
         id="path274900" /></g><g
       id="patch_58"
       transform="matrix(0.35277778,0,0,0.35277778,3.3999994,-49.345759)"><path
         d="m 285.12218,40.336719 c 0.20977,-0.0024 0.41954,-0.0046 0.62932,-0.0065 0.20977,-0.0019 0.41955,-0.0035 0.62933,-0.0049 l -0.0188,-2.879939 c -0.21222,0.0014 -0.42444,0.003 -0.63665,0.005 -0.21221,0.0019 -0.42442,0.0041 -0.63663,0.0066 z"
         clip-path="url(#ped997a31d9)"
         style="fill:#450457"
         id="path274903" /></g><g
       id="patch_62"
       transform="matrix(0.35277778,0,0,0.35277778,3.3999994,-49.345759)"><path
         d="m 273.62454,81.138897 c 0.17521,-0.01218 0.35044,-0.02413 0.52568,-0.03586 0.17524,-0.01173 0.35049,-0.02324 0.52576,-0.03452 l 0.18506,2.874049 c -0.17284,0.01113 -0.34566,0.02248 -0.51847,0.03404 -0.1728,0.01157 -0.34559,0.02335 -0.51837,0.03536 z"
         clip-path="url(#ped997a31d9)"
         style="fill:#27808e"
         id="path274915" /></g><g
       id="patch_65"
       transform="matrix(0.35277778,0,0,0.35277778,3.3999994,-49.345759)"><path
         d="m 290.61881,80.656538 c 0.17562,0.0022 0.35124,0.0047 0.52685,0.0073 0.17561,0.0027 0.35122,0.0056 0.52682,0.0087 l -0.051,2.879548 c -0.17317,-0.0031 -0.34634,-0.0059 -0.51951,-0.0085 -0.17317,-0.0026 -0.34635,-0.005 -0.51953,-0.0072 z"
         clip-path="url(#ped997a31d9)"
         style="fill:#3e4c8a"
         id="path274924" /></g><g
       id="patch_66"
       transform="matrix(0.35277778,0,0,0.35277778,3.3999994,-49.345759)"><path
         d="m 291.32162,80.666606 c 0.17561,0.0028 0.35122,0.0058 0.52682,0.0091 0.1756,0.0033 0.3512,0.0067 0.52679,0.01045 l -0.0608,2.879359 c -0.17315,-0.0037 -0.34631,-0.0071 -0.51947,-0.0103 -0.17317,-0.0032 -0.34633,-0.0062 -0.5195,-0.009 z"
         clip-path="url(#ped997a31d9)"
         style="fill:#2fb47c"
         id="path274927" /></g><g
       id="patch_67"
       transform="matrix(0.35277778,0,0,0.35277778,3.3999994,-49.345759)"><path
         d="m 262.27729,35.868733 c 0.21355,-0.02179 0.42713,-0.0433 0.64074,-0.06455 0.21361,-0.02125 0.42724,-0.04222 0.6409,-0.06292 l -0.27774,-2.866576 c -0.21609,0.02094 -0.43215,0.04215 -0.64818,0.06363 -0.21604,0.02149 -0.43205,0.04325 -0.64803,0.06528 z"
         clip-path="url(#ped997a31d9)"
         style="fill:#40bd72"
         id="path274930" /></g><g
       id="patch_69"
       transform="matrix(0.35277778,0,0,0.35277778,3.3999994,-49.345759)"><path
         d="m 291.19948,34.580196 c 0.21465,0.0027 0.42929,0.0057 0.64393,0.0089 0.21463,0.0033 0.42926,0.0068 0.64389,0.01058 l 0.051,-2.879548 c -0.21706,-0.0038 -0.43413,-0.0074 -0.65121,-0.0107 -0.21708,-0.0033 -0.43416,-0.0063 -0.65124,-0.009 z"
         clip-path="url(#ped997a31d9)"
         style="fill:#20928c"
         id="path274936" /></g><g
       id="patch_72"
       transform="matrix(0.35277778,0,0,0.35277778,3.3999994,-49.345759)"><path
         d="m 260.25315,36.083455 c 0.21337,-0.0235 0.42677,-0.04673 0.6402,-0.06969 0.21343,-0.02296 0.42689,-0.04565 0.64037,-0.06806 l -0.30075,-2.864254 c -0.21591,0.02267 -0.4318,0.04562 -0.64765,0.06884 -0.21586,0.02322 -0.43168,0.04671 -0.64748,0.07048 z"
         clip-path="url(#ped997a31d9)"
         style="fill:#453781"
         id="path274945" /></g><g
       id="patch_74"
       transform="matrix(0.35277778,0,0,0.35277778,3.3999994,-49.345759)"><path
         d="m 259.72115,36.14262 c 0.21332,-0.02395 0.42667,-0.04763 0.64005,-0.07104 0.21338,-0.02341 0.42679,-0.04655 0.64023,-0.06942 l -0.3068,-2.863612 c -0.21587,0.02313 -0.4317,0.04653 -0.64751,0.07021 -0.2158,0.02368 -0.43158,0.04763 -0.64732,0.07185 z"
         clip-path="url(#ped997a31d9)"
         style="fill:#34608d"
         id="path274951" /></g><g
       id="patch_81"
       transform="matrix(0.35277778,0,0,0.35277778,3.3999994,-49.345759)"><path
         d="m 285.05526,34.577108 c 0.21464,-0.0025 0.42929,-0.0047 0.64395,-0.0067 0.21465,-0.0019 0.4293,-0.0036 0.64396,-0.005 l -0.0188,-2.879939 c -0.21709,0.0014 -0.43419,0.0031 -0.65128,0.0051 -0.21709,0.002 -0.43418,0.0042 -0.65127,0.0067 z"
         clip-path="url(#ped997a31d9)"
         style="fill:#2f6c8e"
         id="path274972" /></g><g
       id="patch_85"
       transform="matrix(0.35277778,0,0,0.35277778,3.3999994,-49.345759)"><path
         d="m 290.64299,89.297577 c 0.1683,0.0022 0.33659,0.0047 0.50489,0.0074 0.16829,0.0027 0.33658,0.0055 0.50487,0.0086 l -0.0529,2.879513 c -0.16585,-0.003 -0.3317,-0.0059 -0.49755,-0.0085 -0.16586,-0.0026 -0.33171,-0.005 -0.49757,-0.0073 z"
         clip-path="url(#ped997a31d9)"
         style="fill:#2c728e"
         id="path274984" /></g><g
       id="patch_91"
       transform="matrix(0.35277778,0,0,0.35277778,3.3999994,-49.345759)"><path
         d="m 284.61553,25.941854 c 0.22196,-0.0029 0.44393,-0.0055 0.66589,-0.0078 0.22197,-0.0023 0.44394,-0.0043 0.66591,-0.0061 l -0.0226,-2.879912 c -0.22441,0.0018 -0.44882,0.0038 -0.67323,0.0061 -0.22441,0.0023 -0.44881,0.0049 -0.67321,0.0078 z"
         clip-path="url(#ped997a31d9)"
         style="fill:#218e8d"
         id="path275002" /></g><g
       id="patch_108"
       transform="matrix(0.35277778,0,0,0.35277778,3.3999994,-49.345759)"><path
         d="m 273.95515,89.776943 c 0.16789,-0.0119 0.3358,-0.02358 0.50372,-0.03505 0.16792,-0.01147 0.33586,-0.02272 0.50381,-0.03377 l 0.18895,2.873796 c -0.16552,0.01088 -0.33102,0.02197 -0.49651,0.03328 -0.16549,0.0113 -0.33096,0.02282 -0.49642,0.03454 z"
         clip-path="url(#ped997a31d9)"
         style="fill:#228b8d"
         id="path275053" /></g><g
       id="patch_113"
       transform="matrix(0.35277778,0,0,0.35277778,3.3999994,-49.345759)"><path
         d="m 259.32762,27.493146 c 0.22065,-0.02428 0.44132,-0.04829 0.66203,-0.07201 0.22071,-0.02372 0.44145,-0.04717 0.66221,-0.07033 l -0.30053,-2.864277 c -0.22319,0.02342 -0.44635,0.04712 -0.66949,0.0711 -0.22313,0.02399 -0.44623,0.04825 -0.6693,0.07281 z"
         clip-path="url(#ped997a31d9)"
         style="fill:#48c16e"
         id="path275068" /></g><g
       id="patch_115"
       transform="matrix(0.35277778,0,0,0.35277778,3.3999994,-49.345759)"><path
         d="m 266.40476,90.45688 c 0.16732,-0.01829 0.33466,-0.03637 0.50202,-0.05423 0.16737,-0.01787 0.33475,-0.03552 0.50216,-0.05296 l 0.29842,2.864497 c -0.16498,0.01719 -0.32994,0.03458 -0.49488,0.05219 -0.16494,0.01761 -0.32985,0.03542 -0.49474,0.05345 z"
         clip-path="url(#ped997a31d9)"
         style="fill:#482576"
         id="path275074" /></g><g
       id="patch_127"
       transform="matrix(0.35277778,0,0,0.35277778,3.3999994,-49.345759)"><path
         d="m 295.58761,77.896964 c 0.17795,0.0064 0.3559,0.01308 0.53384,0.01996 0.17794,0.0069 0.35587,0.01398 0.53379,0.02132 l -0.11857,2.877558 c -0.17548,-0.0072 -0.35097,-0.01424 -0.52647,-0.02102 -0.17551,-0.0068 -0.35102,-0.01335 -0.52653,-0.01968 z"
         clip-path="url(#ped997a31d9)"
         style="fill:#22a785"
         id="path275110" /></g><g
       id="patch_130"
       transform="matrix(0.35277778,0,0,0.35277778,3.3999994,-49.345759)"><path
         d="m 273.48031,78.261982 c 0.17765,-0.0123 0.35531,-0.02437 0.53298,-0.03622 0.17768,-0.01185 0.35537,-0.02347 0.53308,-0.03486 l 0.18429,2.874098 c -0.17527,0.01124 -0.35053,0.0227 -0.52577,0.03439 -0.17524,0.01168 -0.35047,0.02359 -0.52568,0.03572 z"
         clip-path="url(#ped997a31d9)"
         style="fill:#471164"
         id="path275119" /></g><g
       id="patch_145"
       transform="matrix(0.35277778,0,0,0.35277778,3.3999994,-49.345759)"><path
         d="m 275.69998,37.742087 c 0.21196,-0.01042 0.42394,-0.02057 0.63593,-0.03045 0.212,-0.0099 0.424,-0.01949 0.63602,-0.02883 l -0.12676,-2.877209 c -0.21446,0.0094 -0.4289,0.01917 -0.64333,0.02916 -0.21442,0.01 -0.42884,0.02026 -0.64324,0.0308 z"
         clip-path="url(#ped997a31d9)"
         style="fill:#2c718e"
         id="path275164" /></g><g
       id="patch_154"
       transform="matrix(0.35277778,0,0,0.35277778,3.3999994,-49.345759)"><path
         d="m 259.44,39.073022 c 0.21084,-0.02419 0.42171,-0.04811 0.63261,-0.07177 0.2109,-0.02365 0.42183,-0.04704 0.63279,-0.07016 l -0.31373,-2.862861 c -0.21338,0.02338 -0.42674,0.04704 -0.64006,0.07097 -0.21333,0.02393 -0.42662,0.04812 -0.63988,0.07259 z"
         clip-path="url(#ped997a31d9)"
         style="fill:#277e8e"
         id="path275191" /></g><g
       id="patch_166"
       transform="matrix(0.35277778,0,0,0.35277778,3.3999994,-49.345759)"><path
         d="m 274.35829,78.203047 c 0.1777,-0.01155 0.35541,-0.02288 0.53313,-0.03399 0.17773,-0.0111 0.35547,-0.02198 0.53322,-0.03263 l 0.17226,2.874844 c -0.17532,0.0105 -0.35062,0.02123 -0.52591,0.03218 -0.17529,0.01095 -0.35057,0.02212 -0.52583,0.03352 z"
         clip-path="url(#ped997a31d9)"
         style="fill:#23a983"
         id="path275227" /></g><g
       id="patch_177"
       transform="matrix(0.35277778,0,0,0.35277778,3.3999994,-49.345759)"><path
         d="m 273.84556,84.010485 c 0.17277,-0.01199 0.34557,-0.02376 0.51837,-0.03531 0.17281,-0.01155 0.34563,-0.02288 0.51847,-0.03399 l 0.18475,2.874067 c -0.1704,0.01095 -0.34079,0.02213 -0.51116,0.03351 -0.17037,0.01139 -0.34073,0.02299 -0.51107,0.03481 z"
         clip-path="url(#ped997a31d9)"
         style="fill:#2b758e"
         id="path275260" /></g><g
       id="matplotlib.axis_1"
       transform="matrix(0.35277778,0,0,0.35277778,3.3999994,10.4501)" /><g
       id="matplotlib.axis_2"
       transform="matrix(0.35277778,0,0,0.35277778,3.3999994,10.4501)" /><path
       id="path166703"
       style="fill:none;stroke:#000000;stroke-width:0.264583px;stroke-linecap:butt;stroke-linejoin:miter;stroke-opacity:1"
       d="m 91.760278,-47.831396 c 5.340079,-1.127379 10.824552,-1.568922 16.276212,-1.310361 3.42885,0.162623 6.84456,0.60129 10.20323,1.310361 m -6.47941,36.746315 c -2.23685,-0.334612 -4.49857,-0.502843 -6.76031,-0.502844 -2.26175,-10e-7 -4.52349,0.16823 -6.760354,0.502844 m 2e-6,-10e-7 -6.479368,-36.746314 m 20.00003,36.746314 6.47941,-36.746314"
       inkscape:original-d="m 91.760278,-47.831396 c 5.425669,-0.436522 10.851072,-0.873309 16.276212,-1.310361 5.42514,-0.437052 6.80242,0.873839 10.20323,1.310361 m -6.47941,36.746315 c -4.11837,0.0079 -2.64141,-0.510224 -6.76031,-0.502844 -4.11891,0.0074 -6.371837,0.510754 -6.760354,0.502844 m 2e-6,-10e-7 -6.479368,-36.746314 m 20.00003,36.746314 6.47941,-36.746314"
       inkscape:path-effect="#path-effect166705" /></g></svg>
